<svg width="150" height="150" viewBox="0 0 150 150" fill="none" xmlns="http://www.w3.org/2000/svg">
<path d="M77.2238 127.528C87.1388 112.853 94.9988 98.4025 102.704 82.3525C115.099 93.0925 128.234 102.908 141.974 111.698" fill="white"/>
<path d="M77.8838 127.912C85.4088 116.767 92.1238 105.107 98.2288 93.1271C99.9838 89.6821 101.689 86.2171 103.364 82.7321C102.964 82.7821 102.564 82.8371 102.164 82.8871C111.844 91.2671 121.994 99.1171 132.554 106.362C135.534 108.407 138.549 110.402 141.589 112.352C142.419 112.882 143.189 111.562 142.359 111.032C131.664 104.182 121.349 96.7421 111.494 88.7321C108.709 86.4671 105.959 84.1571 103.244 81.8071C102.904 81.5121 102.269 81.4871 102.044 81.9621C96.2188 94.0971 89.9388 106.017 82.8388 117.457C80.8088 120.727 78.7188 123.952 76.5638 127.142C76.0088 127.957 77.3338 128.722 77.8838 127.912Z" fill="#2E3F6B"/>
<path d="M22.5987 119.437C29.0887 111.077 35.6087 102.747 42.1337 94.4174C48.7237 86.0124 55.3187 77.6074 61.8987 69.1924C65.5437 64.5324 69.1787 59.8674 72.8037 55.1974C72.4487 55.1974 72.0987 55.1974 71.7437 55.1974C79.0437 63.6524 86.1937 72.2374 93.2987 80.8574C95.2287 83.1974 97.1587 85.5424 99.0887 87.8824C99.7037 88.6274 100.759 87.5624 100.149 86.8224C93.2337 78.4274 86.3287 70.0224 79.2937 61.7274C77.1437 59.1874 74.9787 56.6574 72.8037 54.1374C72.5637 53.8574 71.9787 53.8324 71.7437 54.1374C65.2537 62.4974 58.7337 70.8274 52.2087 79.1574C45.6187 87.5624 39.0237 95.9674 32.4437 104.382C28.7987 109.042 25.1637 113.707 21.5387 118.377C20.9537 119.127 22.0087 120.197 22.5987 119.437Z" fill="#2E3F6B"/>
<path d="M73.1137 54.6467C73.2837 49.6617 73.2937 44.6817 73.2087 39.6967C72.7837 39.8717 72.3537 40.0517 71.9287 40.2267C74.6237 42.3867 77.6737 44.0117 80.9837 45.0117C80.9837 44.5317 80.9837 44.0467 80.9837 43.5667C78.1587 44.4667 75.2537 45.0717 72.4337 45.9717C71.5187 46.2617 71.9087 47.7117 72.8337 47.4167C75.6587 46.5167 78.5637 45.9117 81.3837 45.0117C82.0887 44.7867 82.1037 43.7817 81.3837 43.5667C78.3387 42.6467 75.4787 41.1567 72.9937 39.1667C72.5187 38.7867 71.7037 38.9917 71.7137 39.6967C71.7987 44.6817 71.7887 49.6617 71.6187 54.6467C71.5787 55.6117 73.0787 55.6117 73.1137 54.6467Z" fill="#2E3F6B"/>
<path d="M9.65879 93.2724C17.7088 88.4324 24.8638 82.1174 30.6438 74.7124C32.2738 72.6274 33.7938 70.4624 35.2038 68.2224C34.8638 68.3124 34.5188 68.4024 34.1788 68.4924C40.2588 72.3874 46.3388 76.2874 52.4188 80.1824C53.2338 80.7024 53.9888 79.4074 53.1738 78.8874C47.0938 74.9924 41.0138 71.0924 34.9338 67.1974C34.5838 66.9724 34.1188 67.1324 33.9088 67.4674C29.0338 75.2224 22.7338 82.0974 15.4088 87.6024C13.3188 89.1724 11.1438 90.6324 8.90379 91.9824C8.07379 92.4774 8.82879 93.7724 9.65879 93.2724Z" fill="#2E3F6B"/>
<path d="M92.3588 102.372C93.7838 103.417 95.2088 104.462 96.6338 105.507C96.9388 105.727 97.4738 105.572 97.6338 105.247C98.6738 103.137 99.7138 101.022 100.754 98.9125C100.419 98.9975 100.089 99.0875 99.7538 99.1725C101.419 100.422 103.084 101.672 104.744 102.922C105.049 103.152 105.579 102.982 105.744 102.662C106.544 101.132 107.344 99.5975 108.144 98.0675C108.524 97.3375 108.899 96.6025 109.284 95.8775C109.399 95.6625 109.544 95.2825 109.769 95.1525C110.079 94.9725 110.424 95.2625 110.669 95.4475C113.389 97.4775 115.959 99.7375 118.594 101.872C118.959 102.172 119.474 102.157 119.744 101.722C120.474 100.542 121.209 99.3575 121.939 98.1775C122.434 97.3775 121.174 96.6425 120.679 97.4375C119.949 98.6175 119.214 99.8025 118.484 100.982C118.869 100.932 119.249 100.882 119.634 100.832C118.104 99.5925 116.574 98.3525 115.044 97.1075C114.279 96.4875 113.514 95.8675 112.749 95.2475C112.074 94.7025 111.379 93.9675 110.534 93.7025C108.699 93.1275 107.939 95.2975 107.284 96.5525C106.349 98.3375 105.419 100.127 104.484 101.912C104.819 101.827 105.149 101.737 105.484 101.652C103.819 100.402 102.154 99.1525 100.494 97.9025C100.194 97.6775 99.6538 97.8425 99.4938 98.1625C98.4538 100.272 97.4138 102.387 96.3738 104.497C96.7088 104.412 97.0388 104.322 97.3738 104.237C95.9488 103.192 94.5238 102.147 93.0988 101.102C92.3388 100.552 91.6088 101.822 92.3588 102.372Z" fill="#2E3F6B"/>
<path d="M24.9888 80.0819C25.9338 81.9669 26.8738 83.8569 27.8188 85.7419C28.0338 86.1769 28.6738 86.2219 28.9988 85.8919C30.8038 84.0519 32.6038 82.2169 34.4088 80.3769C34.0538 80.3769 33.7038 80.3769 33.3488 80.3769C34.9488 81.7519 36.5488 83.1269 38.1488 84.5019C38.5388 84.8369 39.0288 84.7619 39.3288 84.3519C40.5588 82.6419 42.3438 81.4219 43.5788 79.7069C43.2988 79.8219 43.0138 79.9369 42.7338 80.0519C44.9988 80.9219 47.1288 82.0869 49.3888 82.9569C50.2888 83.3019 50.6788 81.8519 49.7888 81.5119C47.5238 80.6419 45.3938 79.4769 43.1338 78.6069C42.8038 78.4819 42.4688 78.6969 42.2888 78.9519C41.0588 80.6619 39.2738 81.8819 38.0388 83.5969C38.4338 83.5469 38.8238 83.4969 39.2188 83.4469C37.6188 82.0719 36.0188 80.6969 34.4188 79.3219C34.1138 79.0619 33.6588 79.0169 33.3588 79.3219C31.5538 81.1619 29.7538 82.9969 27.9488 84.8369C28.3438 84.8869 28.7338 84.9369 29.1288 84.9869C28.1838 83.1019 27.2438 81.2119 26.2988 79.3269C25.8488 78.4619 24.5538 79.2219 24.9888 80.0819Z" fill="#2E3F6B"/>
<path d="M60.8438 69.8677C61.5588 71.5027 62.2738 73.1427 62.9888 74.7777C63.2038 75.2727 64.0638 75.2627 64.2838 74.7777C65.4188 72.2827 66.7438 69.8827 68.2438 67.5877C67.8138 67.5877 67.3788 67.5877 66.9488 67.5877C68.2938 69.9427 69.6438 72.3027 70.9888 74.6577C71.1738 74.9827 71.6938 75.1677 72.0138 74.9277C73.8488 73.5527 75.0138 71.5427 76.4388 69.7877C76.0838 69.7877 75.7338 69.7877 75.3788 69.7877C76.8538 71.3677 78.1388 73.2077 79.8438 74.5577C80.1838 74.8277 80.7938 74.8877 81.0238 74.4077C81.9988 72.3277 82.8688 70.2177 83.6038 68.0377C83.9138 67.1227 82.4638 66.7277 82.1588 67.6377C81.4638 69.6927 80.6488 71.6827 79.7288 73.6477C80.1238 73.5977 80.5138 73.5477 80.9088 73.4977C79.2088 72.1527 77.9188 70.3077 76.4438 68.7277C76.1888 68.4527 75.6338 68.4227 75.3838 68.7277C74.0588 70.3577 72.9638 72.3577 71.2638 73.6327C71.6038 73.7227 71.9488 73.8127 72.2888 73.9027C70.9438 71.5477 69.5938 69.1877 68.2488 66.8327C67.9588 66.3227 67.2538 66.3727 66.9538 66.8327C65.4538 69.1277 64.1288 71.5277 62.9938 74.0227C63.4238 74.0227 63.8588 74.0227 64.2888 74.0227C63.5738 72.3877 62.8588 70.7477 62.1438 69.1127C61.7538 68.2277 60.4588 68.9877 60.8438 69.8677Z" fill="#2E3F6B"/>
<path d="M50.0138 99.5473C49.1488 101.687 47.5738 103.477 45.5938 104.657C45.0388 104.987 45.1488 105.852 45.7738 106.027C47.0938 106.402 48.4688 106.387 49.7788 105.977C49.5338 105.557 49.2938 105.142 49.0488 104.722C47.1788 106.252 45.3088 107.777 43.4438 109.307C42.7938 109.837 43.5288 110.657 44.1738 110.562C45.7888 110.322 47.4038 110.077 49.0138 109.837C48.7688 109.417 48.5288 109.002 48.2838 108.582C46.2088 110.297 44.1388 112.012 42.0638 113.727C41.4488 114.232 42.1188 115.137 42.7938 114.982C47.7238 113.822 52.7788 113.342 57.8438 113.542C58.3788 113.562 58.8238 112.877 58.4938 112.412C56.9938 110.317 54.8938 108.782 52.4188 108.037C52.3538 108.527 52.2838 109.017 52.2188 109.512C53.8488 109.307 55.4838 109.107 57.1138 108.902C57.8338 108.812 58.1588 107.942 57.4938 107.502C55.7738 106.372 54.0538 105.242 52.3338 104.117C52.2738 104.572 52.2138 105.032 52.1538 105.487C52.7838 105.307 53.4188 105.132 54.0488 104.952C54.5738 104.802 54.8038 104.087 54.3788 103.697C53.1188 102.532 52.1038 101.132 51.4488 99.5373C51.0888 98.6573 49.6388 99.0423 50.0038 99.9373C50.7538 101.777 51.8538 103.407 53.3188 104.757C53.4288 104.337 53.5388 103.922 53.6488 103.502C53.0188 103.682 52.3838 103.857 51.7538 104.037C51.1088 104.217 51.0438 105.057 51.5738 105.407C53.2938 106.537 55.0138 107.667 56.7338 108.792C56.8588 108.327 56.9838 107.862 57.1138 107.392C55.4838 107.597 53.8488 107.797 52.2188 108.002C51.4188 108.102 51.1538 109.212 52.0188 109.477C54.0938 110.107 55.9288 111.397 57.1938 113.167C57.4088 112.792 57.6238 112.417 57.8438 112.037C52.6538 111.837 47.4538 112.342 42.3988 113.532C42.6438 113.952 42.8838 114.367 43.1288 114.787C45.2038 113.072 47.2738 111.357 49.3488 109.642C49.9938 109.107 49.2638 108.292 48.6188 108.387C47.0038 108.627 45.3888 108.872 43.7788 109.112C44.0238 109.532 44.2638 109.947 44.5088 110.367C46.3788 108.837 48.2488 107.312 50.1138 105.782C50.7038 105.302 50.0688 104.312 49.3838 104.527C48.3138 104.862 47.2538 104.882 46.1788 104.577C46.2388 105.032 46.2988 105.492 46.3588 105.947C48.6938 104.552 50.4488 102.457 51.4688 99.9423C51.8238 99.0473 50.3738 98.6623 50.0138 99.5473Z" fill="#2E3F6B"/>
<path d="M50.0688 113.563C50.2088 117.828 50.3538 122.098 50.4938 126.363C50.5238 127.328 52.0238 127.328 51.9938 126.363C51.8538 122.098 51.7088 117.828 51.5688 113.563C51.5388 112.598 50.0388 112.593 50.0688 113.563Z" fill="#2E3F6B"/>
<path d="M58.2338 107.012C58.1038 109.277 57.2538 111.472 55.7988 113.217C55.4388 113.647 55.6138 114.587 56.3288 114.497C57.1188 114.397 57.9138 114.292 58.7038 114.192C58.5288 113.767 58.3488 113.337 58.1738 112.912C56.7988 114.417 55.4188 115.922 54.0438 117.427C53.5188 118.002 54.0438 118.817 54.7738 118.682C56.2038 118.417 57.5688 117.942 58.8638 117.282C58.5238 116.942 58.1788 116.597 57.8388 116.257C56.7688 118.262 55.3338 119.992 53.5688 121.417C52.9888 121.882 53.6138 122.922 54.2988 122.672C58.2038 121.247 62.2788 120.327 66.4238 119.972C67.1988 119.907 67.4038 119.027 66.8038 118.572C65.5188 117.607 64.2288 116.642 62.9438 115.677C62.8838 116.132 62.8238 116.592 62.7638 117.047C63.8488 116.897 64.9338 116.742 66.0188 116.592C66.5938 116.512 66.7188 115.692 66.3488 115.337C64.9888 114.027 63.4538 112.922 61.7688 112.062C61.7088 112.517 61.6488 112.977 61.5888 113.432C62.3488 113.262 63.1088 113.092 63.8688 112.917C64.4688 112.782 64.6288 111.822 64.0488 111.547C61.9788 110.562 60.3338 108.842 59.5388 106.682C59.2088 105.782 57.7588 106.172 58.0938 107.082C59.0238 109.597 60.8638 111.687 63.2938 112.842C63.3538 112.387 63.4138 111.927 63.4738 111.472C62.7138 111.642 61.9538 111.812 61.1938 111.987C60.5788 112.127 60.4438 113.067 61.0138 113.357C62.5888 114.157 64.0188 115.167 65.2888 116.397C65.3988 115.977 65.5088 115.562 65.6188 115.142C64.5338 115.292 63.4488 115.447 62.3638 115.597C61.6438 115.697 61.7438 116.637 62.1838 116.967C63.4688 117.932 64.7588 118.897 66.0438 119.862C66.1688 119.397 66.2938 118.932 66.4238 118.462C62.1438 118.827 57.9388 119.742 53.8988 121.212C54.1438 121.632 54.3838 122.047 54.6288 122.467C56.4838 120.967 58.0138 119.107 59.1338 117.002C59.4938 116.327 58.7788 115.637 58.1088 115.977C56.9288 116.577 55.6838 116.987 54.3788 117.227C54.6238 117.647 54.8638 118.062 55.1088 118.482C56.4838 116.977 57.8638 115.472 59.2388 113.967C59.6288 113.542 59.4038 112.597 58.7088 112.687C57.9188 112.787 57.1238 112.892 56.3338 112.992C56.5088 113.417 56.6888 113.847 56.8638 114.272C58.5888 112.202 59.5888 109.697 59.7388 107.007C59.7888 106.047 58.2888 106.052 58.2338 107.012Z" fill="#2E3F6B"/>
<path d="M60.3087 120.188C60.6287 122.608 60.9487 125.027 61.2687 127.447C61.3237 127.847 61.5737 128.197 62.0187 128.197C62.3837 128.197 62.8237 127.852 62.7687 127.447C62.4487 125.027 62.1287 122.608 61.8087 120.188C61.7537 119.787 61.5037 119.438 61.0587 119.438C60.6987 119.438 60.2587 119.782 60.3087 120.188Z" fill="#2E3F6B"/>
<path d="M5.03373 112.118C13.5987 116.668 22.6337 120.323 31.9387 123.048C41.2487 125.773 50.8287 127.568 60.4887 128.463C70.1687 129.358 79.9287 129.323 89.6037 128.373C99.2187 127.428 108.754 125.588 118.014 122.828C127.304 120.063 136.329 116.378 144.874 111.803C145.929 111.238 146.974 110.658 148.014 110.068C148.854 109.593 148.099 108.293 147.259 108.773C138.904 113.523 130.069 117.398 120.924 120.353C111.789 123.308 102.354 125.378 92.8237 126.518C83.3287 127.658 73.7237 127.903 64.1787 127.253C54.6337 126.603 45.1487 125.048 35.8987 122.593C26.6187 120.128 17.5737 116.753 8.97873 112.463C7.90873 111.928 6.84373 111.378 5.78873 110.818C4.93873 110.373 4.17873 111.663 5.03373 112.118Z" fill="#2E3F6B"/>
<path d="M100.884 118.727C101.794 121.042 103.499 123.032 105.649 124.287C104.479 124.642 103.204 124.627 102.044 124.237C103.914 125.767 105.784 127.292 107.649 128.822C106.034 128.582 104.419 128.337 102.809 128.097C104.884 129.812 106.954 131.527 109.029 133.242C104.044 132.062 98.8987 131.562 93.7787 131.777C95.1287 129.852 97.1487 128.402 99.4037 127.747C97.7737 127.542 96.1387 127.342 94.5087 127.137C96.2287 126.007 97.9487 124.877 99.6687 123.752C99.0387 123.572 98.4037 123.397 97.7737 123.217C99.1387 121.982 100.214 120.437 100.894 118.727" fill="white"/>
<path d="M100.159 118.922C101.174 121.437 102.929 123.537 105.269 124.927C105.329 124.472 105.389 124.012 105.449 123.557C104.369 123.862 103.314 123.842 102.244 123.507C101.559 123.292 100.924 124.277 101.514 124.762C103.384 126.292 105.254 127.817 107.119 129.347C107.364 128.927 107.604 128.512 107.849 128.092C106.234 127.852 104.619 127.607 103.009 127.367C102.364 127.272 101.629 128.082 102.279 128.622C104.354 130.337 106.424 132.052 108.499 133.767C108.744 133.347 108.984 132.932 109.229 132.512C104.174 131.322 98.9737 130.817 93.7837 131.017C93.9987 131.392 94.2137 131.767 94.4337 132.147C95.6987 130.377 97.5337 129.087 99.6087 128.457C100.469 128.197 100.214 127.082 99.4087 126.982C97.7787 126.777 96.1437 126.577 94.5137 126.372C94.6387 126.837 94.7637 127.302 94.8937 127.772C96.6137 126.642 98.3337 125.512 100.054 124.387C100.584 124.037 100.519 123.197 99.8737 123.017C99.2437 122.837 98.6087 122.662 97.9787 122.482C98.0887 122.902 98.1987 123.317 98.3087 123.737C99.7737 122.387 100.869 120.757 101.624 118.917C101.989 118.022 100.539 117.637 100.179 118.517C99.5287 120.112 98.5137 121.512 97.2487 122.677C96.8287 123.067 97.0537 123.782 97.5787 123.932C98.2087 124.112 98.8437 124.287 99.4737 124.467C99.4137 124.012 99.3537 123.552 99.2937 123.097C97.5737 124.227 95.8537 125.357 94.1337 126.482C93.4687 126.917 93.7887 127.792 94.5137 127.882C96.1437 128.087 97.7787 128.287 99.4087 128.492C99.3437 128.002 99.2737 127.512 99.2087 127.017C96.7387 127.767 94.6337 129.297 93.1337 131.392C92.8037 131.857 93.2437 132.542 93.7837 132.522C98.8437 132.327 103.899 132.802 108.834 133.962C109.504 134.122 110.179 133.217 109.564 132.707C107.489 130.992 105.419 129.277 103.344 127.562C103.099 127.982 102.859 128.397 102.614 128.817C104.229 129.057 105.844 129.302 107.454 129.542C108.099 129.637 108.839 128.822 108.184 128.287C106.314 126.757 104.444 125.232 102.579 123.702C102.334 124.122 102.094 124.537 101.849 124.957C103.159 125.367 104.534 125.382 105.854 125.007C106.479 124.832 106.589 123.967 106.034 123.637C104.059 122.457 102.479 120.667 101.614 118.527C101.249 117.642 99.7987 118.027 100.159 118.922Z" fill="#8CBCA3"/>
<path d="M100.049 132.542C99.9087 136.807 99.7637 141.077 99.6237 145.342C99.5937 146.307 101.094 146.307 101.124 145.342C101.264 141.077 101.409 136.807 101.549 132.542C101.584 131.577 100.084 131.577 100.049 132.542Z" fill="#8CBCA3"/>
<path d="M90.8637 124.928C91.3887 127.328 92.7337 129.543 94.6137 131.123C93.8187 131.158 93.0187 131.188 92.2237 131.223C93.8337 132.473 95.4437 133.728 97.0537 134.978C95.6737 134.973 94.2937 134.753 92.9787 134.333C94.3837 136.173 96.1737 137.713 98.1987 138.833C94.0487 138.063 89.7987 137.858 85.5937 138.223C86.6987 137.058 87.8037 135.888 88.9137 134.723C87.8187 134.758 86.7237 134.788 85.6287 134.823C86.6987 133.348 87.9937 132.043 89.4587 130.968C88.6787 130.928 87.9037 130.888 87.1237 130.848C89.1537 129.453 90.5887 127.218 91.0137 124.793" fill="white"/>
<path d="M90.1387 125.128C90.7187 127.663 92.1087 129.963 94.0837 131.653C94.2587 131.228 94.4387 130.798 94.6137 130.373C93.8187 130.408 93.0187 130.438 92.2237 130.473C91.6437 130.498 91.1437 131.323 91.6937 131.753C93.3037 133.003 94.9137 134.258 96.5237 135.508C96.6987 135.083 96.8787 134.653 97.0537 134.228C95.7287 134.213 94.4437 134.003 93.1787 133.608C92.3887 133.363 92.0337 134.323 92.4487 134.863C93.9087 136.748 95.7387 138.313 97.8187 139.478C98.0137 139.023 98.2037 138.563 98.3987 138.108C94.1737 137.338 89.8737 137.113 85.5937 137.473C85.7687 137.898 85.9487 138.328 86.1237 138.753C87.2287 137.588 88.3337 136.418 89.4437 135.253C89.8737 134.798 89.5837 133.953 88.9137 133.973C87.8187 134.008 86.7237 134.038 85.6287 134.073C85.8437 134.448 86.0587 134.823 86.2787 135.203C87.2787 133.843 88.4837 132.623 89.8387 131.618C90.4237 131.183 90.2437 130.263 89.4587 130.218C88.6787 130.178 87.9037 130.138 87.1237 130.098C87.2487 130.563 87.3737 131.028 87.5037 131.498C89.6987 129.953 91.2437 127.643 91.7387 124.993C91.9137 124.048 90.4687 123.643 90.2937 124.593C89.8737 126.848 88.6287 128.873 86.7487 130.203C86.1437 130.628 86.3537 131.558 87.1287 131.603C87.9087 131.643 88.6837 131.683 89.4637 131.723C89.3387 131.258 89.2137 130.793 89.0837 130.323C87.5087 131.498 86.1487 132.863 84.9837 134.448C84.6437 134.913 85.1037 135.593 85.6337 135.578C86.7287 135.543 87.8237 135.513 88.9187 135.478C88.7437 135.053 88.5637 134.623 88.3887 134.198C87.2837 135.363 86.1787 136.533 85.0687 137.698C84.6537 138.133 84.9187 139.033 85.5987 138.978C89.7437 138.628 93.9137 138.813 98.0037 139.563C98.7987 139.708 99.3687 138.633 98.5837 138.193C96.6037 137.083 94.9037 135.608 93.5137 133.813C93.2687 134.233 93.0287 134.648 92.7837 135.068C94.1687 135.498 95.6087 135.723 97.0587 135.743C97.6537 135.753 98.1187 134.878 97.5887 134.463C95.9787 133.213 94.3687 131.958 92.7587 130.708C92.5837 131.133 92.4037 131.563 92.2287 131.988C93.0237 131.953 93.8237 131.923 94.6187 131.888C95.2187 131.863 95.6737 131.053 95.1487 130.608C93.3487 129.073 92.1187 127.053 91.5887 124.748C91.3687 123.788 89.9237 124.188 90.1387 125.128Z" fill="#8CBCA3"/>
<path d="M90.3737 138.752C90.4637 141.192 90.5587 143.632 90.6487 146.072C90.6837 147.032 92.1837 147.037 92.1487 146.072C92.0587 143.632 91.9637 141.192 91.8737 138.752C91.8337 137.792 90.3337 137.787 90.3737 138.752Z" fill="#8CBCA3"/>
<path d="M6.88876 29.4922C7.33876 27.1922 8.95876 25.1422 11.1888 24.3372C13.5238 23.4922 16.2288 24.0522 18.0638 25.7172C18.3838 26.0072 18.7988 25.9872 19.1238 25.7172C21.7088 23.5472 25.0088 22.2422 28.3738 22.0122C30.0288 21.9022 31.6988 22.0222 33.3038 22.4372C34.9088 22.8522 36.7938 23.8222 36.6838 25.7472C36.6588 26.2172 37.1888 26.6172 37.6338 26.4722C41.1138 25.3172 45.2388 25.1722 48.6638 26.6422C49.9488 27.1972 51.3388 28.1522 51.6338 29.6172C51.8638 30.7472 51.4188 32.1922 50.2138 32.5372C49.5388 32.7272 49.4588 33.8372 50.2138 33.9822C51.7738 34.2822 53.0438 35.4272 53.5688 36.9272C54.1088 38.4672 53.7388 40.1322 52.7188 41.3922C50.4238 44.2222 46.2738 43.8772 43.8488 41.4122C43.3488 40.9072 42.6438 41.3322 42.5688 41.9422C42.3738 43.5372 40.4788 44.3922 39.1688 44.8872C37.2688 45.6022 35.2738 46.0722 33.2488 46.2422C31.2838 46.4122 29.2238 46.3872 27.2888 45.9572C26.4438 45.7672 25.5588 45.4722 24.9488 44.8322C24.4288 44.2872 24.0738 43.4072 24.4038 42.6772C23.9488 42.4822 23.4888 42.2922 23.0338 42.0972C22.5838 43.6022 21.3238 44.7072 19.8838 45.2572C18.1488 45.9222 16.2388 45.7872 14.4638 45.3622C12.8538 44.9772 10.8438 44.4772 9.59876 43.3172C8.73876 42.5122 8.25376 40.7522 9.58876 40.1322C10.3738 39.7672 9.81376 38.5522 9.00876 38.7622C6.83876 39.3322 4.29376 38.0022 3.65876 35.8072C3.02376 33.6222 4.42876 31.1172 6.57876 30.4372C7.49376 30.1472 7.10376 28.6972 6.17876 28.9922C3.26376 29.9122 1.34376 33.2172 2.20876 36.2072C3.06876 39.1872 6.43876 40.9922 9.40376 40.2122C9.20876 39.7572 9.01876 39.2972 8.82376 38.8422C7.51376 39.4572 7.07876 41.0022 7.33376 42.3372C7.64376 43.9372 9.06876 44.9972 10.4738 45.6172C13.6988 47.0472 17.7188 47.9922 21.0438 46.3822C22.6588 45.6022 23.9538 44.2322 24.4738 42.5022C24.7138 41.7072 23.4588 41.1372 23.1038 41.9222C22.4188 43.4372 22.9538 45.1672 24.2238 46.2022C25.6538 47.3622 27.5838 47.6072 29.3588 47.7522C33.1938 48.0722 37.3288 47.4772 40.8188 45.8072C42.4388 45.0322 43.8388 43.8022 44.0638 41.9422C43.6388 42.1172 43.2088 42.2972 42.7838 42.4722C45.1538 44.8772 49.0438 45.7572 52.0238 43.9522C54.8138 42.2622 56.1438 38.7872 54.6988 35.7772C53.9188 34.1522 52.3888 32.8822 50.6088 32.5372C50.6088 33.0172 50.6088 33.5022 50.6088 33.9822C52.2788 33.5072 53.1988 31.8472 53.1838 30.1772C53.1738 28.3122 51.9488 26.7972 50.4088 25.8622C48.6088 24.7672 46.4088 24.3172 44.3388 24.1522C41.9438 23.9622 39.5138 24.2722 37.2338 25.0272C37.5488 25.2672 37.8688 25.5072 38.1838 25.7522C38.3038 23.6572 36.6938 22.1022 34.8738 21.3772C33.0388 20.6472 30.9288 20.4222 28.9688 20.4872C24.9788 20.6172 21.1238 22.0972 18.0638 24.6622C18.4188 24.6622 18.7688 24.6622 19.1238 24.6622C16.9138 22.6522 13.6338 21.8772 10.7888 22.8972C8.07876 23.8672 5.99876 26.2772 5.43876 29.1022C5.25876 30.0372 6.70376 30.4422 6.88876 29.4922Z" fill="#2285C5"/>
<path d="M70.1737 21.7573C68.4737 19.8773 68.2437 16.8523 69.6937 14.7573C71.1237 12.6923 73.9437 11.9073 76.2687 12.7123C76.6287 12.8373 77.1187 12.5673 77.1937 12.1873C77.6137 10.0423 79.1487 8.14232 81.2537 7.44732C83.4737 6.71732 85.9637 7.38232 87.5837 9.03732C87.8887 9.34732 88.3337 9.28732 88.6437 9.03732C91.2637 6.92732 94.4937 5.59732 97.8237 5.15732C101.019 4.73732 104.579 5.05732 107.494 6.50232C109.059 7.27732 110.494 8.44732 110.834 10.2423C110.934 10.7623 111.534 10.8723 111.934 10.6923C115.229 9.19732 119.124 9.18732 122.464 10.5473C124.034 11.1873 125.729 12.1773 126.704 13.6023C127.484 14.7423 127.779 16.9423 126.179 17.6023C125.314 17.9573 125.634 19.3573 126.579 19.0473C127.294 18.8123 127.304 19.8673 127.134 20.2873C126.874 20.9273 126.374 21.4873 125.894 21.9723C124.989 22.8923 123.879 23.6123 122.674 24.0873C120.294 25.0223 117.539 25.0823 115.194 24.0073C114.649 23.7573 114.129 24.0623 114.064 24.6573C113.889 26.3023 112.669 27.6273 111.284 28.4223C109.574 29.4073 107.529 29.5923 105.594 29.6473C102.489 29.7373 96.9587 30.1123 96.1487 26.0373C96.0587 25.5973 95.4237 25.3123 95.0487 25.5873C92.5487 27.4323 89.5437 28.5173 86.4337 28.6023C83.8037 28.6723 79.5387 27.9923 79.3837 24.6073C79.3487 23.8723 78.3837 23.5773 77.9837 24.2273C77.1187 25.6523 75.3137 26.4223 73.6937 25.9623C71.9937 25.4823 70.8987 23.7623 70.9787 22.0373C71.0237 21.0723 69.5237 21.0723 69.4787 22.0373C69.3687 24.4223 70.9837 26.7523 73.2987 27.4073C75.5687 28.0473 78.0787 26.9723 79.2837 24.9823C78.8187 24.8573 78.3537 24.7323 77.8837 24.6023C78.0687 28.5673 82.2387 30.0073 85.6037 30.0973C89.2387 30.1973 92.8887 29.0423 95.8087 26.8823C95.4437 26.7323 95.0737 26.5823 94.7087 26.4323C95.4237 30.0273 99.3787 31.0923 102.534 31.1623C106.019 31.2423 110.059 31.3273 112.964 29.0923C114.399 27.9873 115.374 26.4673 115.564 24.6523C115.189 24.8673 114.814 25.0823 114.434 25.3023C117.649 26.7723 121.419 26.5673 124.514 24.8673C126.009 24.0423 127.524 22.7823 128.329 21.2473C128.779 20.3823 128.959 19.3473 128.404 18.4823C127.929 17.7423 127.034 17.3223 126.179 17.6023C126.314 18.0823 126.444 18.5673 126.579 19.0473C128.024 18.4473 128.844 17.0623 128.859 15.5073C128.874 13.8173 127.819 12.3173 126.569 11.2673C123.909 9.03732 120.334 7.94232 116.889 8.05232C114.904 8.11232 112.984 8.57232 111.179 9.39232C111.544 9.54232 111.914 9.69232 112.279 9.84232C111.584 6.17732 107.449 4.51732 104.204 3.87732C100.519 3.15232 96.6237 3.47732 93.1087 4.80732C91.0987 5.56732 89.2537 6.63232 87.5787 7.97732C87.9337 7.97732 88.2837 7.97732 88.6387 7.97732C86.6637 5.95732 83.5587 5.10732 80.8487 5.99732C78.2687 6.84232 76.2637 9.12232 75.7437 11.7873C76.0537 11.6123 76.3587 11.4373 76.6687 11.2623C73.6887 10.2273 70.1787 11.3923 68.3987 13.9923C66.5687 16.6623 66.9787 20.4473 69.1137 22.8123C69.7587 23.5373 70.8187 22.4723 70.1737 21.7573Z" fill="#2285C5"/>
<path d="M100.704 70.8417C101.949 69.2517 104.049 68.3867 106.044 68.8817C107.984 69.3617 109.449 70.9817 109.864 72.9117C110.014 73.6117 110.879 73.5567 111.234 73.0917C112.899 70.9167 115.604 69.5667 118.344 69.5567C121.124 69.5467 123.749 70.8767 125.489 73.0217C126.099 73.7717 127.154 72.7067 126.549 71.9617C124.534 69.4817 121.354 67.9817 118.154 68.0617C114.909 68.1417 111.899 69.7767 109.944 72.3367C110.399 72.3967 110.859 72.4567 111.314 72.5167C110.799 70.0967 108.859 68.0367 106.444 67.4367C103.969 66.8217 101.214 67.7767 99.6438 69.7867C99.0538 70.5317 100.109 71.6017 100.704 70.8417Z" fill="#585799"/>
<path d="M116.314 61.9477C119.264 58.7827 124.464 59.0177 126.994 62.5877C127.259 62.9627 127.819 63.1227 128.174 62.7377C130.109 60.6527 132.874 59.4477 135.729 59.5477C138.514 59.6477 141.124 61.0177 142.899 63.1427C143.519 63.8827 144.574 62.8177 143.959 62.0827C141.934 59.6577 138.884 58.1577 135.724 58.0477C132.499 57.9327 129.294 59.3177 127.109 61.6727C127.504 61.7227 127.894 61.7727 128.289 61.8227C126.839 59.7727 124.604 58.4377 122.094 58.2027C119.559 57.9677 116.979 59.0277 115.254 60.8777C114.594 61.5927 115.654 62.6577 116.314 61.9477Z" fill="#F69FA2"/>
<path d="M105.644 48.5273C108.039 47.5073 110.624 46.4273 113.284 46.6473C115.254 46.8123 117.414 47.8673 118.194 49.7823C118.354 50.1773 118.864 50.5523 119.294 50.2323C123.324 47.2373 128.999 46.9673 133.269 49.6273C134.089 50.1373 134.844 48.8423 134.024 48.3323C129.344 45.4173 122.969 45.6423 118.534 48.9373C118.899 49.0873 119.269 49.2373 119.634 49.3873C118.654 46.9823 116.339 45.5573 113.819 45.2123C110.699 44.7823 107.689 46.0373 104.879 47.2323C103.999 47.6123 104.764 48.9023 105.644 48.5273Z" fill="#585799"/>
</svg>
