<svg width="150" height="150" viewBox="0 0 150 150" fill="none" xmlns="http://www.w3.org/2000/svg">
<path d="M74.2504 49.4999C74.3254 58.2449 74.4054 66.9949 74.4804 75.7399C74.5554 84.4849 74.6354 93.2349 74.7104 101.98C74.7554 106.895 74.7954 111.81 74.8404 116.725C74.8504 117.635 76.2654 117.64 76.2554 116.725C76.1804 107.98 76.1004 99.2299 76.0254 90.4849C75.9504 81.7399 75.8704 72.9899 75.7954 64.2449C75.7504 59.3299 75.7104 54.4149 75.6654 49.4999C75.6604 48.5899 74.2404 48.5899 74.2504 49.4999Z" fill="#2E3F6B"/>
<path d="M75.5603 52.4353C75.6253 49.9903 76.6103 47.6453 78.8803 46.5003C79.9653 45.9503 81.3004 45.6853 82.5003 45.5203C83.4953 45.3853 84.4453 45.5203 85.4203 45.7303C88.5353 46.4003 91.7003 47.1703 94.4353 48.8753C96.8703 50.3953 98.9604 52.8053 99.4254 55.7153C99.8654 58.4553 98.4654 61.6503 95.7454 62.6253C94.8954 62.9303 95.2604 64.3003 96.1204 63.9903C98.9754 62.9703 100.725 60.1553 100.905 57.1903C101.1 53.9553 99.2354 50.8853 96.8204 48.8703C93.9654 46.4903 90.3403 45.3853 86.7703 44.5853C85.5603 44.3153 84.3203 43.9903 83.0703 44.0553C81.6703 44.1303 80.1554 44.4603 78.8604 44.9753C75.7454 46.2103 74.2303 49.2053 74.1453 52.4403C74.1203 53.3453 75.5353 53.3453 75.5603 52.4353Z" fill="#2E3F6B"/>
<path d="M99.7503 60.4157C103.895 60.6807 108.285 62.1307 110.905 65.5407C113.265 68.6157 113.945 73.1057 111.26 76.2057C109.895 77.7857 107.955 78.7707 105.85 78.6207C105.065 78.5657 104.87 79.8907 105.66 80.0107C109.385 80.5657 112.15 84.3007 111.57 88.0407C110.955 91.9907 107.39 94.9157 103.445 94.9807C101.13 95.0157 98.8203 94.2107 97.0303 92.7407C96.3303 92.1657 95.3253 93.1607 96.0303 93.7407C99.6553 96.7157 105.14 97.4407 109.05 94.5607C112.725 91.8557 114.265 86.8107 111.875 82.7507C110.63 80.6307 108.49 79.0107 106.035 78.6457C105.97 79.1107 105.91 79.5707 105.845 80.0357C110.285 80.3457 114.01 76.4607 114.395 72.2107C114.82 67.5307 111.705 63.2207 107.71 61.0957C105.255 59.7907 102.505 59.1757 99.7453 58.9957C98.8403 58.9407 98.8403 60.3557 99.7503 60.4157Z" fill="#2E3F6B"/>
<path d="M108.56 94.2407C110.255 95.7307 110.465 98.1007 110.035 100.196C109.51 102.751 108.005 104.931 106.835 107.216C106.23 108.401 105.68 109.631 105.37 110.926C105.035 112.316 104.99 113.756 104.86 115.171C104.74 116.541 104.495 117.891 103.835 119.116C103.24 120.221 102.41 121.166 101.475 121.996C99.4854 123.756 96.9854 125.086 94.5004 125.986C91.9254 126.916 89.1054 127.371 86.4154 126.691C81.9904 125.576 78.5304 121.691 77.5304 117.296C76.2954 111.861 78.9004 106.131 83.1354 102.726C83.8454 102.156 82.8404 101.161 82.1354 101.726C77.9854 105.061 75.3704 110.491 75.8804 115.856C76.3554 120.826 79.5904 125.446 84.2054 127.431C89.6504 129.771 95.8854 127.626 100.55 124.481C102.77 122.981 104.765 121.021 105.67 118.446C106.19 116.961 106.26 115.366 106.385 113.811C106.51 112.236 106.79 110.736 107.415 109.276C108.665 106.371 110.71 103.796 111.38 100.661C111.935 98.0657 111.66 95.0907 109.56 93.2407C108.88 92.6407 107.875 93.6407 108.56 94.2407Z" fill="#2E3F6B"/>
<path d="M75.5554 52.4149C75.5904 49.6449 74.4904 46.5849 72.1554 44.9449C71.0004 44.1349 69.4104 43.7499 68.0204 43.6149C66.6804 43.4849 65.3254 43.8699 64.0354 44.1649C60.6304 44.9349 57.1904 46.0048 54.4254 48.2148C52.0354 50.1248 50.1704 52.9848 50.1004 56.1198C50.0304 59.2798 51.8654 62.4349 54.8954 63.5199C55.7554 63.8249 56.1254 62.4598 55.2704 62.1548C52.9804 61.3348 51.6054 58.8999 51.5154 56.5499C51.4154 53.8199 52.9804 51.3298 54.9754 49.5898C57.2654 47.5948 60.2254 46.5649 63.1204 45.8349C64.3954 45.5149 65.7354 45.1149 67.0554 45.0199C68.2104 44.9349 69.4004 45.2599 70.4754 45.6499C73.0604 46.5899 74.1654 49.9049 74.1304 52.4099C74.1254 53.3249 75.5404 53.3249 75.5554 52.4149Z" fill="#2E3F6B"/>
<path d="M51.2704 58.5348C46.5754 58.8348 41.8904 60.7248 39.1054 64.6698C36.5154 68.3448 36.1904 73.4148 39.3154 76.8748C40.9004 78.6298 43.2254 79.7398 45.6104 79.5698C45.5454 79.1048 45.4854 78.6448 45.4204 78.1798C40.9754 78.8448 37.8554 83.3998 38.4904 87.7698C39.1704 92.4198 43.3854 95.8498 48.0104 95.9298C50.7204 95.9748 53.3454 94.9848 55.4304 93.2748C56.1354 92.6948 55.1304 91.6998 54.4304 92.2748C51.3254 94.8198 46.6204 95.3648 43.2704 92.9798C40.1254 90.7398 38.7854 86.4248 40.8054 82.9998C41.8854 81.1648 43.6804 79.8598 45.8004 79.5448C46.5854 79.4298 46.4054 78.0998 45.6104 78.1548C41.8204 78.4198 38.6204 75.0398 38.4504 71.3648C38.2604 67.2348 41.0304 63.6848 44.5104 61.7798C46.5854 60.6398 48.9154 60.0998 51.2654 59.9498C52.1754 59.8948 52.1804 58.4798 51.2704 58.5348Z" fill="#2E3F6B"/>
<path d="M41.4554 92.7794C39.5904 94.4194 39.1604 96.9694 39.4854 99.3294C39.8704 102.109 41.3704 104.474 42.6654 106.904C43.3704 108.224 44.0104 109.584 44.3354 111.054C44.6804 112.614 44.6554 114.229 44.8654 115.809C45.2504 118.674 46.7004 121.024 48.9154 122.859C51.0904 124.664 53.6954 126.039 56.3554 126.974C59.1604 127.954 62.2504 128.339 65.1504 127.559C69.9504 126.269 73.7654 122.024 74.8554 117.219C76.1904 111.314 73.5254 104.999 68.8854 101.269C68.1804 100.704 67.1754 101.699 67.8854 102.269C71.7304 105.354 74.1504 110.229 73.7404 115.204C73.3704 119.709 70.3504 123.944 66.1804 125.709C61.1204 127.849 55.2804 125.619 51.0204 122.684C48.9604 121.264 47.1254 119.359 46.4954 116.874C46.1354 115.459 46.1254 113.989 45.9804 112.549C45.8354 111.129 45.5304 109.779 44.9804 108.459C43.8654 105.774 42.0004 103.399 41.1954 100.589C40.5354 98.2794 40.5204 95.4794 42.4604 93.7744C43.1454 93.1744 42.1404 92.1794 41.4554 92.7794Z" fill="#2E3F6B"/>
<path d="M51.6853 117.3C49.8453 114.145 50.7153 110.01 52.9803 107.3C55.5153 104.26 59.3703 102.77 63.1553 102.02C64.0503 101.845 63.6703 100.48 62.7803 100.655C59.4753 101.31 56.2153 102.52 53.6003 104.695C51.1353 106.745 49.4953 109.705 49.2903 112.925C49.1753 114.7 49.5653 116.48 50.4653 118.015C50.9253 118.805 52.1503 118.09 51.6853 117.3Z" fill="#2E3F6B"/>
<path d="M54.3353 106.33C56.8603 106.105 59.4203 107.125 61.0203 109.115C62.6853 111.185 63.0403 114.085 62.1203 116.545C61.8003 117.4 63.1703 117.77 63.4853 116.92C64.5653 114.03 64.0353 110.66 62.1253 108.24C60.2953 105.925 57.2653 104.65 54.3353 104.91C53.4353 104.995 53.4253 106.415 54.3353 106.33Z" fill="#2E3F6B"/>
<path d="M56.4204 98.8453C58.9954 97.9303 61.6654 96.9703 63.7054 95.0853C65.4654 93.4553 66.6954 91.1203 66.4304 88.6753C66.1454 86.0803 64.5104 83.9603 62.9054 82.0103C61.2754 80.0353 59.2804 77.7503 59.2604 75.0303C59.2354 72.1003 61.9354 70.4453 64.5204 70.0003C65.4154 69.8453 65.0354 68.4803 64.1454 68.6353C61.9004 69.0253 59.5804 70.2203 58.4954 72.3103C57.2554 74.7003 58.0104 77.3953 59.3254 79.5803C60.7004 81.8703 62.7454 83.6753 64.0604 86.0053C65.3404 88.2753 65.3704 90.7253 63.8054 92.8703C61.9654 95.3903 58.8654 96.4803 56.0454 97.4853C55.1904 97.7803 55.5554 99.1503 56.4204 98.8453Z" fill="#2E3F6B"/>
<path d="M52.4254 83.7295C51.7904 84.4845 50.8704 85.6845 49.7254 85.4345C48.7854 85.2295 48.8004 84.1095 49.0204 83.3745C49.3154 82.3945 50.1054 81.6195 50.6654 80.7845C51.2554 79.9095 51.6304 78.9445 51.6354 77.8795C51.6554 75.5895 50.2754 73.6945 48.9754 71.9395C47.6704 70.1745 46.2004 67.9995 47.1354 65.7295C47.4854 64.8895 46.1154 64.5195 45.7704 65.3545C45.0004 67.2145 45.5954 69.2995 46.5904 70.9545C47.6354 72.7045 49.2054 74.1895 49.8954 76.1395C50.2354 77.0945 50.3704 78.1395 49.9854 79.0995C49.6204 80.0145 48.9054 80.7495 48.3654 81.5545C47.5104 82.8195 46.9954 84.7495 48.1054 86.0395C48.7704 86.8095 49.8254 87.0145 50.7804 86.7595C51.9054 86.4595 52.7054 85.5845 53.4254 84.7295C54.0104 84.0345 53.0154 83.0295 52.4254 83.7295Z" fill="#2E3F6B"/>
<path d="M48.8904 72.4398C54.8004 71.9048 60.0454 67.8799 62.0804 62.2999C62.3954 61.4449 61.0254 61.0749 60.7154 61.9249C58.9104 66.8649 54.1304 70.5498 48.8904 71.0248C47.9904 71.1098 47.9804 72.5248 48.8904 72.4398Z" fill="#2E3F6B"/>
<path d="M67.6054 48.8794C65.5804 49.2344 63.5204 49.9394 62.2954 51.6944C61.0904 53.4094 61.3404 55.4894 62.6204 57.0794C63.9654 58.7444 65.9854 59.4544 67.7904 60.4744C69.3104 61.3344 71.3804 63.1794 70.4254 65.1544C70.0304 65.9694 71.2504 66.6894 71.6504 65.8694C72.4854 64.1444 71.8704 62.2444 70.6504 60.8744C69.2854 59.3444 67.2404 58.7044 65.5254 57.6844C64.0154 56.7894 62.3654 55.1394 63.0754 53.2294C63.8154 51.2294 66.1004 50.5744 67.9904 50.2444C68.8804 50.0894 68.5004 48.7244 67.6054 48.8794Z" fill="#2E3F6B"/>
<path d="M65.7953 58.6799C68.6053 58.0649 70.7353 55.4799 70.9103 52.6299C70.9353 52.2499 70.5703 51.9199 70.2003 51.9199C69.7953 51.9199 69.5153 52.2449 69.4903 52.6299C69.4603 53.1199 69.3253 53.7199 69.1153 54.2049C68.9203 54.6699 68.5653 55.2299 68.2503 55.5949C67.4753 56.4899 66.5453 57.0649 65.4103 57.3149C65.0353 57.3949 64.8204 57.8299 64.9154 58.1849C65.0304 58.5699 65.4203 58.7599 65.7953 58.6799Z" fill="#2E3F6B"/>
<path d="M69.8054 71.5948C69.4704 74.2698 67.1804 76.5548 64.5104 77.0298C64.1354 77.0948 63.9204 77.5548 64.0154 77.8998C64.1254 78.2948 64.5104 78.4598 64.8854 78.3948C68.2104 77.7998 70.8004 74.9048 71.2204 71.5948C71.2704 71.2148 70.8604 70.8848 70.5104 70.8848C70.0904 70.8898 69.8554 71.2148 69.8054 71.5948Z" fill="#2E3F6B"/>
<path d="M68.2354 76.1299C71.4654 79.6399 72.4704 84.8349 70.8754 89.3149C70.5704 90.1749 71.9354 90.5449 72.2404 89.6899C74.0054 84.7349 72.7854 78.9899 69.2354 75.1299C68.6154 74.4549 67.6154 75.4599 68.2354 76.1299Z" fill="#2E3F6B"/>
<path d="M66.7854 96.5505C68.3854 96.1855 70.1954 96.5905 71.4804 97.6655C71.7754 97.9105 72.1954 97.9505 72.4804 97.6655C72.7304 97.4155 72.7754 96.9105 72.4804 96.6655C70.7954 95.2555 68.5504 94.7005 66.4054 95.1905C66.0304 95.2755 65.8104 95.7055 65.9104 96.0605C66.0204 96.4355 66.4104 96.6355 66.7854 96.5505Z" fill="#2E3F6B"/>
<path d="M47.7904 105.784C48.1504 103.434 49.6354 101.414 51.7854 100.384C52.1304 100.219 52.2204 99.7244 52.0404 99.4144C51.8354 99.0594 51.4204 98.9944 51.0704 99.1594C48.6404 100.319 46.8354 102.739 46.4254 105.404C46.3654 105.784 46.5204 106.164 46.9204 106.274C47.2554 106.374 47.7354 106.164 47.7904 105.784Z" fill="#2E3F6B"/>
<path d="M56.1403 114.394C56.1303 118.149 58.7853 121.529 62.6203 121.854C66.2303 122.159 69.5853 119.084 69.1753 115.384C69.0753 114.489 67.6603 114.479 67.7603 115.384C68.0903 118.349 65.5253 120.704 62.6203 120.439C59.5553 120.159 57.5453 117.339 57.5553 114.394C57.5553 113.484 56.1403 113.484 56.1403 114.394Z" fill="#2E3F6B"/>
<path d="M100.96 118.15C102.565 115.395 102.425 112.05 101.17 109.195C99.8355 106.155 97.1705 103.93 94.2105 102.555C92.4355 101.73 90.5605 101.17 88.6455 100.79C87.7555 100.615 87.3755 101.98 88.2705 102.155C92.0555 102.905 95.9105 104.395 98.4455 107.435C100.71 110.15 101.58 114.28 99.7405 117.435C99.2755 118.225 100.5 118.94 100.96 118.15Z" fill="#2E3F6B"/>
<path d="M97.0854 105.05C94.1554 104.79 91.1254 106.065 89.2954 108.38C87.3854 110.8 86.8554 114.17 87.9354 117.06C88.2504 117.905 89.6204 117.54 89.3004 116.685C88.3804 114.225 88.7354 111.325 90.4004 109.255C92.0004 107.265 94.5554 106.245 97.0854 106.47C97.9954 106.55 97.9904 105.13 97.0854 105.05Z" fill="#2E3F6B"/>
<path d="M95.3804 97.6151C92.8054 96.7001 90.0754 95.7351 88.1754 93.6751C86.4354 91.7851 85.8854 89.31 86.9604 86.935C88.0604 84.51 90.0854 82.7 91.5754 80.535C93.0154 78.44 94.1754 75.73 93.2604 73.19C92.3504 70.67 89.8154 69.2101 87.2854 68.7701C86.3954 68.6151 86.0104 69.98 86.9104 70.135C89.1804 70.53 91.5954 71.815 92.0904 74.26C92.6304 76.915 90.7004 79.525 89.1054 81.44C87.5004 83.375 85.6904 85.4251 85.1354 87.9501C84.5954 90.4001 85.4654 92.7801 87.1154 94.6051C89.1804 96.8951 92.1804 97.975 95.0104 98.9801C95.8654 99.2851 96.2354 97.9151 95.3804 97.6151Z" fill="#2E3F6B"/>
<path d="M97.9954 84.8651C99.1254 86.2101 101.02 87.82 102.84 86.6C104.24 85.66 104.13 83.7 103.455 82.35C103.02 81.48 102.325 80.7751 101.815 79.9551C101.26 79.0701 101.08 78.1101 101.295 77.0801C101.73 75.0451 103.22 73.49 104.36 71.82C105.6 70.005 106.545 67.6601 105.65 65.4901C105.305 64.6601 103.935 65.0251 104.285 65.8651C105.22 68.1301 103.745 70.3051 102.445 72.0751C101.15 73.8301 99.7704 75.7251 99.7854 78.0151C99.7954 79.0801 100.165 80.0501 100.755 80.9201C101.32 81.7501 102.11 82.525 102.4 83.51C102.62 84.24 102.635 85.365 101.695 85.57C100.55 85.82 99.6304 84.6201 98.9954 83.8651C98.4104 83.1651 97.4104 84.1701 97.9954 84.8651Z" fill="#2E3F6B"/>
<path d="M102.535 71.1606C97.2954 70.6856 92.5154 67.0006 90.7104 62.0606C90.4004 61.2106 89.0304 61.5806 89.3454 62.4356C91.3804 68.0106 96.6254 72.0356 102.535 72.5756C103.44 72.6606 103.435 71.2456 102.535 71.1606Z" fill="#2E3F6B"/>
<path d="M83.4404 50.3852C85.3304 50.7152 87.6104 51.3702 88.3554 53.3702C89.0654 55.2852 87.4154 56.9302 85.9054 57.8252C84.1904 58.8452 82.1404 59.4852 80.7804 61.0152C79.5554 62.3902 78.9454 64.2852 79.7804 66.0102C80.1754 66.8302 81.4004 66.1152 81.0054 65.2952C80.0704 63.3602 82.0554 61.5252 83.5504 60.6652C85.3804 59.6152 87.4454 58.9152 88.8104 57.2152C90.0654 55.6602 90.3454 53.6102 89.1904 51.9102C87.9654 50.1052 85.8854 49.3752 83.8254 49.0152C82.9254 48.8602 82.5404 50.2252 83.4404 50.3852Z" fill="#2E3F6B"/>
<path d="M86.0054 57.4497C84.8704 57.1997 83.9404 56.6197 83.1654 55.7297C82.8404 55.3547 82.5204 54.8497 82.2954 54.3297C82.3354 54.4197 82.2604 54.2347 82.2504 54.2147C82.2254 54.1447 82.2004 54.0697 82.1754 53.9997C82.1254 53.8547 82.0854 53.7097 82.0504 53.5597C81.9654 53.2197 81.9504 53.0997 81.9304 52.7647C81.9054 52.3847 81.6204 52.0547 81.2204 52.0547C80.8554 52.0547 80.4904 52.3797 80.5104 52.7647C80.6854 55.6147 82.8154 58.1997 85.6254 58.8147C86.0004 58.8947 86.3904 58.7047 86.4954 58.3197C86.5954 57.9647 86.3804 57.5297 86.0054 57.4497Z" fill="#2E3F6B"/>
<path d="M80.2004 71.7305C80.6204 75.0405 83.2104 77.9405 86.5354 78.5305C86.9104 78.5955 87.3004 78.4305 87.4054 78.0355C87.5004 77.6955 87.2904 77.2305 86.9104 77.1655C84.2404 76.6905 81.9504 74.4005 81.6154 71.7305C81.5654 71.3505 81.3254 71.0205 80.9054 71.0205C80.5604 71.0255 80.1504 71.3505 80.2004 71.7305Z" fill="#2E3F6B"/>
<path d="M82.1904 75.2601C78.6404 79.1201 77.4204 84.8701 79.1854 89.8201C79.4904 90.6701 80.8604 90.3051 80.5504 89.4451C78.9554 84.9701 79.9654 79.7701 83.1904 76.2601C83.8054 75.5951 82.8054 74.5901 82.1904 75.2601Z" fill="#2E3F6B"/>
<path d="M85.0154 95.3197C82.8704 94.8297 80.6254 95.3897 78.9404 96.7947C78.6454 97.0397 78.6854 97.5447 78.9404 97.7947C79.2304 98.0847 79.6454 98.0397 79.9404 97.7947C81.2254 96.7197 83.0354 96.3147 84.6354 96.6797C85.0104 96.7647 85.4004 96.5647 85.5054 96.1847C85.6054 95.8297 85.3904 95.4047 85.0154 95.3197Z" fill="#2E3F6B"/>
<path d="M104.995 105.545C104.59 102.88 102.78 100.46 100.35 99.2999C100.005 99.1349 99.5855 99.2049 99.3805 99.5549C99.2005 99.8649 99.2855 100.36 99.6355 100.525C101.785 101.555 103.27 103.57 103.63 105.925C103.69 106.305 104.165 106.51 104.5 106.42C104.905 106.305 105.055 105.925 104.995 105.545Z" fill="#2E3F6B"/>
<path d="M93.8704 114.53C93.8804 117.47 91.8704 120.305 88.8054 120.575C85.9004 120.83 83.3404 118.495 83.6654 115.52C83.7654 114.615 82.3504 114.625 82.2504 115.52C81.8404 119.22 85.1954 122.295 88.8054 121.99C92.6404 121.665 95.2954 118.285 95.2854 114.53C95.2804 113.62 93.8654 113.62 93.8704 114.53Z" fill="#2E3F6B"/>
<path d="M76.1253 48.9996C75.8103 45.6896 75.4953 42.3796 75.1753 39.0696C75.0203 37.4446 74.8553 35.8247 74.7103 34.1997C74.6103 33.0647 74.4853 31.6746 75.4203 30.8446C76.1403 30.1996 75.0803 29.1446 74.3603 29.7846C73.3403 30.6946 73.1153 32.0747 73.1603 33.3847C73.2153 35.0347 73.4503 36.6946 73.6103 38.3346C73.9503 41.8896 74.2903 45.4446 74.6303 48.9996C74.7153 49.9546 76.2153 49.9646 76.1253 48.9996Z" fill="#2E3F6B"/>
<path d="M74.8303 29.4698C73.8453 28.7348 72.8653 27.7598 72.5053 26.5548C72.1753 25.4398 72.5403 24.4148 73.1303 23.4698C74.2753 21.6348 75.9953 20.0998 76.0703 17.7948C75.5803 17.8598 75.0903 17.9298 74.5953 17.9948C75.0503 19.2298 75.8403 20.2248 76.7353 21.1698C77.6403 22.1348 78.6853 23.0848 79.1803 24.3448C79.6603 25.5648 79.3553 26.8848 78.5103 27.8648C77.6103 28.9148 76.2953 29.4198 74.9653 29.6648C74.0153 29.8398 74.4203 31.2848 75.3653 31.1098C78.2353 30.5848 81.2353 28.3748 80.8953 25.1248C80.7353 23.6048 79.8553 22.3398 78.8553 21.2348C77.8353 20.1048 76.5803 19.0698 76.0403 17.5998C75.7553 16.8248 74.5953 16.9198 74.5653 17.7998C74.5253 18.9448 73.8603 19.9148 73.2053 20.8048C72.4903 21.7798 71.7153 22.7148 71.2453 23.8448C70.0903 26.6398 71.8853 29.1448 74.0653 30.7698C74.8453 31.3398 75.5953 30.0398 74.8303 29.4698Z" fill="#2E3F6B"/>
<path d="M75.0503 23.8448C76.1253 25.4798 76.2503 27.6198 75.3153 29.3448C74.8553 30.1948 76.1503 30.9498 76.6103 30.0998C77.7903 27.9248 77.7103 25.1598 76.3453 23.0848C76.1253 22.7448 75.6803 22.6048 75.3203 22.8148C74.9853 23.0148 74.8303 23.5048 75.0503 23.8448Z" fill="#2E3F6B"/>
<path d="M76.1804 48.0348C75.7004 43.1348 80.0554 39.8748 83.6004 37.3648C84.3804 36.8098 83.6354 35.5098 82.8454 36.0698C78.8854 38.8748 74.1504 42.5698 74.6854 48.0348C74.7704 48.9848 76.2704 48.9948 76.1804 48.0348Z" fill="#2E3F6B"/>
<path d="M84.0253 36.3748C83.8903 34.3048 84.6553 32.4248 86.2553 31.0948C87.6953 29.9048 89.5503 29.2648 91.2903 28.6598C92.1953 28.3448 91.8053 26.8948 90.8903 27.2148C88.8503 27.9248 86.7653 28.6948 85.1003 30.1148C83.2803 31.6698 82.3703 33.9948 82.5253 36.3748C82.5903 37.3298 84.0903 37.3398 84.0253 36.3748Z" fill="#2E3F6B"/>
<path d="M90.4654 28.86C91.3104 30.845 90.8954 33.37 89.4404 34.965C87.9754 36.57 85.6454 37.23 83.5504 36.66C83.5504 37.14 83.5504 37.625 83.5504 38.105C86.0904 37.275 88.0954 35.22 88.8304 32.645C89.0954 31.715 87.6504 31.32 87.3854 32.245C86.7954 34.3 85.1904 35.99 83.1554 36.655C82.4704 36.88 82.4154 37.9 83.1554 38.1C85.7754 38.815 88.7904 37.985 90.5904 35.92C92.4654 33.77 92.8704 30.7 91.7654 28.1C91.6054 27.725 91.0554 27.645 90.7404 27.83C90.3504 28.06 90.3054 28.49 90.4654 28.86Z" fill="#2E3F6B"/>
<path d="M75.6804 48.995C76.8904 45.64 76.1654 41.76 73.9904 38.97C72.7404 37.37 71.0704 36.395 69.2854 35.495C67.5554 34.62 65.5204 33.6201 64.7754 31.6851C64.4354 30.7951 62.9804 31.18 63.3304 32.085C64.0254 33.9 65.4954 35.1451 67.1554 36.0751C68.9054 37.0551 70.8254 37.765 72.2454 39.235C74.6004 41.68 75.3854 45.415 74.2354 48.6C73.9054 49.505 75.3554 49.9 75.6804 48.995Z" fill="#2E3F6B"/>
<path d="M64.4704 32.165C65.6504 31.63 66.2954 30.32 66.2854 29.06C66.2754 27.665 65.4504 26.47 64.3754 25.65C63.1154 24.69 61.5654 24.315 60.0404 24.005C58.5204 23.695 56.8654 23.42 55.6354 22.405C54.8854 21.785 53.9604 22.715 54.5754 23.465C55.3654 24.425 55.6404 25.69 55.9404 26.865C56.2604 28.115 56.5954 29.425 57.3704 30.48C58.8504 32.51 61.5954 33.43 63.9954 32.655C64.9104 32.36 64.5204 30.91 63.5954 31.21C61.5004 31.885 59.1954 30.92 58.2004 28.96C57.6754 27.925 57.4754 26.755 57.1754 25.645C56.8554 24.465 56.4204 23.355 55.6354 22.405C55.2804 22.76 54.9304 23.11 54.5754 23.465C55.6254 24.335 56.8704 24.825 58.1854 25.14C59.5904 25.48 61.0804 25.625 62.4104 26.22C63.4054 26.665 64.4254 27.43 64.7154 28.53C64.9554 29.45 64.6004 30.465 63.7154 30.87C63.3454 31.04 63.2604 31.57 63.4454 31.895C63.6604 32.275 64.1004 32.33 64.4704 32.165Z" fill="#2E3F6B"/>
<path d="M59.8404 28.5296C60.0704 28.5746 60.3004 28.6295 60.5204 28.7045C60.6254 28.7395 60.7304 28.7796 60.8354 28.8196C61.0254 28.8946 60.6954 28.7546 60.8804 28.8396C60.9354 28.8646 60.9904 28.8896 61.0454 28.9196C61.2454 29.0196 61.4404 29.1296 61.6304 29.2546C61.7354 29.3196 61.8304 29.3946 61.9304 29.4646C62.0454 29.5496 61.8804 29.4196 61.9504 29.4796C61.9954 29.5196 62.0454 29.5596 62.0904 29.5996C62.2604 29.7446 62.4204 29.9046 62.5754 30.0696C62.6504 30.1546 62.7254 30.2346 62.7954 30.3246C62.8354 30.3696 62.9054 30.4696 62.8304 30.3646C62.8654 30.4146 62.9004 30.4646 62.9404 30.5146C63.0704 30.6996 63.1854 30.8896 63.2904 31.0896C63.3454 31.1996 63.4004 31.3096 63.4504 31.4196C63.5154 31.5646 63.4104 31.2996 63.4704 31.4646C63.4904 31.5246 63.5154 31.5796 63.5354 31.6396C63.6654 32.0096 64.0554 32.2946 64.4604 32.1646C64.8254 32.0446 65.1254 31.6396 64.9854 31.2396C64.2454 29.1596 62.4304 27.5096 60.2454 27.0896C59.8604 27.0146 59.4154 27.1996 59.3204 27.6146C59.2304 27.9796 59.4304 28.4496 59.8404 28.5296Z" fill="#2E3F6B"/>
<path d="M111.745 39.0648C111.1 39.3198 110.43 38.8248 110.3 38.1598C110.125 37.2898 110.75 36.4198 111.335 35.8498C112.475 34.7398 114.075 34.1548 115.655 34.1348C116.45 34.1248 117.235 34.2598 117.98 34.5448C118.82 34.8698 119.565 35.3948 120.365 35.8048C121.875 36.5748 123.57 36.8848 124.985 35.7398C126.655 34.3948 126.785 32.1598 126.785 30.1798C126.785 29.2148 125.285 29.2148 125.285 30.1798C125.285 31.8048 125.25 34.6798 123.105 35.0048C122.18 35.1448 121.265 34.5998 120.495 34.1648C119.67 33.6998 118.855 33.2198 117.945 32.9448C116.23 32.4298 114.325 32.5498 112.68 33.2298C111.035 33.9048 109.355 35.2248 108.895 37.0248C108.645 37.9998 108.84 39.0148 109.52 39.7698C110.17 40.4898 111.22 40.8698 112.15 40.4998C113.03 40.1598 112.645 38.7098 111.745 39.0648Z" fill="#585799"/>
<path d="M33.9804 28.21C34.2004 26.04 32.8054 23.935 30.8904 22.99C28.8354 21.975 26.7254 22.485 24.9904 23.86C23.4104 25.115 22.2504 26.92 20.4654 27.91C18.6704 28.9 16.3154 28.35 15.1354 26.66C13.7354 24.655 14.7604 21.8 16.8804 20.79C17.7504 20.375 16.9904 19.08 16.1254 19.495C14.1104 20.455 12.8454 22.735 13.0104 24.955C13.1804 27.255 14.8954 29.115 17.0854 29.725C19.3304 30.345 21.3454 29.395 22.9804 27.89C24.4754 26.515 25.8104 24.495 27.8954 24C30.3304 23.425 32.7254 25.835 32.4854 28.215C32.3854 29.17 33.8854 29.165 33.9804 28.21Z" fill="#585799"/>
<path d="M24.1854 50.275C21.9004 49.835 19.4004 50.15 17.6004 51.73C16.0004 53.135 15.1954 55.51 15.9804 57.545C16.7704 59.585 18.6704 60.74 19.8904 62.475C21.0554 64.135 21.5154 66.705 20.1704 68.41C19.0554 69.82 16.3604 70.275 15.1904 68.68C14.6254 67.91 13.3204 68.66 13.8954 69.435C15.0654 71.03 17.1304 71.52 18.9854 70.925C21.0354 70.265 22.2654 68.47 22.4604 66.36C22.6754 64.03 21.5754 61.95 20.0154 60.305C18.5854 58.8 16.6654 57.215 17.3104 54.89C18.0904 52.095 21.2154 51.215 23.7904 51.715C24.7304 51.905 25.1354 50.46 24.1854 50.275Z" fill="#8CBCA3"/>
<path d="M130.64 15.2953C135.005 15.8003 138.04 20.1003 137.145 24.3753C136.95 25.3153 138.395 25.7203 138.59 24.7753C139.125 22.2203 138.59 19.4753 137.005 17.3803C135.465 15.3453 133.165 14.0853 130.64 13.7953C130.235 13.7503 129.89 14.1753 129.89 14.5453C129.89 14.9903 130.235 15.2503 130.64 15.2953Z" fill="#F69FA2"/>
<path d="M92.7604 14.6102C96.2304 13.9552 99.9754 16.2452 101.025 19.6052C101.31 20.5252 102.76 20.1302 102.47 19.2052C101.165 15.0252 96.6504 12.3552 92.3604 13.1652C91.4104 13.3402 91.8154 14.7902 92.7604 14.6102Z" fill="#8CBCA3"/>
<path d="M53.7154 7.5C50.4904 7.505 46.5454 7.79501 44.9554 11.12C44.2804 12.535 44.3404 14.095 45.2104 15.415C45.9254 16.5 47.2954 17.47 47.5204 18.815C47.8154 20.59 45.6804 21.765 44.3204 20.61C43.5904 19.99 42.5204 21.045 43.2604 21.67C44.4904 22.71 46.3154 22.915 47.6404 21.915C48.9054 20.96 49.3704 19.25 48.7704 17.79C48.1954 16.385 46.8504 15.51 46.2154 14.155C45.5354 12.705 46.4354 11.08 47.6254 10.21C49.3404 8.96001 51.6904 9.005 53.7154 9C54.6804 9 54.6854 7.5 53.7154 7.5Z" fill="#2285C5"/>
<path d="M40.3304 42.6504C42.3854 39.4154 46.7104 38.0554 50.2754 39.4054C51.1804 39.7454 51.5704 38.3004 50.6754 37.9604C46.4804 36.3704 41.4304 38.1304 39.0404 41.8954C38.5154 42.7104 39.8154 43.4654 40.3304 42.6504Z" fill="#F69FA2"/>
<path d="M17.7654 84.3403C18.5954 87.7903 16.0804 91.5303 12.6304 92.1903C11.6854 92.3703 12.0854 93.8153 13.0304 93.6353C17.3054 92.8203 20.2254 88.1353 19.2154 83.9403C18.9854 83.0003 17.5404 83.4003 17.7654 84.3403Z" fill="#585799"/>
<path d="M9.45544 110.13C11.8854 109.11 14.6104 108.315 17.2604 108.815C19.2904 109.2 21.2354 110.4 22.2004 112.27C23.4454 114.69 22.1954 117.42 21.5004 119.805C20.8654 121.99 20.4554 124.695 21.9554 126.63C23.2804 128.335 25.7554 129.085 27.5404 127.665C28.2954 127.065 27.2304 126.01 26.4804 126.605C24.9754 127.8 22.9604 125.98 22.5804 124.545C21.9154 122.025 23.3004 119.46 23.8804 117.065C24.4404 114.745 24.3104 112.405 22.8104 110.47C21.5354 108.825 19.5854 107.71 17.5404 107.35C14.6354 106.84 11.7254 107.565 9.05044 108.685C8.67544 108.845 8.41544 109.18 8.52544 109.61C8.62544 109.96 9.08544 110.285 9.45544 110.13Z" fill="#2285C5"/>
<path d="M28.8153 98.8006C27.2853 101.956 28.9553 106.026 32.2603 107.191C32.6403 107.326 33.0803 107.036 33.1853 106.666C33.3003 106.251 33.0453 105.881 32.6603 105.741C30.2953 104.906 29.0403 101.766 30.1103 99.5506C30.2853 99.1856 30.2103 98.7406 29.8403 98.5256C29.5153 98.3406 28.9953 98.4356 28.8153 98.8006Z" fill="#F69FA2"/>
<path d="M101.755 137.605C104.605 140.035 108.67 140.695 112.095 139.125C113.655 138.41 114.99 137.25 115.985 135.85C117.125 134.245 117.485 132.435 117.86 130.545C118.07 129.485 118.325 128.36 119.065 127.53C119.705 126.81 120.595 126.305 121.56 126.625C122.48 126.93 122.87 125.48 121.96 125.18C120.29 124.625 118.635 125.58 117.65 126.91C116.445 128.53 116.435 130.64 115.92 132.515C115.01 135.83 111.95 138.36 108.495 138.49C106.44 138.565 104.38 137.885 102.81 136.55C102.085 135.92 101.015 136.975 101.755 137.605Z" fill="#2285C5"/>
<path d="M133.21 131.81C132.895 127.87 135.815 124.095 139.705 123.405C140.105 123.335 140.33 122.845 140.23 122.48C140.115 122.06 139.71 121.885 139.305 121.955C134.81 122.755 131.34 127.26 131.71 131.805C131.785 132.765 133.285 132.775 133.21 131.81Z" fill="#F69FA2"/>
<path d="M85.5453 141.435C85.4053 138.665 87.5103 136.065 90.2753 135.605C90.6753 135.54 90.9004 135.045 90.8004 134.68C90.6854 134.255 90.2803 134.09 89.8753 134.155C86.5053 134.71 83.8703 138.03 84.0453 141.43C84.0653 141.835 84.3753 142.18 84.7953 142.18C85.1903 142.185 85.5703 141.84 85.5453 141.435Z" fill="#585799"/>
<path d="M42.8254 130.41C42.2304 133.92 42.7954 137.915 46.0204 139.995C47.4904 140.94 49.2104 141.105 50.8854 140.67C52.5504 140.24 54.1104 139.225 55.8354 139.05C57.1354 138.92 58.9304 139.215 59.3104 140.69C59.5504 141.625 61.0004 141.23 60.7554 140.29C59.9904 137.32 56.2454 137.17 53.8704 138C52.2204 138.575 50.5354 139.55 48.7354 139.405C47.2154 139.28 45.8854 138.23 45.1054 136.97C43.9804 135.145 43.9204 132.87 44.2704 130.81C44.4354 129.865 42.9904 129.46 42.8254 130.41Z" fill="#8CBCA3"/>
<path d="M18.9954 140.47C23.0604 142.305 27.8404 141.73 31.3654 139.005C31.6904 138.755 31.6254 138.21 31.3654 137.945C31.0504 137.625 30.6254 137.7 30.3054 137.945C27.3654 140.22 23.1354 140.705 19.7554 139.175C18.8804 138.78 18.1154 140.075 18.9954 140.47Z" fill="#F69FA2"/>
<path d="M134.075 49.5054C132.15 49.4054 130.14 49.3354 128.32 50.0804C126.845 50.6854 125.595 51.8754 125.085 53.4054C124.55 55.0154 125.16 56.6504 126.355 57.7854C127.68 59.0404 129.505 59.5554 130.845 60.7704C131.505 61.3704 132.19 62.3454 131.945 63.2904C131.78 63.9204 130.995 64.5804 130.335 64.2354C129.48 63.7904 128.72 65.0854 129.58 65.5304C131.01 66.2704 132.705 65.4304 133.285 63.9904C133.965 62.3054 132.89 60.4804 131.59 59.4404C130.16 58.2954 128.225 57.7554 127.035 56.3204C125.895 54.9454 126.445 53.2304 127.71 52.1604C129.425 50.7054 131.98 50.9004 134.075 51.0054C135.04 51.0554 135.04 49.5554 134.075 49.5054Z" fill="#2285C5"/>
<path d="M136.23 79.9503C136.56 77.3753 138.33 75.0753 140.665 73.9653C141.03 73.7903 141.125 73.2653 140.935 72.9403C140.715 72.5653 140.275 72.4953 139.91 72.6703C137.06 74.0303 135.13 76.8503 134.73 79.9503C134.68 80.3503 135.11 80.7003 135.48 80.7003C135.925 80.7003 136.175 80.3503 136.23 79.9503Z" fill="#8CBCA3"/>
<path d="M126.64 90.3302C125.055 89.8702 123.245 90.2852 122.1 91.5002C120.96 92.7102 120.545 94.5402 121.125 96.1052C121.74 97.7752 123.155 98.9252 124.62 99.8352C126.145 100.785 127.93 101.62 128.805 103.285C129.2 104.04 129.365 104.995 128.87 105.745C128.42 106.425 127.65 106.805 126.87 106.48C126.495 106.32 126.05 106.65 125.945 107.005C125.82 107.435 126.095 107.77 126.47 107.93C127.905 108.53 129.535 107.65 130.25 106.36C131.095 104.835 130.565 103.015 129.56 101.71C128.425 100.23 126.735 99.4102 125.195 98.4252C123.815 97.5452 122.265 96.2402 122.365 94.4352C122.475 92.4702 124.405 91.2402 126.245 91.7752C127.17 92.0452 127.57 90.5952 126.64 90.3302Z" fill="#585799"/>
</svg>
