<svg width="150" height="150" viewBox="0 0 150 150" fill="none" xmlns="http://www.w3.org/2000/svg">
<path d="M94.527 81.7314L113.712 122.086L96.027 112.441L92.637 132.101L73.457 91.7414L94.527 81.7314Z" stroke="#2E3F6B" stroke-width="1.5" stroke-miterlimit="10" stroke-linecap="round" stroke-linejoin="bevel"/>
<path d="M58.297 82.1514L39.117 122.506L56.797 112.866L60.187 132.521L79.367 92.1664L58.297 82.1514Z" stroke="#2E3F6B" stroke-width="1.5" stroke-miterlimit="10" stroke-linecap="round" stroke-linejoin="bevel"/>
<path d="M76.932 21.4615L72.547 29.7465L61.567 23.8365L60.287 34.3215L48.067 32.9165L50.882 43.3465L40.052 44.8515L46.327 53.9665L36.797 61.7315L45.607 67.4665L40.622 75.4615L50.477 76.6415L47.247 87.4415L60.057 86.7515L59.987 96.7065L69.722 90.7365L75.062 100.091L82.227 91.4765L88.897 98.2965L92.692 86.8715L101.502 91.3865L101.367 78.8565H111.707L107.337 68.0415L116.142 63.1615L107.337 57.0915L114.742 50.1265L102.907 44.6715L106.522 34.7065L94.717 35.7165L94.157 25.0865L84.247 30.7315L77.727 20.0215L76.932 21.4615Z" fill="#F1FAFF" stroke="#2E3F6B" stroke-width="1.5" stroke-miterlimit="10" stroke-linecap="round" stroke-linejoin="round"/>
<path d="M76.472 84.1718C89.5418 84.1718 100.137 73.5766 100.137 60.5068C100.137 47.437 89.5418 36.8418 76.472 36.8418C63.4022 36.8418 52.807 47.437 52.807 60.5068C52.807 73.5766 63.4022 84.1718 76.472 84.1718Z" stroke="#2E3F6B" stroke-width="1.5" stroke-miterlimit="10"/>
<path d="M76.4719 78.8562C86.5484 78.8562 94.7169 70.6876 94.7169 60.6112C94.7169 50.5348 86.5484 42.3662 76.4719 42.3662C66.3955 42.3662 58.2269 50.5348 58.2269 60.6112C58.2269 70.6876 66.3955 78.8562 76.4719 78.8562Z" stroke="#2E3F6B" stroke-width="1.5" stroke-miterlimit="10"/>
<path d="M141.622 70.4365C142.587 70.4365 142.587 68.9365 141.622 68.9365C140.657 68.9365 140.657 70.4365 141.622 70.4365Z" fill="white"/>
<path d="M76.3619 77.4611C74.3919 72.9011 74.5669 67.5061 76.7869 63.0661C77.2169 62.2061 75.9219 61.4461 75.4919 62.3111C73.0119 67.2761 72.8719 73.1261 75.0669 78.2211C75.4469 79.1011 76.7369 78.3411 76.3619 77.4611Z" fill="#2E3F6B"/>
<path d="M78.302 53.9961C77.187 53.7311 75.987 54.4361 75.727 55.5711C75.482 56.6411 76.007 57.8161 77.032 58.2611C77.977 58.6711 79.132 58.5661 79.847 57.7661C80.537 56.9911 80.732 55.8511 80.242 54.9211C79.717 53.9261 78.422 53.4061 77.352 53.7511C76.977 53.8711 76.702 54.2761 76.827 54.6761C76.947 55.0511 77.347 55.3261 77.752 55.2011C77.832 55.1761 77.917 55.1711 77.992 55.1411C77.832 55.1961 77.857 55.1561 77.937 55.1511C77.972 55.1511 78.007 55.1461 78.042 55.1461C78.082 55.1461 78.127 55.1461 78.167 55.1511C78.182 55.1511 78.197 55.1511 78.207 55.1561C78.287 55.1661 78.262 55.1611 78.132 55.1461C78.207 55.1761 78.297 55.1811 78.372 55.2061C78.407 55.2161 78.457 55.2461 78.492 55.2461C78.482 55.2461 78.322 55.1661 78.427 55.2211C78.502 55.2611 78.577 55.2961 78.647 55.3411C78.672 55.3561 78.692 55.3711 78.717 55.3861C78.842 55.4711 78.587 55.2661 78.697 55.3711C78.757 55.4311 78.817 55.4861 78.872 55.5461C78.972 55.6611 78.777 55.3961 78.857 55.5261C78.877 55.5611 78.902 55.5961 78.922 55.6311C78.937 55.6561 78.947 55.6811 78.962 55.7061C78.967 55.7161 78.972 55.7311 78.982 55.7411C79.017 55.8111 79.007 55.7911 78.957 55.6761C78.962 55.7461 79.007 55.8261 79.022 55.8961C79.027 55.9311 79.032 55.9661 79.042 55.9961C78.982 55.7761 79.032 55.9261 79.032 56.0011C79.032 56.0711 79.027 56.1411 79.027 56.2061C79.017 56.3611 79.067 56.0211 79.032 56.1711C79.022 56.2111 79.017 56.2511 79.007 56.2911C78.992 56.3561 78.952 56.4261 78.942 56.4911C78.957 56.4561 78.972 56.4211 78.987 56.3911C78.977 56.4161 78.962 56.4411 78.952 56.4661C78.932 56.5011 78.912 56.5411 78.892 56.5761C78.872 56.6111 78.847 56.6461 78.827 56.6811C78.787 56.7411 78.702 56.7961 78.847 56.6611C78.797 56.7061 78.757 56.7661 78.707 56.8111C78.677 56.8361 78.642 56.8611 78.612 56.8911C78.727 56.7661 78.707 56.8211 78.647 56.8611C78.617 56.8811 78.587 56.8961 78.557 56.9161C78.532 56.9311 78.507 56.9411 78.482 56.9561C78.412 56.9911 78.432 56.9811 78.547 56.9311C78.482 56.9411 78.412 56.9761 78.352 56.9911C78.312 57.0011 78.267 57.0011 78.232 57.0161C78.382 56.9561 78.372 57.0011 78.287 57.0061C78.212 57.0111 78.137 57.0111 78.057 57.0111C78.017 57.0111 77.972 56.9961 77.932 57.0011C77.972 57.0061 78.012 57.0111 78.047 57.0161C78.022 57.0111 77.992 57.0061 77.967 57.0011C77.887 56.9861 77.807 56.9561 77.727 56.9311C77.672 56.9161 77.637 56.8711 77.792 56.9611C77.757 56.9411 77.717 56.9261 77.682 56.9061C77.622 56.8761 77.562 56.8361 77.502 56.8011C77.372 56.7211 77.632 56.9211 77.522 56.8161C77.482 56.7811 77.442 56.7411 77.402 56.7011C77.382 56.6811 77.367 56.6611 77.347 56.6411C77.242 56.5311 77.442 56.7911 77.362 56.6611C77.317 56.5861 77.272 56.5111 77.232 56.4361C77.182 56.3461 77.287 56.6161 77.247 56.4611C77.232 56.4161 77.217 56.3711 77.207 56.3261C77.202 56.3011 77.192 56.2011 77.177 56.1861C77.182 56.2211 77.187 56.2561 77.192 56.2911C77.187 56.2611 77.187 56.2261 77.187 56.1961C77.187 56.1511 77.187 56.1011 77.187 56.0561C77.187 56.0261 77.192 55.9911 77.192 55.9611C77.177 56.0761 77.172 56.1011 77.182 56.0411C77.192 56.0011 77.197 55.9661 77.207 55.9261C77.227 55.8561 77.317 55.7111 77.207 55.8811C77.222 55.8561 77.232 55.8211 77.247 55.7961C77.267 55.7561 77.337 55.6861 77.342 55.6461C77.322 55.6711 77.302 55.7011 77.277 55.7261C77.297 55.7011 77.317 55.6811 77.337 55.6611C77.367 55.6311 77.402 55.6011 77.432 55.5711C77.547 55.4611 77.287 55.6611 77.417 55.5811C77.467 55.5511 77.517 55.5161 77.567 55.4911C77.592 55.4761 77.622 55.4661 77.647 55.4511C77.457 55.5561 77.607 55.4711 77.672 55.4511C77.702 55.4411 77.772 55.4411 77.802 55.4211C77.762 55.4261 77.727 55.4311 77.687 55.4361C77.717 55.4311 77.747 55.4311 77.772 55.4311C77.817 55.4311 77.857 55.4311 77.902 55.4311C77.982 55.4411 77.962 55.4361 77.832 55.4211C77.862 55.4261 77.887 55.4311 77.917 55.4411C78.297 55.5311 78.747 55.3211 78.842 54.9161C78.912 54.5361 78.707 54.0911 78.302 53.9961Z" fill="#2E3F6B"/>
<path d="M78.6169 53.3364C77.5419 50.9214 79.7919 47.7164 82.4819 48.4664C83.8869 48.8614 84.5619 50.1714 83.9169 51.5214C83.1569 53.1064 81.3319 53.7214 79.7919 54.2564C79.9869 54.7114 80.1769 55.1714 80.3719 55.6264C81.6419 54.8064 83.1269 53.7964 84.7269 54.0914C86.0069 54.3264 86.7369 55.5414 86.4369 56.7964C86.1319 58.0514 84.7669 58.7764 83.5369 58.6514C82.2169 58.5214 81.2119 57.5064 80.7069 56.3414C80.3119 56.6464 79.9219 56.9464 79.5269 57.2514C80.5119 58.5264 81.6369 59.9564 81.8519 61.6064C81.9969 62.7514 81.5919 64.2064 80.5119 64.7864C79.2319 65.4764 77.8219 64.4864 77.2119 63.3564C76.3519 61.7664 76.8369 59.7714 77.3119 58.1464C76.8219 58.0814 76.3319 58.0114 75.8369 57.9464C76.0219 59.6914 74.7119 61.3714 72.9819 61.6764C71.3919 61.9564 70.0319 60.7664 69.5919 59.3064C69.1469 57.8314 69.6969 56.3264 71.1319 55.6664C72.4519 55.0614 74.1119 55.2814 75.1019 56.3664C75.3469 55.9464 75.5869 55.5314 75.8319 55.1114C74.3669 54.6464 72.6719 54.1364 71.8519 52.7164C71.1969 51.5764 71.6569 50.3414 72.7269 49.6614C73.7869 48.9864 75.0619 49.0914 75.9919 49.9414C76.9519 50.8264 77.3419 52.1364 77.1819 53.4064C77.0669 54.3614 78.5669 54.3564 78.6819 53.4064C78.8969 51.6514 78.1769 49.7764 76.7969 48.6614C75.3469 47.4914 73.3769 47.4014 71.8269 48.4514C70.3069 49.4864 69.5919 51.3214 70.3469 53.0514C71.2469 55.1064 73.4369 55.9214 75.4269 56.5514C76.1769 56.7864 76.6369 55.8264 76.1569 55.2964C73.8469 52.7614 68.9919 53.6564 68.0769 57.0814C67.1469 60.5614 70.5619 64.2914 74.1069 62.8914C76.0719 62.1164 77.5669 60.0964 77.3319 57.9364C77.2469 57.1314 76.1119 56.8764 75.8569 57.7364C75.2319 59.8714 74.7869 62.4364 76.0969 64.4164C77.1419 65.9914 79.1219 67.0214 80.9619 66.2164C82.5969 65.5014 83.4369 63.5964 83.3669 61.8864C83.2769 59.6814 81.8719 57.8514 80.5819 56.1764C80.0169 55.4464 79.0969 56.3814 79.4019 57.0864C80.1419 58.7914 81.8119 60.0964 83.7069 60.1514C85.5419 60.2014 87.4219 59.0164 87.8719 57.1864C88.3169 55.3914 87.4419 53.4614 85.6769 52.7964C83.5169 51.9864 81.3819 53.1714 79.6069 54.3214C78.9269 54.7614 79.3419 55.9864 80.1869 55.6914C81.9019 55.0964 83.6869 54.4264 84.8069 52.9114C85.7769 51.5964 86.0369 49.7564 85.0019 48.4014C84.1269 47.2564 82.5969 46.7164 81.1819 46.8664C79.6769 47.0264 78.3869 47.9664 77.6219 49.2514C76.7419 50.7314 76.6219 52.5114 77.3219 54.0814C77.7119 54.9714 79.0069 54.2114 78.6169 53.3364Z" fill="#2E3F6B"/>
<path d="M74.012 69.5215C72.222 69.1015 70.722 67.9315 69.882 66.2915C69.712 65.9615 69.267 65.8415 68.947 65.9865C68.587 66.1415 68.442 66.4915 68.512 66.8715C69.127 70.0765 71.022 72.9265 73.672 74.8115C74.002 75.0465 74.507 74.8715 74.697 74.5415C74.917 74.1665 74.757 73.7515 74.427 73.5165C72.087 71.8515 70.497 69.2815 69.957 66.4715C69.502 66.6665 69.042 66.8565 68.587 67.0515C69.592 69.0065 71.472 70.4715 73.612 70.9665C74.557 71.1865 74.957 69.7415 74.012 69.5215Z" fill="#2E3F6B"/>
<path d="M74.7819 70.7965C76.7669 70.5165 78.6269 69.5165 79.9869 68.0465C79.5669 67.9365 79.1519 67.8265 78.7319 67.7165C79.4269 70.5715 77.8669 73.6665 75.2319 74.9065C74.8669 75.0765 74.7719 75.6065 74.9619 75.9315C75.1819 76.3065 75.6219 76.3715 75.9869 76.2015C79.2319 74.6715 81.0169 70.7765 80.1769 67.3165C80.0469 66.7815 79.3019 66.5765 78.9219 66.9865C77.7169 68.2915 76.1369 69.1015 74.3769 69.3515C73.9769 69.4065 73.7569 69.9215 73.8519 70.2765C73.9769 70.7065 74.3769 70.8565 74.7819 70.7965Z" fill="#2E3F6B"/>
<path d="M34.6269 12.1765C34.3919 11.5065 34.1569 10.8315 33.9219 10.1615C34.5269 9.10646 36.0419 8.74646 37.1119 9.32146C38.1869 9.89646 38.7319 11.2465 38.4869 12.4365C38.2419 13.6265 37.2869 14.6165 36.1419 15.0315C34.5819 15.5965 32.6969 15.1015 31.6219 13.8365C30.5469 12.5765 30.3469 10.6365 31.1519 9.18146C32.1519 7.36646 34.4069 6.56646 36.4769 6.61646C39.5919 6.69146 42.7869 8.66646 43.5419 11.6915C44.1069 13.9615 43.2069 16.4565 41.5219 18.0815C39.8369 19.7015 37.4669 20.5015 35.1319 20.5665C32.4919 20.6415 29.6519 19.6765 28.2069 17.4665" stroke="#585799" stroke-width="1.5" stroke-miterlimit="10"/>
<path d="M36.8969 106.896C33.8719 105.521 30.8419 104.146 27.8169 102.771C28.0819 104.626 28.3419 106.551 27.7969 108.346C27.2569 110.141 25.6719 111.761 23.7969 111.711C22.5319 111.676 21.4169 110.916 20.3619 110.216C19.3069 109.516 18.1319 108.816 16.8719 108.921C15.6119 109.026 14.4069 110.361 14.9219 111.521" stroke="#8CBCA3" stroke-width="1.5" stroke-miterlimit="10"/>
<path d="M115.662 137.916C114.507 138.001 113.497 136.821 113.602 135.666C113.707 134.516 114.752 133.576 115.892 133.406C117.037 133.236 118.212 133.741 119.037 134.551C119.892 135.391 120.422 136.706 119.957 137.811C119.477 138.961 118.157 139.486 116.942 139.766C115.597 140.076 114.127 140.221 112.892 139.606C111.807 139.066 111.047 137.976 110.787 136.796C110.522 135.616 110.727 134.361 111.227 133.256C112.232 131.041 114.492 129.431 116.917 129.251C119.342 129.071 121.837 130.341 123.077 132.436C124.317 134.531 124.232 137.351 122.832 139.341C121.432 141.331 118.777 142.366 116.407 141.811" stroke="#585799" stroke-width="1.5" stroke-miterlimit="10"/>
<path d="M119.217 36.4709C122.092 31.3659 124.292 25.8859 125.747 20.2109C125.757 25.1809 126.982 30.1409 129.282 34.5459" stroke="#2285C5" stroke-width="1.5" stroke-miterlimit="10"/>
<path d="M138.377 71.3061C137.057 69.8961 135.692 68.4561 133.947 67.6211C132.202 66.7861 129.972 66.6811 128.452 67.8761C126.877 69.1161 126.487 71.4611 127.137 73.3561C127.787 75.2511 129.282 76.7461 130.922 77.9011C131.782 78.5061 133.052 79.0111 133.797 78.2611C134.352 77.7011 134.212 76.7161 133.707 76.1111C133.202 75.5061 132.442 75.1911 131.712 74.9011C130.317 74.3411 128.877 73.7711 127.372 73.7561C125.867 73.7411 124.257 74.4061 123.582 75.7511C122.542 77.8261 124.107 80.2461 125.782 81.8611C126.347 82.4061 127.172 82.9611 127.852 82.5711C128.552 82.1661 128.412 81.0211 127.782 80.5111C127.152 80.0011 126.277 79.9611 125.472 79.9611C123.682 79.9661 121.722 80.1361 120.417 81.3611C119.112 82.5861 119.107 85.2111 120.787 85.8411" stroke="#8CBCA3" stroke-width="1.5" stroke-miterlimit="10"/>
<path d="M13.6269 24.5713C11.5769 25.9013 9.42694 27.3463 8.39194 29.5663C7.36194 31.7813 8.03694 34.9763 10.3519 35.7613C12.4919 36.4913 14.7319 34.8763 16.0869 33.0663C16.5219 32.4863 16.9269 31.7163 16.5919 31.0763C16.1969 30.3263 15.1019 30.3513 14.3219 30.6763C11.5319 31.8413 10.3419 35.7613 12.0119 38.2813C13.6819 40.8013 17.7519 41.2313 19.9169 39.1163C20.5819 38.4663 21.0419 37.3213 20.3919 36.6563C19.8569 36.1063 18.9319 36.2813 18.2469 36.6163C16.3919 37.5213 15.0169 39.4263 14.9219 41.4863C14.8269 43.5463 16.1119 45.6463 18.0519 46.3413C19.9919 47.0363 22.4219 46.1363 23.2969 44.2713C22.3069 44.2113 21.3619 45.1063 21.3719 46.1013C21.3819 47.0963 22.3369 47.9763 23.3269 47.9013" stroke="#8CBCA3" stroke-width="1.5" stroke-miterlimit="10"/>
<path d="M25.392 66.7266C24.892 71.6966 24.387 76.6616 23.887 81.6316C26.477 78.0066 29.427 74.6366 32.677 71.5916" stroke="#2285C5" stroke-width="1.5" stroke-miterlimit="10"/>
<path d="M70.1019 144.307C72.9769 139.202 75.1769 133.722 76.6319 128.047C76.6419 133.017 77.8669 137.977 80.1669 142.382" stroke="#2285C5" stroke-width="1.5" stroke-miterlimit="10"/>
<path d="M131.952 98.1865C132.917 103.962 134.647 109.612 137.072 114.942C133.942 111.082 129.877 107.987 125.322 106.002" stroke="#2285C5" stroke-width="1.5" stroke-miterlimit="10"/>
<path d="M77.2119 6.71625C77.4319 8.79125 78.5919 10.7263 80.4569 11.7313C82.4169 12.7863 84.8669 12.7163 86.7619 11.5563C88.4819 10.5113 89.9869 8.55125 92.1969 9.59125C94.2219 10.5413 95.3419 12.6963 97.2819 13.7913C99.0269 14.7763 101.632 14.7063 102.707 12.7813C103.177 11.9363 101.882 11.1813 101.412 12.0263C100.562 13.5463 98.4719 12.8913 97.3819 12.0663C95.8269 10.8863 94.7519 9.17625 92.9569 8.30125C91.1469 7.41625 89.4069 7.80125 87.8269 8.94625C87.0969 9.47625 86.4069 10.0863 85.5969 10.4963C84.7319 10.9363 83.7019 11.0813 82.7469 10.9413C80.6269 10.6363 78.9419 8.84125 78.7119 6.71625C78.6069 5.76625 77.1069 5.75625 77.2119 6.71625Z" fill="#8CBCA3"/>
<path d="M60.1919 10.9808C58.6269 10.9558 57.3069 12.5408 57.4869 14.0708C57.5819 14.8558 58.0219 15.5758 58.7469 15.9258C59.3969 16.2358 60.1519 16.3058 60.8469 16.1008C61.5119 15.9058 62.1419 15.4558 62.4319 14.8058C62.7769 14.0358 62.6869 13.1408 62.1919 12.4508C61.7019 11.7708 60.9869 11.2958 60.1369 11.2208C59.3369 11.1508 58.5869 11.5558 58.1469 12.2158C57.2719 13.5258 57.8619 15.6208 59.4219 16.0708C59.7969 16.1808 60.2569 15.9408 60.3469 15.5458C60.4369 15.1458 60.2269 14.7408 59.8219 14.6208C59.7919 14.6108 59.5969 14.5408 59.7319 14.5958C59.8669 14.6508 59.6919 14.5708 59.6569 14.5508C59.6369 14.5408 59.6169 14.5208 59.5969 14.5108C59.5019 14.4608 59.6519 14.5508 59.6619 14.5658C59.6269 14.5208 59.5669 14.4858 59.5269 14.4458C59.5069 14.4258 59.3769 14.2708 59.4669 14.3858C59.5569 14.5008 59.4419 14.3458 59.4219 14.3108C59.3969 14.2708 59.3719 14.2258 59.3519 14.1808C59.2669 14.0108 59.4069 14.3358 59.3419 14.1558C59.3019 14.0508 59.2769 13.9408 59.2519 13.8308C59.2169 13.6458 59.2619 13.9708 59.2519 13.8458C59.2469 13.7808 59.2419 13.7208 59.2419 13.6558C59.2419 13.5908 59.2419 13.5308 59.2469 13.4658C59.2469 13.4408 59.2569 13.4158 59.2519 13.3908C59.2519 13.3958 59.2169 13.5958 59.2419 13.4808C59.2619 13.3708 59.2869 13.2658 59.3269 13.1558C59.3919 12.9708 59.2469 13.3058 59.3369 13.1308C59.3569 13.0858 59.3819 13.0458 59.4069 13.0058C59.4169 12.9858 59.4369 12.9658 59.4469 12.9458C59.4969 12.8508 59.4019 13.0008 59.3919 13.0108C59.4419 12.9758 59.4819 12.9058 59.5269 12.8658C59.5469 12.8508 59.5619 12.8358 59.5819 12.8158C59.6469 12.7508 59.4169 12.9258 59.5319 12.8558C59.5719 12.8308 59.6169 12.8008 59.6569 12.7758C59.6769 12.7658 59.7019 12.7508 59.7269 12.7408C59.8419 12.6808 59.6819 12.7658 59.6719 12.7658C59.6969 12.7758 59.8769 12.7108 59.9019 12.7008C59.9919 12.6708 59.7369 12.7058 59.8319 12.7108C59.8669 12.7108 59.9019 12.7058 59.9369 12.7058C59.9919 12.7058 60.0519 12.7108 60.1069 12.7108C60.2319 12.7158 60.0469 12.7058 60.0369 12.7008C60.0619 12.7158 60.1119 12.7158 60.1419 12.7208C60.2119 12.7358 60.2819 12.7608 60.3469 12.7858C60.5069 12.8358 60.2019 12.7108 60.3869 12.8058C60.4369 12.8308 60.4919 12.8608 60.5419 12.8908C60.5719 12.9108 60.7519 13.0358 60.6469 12.9608C60.5519 12.8958 60.6369 12.9508 60.6569 12.9708C60.6919 13.0008 60.7219 13.0308 60.7569 13.0608C60.8069 13.1058 60.8469 13.1558 60.8919 13.2058C60.9369 13.2558 60.9119 13.2808 60.8569 13.1558C60.8669 13.1758 60.8919 13.2058 60.9069 13.2258C60.9469 13.2808 60.9819 13.3358 61.0119 13.3958C61.0269 13.4208 61.0369 13.4458 61.0519 13.4758C61.1319 13.6208 61.0269 13.3908 61.0469 13.4558C61.0769 13.5708 61.1019 13.7008 61.1419 13.8108C61.0869 13.6608 61.1269 13.6708 61.1319 13.7408C61.1319 13.7758 61.1369 13.8108 61.1369 13.8508C61.1369 13.8858 61.1319 13.9208 61.1319 13.9608C61.1269 14.0908 61.1669 13.8308 61.1369 13.9108C61.1169 13.9708 61.1069 14.0408 61.0869 14.1058C61.0769 14.1308 61.0669 14.1558 61.0619 14.1808C61.0919 14.0208 61.1219 14.0508 61.0919 14.1108C61.0619 14.1608 61.0369 14.2108 61.0069 14.2608C60.9919 14.2858 60.9669 14.3108 60.9519 14.3408C60.9719 14.3008 61.0719 14.2058 60.9869 14.2908C60.9469 14.3308 60.9119 14.3758 60.8669 14.4108C60.8469 14.4258 60.8269 14.4458 60.8119 14.4608C60.7269 14.5408 60.8669 14.4158 60.8769 14.4158C60.7719 14.4708 60.6719 14.5458 60.5669 14.6008C60.4169 14.6758 60.7319 14.5408 60.5519 14.6058C60.5019 14.6208 60.4519 14.6408 60.4019 14.6508C60.3469 14.6658 60.2869 14.6808 60.2319 14.6908C60.2019 14.6958 60.1669 14.7008 60.1369 14.7058C60.1769 14.6958 60.3269 14.6908 60.2019 14.6958C60.0919 14.7008 59.9819 14.7058 59.8669 14.7008C59.8369 14.7008 59.8019 14.6958 59.7719 14.6908C59.6769 14.6858 59.9469 14.7258 59.8569 14.7008C59.7869 14.6858 59.7169 14.6758 59.6469 14.6558C59.5969 14.6408 59.5469 14.6258 59.5019 14.6108C59.3269 14.5458 59.6119 14.6708 59.5019 14.6108C59.4469 14.5808 59.3869 14.5508 59.3369 14.5208C59.3169 14.5058 59.2969 14.4908 59.2719 14.4808C59.1619 14.4108 59.4069 14.6008 59.3019 14.5058C59.2269 14.4358 59.1619 14.3558 59.0869 14.2858C59.2469 14.4458 59.1069 14.3058 59.0669 14.2358C59.0519 14.2108 59.0419 14.1858 59.0269 14.1608C58.9619 14.0408 59.0769 14.3208 59.0369 14.1808C59.0169 14.1108 58.9919 14.0458 58.9769 13.9808C58.9719 13.9558 58.9719 13.9208 58.9619 13.8958C59.0219 14.0358 58.9769 14.0308 58.9669 13.9308C58.9619 13.8608 58.9619 13.7908 58.9669 13.7208C58.9669 13.6908 58.9719 13.6658 58.9719 13.6358C58.9819 13.4808 58.9319 13.8158 58.9669 13.6658C58.9819 13.5958 58.9969 13.5258 59.0169 13.4558C59.0369 13.3908 59.0769 13.3158 59.0869 13.2508C59.0719 13.3708 59.0269 13.3758 59.0619 13.3108C59.0819 13.2708 59.0969 13.2308 59.1219 13.1958C59.1569 13.1308 59.1919 13.0708 59.2319 13.0108C59.2469 12.9858 59.2669 12.9658 59.2819 12.9408C59.3619 12.8158 59.1769 13.0608 59.2719 12.9558C59.3219 12.9008 59.3669 12.8458 59.4169 12.7958C59.4619 12.7508 59.5369 12.7058 59.5769 12.6508C59.4919 12.7658 59.4719 12.7258 59.5469 12.6808C59.5769 12.6608 59.6069 12.6408 59.6369 12.6208C59.6969 12.5858 59.7619 12.5508 59.8219 12.5208C59.9519 12.4558 59.6819 12.5608 59.7769 12.5408C59.8169 12.5308 59.8569 12.5108 59.8969 12.5008C59.9219 12.4908 59.9519 12.4858 59.9769 12.4808C60.0069 12.4758 60.1619 12.4508 60.0219 12.4658C59.8969 12.4808 59.9969 12.4708 60.0269 12.4658C60.0769 12.4658 60.1269 12.4608 60.1769 12.4608C60.5669 12.4658 60.9469 12.1108 60.9269 11.7108C60.9219 11.3208 60.6119 10.9858 60.1919 10.9808Z" fill="#F69FA2"/>
<path d="M128.727 47.9861C127.772 48.3211 127.212 49.1661 127.092 50.1461C126.982 51.0411 127.417 51.9961 128.222 52.4311C129.022 52.8611 130.057 52.8111 130.822 52.3261C131.687 51.7811 132.117 50.7511 131.822 49.7561C131.507 48.6911 130.447 47.7661 129.292 47.8761C129.087 47.8961 128.912 47.9461 128.762 48.0961C128.632 48.2261 128.532 48.4411 128.542 48.6261C128.557 49.0011 128.872 49.4161 129.292 49.3761C129.372 49.3661 129.452 49.3711 129.537 49.3711C129.547 49.3711 129.582 49.3711 129.592 49.3761C129.607 49.3861 129.407 49.3411 129.482 49.3611C129.527 49.3761 129.577 49.3811 129.627 49.3911C129.662 49.4011 129.697 49.4111 129.732 49.4261C129.742 49.4311 129.777 49.4361 129.782 49.4461C129.792 49.4611 129.617 49.3661 129.687 49.4061C129.762 49.4511 129.842 49.4811 129.912 49.5311C129.942 49.5511 129.972 49.5761 130.002 49.5961C130.077 49.6461 129.872 49.4861 129.937 49.5461C129.952 49.5611 129.967 49.5711 129.982 49.5811C130.047 49.6411 130.112 49.7011 130.167 49.7661C130.177 49.7811 130.192 49.7961 130.202 49.8111C130.257 49.8711 130.132 49.7261 130.142 49.7311C130.167 49.7511 130.187 49.7961 130.207 49.8261C130.257 49.9011 130.297 49.9761 130.337 50.0561C130.397 50.1661 130.277 49.8961 130.322 50.0161C130.337 50.0561 130.352 50.0961 130.362 50.1411C130.372 50.1761 130.382 50.2111 130.392 50.2461C130.402 50.2811 130.427 50.4561 130.407 50.3111C130.387 50.1711 130.402 50.3061 130.407 50.3411C130.407 50.3761 130.412 50.4161 130.407 50.4511C130.407 50.4811 130.417 50.5561 130.397 50.5811C130.387 50.5961 130.432 50.3961 130.412 50.4711C130.407 50.4961 130.402 50.5211 130.397 50.5461C130.387 50.5911 130.377 50.6311 130.362 50.6711C130.357 50.6861 130.347 50.7061 130.342 50.7211C130.332 50.7961 130.377 50.6011 130.387 50.6211C130.402 50.6511 130.292 50.8011 130.277 50.8261C130.267 50.8361 130.232 50.9061 130.222 50.9061C130.207 50.9061 130.337 50.7711 130.287 50.8161C130.277 50.8261 130.267 50.8411 130.257 50.8511C130.207 50.9111 130.147 50.9611 130.092 51.0111C130.007 51.0911 130.237 50.9111 130.137 50.9761C130.107 50.9961 130.072 51.0211 130.042 51.0411C129.977 51.0811 129.902 51.1111 129.837 51.1511C129.772 51.1911 129.947 51.0911 129.937 51.1111C129.932 51.1161 129.897 51.1261 129.892 51.1311C129.862 51.1411 129.827 51.1561 129.797 51.1661C129.722 51.1911 129.647 51.2111 129.567 51.2261C129.497 51.2411 129.367 51.2361 129.617 51.2211C129.582 51.2211 129.552 51.2261 129.517 51.2311C129.437 51.2361 129.362 51.2361 129.282 51.2311C129.272 51.2311 129.182 51.2211 129.182 51.2211C129.182 51.2161 129.362 51.2511 129.297 51.2361C129.282 51.2311 129.262 51.2311 129.247 51.2261C129.172 51.2111 129.097 51.1911 129.022 51.1661C128.992 51.1561 128.852 51.1011 128.987 51.1561C129.117 51.2111 129.002 51.1611 128.972 51.1461C128.942 51.1311 128.912 51.1161 128.887 51.0961C128.852 51.0761 128.727 50.9861 128.842 51.0711C128.952 51.1561 128.852 51.0761 128.827 51.0561C128.802 51.0311 128.777 51.0111 128.752 50.9861C128.742 50.9761 128.672 50.9111 128.672 50.8961C128.672 50.8811 128.777 51.0411 128.737 50.9811C128.727 50.9611 128.712 50.9461 128.702 50.9261C128.662 50.8661 128.632 50.8011 128.597 50.7411C128.542 50.6361 128.657 50.9111 128.622 50.8011C128.607 50.7611 128.592 50.7161 128.582 50.6761C128.562 50.6111 128.557 50.5461 128.542 50.4811C128.597 50.7211 128.557 50.6011 128.552 50.5311C128.547 50.4911 128.547 50.4511 128.547 50.4161C128.547 50.3711 128.547 50.3261 128.552 50.2811C128.552 50.2461 128.572 50.1011 128.552 50.2461C128.532 50.3961 128.552 50.2461 128.562 50.2111C128.572 50.1661 128.582 50.1211 128.592 50.0811C128.602 50.0411 128.612 50.0061 128.627 49.9711C128.637 49.9361 128.697 49.7861 128.642 49.9211C128.587 50.0511 128.647 49.9211 128.662 49.8911C128.682 49.8511 128.702 49.8111 128.727 49.7761C128.747 49.7411 128.767 49.7111 128.792 49.6811C128.872 49.5561 128.692 49.7961 128.767 49.7161C128.822 49.6561 128.877 49.5961 128.937 49.5411C128.947 49.5311 128.962 49.5211 128.972 49.5111C129.067 49.4261 128.847 49.5961 128.912 49.5561C128.947 49.5361 128.977 49.5111 129.007 49.4911C129.047 49.4661 129.087 49.4511 129.122 49.4261C129.147 49.4111 129.212 49.3861 129.092 49.4361C128.962 49.4911 129.072 49.4461 129.097 49.4361C129.467 49.3061 129.752 48.9161 129.622 48.5111C129.532 48.1461 129.122 47.8461 128.727 47.9861Z" fill="#F69FA2"/>
<path d="M8.31696 87.8611C7.95196 88.1211 7.68196 88.4611 7.56696 88.9011C7.46696 89.2811 7.48196 89.6961 7.59196 90.0711C7.84196 90.9061 8.53696 91.5411 9.42696 91.5811C10.417 91.6211 11.237 90.8611 11.567 89.9811C11.887 89.1361 11.582 88.1361 10.877 87.5811C10.052 86.9311 8.95696 86.7761 8.00696 87.2461C7.65696 87.4211 7.52696 87.9461 7.73696 88.2711C7.97196 88.6311 8.38696 88.7261 8.76196 88.5411C8.82696 88.5111 8.92196 88.4961 8.71696 88.5561C8.75196 88.5461 8.78696 88.5311 8.82196 88.5211C8.88196 88.5011 8.93696 88.4861 8.99696 88.4761C9.06196 88.4611 9.17696 88.4661 8.94196 88.4811C8.97696 88.4811 9.01196 88.4711 9.05196 88.4711C9.12696 88.4661 9.19696 88.4661 9.27196 88.4711C9.30696 88.4711 9.34696 88.4811 9.38196 88.4811C9.15696 88.4761 9.25696 88.4611 9.32696 88.4761C9.38696 88.4861 9.44696 88.5011 9.50696 88.5161C9.57196 88.5361 9.65696 88.5511 9.71196 88.5861C9.71196 88.5861 9.52696 88.5011 9.63196 88.5561C9.67696 88.5761 9.71696 88.6011 9.76196 88.6211C9.81196 88.6511 9.86196 88.6861 9.91196 88.7161C10.027 88.7911 9.77196 88.5911 9.87196 88.6861C9.89696 88.7111 9.92696 88.7311 9.95196 88.7561C9.99696 88.7961 10.032 88.8411 10.072 88.8861C10.167 88.9911 9.96696 88.7311 10.042 88.8461C10.067 88.8861 10.092 88.9261 10.117 88.9661C10.127 88.9861 10.137 89.0111 10.152 89.0311C10.222 89.1511 10.087 88.8511 10.132 88.9861C10.157 89.0561 10.177 89.1311 10.192 89.2011C10.207 89.2661 10.172 89.2911 10.182 89.1161C10.182 89.1511 10.187 89.1911 10.187 89.2311C10.187 89.2711 10.187 89.3061 10.182 89.3461C10.182 89.3711 10.177 89.3961 10.177 89.4211C10.197 89.2911 10.202 89.2561 10.192 89.3161C10.172 89.3811 10.162 89.4511 10.142 89.5161C10.132 89.5511 10.112 89.5861 10.102 89.6211C10.152 89.4361 10.157 89.4961 10.132 89.5461C10.097 89.6161 10.062 89.6811 10.017 89.7461C9.99696 89.7761 9.97196 89.8061 9.95196 89.8411C9.97696 89.8111 9.99696 89.7811 10.022 89.7511C10.007 89.7711 9.98696 89.7911 9.97196 89.8111C9.92196 89.8661 9.86696 89.9161 9.80696 89.9711C9.72196 90.0461 9.86196 89.9261 9.87196 89.9261C9.84196 89.9411 9.80696 89.9711 9.77696 89.9911C9.74696 90.0111 9.71196 90.0311 9.68196 90.0461C9.61696 90.0811 9.53196 90.0811 9.72696 90.0311C9.65696 90.0511 9.58696 90.0761 9.51696 90.0961C9.37696 90.1311 9.71196 90.0861 9.57196 90.0911C9.54696 90.0911 9.52196 90.0961 9.49696 90.0961C9.45696 90.0961 9.42196 90.0961 9.38696 90.0911C9.24196 90.0861 9.56696 90.1311 9.44196 90.0961C9.39196 90.0811 9.34196 90.0711 9.29196 90.0561C9.16696 90.0161 9.47196 90.1461 9.35696 90.0811C9.32196 90.0611 9.28696 90.0411 9.25196 90.0211C9.10196 89.9261 9.39196 90.1461 9.25696 90.0261C9.21196 89.9861 9.17196 89.9411 9.12696 89.8961C9.05696 89.8211 9.18696 89.9711 9.18696 89.9761C9.18696 89.9661 9.14196 89.9111 9.13196 89.9011C9.09696 89.8461 9.06696 89.7811 9.03196 89.7261C8.98696 89.6461 9.10696 89.9211 9.06696 89.8061C9.05196 89.7661 9.03696 89.7261 9.02696 89.6861C9.00696 89.6261 8.99696 89.5661 8.98196 89.5061C8.95696 89.3761 9.00196 89.7161 8.99196 89.5811C8.98696 89.5411 8.98696 89.5011 8.98696 89.4561C8.98696 89.3711 9.03196 89.1661 8.97196 89.4411C8.98196 89.3811 8.99196 89.3261 9.01196 89.2661C9.02196 89.2361 9.03196 89.2111 9.04196 89.1811C8.97196 89.4111 8.99196 89.2961 9.02696 89.2261C9.03696 89.2061 9.05196 89.1861 9.06696 89.1611C9.14196 89.0311 8.94696 89.2961 9.03196 89.2061C9.05196 89.1861 9.07196 89.1611 9.09696 89.1411C9.22696 89.0211 8.96696 89.2311 9.06696 89.1611C9.23196 89.0461 9.35696 88.9111 9.41196 88.7111C9.46196 88.5311 9.43696 88.2911 9.33696 88.1311C9.14196 87.8161 8.65696 87.6161 8.31696 87.8611Z" fill="#F69FA2"/>
<path d="M26.547 130.757C25.817 131.337 25.607 132.357 25.777 133.232C25.952 134.122 26.662 134.942 27.577 135.102C28.562 135.277 29.557 134.872 30.167 134.082C30.782 133.287 30.827 132.162 30.217 131.342C29.567 130.462 28.337 129.892 27.262 130.332C27.072 130.407 26.922 130.492 26.812 130.677C26.717 130.837 26.677 131.077 26.737 131.257C26.852 131.607 27.272 131.942 27.662 131.782C27.737 131.752 27.812 131.727 27.892 131.707C27.932 131.697 27.972 131.697 28.007 131.682C27.817 131.742 27.887 131.697 27.962 131.692C28.042 131.687 28.117 131.692 28.197 131.697C28.347 131.707 28.007 131.657 28.152 131.692C28.202 131.702 28.257 131.712 28.307 131.727C28.347 131.737 28.382 131.747 28.422 131.762C28.447 131.772 28.567 131.822 28.442 131.767C28.317 131.712 28.442 131.767 28.462 131.777C28.497 131.797 28.532 131.812 28.567 131.832C28.637 131.872 28.702 131.932 28.772 131.962C28.612 131.887 28.682 131.892 28.747 131.947C28.787 131.982 28.827 132.017 28.867 132.057C28.897 132.087 28.922 132.117 28.947 132.147C28.997 132.202 29.017 132.287 28.932 132.117C28.967 132.187 29.022 132.247 29.062 132.317C29.077 132.342 29.087 132.362 29.097 132.387C29.167 132.517 29.037 132.212 29.082 132.352C29.112 132.442 29.137 132.527 29.157 132.617C29.192 132.762 29.147 132.422 29.152 132.577C29.152 132.617 29.157 132.657 29.157 132.697C29.157 132.737 29.152 132.777 29.152 132.817C29.147 132.967 29.192 132.627 29.157 132.772C29.137 132.847 29.117 132.922 29.092 132.997C29.057 133.107 29.117 132.932 29.122 132.927C29.092 132.967 29.077 133.022 29.052 133.062C29.032 133.097 29.012 133.127 28.992 133.162C28.957 133.217 28.872 133.282 29.017 133.137C28.962 133.192 28.917 133.257 28.862 133.312C28.832 133.337 28.807 133.367 28.777 133.392C28.722 133.437 28.637 133.467 28.807 133.372C28.727 133.417 28.657 133.477 28.577 133.522C28.512 133.557 28.317 133.617 28.542 133.547C28.467 133.572 28.397 133.602 28.322 133.622C28.242 133.642 27.992 133.657 28.257 133.647C28.167 133.652 28.077 133.662 27.987 133.657C27.947 133.657 27.912 133.647 27.872 133.647C28.082 133.642 27.997 133.667 27.917 133.652C27.852 133.637 27.792 133.617 27.732 133.602C27.592 133.562 27.897 133.687 27.767 133.617C27.732 133.597 27.697 133.582 27.667 133.562C27.637 133.542 27.607 133.522 27.572 133.502C27.467 133.437 27.722 133.632 27.582 133.507C27.527 133.457 27.482 133.407 27.432 133.352C27.337 133.247 27.537 133.507 27.462 133.392C27.442 133.362 27.422 133.332 27.402 133.302C27.372 133.252 27.342 133.197 27.312 133.142C27.282 133.082 27.272 132.982 27.327 133.187C27.312 133.142 27.292 133.097 27.277 133.047C27.252 132.967 27.232 132.882 27.217 132.797C27.187 132.657 27.232 132.997 27.222 132.852C27.217 132.802 27.212 132.752 27.212 132.707C27.207 132.622 27.217 132.537 27.222 132.452C27.232 132.312 27.187 132.617 27.212 132.522C27.222 132.482 27.227 132.437 27.237 132.397C27.257 132.312 27.292 132.237 27.312 132.152C27.262 132.352 27.262 132.267 27.292 132.197C27.312 132.152 27.337 132.112 27.362 132.072C27.382 132.042 27.402 132.012 27.422 131.982C27.492 131.877 27.292 132.132 27.417 131.992C27.477 131.927 27.537 131.872 27.607 131.817C27.747 131.707 27.827 131.457 27.827 131.287C27.827 131.102 27.747 130.882 27.607 130.757C27.282 130.457 26.877 130.497 26.547 130.757Z" fill="#F69FA2"/>
</svg>
