<svg width="134" height="81" viewBox="0 0 134 81" fill="none" xmlns="http://www.w3.org/2000/svg">
<path d="M1.49059 78.2172C11.7141 77.8819 22.0415 77.3657 32.0943 75.3442C40.7473 73.6044 48.7004 70.2923 55.7628 64.9353C59.6305 62.0021 63.1567 58.6364 66.2007 54.8483C69.1542 51.1708 71.4146 47.1212 73.8189 43.0817C78.3363 35.5055 84.1296 29.1059 92.4042 25.5659C104.466 20.4067 118.012 22.5053 130.499 24.6139C132.441 24.9424 133.278 21.9655 131.319 21.6337C120.265 19.7664 108.873 17.9964 97.7822 20.5944C88.7206 22.7165 80.6235 28.0902 75.0647 35.5457C72.4627 39.0355 70.4033 42.8772 68.1864 46.615C65.7185 50.7819 62.6812 54.5734 59.2053 57.9424C52.5782 64.3688 44.5447 69.0386 35.6171 71.3684C24.5363 74.2614 12.8828 74.7509 1.49059 75.1263C-0.491836 75.1934 -0.501882 78.2842 1.49059 78.2172Z" fill="#2E3F6B"/>
<path d="M128.326 0.064991C125.272 0.926532 122.218 1.20813 119.056 0.953351C118.079 0.872896 117.272 2.00597 117.566 2.9111C118.812 6.71931 119.164 10.6113 118.651 14.5838C118.544 15.4286 119.448 16.1125 120.195 16.1292C123.514 16.2097 126.705 16.9706 129.685 18.4356C131.463 19.3072 133.027 16.6455 131.242 15.7672C127.763 14.0575 124.073 13.1323 120.195 13.0384C120.711 13.5547 121.223 14.0676 121.739 14.5838C122.281 10.3666 121.863 6.1293 120.543 2.08978C120.048 2.74348 119.552 3.39383 119.053 4.04752C122.462 4.32241 125.851 3.97713 129.143 3.04854C131.055 2.50882 130.244 -0.47473 128.326 0.064991Z" fill="#F69FA2"/>
<path d="M120.828 10.4336C123.343 10.4872 125.858 10.4772 128.372 10.4101C130.355 10.3565 130.362 7.26566 128.372 7.31929C125.858 7.38634 123.343 7.39304 120.828 7.34276C118.839 7.30253 118.842 10.3934 120.828 10.4336Z" fill="#F69FA2"/>
<path d="M80.7139 42.6929C80.7875 51.0837 80.8579 59.4745 80.9315 67.8687C80.9483 69.8566 84.0358 69.8599 84.019 67.8687C83.9454 59.4778 83.875 51.087 83.8014 42.6929C83.7846 40.705 80.6971 40.7016 80.7139 42.6929Z" fill="#585799"/>
<path d="M83.4732 43.1152C84.143 39.9942 86.8152 38.1069 89.3703 36.5045C91.6842 35.0529 96.6805 32.4717 97.2866 37.0174C97.6884 40.0076 95.9136 43.1655 93.7905 45.1367C91.1417 47.5939 87.3878 48.4789 83.8885 47.7414C82.7097 47.4933 81.2832 48.8376 82.1438 50.0109C85.958 55.207 88.8378 60.9595 90.6763 67.1412C91.2422 69.0419 94.2225 68.234 93.6533 66.3199C91.7445 59.8935 88.7742 53.856 84.8094 48.4521C84.2267 49.2097 83.6474 49.964 83.0647 50.7216C87.7529 51.7105 92.6654 50.5171 96.1547 47.1514C99.115 44.2919 101.392 39.4243 100.049 35.2876C98.472 30.4234 93.1041 30.7888 89.4205 32.8672C85.6566 34.9892 81.4607 37.7884 80.4929 42.2939C80.081 44.2315 83.058 45.0629 83.4732 43.1152Z" fill="#585799"/>
<path d="M95.0697 55.6964C97.3234 56.4339 99.6005 57.0775 101.908 57.6273C103.84 58.0865 104.664 55.1097 102.728 54.6471C100.421 54.0973 98.1438 53.4537 95.8901 52.7162C93.9948 52.096 93.1844 55.0795 95.0697 55.6964Z" fill="#2285C5"/>
<path d="M109.797 27.584C103.428 26.7962 103.766 36.2129 103.475 40.1585C102.989 46.786 102.805 53.4102 102.584 60.0511C102.39 65.8304 101.419 71.7372 95.9906 74.8716C90.7265 77.9121 83.6206 77.4998 77.9579 75.8739C74.847 74.9822 72.2417 73.1753 71.0563 70.061C69.6967 66.4942 70.3564 62.6424 71.4079 59.0923C71.9738 57.1815 68.9969 56.3669 68.4309 58.271C66.693 64.1308 66.3346 71.4087 71.3443 75.8404C73.4741 77.7244 76.2099 78.7267 78.9592 79.2899C82.2744 79.9704 85.7637 80.3325 89.1426 80.0274C94.909 79.5112 100.736 76.8394 103.425 71.4355C106.278 65.7064 105.655 58.8074 105.883 52.6023C106.03 48.5594 106.251 44.5165 106.542 40.4803C106.69 38.4555 106.81 36.4207 107.038 34.406C107.222 32.7767 107.681 30.4067 109.801 30.6682C111.766 30.9196 111.746 27.8254 109.797 27.584Z" fill="#2285C5"/>
<path d="M118.367 35.1871C118.186 33.2897 116.478 32.0761 114.589 32.5957C112.259 33.236 111.904 35.9078 111.619 37.9192C110.772 43.893 110.524 49.9238 110.671 55.9512C110.745 59.0085 110.916 62.0625 111.147 65.113C111.301 67.1278 111.354 69.518 112.925 71.0165C114.405 72.4311 116.635 72.2602 118.152 71.0098C120.168 69.3504 120.225 66.7456 120.007 64.3387C119.83 62.3742 116.739 62.3541 116.92 64.3387C117.037 65.6293 117.419 67.8519 116.113 68.6765C114.77 69.5247 114.472 67.5871 114.362 66.6249C113.94 62.991 113.836 59.2733 113.755 55.6193C113.675 52.0223 113.732 48.4186 113.98 44.8283C114.1 43.0884 114.264 41.3519 114.482 39.6222C114.603 38.6768 114.71 37.7147 114.914 36.7794C114.981 36.4777 115.105 36.2028 115.185 35.9112C115.366 35.2575 115.363 36.0184 115.282 35.1804C115.467 37.1482 118.554 37.1683 118.367 35.1871Z" fill="#8CBCA3"/>
<path d="M100.247 2.65972C101.131 6.54838 101.472 10.4739 101.312 14.4565C101.272 15.4554 102.333 16.2198 103.267 15.9482C106.492 15.0029 109.764 14.8856 113.042 15.6465C114.974 16.0957 115.801 13.1155 113.863 12.6663C110.058 11.7847 106.197 11.8718 102.447 12.968C103.1 13.4642 103.75 13.9603 104.403 14.4598C104.573 10.2091 104.168 5.98855 103.227 1.84175C102.782 -0.10258 99.8048 0.718733 100.247 2.65972Z" fill="#8CBCA3"/>
<path d="M81.4573 3.93356C82.4318 8.98548 83.0747 14.0776 83.3929 19.2134C83.49 20.7521 85.4121 21.3052 86.2694 19.9944C87.2137 18.5462 88.9383 17.9395 90.4988 17.3964C92.498 16.7025 94.5407 16.1493 96.6068 15.7001C98.549 15.2778 97.7253 12.2976 95.7864 12.7199C91.6775 13.6117 86.0752 14.6375 83.6005 18.4323C84.5582 18.6937 85.5193 18.9519 86.477 19.2134C86.1421 13.8061 85.4557 8.43235 84.431 3.11225C84.0593 1.16121 81.0823 1.98587 81.4573 3.93356Z" fill="#2285C5"/>
<path d="M1.43363 6.72604C2.0029 27.2824 2.29089 47.842 2.29759 68.4084C2.29759 70.3963 5.38508 70.3996 5.38508 68.4084C5.38173 47.8454 5.09374 27.2824 4.52112 6.72604C4.46754 4.74148 1.38005 4.73478 1.43363 6.72604Z" fill="#585799"/>
<path d="M17.2562 66.8126C22.8083 54.7242 30.8284 43.97 40.831 35.2105C42.3278 33.8997 40.1378 31.7207 38.6476 33.0248C28.471 41.9352 20.2365 52.9542 14.5873 65.2538C13.7635 67.0473 16.4257 68.6195 17.2562 66.8126Z" fill="#2285C5"/>
<path d="M38.3027 35.6764C38.2692 40.6647 38.2324 45.6529 38.1989 50.6411C38.1688 54.865 37.4086 59.7962 39.1667 63.7587C39.9704 65.5723 42.6326 64.0034 41.8323 62.1998C41.0219 60.3728 41.2328 58.2408 41.2462 56.2964C41.263 53.9699 41.2797 51.6401 41.2931 49.3136C41.3232 44.7679 41.3567 40.2222 41.3869 35.6764C41.4036 33.6852 38.3161 33.6852 38.3027 35.6764Z" fill="#2285C5"/>
<path d="M23.2035 56.9737C28.6853 55.6194 34.1068 54.0471 39.4614 52.2537C41.3366 51.6268 40.5329 48.6399 38.6409 49.2735C33.2864 51.0669 27.8649 52.6392 22.383 53.9935C20.4542 54.4695 21.2713 57.4497 23.2035 56.9737Z" fill="#2285C5"/>
<path d="M75.5201 2.57583C72.5632 3.29322 69.5896 3.71897 66.5523 3.85306C65.5376 3.89664 64.811 4.80511 65.0621 5.8108C67.2354 14.5 67.6942 23.4406 68.1161 32.351C68.2032 34.1646 70.5205 34.3556 71.1467 32.7633C72.8277 28.4858 75.8717 24.9022 79.7629 22.4751C81.4473 21.4258 79.8968 18.7507 78.2057 19.8067C73.5879 22.6863 70.1588 26.88 68.1697 31.942C69.181 32.0794 70.1923 32.2169 71.2003 32.3543C70.7649 23.1757 70.276 13.9435 68.0358 4.99284C67.5402 5.64654 67.0446 6.29688 66.5456 6.95058C69.8508 6.80643 73.1191 6.34382 76.3338 5.56273C78.2694 5.0867 77.4523 2.10651 75.5201 2.57583Z" fill="#585799"/>
<path d="M70.5774 16.8365C72.8713 15.8576 75.1618 14.8821 77.4556 13.9032C79.2773 13.1255 77.7068 10.4638 75.8985 11.2348C73.6046 12.2137 71.3141 13.1892 69.0203 14.1681C67.1953 14.9458 68.7658 17.6075 70.5774 16.8365Z" fill="#585799"/>
<path d="M41.494 27.3427C43.2621 29.0591 43.4698 31.7208 43.7979 34.0372C44.2065 36.9135 44.4978 39.8099 44.692 42.7096C45.0872 48.5728 45.0503 54.4494 44.6284 60.3092C44.4844 62.2938 47.5719 62.2837 47.7159 60.3092C48.1881 53.799 48.1747 47.2621 47.6322 40.7552C47.3743 37.6443 47.0261 34.5233 46.507 31.4459C46.1119 29.106 45.4187 26.8499 43.674 25.157C42.2508 23.7725 40.0641 25.9548 41.494 27.3427Z" fill="#8CBCA3"/>
<path d="M42.2107 25.9849C47.6791 33.5779 53.1441 41.1742 58.6126 48.7672C59.7511 50.3495 62.3765 48.9013 61.2781 47.2084C53.6364 35.425 47.5518 20.276 54.0115 6.56842C54.8553 4.77829 52.1931 3.20941 51.3459 5.0096C44.3773 19.7966 50.2911 35.9346 58.6126 48.7705C59.5 48.2509 60.3907 47.7313 61.2781 47.2117C55.8097 39.6188 50.3446 32.0224 44.8762 24.4295C43.7243 22.8271 41.0453 24.3691 42.2107 25.9849Z" fill="#8CBCA3"/>
<path d="M57.6314 9.60903C58.2475 20.3934 59.721 31.114 62.0416 41.6637C62.4669 43.6047 65.4439 42.7834 65.0186 40.8424C62.7582 30.5576 61.3216 20.1218 60.7189 9.60903C60.605 7.63117 57.5175 7.61776 57.6314 9.60903Z" fill="#F69FA2"/>
<path d="M130.422 30.5409C128.215 29.629 125.911 29.2268 123.527 29.2972C122.465 29.3273 121.846 30.2559 122.037 31.2549C122.74 34.9156 122.321 38.754 122.184 42.4549C122.047 46.1659 121.91 49.8769 121.776 53.5846C121.735 54.6473 122.79 55.2641 123.731 55.0763C128.071 54.2014 131.792 51.3721 133.814 47.4331C134.722 45.6664 132.059 44.1009 131.149 45.8743C129.457 49.1662 126.531 51.3687 122.911 52.0995C123.564 52.5956 124.213 53.0918 124.866 53.5913C125.01 49.6624 125.154 45.7335 125.302 41.8046C125.442 38.0064 125.74 34.1949 125.02 30.4369C124.525 31.0906 124.029 31.741 123.53 32.3947C125.667 32.331 127.632 32.7132 129.605 33.5278C131.433 34.2787 132.234 31.2884 130.422 30.5409Z" fill="#F69FA2"/>
<path d="M125.315 43.132C127.113 42.951 128.868 42.6157 130.589 42.0626C132.475 41.4592 131.668 38.4757 129.769 39.0824C128.315 39.5484 126.832 39.887 125.315 40.0412C124.485 40.125 123.771 40.6915 123.771 41.5866C123.771 42.3576 124.481 43.2158 125.315 43.132Z" fill="#F69FA2"/>
<path d="M2.87026 7.45348C9.65136 9.03241 16.6099 9.16315 23.5082 9.83026C28.759 10.3398 37.0303 11.2952 36.317 18.4758C35.9955 21.7309 33.9394 24.4329 31.8297 26.7828C29.6163 29.2468 27.319 31.6303 25.1223 34.111C20.558 39.2668 16.2081 44.607 12.0691 50.1082C7.85311 55.7099 2.19718 62.0524 2.30768 69.4878C2.33782 71.4757 5.42531 71.4791 5.39518 69.4878C5.3416 65.817 7.03938 62.6156 9.00841 59.6253C10.9774 56.6418 13.1407 53.7689 15.3006 50.9194C19.8012 44.9825 24.5832 39.2534 29.5962 33.7422C33.7586 29.1663 39.4011 24.4195 39.4413 17.6914C39.4781 11.2684 33.9093 8.23792 28.2969 7.32274C20.1328 5.99188 11.7811 6.35392 3.69404 4.46658C1.7585 4.02072 0.93472 7.00092 2.87026 7.45348Z" fill="#585799"/>
</svg>
