<svg width="250" height="160" viewBox="0 0 250 160" fill="none" xmlns="http://www.w3.org/2000/svg">
<path d="M15.8503 1.48V20.424H5.67425V1.48H0.0422502V45H5.67425V25.736H15.8503V45H21.4823V1.48H15.8503ZM27.7298 45H46.2258V39.688H33.1698V25.544H44.4338V20.232H33.1698V6.792H46.2258V1.48H27.7298V45ZM65.8888 45H71.5848L63.6488 1.224H55.9048L47.9688 45H53.2808L55.0728 34.44H64.1608L65.8888 45ZM59.6808 5.896L63.3928 29.192H55.9048L59.4248 5.896H59.6808ZM74.7298 45H83.9458C92.9698 45 96.1698 40.712 96.1698 31.048V15.368C96.1698 5.384 92.7138 1.48 83.6258 1.48H74.7298V45ZM80.3618 39.688V6.728H83.6258C88.9378 6.728 90.5378 8.776 90.5378 14.984V31.688C90.5378 37.768 88.9378 39.688 83.6258 39.688H80.3618ZM107.299 1.48H101.667V45H107.299V1.48ZM113.542 45H118.726V15.112H118.854L129.222 45H134.982V1.48H129.862V31.368H129.67L119.302 1.48H113.542V45ZM150.83 45.896H151.47C158.126 45.896 161.134 41.672 161.134 33.032V23.24H150.958V28.424H155.95V33.672C155.95 38.792 154.478 40.968 151.15 40.968C147.822 40.968 146.35 38.792 146.35 33.672V12.616C146.35 7.432 147.822 5.448 151.15 5.448C154.478 5.448 155.95 7.432 155.95 12.616V16.136H161.134V13.384C161.134 4.68 157.806 0.584 151.406 0.584H150.894C144.238 0.584 140.718 4.68 140.718 13.384V33.032C140.718 41.672 143.918 45.896 150.83 45.896ZM186.336 45.896H187.04C194.144 45.896 197.408 41.672 197.408 33.032V13.384C197.408 4.68 193.824 0.584 186.976 0.584H186.464C179.552 0.584 175.968 4.68 175.968 13.384V33.032C175.968 41.672 179.232 45.896 186.336 45.896ZM186.72 40.968C183.072 40.968 181.6 38.792 181.6 33.672V12.616C181.6 7.432 183.072 5.448 186.72 5.448C190.304 5.448 191.776 7.432 191.776 12.616V33.672C191.776 38.792 190.304 40.968 186.72 40.968ZM203.167 45H208.351V15.112H208.479L218.847 45H224.607V1.48H219.487V31.368H219.295L208.927 1.48H203.167V45ZM230.855 45H249.351V39.688H236.295V25.544H247.559V20.232H236.295V6.792H249.351V1.48H230.855V45Z" fill="#434343"/>
<path d="M44.1785 78.72V92.336H36.8645V78.72H32.8165V110H36.8645V96.154H44.1785V110H48.2265V78.72H44.1785ZM52.7169 110H66.0109V106.182H56.6269V96.016H64.7229V92.198H56.6269V82.538H66.0109V78.72H52.7169V110ZM80.1437 110H84.2377L78.5337 78.536H72.9677L67.2637 110H71.0817L72.3697 102.41H78.9017L80.1437 110ZM75.6817 81.894L78.3497 98.638H72.9677L75.4977 81.894H75.6817ZM86.4981 110H93.1221C99.6081 110 101.908 106.918 101.908 99.972V88.702C101.908 81.526 99.4241 78.72 92.8921 78.72H86.4981V110ZM90.5461 106.182V82.492H92.8921C96.7101 82.492 97.8601 83.964 97.8601 88.426V100.432C97.8601 104.802 96.7101 106.182 92.8921 106.182H90.5461ZM109.907 78.72H105.859V110H109.907V78.72ZM114.395 110H118.121V88.518H118.213L125.665 110H129.805V78.72H126.125V100.202H125.987L118.535 78.72H114.395V110ZM141.195 110.644H141.655C146.439 110.644 148.601 107.608 148.601 101.398V94.36H141.287V98.086H144.875V101.858C144.875 105.538 143.817 107.102 141.425 107.102C139.033 107.102 137.975 105.538 137.975 101.858V86.724C137.975 82.998 139.033 81.572 141.425 81.572C143.817 81.572 144.875 82.998 144.875 86.724V89.254H148.601V87.276C148.601 81.02 146.209 78.076 141.609 78.076H141.241C136.457 78.076 133.927 81.02 133.927 87.276V101.398C133.927 107.608 136.227 110.644 141.195 110.644ZM163.127 110H167.175V82.538H172.603V78.72H157.653V82.538H163.127V110ZM177.291 110H182.627L185.525 86.218H185.617L188.469 110H193.851L198.037 78.72H194.311L191.091 104.664H191.045L187.825 78.72H183.547L180.281 104.664H180.235L177.199 78.72H173.105L177.291 110ZM207.594 110.644H208.1C213.206 110.644 215.552 107.608 215.552 101.398V87.276C215.552 81.02 212.976 78.076 208.054 78.076H207.686C202.718 78.076 200.142 81.02 200.142 87.276V101.398C200.142 107.608 202.488 110.644 207.594 110.644ZM207.87 107.102C205.248 107.102 204.19 105.538 204.19 101.858V86.724C204.19 82.998 205.248 81.572 207.87 81.572C210.446 81.572 211.504 82.998 211.504 86.724V101.858C211.504 105.538 210.446 107.102 207.87 107.102Z" fill="#434343"/>
<path d="M34 133H214" stroke="#98D1B3" stroke-width="3" stroke-linecap="round" stroke-linejoin="round"/>
<path d="M15.5199 157H16.4299L12.9299 147.816H12.0479L8.54791 157H9.45791L10.3959 154.508H14.5679L15.5199 157ZM10.6759 153.766L12.2579 149.58C12.3279 149.384 12.4119 149.132 12.4679 148.88H12.4959C12.5659 149.132 12.6359 149.384 12.7059 149.58L14.2879 153.766H10.6759ZM21.0701 150.378C19.7541 150.378 18.9421 151.19 18.5921 152.086H18.5641C18.5641 151.666 18.5221 150.966 18.4381 150.42L17.8361 150.448V157H18.6901V153.416C18.6901 152.436 19.4461 151.092 20.9441 151.092C22.0781 151.092 22.7641 151.862 22.7641 152.982V157H23.6181V152.982C23.6181 151.442 22.6381 150.378 21.0701 150.378ZM29.5354 155.936C29.5354 155.936 29.0454 156.342 28.2474 156.342C27.2674 156.342 26.8614 155.782 26.8614 154.69V151.148H29.5214V150.448H26.8614V148.404L26.0074 148.46V150.448H24.9294V151.148H26.0074V154.718C26.0074 156.272 26.6514 157.084 28.1774 157.084C29.1854 157.084 29.8294 156.622 29.8294 156.622L29.5354 155.936ZM36.7415 156.286C36.6855 156.3 36.5875 156.314 36.5035 156.314C36.1955 156.314 36.0695 156.16 36.0695 155.782V152.8C36.0695 151.316 35.0475 150.378 33.3675 150.378C31.7995 150.378 30.7775 151.204 30.7775 152.394C30.7775 152.716 30.8615 152.954 30.8615 152.954L31.6595 152.814C31.6315 152.758 31.5895 152.632 31.5895 152.436C31.5895 151.596 32.2895 151.092 33.3535 151.092C34.5435 151.092 35.2155 151.764 35.2155 152.814V153.318L34.8095 153.332C32.1215 153.36 30.6095 153.864 30.6095 155.334C30.6095 156.384 31.3795 157.07 32.7655 157.07C34.3195 157.07 35.0055 156.244 35.2435 155.754H35.2715V156.09C35.2715 156.79 35.6915 157.07 36.2655 157.07C36.5315 157.07 36.7695 157 36.7835 157L36.7415 156.286ZM32.9475 156.356C31.9535 156.356 31.4775 155.95 31.4775 155.306C31.4775 154.34 32.6115 153.976 34.8095 153.948L35.2155 153.934V154.788C35.2155 155.208 34.5715 156.356 32.9475 156.356ZM41.003 150.378C39.995 150.378 39.393 151.19 39.141 152.086H39.113C39.113 151.666 39.071 150.966 38.987 150.42L38.385 150.448V157H39.239V153.458C39.239 152.324 39.981 151.204 40.961 151.204C41.213 151.204 41.437 151.26 41.535 151.316L41.745 150.476C41.577 150.42 41.297 150.378 41.003 150.378ZM45.4499 150.378C43.5599 150.378 42.2579 151.75 42.2579 153.752C42.2579 155.726 43.5459 157.07 45.5479 157.07C46.6259 157.07 47.5359 156.72 48.1239 156.034L47.6199 155.502C47.2839 155.88 46.6819 156.356 45.5759 156.356C44.0359 156.356 43.1119 155.306 43.1119 153.738C43.1119 152.142 44.0639 151.092 45.4639 151.092C46.5979 151.092 47.2839 151.778 47.2839 152.716C47.2839 152.884 47.2699 153.024 47.2559 153.066L48.0539 153.01C48.0539 153.01 48.0959 152.828 48.0959 152.59C48.0959 151.33 47.0739 150.378 45.4499 150.378ZM53.68 155.936C53.68 155.936 53.19 156.342 52.392 156.342C51.412 156.342 51.006 155.782 51.006 154.69V151.148H53.666V150.448H51.006V148.404L50.152 148.46V150.448H49.074V151.148H50.152V154.718C50.152 156.272 50.796 157.084 52.322 157.084C53.33 157.084 53.974 156.622 53.974 156.622L53.68 155.936ZM56.322 148.306C56.322 147.928 56.014 147.648 55.65 147.648C55.286 147.648 54.992 147.928 54.992 148.306C54.992 148.67 55.286 148.95 55.65 148.95C56.014 148.95 56.322 148.67 56.322 148.306ZM55.202 157H56.056V150.42L55.202 150.448V157ZM61.0222 150.378C59.1322 150.378 57.8302 151.75 57.8302 153.752C57.8302 155.726 59.1182 157.07 61.1202 157.07C62.1982 157.07 63.1082 156.72 63.6962 156.034L63.1922 155.502C62.8562 155.88 62.2542 156.356 61.1482 156.356C59.6082 156.356 58.6842 155.306 58.6842 153.738C58.6842 152.142 59.6362 151.092 61.0362 151.092C62.1702 151.092 62.8562 151.778 62.8562 152.716C62.8562 152.884 62.8422 153.024 62.8282 153.066L63.6262 153.01C63.6262 153.01 63.6682 152.828 63.6682 152.59C63.6682 151.33 62.6462 150.378 61.0222 150.378ZM71.1399 156.286C71.0839 156.3 70.9859 156.314 70.9019 156.314C70.5939 156.314 70.4679 156.16 70.4679 155.782V152.8C70.4679 151.316 69.4459 150.378 67.7659 150.378C66.1979 150.378 65.1759 151.204 65.1759 152.394C65.1759 152.716 65.2599 152.954 65.2599 152.954L66.0579 152.814C66.0299 152.758 65.9879 152.632 65.9879 152.436C65.9879 151.596 66.6879 151.092 67.7519 151.092C68.9419 151.092 69.6139 151.764 69.6139 152.814V153.318L69.2079 153.332C66.5199 153.36 65.0079 153.864 65.0079 155.334C65.0079 156.384 65.7779 157.07 67.1639 157.07C68.7179 157.07 69.4039 156.244 69.6419 155.754H69.6699V156.09C69.6699 156.79 70.0899 157.07 70.6639 157.07C70.9299 157.07 71.1679 157 71.1819 157L71.1399 156.286ZM67.3459 156.356C66.3519 156.356 65.8759 155.95 65.8759 155.306C65.8759 154.34 67.0099 153.976 69.2079 153.948L69.6139 153.934V154.788C69.6139 155.208 68.9699 156.356 67.3459 156.356ZM76.0174 150.378C74.7014 150.378 73.8894 151.19 73.5394 152.086H73.5114C73.5114 151.666 73.4694 150.966 73.3854 150.42L72.7834 150.448V157H73.6374V153.416C73.6374 152.436 74.3934 151.092 75.8914 151.092C77.0254 151.092 77.7114 151.862 77.7114 152.982V157H78.5654V152.982C78.5654 151.442 77.5854 150.378 76.0174 150.378ZM90.643 147.816V151.848H85.141V147.816H84.273V157H85.141V152.59H90.643V157H91.525V147.816H90.643ZM96.6361 150.378C94.7881 150.378 93.5001 151.722 93.5001 153.738C93.5001 155.74 94.7741 157.07 96.8041 157.07C97.8261 157.07 98.7361 156.734 99.3381 155.992L98.8061 155.502C98.4421 155.95 97.8121 156.356 96.8601 156.356C95.3761 156.356 94.4381 155.39 94.3681 153.906H99.4361C99.4361 153.906 99.4781 153.696 99.4781 153.346C99.4781 151.61 98.4001 150.378 96.6361 150.378ZM96.6361 151.092C97.8261 151.092 98.6101 151.904 98.6101 153.22V153.276H94.3961C94.5501 151.96 95.4321 151.092 96.6361 151.092ZM106.933 156.286C106.877 156.3 106.779 156.314 106.695 156.314C106.387 156.314 106.261 156.16 106.261 155.782V152.8C106.261 151.316 105.239 150.378 103.559 150.378C101.991 150.378 100.969 151.204 100.969 152.394C100.969 152.716 101.053 152.954 101.053 152.954L101.851 152.814C101.823 152.758 101.781 152.632 101.781 152.436C101.781 151.596 102.481 151.092 103.545 151.092C104.735 151.092 105.407 151.764 105.407 152.814V153.318L105.001 153.332C102.313 153.36 100.801 153.864 100.801 155.334C100.801 156.384 101.571 157.07 102.957 157.07C104.511 157.07 105.197 156.244 105.435 155.754H105.463V156.09C105.463 156.79 105.883 157.07 106.457 157.07C106.723 157.07 106.961 157 106.975 157L106.933 156.286ZM103.139 156.356C102.145 156.356 101.669 155.95 101.669 155.306C101.669 154.34 102.803 153.976 105.001 153.948L105.407 153.934V154.788C105.407 155.208 104.763 156.356 103.139 156.356ZM113.7 147.144V151.736C113.294 150.952 112.468 150.364 111.278 150.364C109.416 150.364 108.156 151.708 108.156 153.71C108.156 155.726 109.416 157.07 111.236 157.07C112.58 157.07 113.462 156.3 113.812 155.348H113.826C113.812 155.754 113.868 156.496 113.924 157.028L114.54 157V147.144H113.7ZM111.376 156.342C109.948 156.342 109.024 155.292 109.024 153.71C109.024 152.142 109.934 151.092 111.32 151.092C112.93 151.092 113.7 152.408 113.7 153.416V154.004C113.7 155.012 112.93 156.342 111.376 156.342ZM116.766 157H117.606V147.116H116.766V157ZM120.963 148.306C120.963 147.928 120.655 147.648 120.291 147.648C119.927 147.648 119.633 147.928 119.633 148.306C119.633 148.67 119.927 148.95 120.291 148.95C120.655 148.95 120.963 148.67 120.963 148.306ZM119.843 157H120.697V150.42L119.843 150.448V157ZM126.125 150.378C124.809 150.378 123.997 151.19 123.647 152.086H123.619C123.619 151.666 123.577 150.966 123.493 150.42L122.891 150.448V157H123.745V153.416C123.745 152.436 124.501 151.092 125.999 151.092C127.133 151.092 127.819 151.862 127.819 152.982V157H128.673V152.982C128.673 151.442 127.693 150.378 126.125 150.378ZM133.509 150.378C131.661 150.378 130.373 151.722 130.373 153.738C130.373 155.74 131.647 157.07 133.677 157.07C134.699 157.07 135.609 156.734 136.211 155.992L135.679 155.502C135.315 155.95 134.685 156.356 133.733 156.356C132.249 156.356 131.311 155.39 131.241 153.906H136.309C136.309 153.906 136.351 153.696 136.351 153.346C136.351 151.61 135.273 150.378 133.509 150.378ZM133.509 151.092C134.699 151.092 135.483 151.904 135.483 153.22V153.276H131.269C131.423 151.96 132.305 151.092 133.509 151.092ZM137.856 156.482C137.856 156.846 138.164 157.084 138.528 157.084C138.528 157.84 137.716 158.456 137.716 158.456L138.136 158.96C138.136 158.96 139.284 158.19 139.284 156.734C139.284 156.202 138.976 155.866 138.528 155.866C138.122 155.866 137.856 156.118 137.856 156.482ZM153.047 147.816H152.081L149.015 154.788C148.875 155.096 148.665 155.6 148.609 155.796H148.581C148.525 155.6 148.329 155.096 148.189 154.788L145.095 147.816H144.101V157H144.969L144.955 150.294C144.955 149.958 144.927 149.454 144.913 149.37L144.955 149.356C144.969 149.412 145.039 149.734 145.221 150.126L148.315 157.028H148.875L151.899 150.182C152.011 149.93 152.151 149.468 152.193 149.356L152.235 149.37C152.221 149.44 152.193 149.93 152.193 150.294L152.179 157H153.047V147.816ZM158.173 150.378C156.325 150.378 155.037 151.722 155.037 153.738C155.037 155.74 156.311 157.07 158.341 157.07C159.363 157.07 160.273 156.734 160.875 155.992L160.343 155.502C159.979 155.95 159.349 156.356 158.397 156.356C156.913 156.356 155.975 155.39 155.905 153.906H160.973C160.973 153.906 161.015 153.696 161.015 153.346C161.015 151.61 159.937 150.378 158.173 150.378ZM158.173 151.092C159.363 151.092 160.147 151.904 160.147 153.22V153.276H155.933C156.087 151.96 156.969 151.092 158.173 151.092ZM167.882 147.144V151.736C167.476 150.952 166.65 150.364 165.46 150.364C163.598 150.364 162.338 151.708 162.338 153.71C162.338 155.726 163.598 157.07 165.418 157.07C166.762 157.07 167.644 156.3 167.994 155.348H168.008C167.994 155.754 168.05 156.496 168.106 157.028L168.722 157V147.144H167.882ZM165.558 156.342C164.13 156.342 163.206 155.292 163.206 153.71C163.206 152.142 164.116 151.092 165.502 151.092C167.112 151.092 167.882 152.408 167.882 153.416V154.004C167.882 155.012 167.112 156.342 165.558 156.342ZM172.068 148.306C172.068 147.928 171.76 147.648 171.396 147.648C171.032 147.648 170.738 147.928 170.738 148.306C170.738 148.67 171.032 148.95 171.396 148.95C171.76 148.95 172.068 148.67 172.068 148.306ZM170.948 157H171.802V150.42L170.948 150.448V157ZM178.686 150.448V154.032C178.686 155.012 177.944 156.356 176.53 156.356C175.396 156.356 174.78 155.614 174.78 154.48V150.448H173.926V154.48C173.926 156.034 174.85 157.07 176.404 157.07C177.622 157.07 178.42 156.328 178.77 155.446H178.784C178.784 155.782 178.826 156.482 178.91 157.028L179.526 157V150.448H178.686ZM189.519 150.392C188.287 150.392 187.489 151.176 187.167 152.1C186.859 151.05 186.005 150.392 184.787 150.392C183.541 150.392 182.757 151.162 182.435 152.086C182.435 151.666 182.393 150.966 182.309 150.42L181.707 150.448V157H182.561V153.416C182.561 152.436 183.275 151.106 184.661 151.106C185.781 151.106 186.439 151.876 186.439 153.01V157H187.293V153.416C187.293 152.436 188.007 151.106 189.393 151.106C190.513 151.106 191.171 151.876 191.171 153.01V157H192.025V153.01C192.025 151.456 191.073 150.392 189.519 150.392ZM205.45 150.448L203.924 155.6C203.84 155.838 203.784 156.076 203.756 156.146H203.728C203.714 156.076 203.658 155.796 203.602 155.6L202.034 150.448H201.152L199.584 155.628C199.528 155.824 199.444 156.076 199.43 156.146H199.402C199.388 156.076 199.304 155.866 199.234 155.628L197.708 150.448H196.756L198.856 157H199.892L201.46 152.016C201.502 151.862 201.558 151.624 201.572 151.54H201.6C201.614 151.624 201.67 151.862 201.712 152.016L203.252 157H204.288L206.318 150.448H205.45ZM210.4 150.378C208.552 150.378 207.264 151.722 207.264 153.738C207.264 155.74 208.538 157.07 210.568 157.07C211.59 157.07 212.5 156.734 213.102 155.992L212.57 155.502C212.206 155.95 211.576 156.356 210.624 156.356C209.14 156.356 208.202 155.39 208.132 153.906H213.2C213.2 153.906 213.242 153.696 213.242 153.346C213.242 151.61 212.164 150.378 210.4 150.378ZM210.4 151.092C211.59 151.092 212.374 151.904 212.374 153.22V153.276H208.16C208.314 151.96 209.196 151.092 210.4 151.092ZM216.133 148.306C216.133 147.928 215.825 147.648 215.461 147.648C215.097 147.648 214.803 147.928 214.803 148.306C214.803 148.67 215.097 148.95 215.461 148.95C215.825 148.95 216.133 148.67 216.133 148.306ZM215.013 157H215.867V150.42L215.013 150.448V157ZM221.519 156.104H220.091C219.125 156.104 218.537 155.978 218.537 155.432C218.537 155.096 218.845 154.886 219.335 154.816C219.699 154.97 220.119 155.054 220.595 155.054C222.205 155.054 223.269 154.116 223.269 152.716C223.269 152.142 223.087 151.652 222.779 151.274C223.199 151.218 223.913 150.742 223.913 149.664L223.171 149.51C223.171 150.21 222.961 150.756 222.429 150.938C221.967 150.574 221.337 150.378 220.581 150.378C218.985 150.378 217.921 151.316 217.921 152.716C217.921 153.444 218.215 154.046 218.719 154.466C218.215 154.592 217.767 154.97 217.767 155.53C217.767 156.076 218.061 156.412 218.523 156.608C217.767 156.874 217.319 157.378 217.319 158.092C217.319 159.226 218.467 159.926 220.623 159.926C222.905 159.926 223.941 159.1 223.941 157.91C223.941 156.762 223.031 156.104 221.519 156.104ZM220.595 151.078C221.687 151.078 222.415 151.736 222.415 152.716C222.415 153.696 221.687 154.354 220.581 154.354C219.489 154.354 218.775 153.696 218.775 152.716C218.775 151.736 219.489 151.078 220.595 151.078ZM220.623 159.198C218.985 159.198 218.159 158.778 218.159 157.98C218.159 157.322 218.691 156.832 219.867 156.832H221.379C222.513 156.832 223.101 157.154 223.101 157.91C223.101 158.792 222.275 159.198 220.623 159.198ZM228.61 150.378C227.378 150.378 226.58 151.078 226.202 151.89V147.116H225.362V157H226.216V153.43C226.216 152.408 226.972 151.092 228.47 151.092C229.618 151.092 230.29 151.862 230.29 152.982V157H231.144V152.982C231.144 151.442 230.178 150.378 228.61 150.378ZM237.061 155.936C237.061 155.936 236.571 156.342 235.773 156.342C234.793 156.342 234.387 155.782 234.387 154.69V151.148H237.047V150.448H234.387V148.404L233.533 148.46V150.448H232.455V151.148H233.533V154.718C233.533 156.272 234.177 157.084 235.703 157.084C236.711 157.084 237.355 156.622 237.355 156.622L237.061 155.936ZM238.317 156.454C238.317 156.804 238.611 157.084 238.961 157.084C239.311 157.084 239.591 156.804 239.591 156.454C239.591 156.104 239.311 155.81 238.961 155.81C238.611 155.81 238.317 156.104 238.317 156.454Z" fill="black"/>
</svg>
