<svg width="111" height="109" viewBox="0 0 111 109" fill="none" xmlns="http://www.w3.org/2000/svg">
<path d="M6.14795 1.70898H104.852" stroke="#98D1B3" stroke-width="1.64507" stroke-linecap="round" stroke-linejoin="round"/>
<path d="M14.7077 13.4201H12.6547V19.9346H13.5529V17.8322H14.8163C16.3758 17.8322 17.2641 17.0327 17.2641 15.6212C17.2641 14.2097 16.3363 13.4201 14.7077 13.4201ZM14.6781 17.0721H13.5529V14.1801H14.6485C15.7441 14.1801 16.3561 14.7032 16.3561 15.6212C16.3561 16.549 15.754 17.0721 14.6781 17.0721ZM22.4854 19.1943C22.446 19.2042 22.3769 19.214 22.3176 19.214C22.1005 19.214 22.0314 19.1153 22.0314 18.8587V16.9734C22.0314 15.8976 21.2911 15.2165 20.0277 15.2165C18.8433 15.2165 18.1128 15.8186 18.1128 16.6675C18.1128 16.8945 18.1721 17.0721 18.1721 17.0721L18.9913 16.934C18.9617 16.8649 18.942 16.8056 18.942 16.6971C18.942 16.2134 19.3466 15.9469 20.008 15.9469C20.7779 15.9469 21.1628 16.3516 21.1628 16.9833V17.2794H21.0246C18.9716 17.2794 18.0043 17.6841 18.0043 18.7008C18.0043 19.4608 18.557 19.9938 19.5835 19.9938C20.6693 19.9938 21.074 19.441 21.2023 19.2042H21.222V19.214C21.222 19.7569 21.5774 19.9839 22.061 19.9839C22.3078 19.9839 22.5348 19.9247 22.5348 19.9247L22.4854 19.1943ZM19.7612 19.2634C19.169 19.2634 18.8926 19.0462 18.8926 18.681C18.8926 18.1678 19.4355 17.8815 21.0246 17.8815H21.1628V18.3257C21.1628 18.76 20.6693 19.2634 19.7612 19.2634ZM25.5767 15.2165C24.8857 15.2165 24.4909 15.7199 24.3132 16.3319H24.2738C24.2738 16.1246 24.2343 15.6015 24.1553 15.2461L23.5434 15.2757V19.9346H24.4119V17.4966C24.4119 16.5293 25.0042 16.0654 25.5273 16.0654C25.7247 16.0654 25.8629 16.1147 25.9616 16.1739L26.1788 15.2955C26.0011 15.2461 25.7839 15.2165 25.5767 15.2165ZM31.0739 19.1943C31.0344 19.2042 30.9653 19.214 30.9061 19.214C30.6889 19.214 30.6198 19.1153 30.6198 18.8587V16.9734C30.6198 15.8976 29.8795 15.2165 28.6161 15.2165C27.4317 15.2165 26.7013 15.8186 26.7013 16.6675C26.7013 16.8945 26.7605 17.0721 26.7605 17.0721L27.5797 16.934C27.5501 16.8649 27.5304 16.8056 27.5304 16.6971C27.5304 16.2134 27.9351 15.9469 28.5964 15.9469C29.3663 15.9469 29.7512 16.3516 29.7512 16.9833V17.2794H29.613C27.56 17.2794 26.5927 17.6841 26.5927 18.7008C26.5927 19.4608 27.1454 19.9938 28.172 19.9938C29.2577 19.9938 29.6624 19.441 29.7907 19.2042H29.8105V19.214C29.8105 19.7569 30.1658 19.9839 30.6494 19.9839C30.8962 19.9839 31.1232 19.9247 31.1232 19.9247L31.0739 19.1943ZM28.3496 19.2634C27.7574 19.2634 27.481 19.0462 27.481 18.681C27.481 18.1678 28.0239 17.8815 29.613 17.8815H29.7512V18.3257C29.7512 18.76 29.2577 19.2634 28.3496 19.2634ZM34.7178 19.2338H33.7505C33.1089 19.2338 32.7339 19.1548 32.7339 18.8291C32.7339 18.6415 32.9017 18.533 33.1583 18.4935C33.4051 18.5725 33.6913 18.6218 33.9973 18.6218C35.1916 18.6218 35.9911 17.9407 35.9911 16.9241C35.9911 16.549 35.8825 16.2233 35.6851 15.9568C35.9911 15.9074 36.5833 15.562 36.5833 14.6736L35.8431 14.5157C35.8431 15.0882 35.695 15.4731 35.3594 15.6311C35.0139 15.3744 34.5402 15.2264 33.9874 15.2264C32.7931 15.2264 32.0035 15.9074 32.0035 16.9241C32.0035 17.4374 32.2009 17.8618 32.5562 18.1579C32.2206 18.2862 31.9442 18.5527 31.9442 18.9377C31.9442 19.3226 32.1219 19.5694 32.3983 19.7273C31.8751 19.9148 31.6086 20.2603 31.6086 20.7143C31.6086 21.504 32.3785 21.9975 34.0565 21.9975C35.8332 21.9975 36.4846 21.346 36.4846 20.5465C36.4846 19.6878 35.8233 19.2338 34.7178 19.2338ZM33.9973 15.9469C34.6685 15.9469 35.1126 16.3319 35.1126 16.9241C35.1126 17.5163 34.6685 17.9013 33.9874 17.9013C33.3162 17.9013 32.8819 17.5163 32.8819 16.9241C32.8819 16.3319 33.3261 15.9469 33.9973 15.9469ZM34.0565 21.2671C32.9214 21.2671 32.4674 21.0598 32.4674 20.586C32.4674 20.2504 32.6944 19.9741 33.5136 19.9741H34.55C35.2508 19.9741 35.6259 20.0728 35.6259 20.5465C35.6259 21.0499 35.1817 21.2671 34.0565 21.2671ZM39.3991 15.2165C38.7082 15.2165 38.3134 15.7199 38.1357 16.3319H38.0962C38.0962 16.1246 38.0567 15.6015 37.9778 15.2461L37.3658 15.2757V19.9346H38.2344V17.4966C38.2344 16.5293 38.8266 16.0654 39.3498 16.0654C39.5472 16.0654 39.6853 16.1147 39.7841 16.1739L40.0012 15.2955C39.8235 15.2461 39.6064 15.2165 39.3991 15.2165ZM44.8963 19.1943C44.8568 19.2042 44.7877 19.214 44.7285 19.214C44.5114 19.214 44.4423 19.1153 44.4423 18.8587V16.9734C44.4423 15.8976 43.702 15.2165 42.4386 15.2165C41.2541 15.2165 40.5237 15.8186 40.5237 16.6675C40.5237 16.8945 40.5829 17.0721 40.5829 17.0721L41.4022 16.934C41.3726 16.8649 41.3528 16.8056 41.3528 16.6971C41.3528 16.2134 41.7575 15.9469 42.4188 15.9469C43.1887 15.9469 43.5737 16.3516 43.5737 16.9833V17.2794H43.4355C41.3824 17.2794 40.4151 17.6841 40.4151 18.7008C40.4151 19.4608 40.9679 19.9938 41.9944 19.9938C43.0802 19.9938 43.4848 19.441 43.6132 19.2042H43.6329V19.214C43.6329 19.7569 43.9882 19.9839 44.4719 19.9839C44.7186 19.9839 44.9457 19.9247 44.9457 19.9247L44.8963 19.1943ZM42.1721 19.2634C41.5799 19.2634 41.3035 19.0462 41.3035 18.681C41.3035 18.1678 41.8464 17.8815 43.4355 17.8815H43.5737V18.3257C43.5737 18.76 43.0802 19.2634 42.1721 19.2634ZM48.4613 15.2165C47.5039 15.2165 46.9511 15.7298 46.6945 16.3319H46.6846C46.6945 16.1443 46.6353 15.562 46.5662 15.2461L45.9542 15.2757V21.9481H46.8228V19.1647C47.1387 19.6483 47.6815 19.9938 48.412 19.9938C49.7741 19.9938 50.6822 19.0462 50.6822 17.615C50.6822 16.1739 49.7741 15.2165 48.4613 15.2165ZM48.3626 19.2634C47.2867 19.2634 46.8228 18.4047 46.8228 17.7039V17.5163C46.8228 16.8254 47.3163 15.9469 48.3034 15.9469C49.2213 15.9469 49.7938 16.6181 49.7938 17.615C49.7938 18.6021 49.2312 19.2634 48.3626 19.2634ZM54.214 15.2165C53.4342 15.2165 52.9407 15.6113 52.6643 16.095H52.6446V12.9661H51.7859V19.9346H52.6643V17.5064C52.6643 16.8056 53.0986 15.9469 54.0659 15.9469C54.7667 15.9469 55.1517 16.401 55.1517 17.082V19.9346H56.0302V17.082C56.0302 15.9667 55.3294 15.2165 54.214 15.2165ZM62.4096 18.987C62.4096 18.987 62.0938 19.2535 61.5509 19.2535C60.9192 19.2535 60.6527 18.8784 60.6527 18.1283V15.9765H62.459V15.2757H60.6527V13.8445L59.7742 13.8939V15.2757H59.0339V15.9765H59.7742V18.1579C59.7742 19.3522 60.2579 19.9938 61.462 19.9938C62.2221 19.9938 62.686 19.6878 62.686 19.6878L62.4096 18.987ZM67.5073 17.842C67.5073 17.842 67.5468 17.6742 67.5468 17.3979C67.5468 16.1739 66.7966 15.2165 65.4246 15.2165C64.0132 15.2165 63.115 16.2233 63.115 17.615C63.115 19.0364 64.0526 19.9938 65.5431 19.9938C66.3426 19.9938 67.0335 19.7076 67.4678 19.1351L66.9348 18.6514C66.7275 18.9278 66.3228 19.2634 65.6122 19.2634C64.6844 19.2634 64.102 18.7008 64.0132 17.842H67.5073ZM65.4246 15.9469C66.1649 15.9469 66.6486 16.4503 66.6584 17.2202H64.0329C64.1612 16.4701 64.6745 15.9469 65.4246 15.9469ZM70.6722 17.5854L72.3699 15.2757H71.3829L70.4057 16.6675C70.3268 16.7859 70.2083 16.9932 70.1886 17.0623H70.1688C70.1491 16.9932 70.0109 16.7859 69.9319 16.6675L68.9548 15.2757H67.9283L69.6753 17.6348L67.9677 19.9346H68.9548L70.001 18.4737C70.0701 18.3849 70.1392 18.2763 70.159 18.1974H70.1787C70.1886 18.2763 70.2577 18.3849 70.3268 18.4737L71.373 19.9346H72.3996L70.6722 17.5854ZM76.1839 18.987C76.1839 18.987 75.868 19.2535 75.3251 19.2535C74.6934 19.2535 74.4269 18.8784 74.4269 18.1283V15.9765H76.2332V15.2757H74.4269V13.8445L73.5485 13.8939V15.2757H72.8082V15.9765H73.5485V18.1579C73.5485 19.3522 74.0321 19.9938 75.2363 19.9938C75.9963 19.9938 76.4602 19.6878 76.4602 19.6878L76.1839 18.987ZM81.5026 15.2165C80.8117 15.2165 80.4169 15.7199 80.2392 16.3319H80.1997C80.1997 16.1246 80.1602 15.6015 80.0813 15.2461L79.4693 15.2757V19.9346H80.3379V17.4966C80.3379 16.5293 80.9301 16.0654 81.4533 16.0654C81.6507 16.0654 81.7889 16.1147 81.8876 16.1739L82.1047 15.2955C81.927 15.2461 81.7099 15.2165 81.5026 15.2165ZM83.9577 13.7656C83.9577 13.43 83.6813 13.1733 83.3457 13.1733C83.0101 13.1733 82.7436 13.43 82.7436 13.7656C82.7436 14.1012 83.0101 14.3479 83.3457 14.3479C83.6813 14.3479 83.9577 14.1012 83.9577 13.7656ZM82.8818 19.9346H83.7603V15.2461L82.8818 15.2757V19.9346ZM87.7424 19.2338H86.7751C86.1336 19.2338 85.7585 19.1548 85.7585 18.8291C85.7585 18.6415 85.9263 18.533 86.1829 18.4935C86.4297 18.5725 86.7159 18.6218 87.0219 18.6218C88.2162 18.6218 89.0157 17.9407 89.0157 16.9241C89.0157 16.549 88.9071 16.2233 88.7097 15.9568C89.0157 15.9074 89.6079 15.562 89.6079 14.6736L88.8677 14.5157C88.8677 15.0882 88.7196 15.4731 88.384 15.6311C88.0385 15.3744 87.5648 15.2264 87.012 15.2264C85.8177 15.2264 85.0281 15.9074 85.0281 16.9241C85.0281 17.4374 85.2255 17.8618 85.5808 18.1579C85.2452 18.2862 84.9688 18.5527 84.9688 18.9377C84.9688 19.3226 85.1465 19.5694 85.4229 19.7273C84.8998 19.9148 84.6333 20.2603 84.6333 20.7143C84.6333 21.504 85.4031 21.9975 87.0811 21.9975C88.8578 21.9975 89.5092 21.346 89.5092 20.5465C89.5092 19.6878 88.8479 19.2338 87.7424 19.2338ZM87.0219 15.9469C87.6931 15.9469 88.1373 16.3319 88.1373 16.9241C88.1373 17.5163 87.6931 17.9013 87.012 17.9013C86.3408 17.9013 85.9065 17.5163 85.9065 16.9241C85.9065 16.3319 86.3507 15.9469 87.0219 15.9469ZM87.0811 21.2671C85.946 21.2671 85.492 21.0598 85.492 20.586C85.492 20.2504 85.719 19.9741 86.5382 19.9741H87.5746C88.2754 19.9741 88.6505 20.0728 88.6505 20.5465C88.6505 21.0499 88.2063 21.2671 87.0811 21.2671ZM92.8185 15.2165C92.0388 15.2165 91.5452 15.6113 91.2689 16.095H91.2491V12.9661H90.3904V19.9346H91.2689V17.5064C91.2689 16.8056 91.7032 15.9469 92.6705 15.9469C93.3713 15.9469 93.7562 16.401 93.7562 17.082V19.9346H94.6347V17.082C94.6347 15.9667 93.9339 15.2165 92.8185 15.2165ZM98.8261 18.987C98.8261 18.987 98.5102 19.2535 97.9673 19.2535C97.3356 19.2535 97.0691 18.8784 97.0691 18.1283V15.9765H98.8754V15.2757H97.0691V13.8445L96.1907 13.8939V15.2757H95.4504V15.9765H96.1907V18.1579C96.1907 19.3522 96.6743 19.9938 97.8785 19.9938C98.6385 19.9938 99.1024 19.6878 99.1024 19.6878L98.8261 18.987ZM14.8142 27.2165C14.0345 27.2165 13.541 27.6113 13.2646 28.095H13.2448V24.9661H12.3861V31.9346H13.2646V29.5064C13.2646 28.8056 13.6989 27.9469 14.6662 27.9469C15.367 27.9469 15.7519 28.401 15.7519 29.082V31.9346H16.6304V29.082C16.6304 27.9667 15.9296 27.2165 14.8142 27.2165ZM22.0831 29.842C22.0831 29.842 22.1226 29.6742 22.1226 29.3979C22.1226 28.1739 21.3724 27.2165 20.0004 27.2165C18.589 27.2165 17.6908 28.2233 17.6908 29.615C17.6908 31.0364 18.6285 31.9938 20.1189 31.9938C20.9184 31.9938 21.6093 31.7076 22.0436 31.1351L21.5106 30.6514C21.3033 30.9278 20.8987 31.2634 20.188 31.2634C19.2602 31.2634 18.6778 30.7008 18.589 29.842H22.0831ZM20.0004 27.9469C20.7407 27.9469 21.2244 28.4503 21.2343 29.2202H18.6087C18.737 28.4701 19.2503 27.9469 20.0004 27.9469ZM25.2441 27.2165C24.5532 27.2165 24.1584 27.7199 23.9807 28.3319H23.9412C23.9412 28.1246 23.9017 27.6015 23.8228 27.2461L23.2108 27.2757V31.9346H24.0794V29.4966C24.0794 28.5293 24.6716 28.0654 25.1948 28.0654C25.3922 28.0654 25.5304 28.1147 25.6291 28.1739L25.8462 27.2955C25.6685 27.2461 25.4514 27.2165 25.2441 27.2165ZM30.5751 29.842C30.5751 29.842 30.6146 29.6742 30.6146 29.3979C30.6146 28.1739 29.8645 27.2165 28.4925 27.2165C27.081 27.2165 26.1828 28.2233 26.1828 29.615C26.1828 31.0364 27.1205 31.9938 28.6109 31.9938C29.4104 31.9938 30.1014 31.7076 30.5357 31.1351L30.0027 30.6514C29.7954 30.9278 29.3907 31.2634 28.68 31.2634C27.7522 31.2634 27.1698 30.7008 27.081 29.842H30.5751ZM28.4925 27.9469C29.2328 27.9469 29.7164 28.4503 29.7263 29.2202H27.1008C27.2291 28.4701 27.7423 27.9469 28.4925 27.9469ZM31.5252 31.4213C31.5252 31.7372 31.7818 31.9938 32.1075 31.9938C32.4234 31.9938 32.68 31.7372 32.68 31.4213C32.68 31.1055 32.4234 30.839 32.1075 30.839C31.7818 30.839 31.5252 31.1055 31.5252 31.4213ZM36.857 31.9346H37.7553V26.1801H39.8478V25.4201H34.7645V26.1801H36.857V31.9346ZM43.0953 27.2165C42.3155 27.2165 41.822 27.6113 41.5457 28.095H41.5259V24.9661H40.6672V31.9346H41.5457V29.5064C41.5457 28.8056 41.98 27.9469 42.9473 27.9469C43.6481 27.9469 44.033 28.401 44.033 29.082V31.9346H44.9115V29.082C44.9115 27.9667 44.2107 27.2165 43.0953 27.2165ZM47.334 25.7656C47.334 25.43 47.0576 25.1733 46.722 25.1733C46.3864 25.1733 46.1199 25.43 46.1199 25.7656C46.1199 26.1012 46.3864 26.3479 46.722 26.3479C47.0576 26.3479 47.334 26.1012 47.334 25.7656ZM46.2581 31.9346H47.1366V27.2461L46.2581 27.2757V31.9346ZM51.1582 28.9438L51.9577 28.8846C51.9577 28.8846 51.9972 28.7464 51.9972 28.5589C51.9972 27.789 51.2668 27.2165 50.1712 27.2165C49.0756 27.2165 48.3451 27.8186 48.3451 28.5885C48.3451 30.3158 51.178 29.7039 51.178 30.6613C51.178 31.0166 50.8424 31.2634 50.1514 31.2634C49.4408 31.2634 48.8584 30.8883 48.661 30.7008L48.128 31.293C48.3945 31.5101 48.9966 31.9938 50.1416 31.9938C51.2767 31.9938 52.0762 31.5101 52.0663 30.6712C52.0367 28.9044 49.2335 29.694 49.2335 28.5984C49.2335 28.2134 49.5691 27.9469 50.1514 27.9469C50.7634 27.9469 51.1878 28.2332 51.1878 28.7168C51.1878 28.7859 51.178 28.8747 51.1582 28.9438ZM56.5007 25.7656C56.5007 25.43 56.2244 25.1733 55.8888 25.1733C55.5532 25.1733 55.2867 25.43 55.2867 25.7656C55.2867 26.1012 55.5532 26.3479 55.8888 26.3479C56.2244 26.3479 56.5007 26.1012 56.5007 25.7656ZM55.4249 31.9346H56.3033V27.2461L55.4249 27.2757V31.9346ZM60.325 28.9438L61.1245 28.8846C61.1245 28.8846 61.164 28.7464 61.164 28.5589C61.164 27.789 60.4336 27.2165 59.3379 27.2165C58.2423 27.2165 57.5119 27.8186 57.5119 28.5885C57.5119 30.3158 60.3447 29.7039 60.3447 30.6613C60.3447 31.0166 60.0091 31.2634 59.3182 31.2634C58.6075 31.2634 58.0252 30.8883 57.8278 30.7008L57.2948 31.293C57.5613 31.5101 58.1634 31.9938 59.3083 31.9938C60.4434 31.9938 61.2429 31.5101 61.2331 30.6712C61.2034 28.9044 58.4002 29.694 58.4002 28.5984C58.4002 28.2134 58.7358 27.9469 59.3182 27.9469C59.9302 27.9469 60.3546 28.2332 60.3546 28.7168C60.3546 28.7859 60.3447 28.8747 60.325 28.9438ZM67.3882 30.987C67.3882 30.987 67.0723 31.2535 66.5295 31.2535C65.8978 31.2535 65.6313 30.8784 65.6313 30.1283V27.9765H67.4375V27.2757H65.6313V25.8445L64.7528 25.8939V27.2757H64.0125V27.9765H64.7528V30.1579C64.7528 31.3522 65.2364 31.9938 66.4406 31.9938C67.2007 31.9938 67.6646 31.6878 67.6646 31.6878L67.3882 30.987ZM70.8655 27.2165C70.0858 27.2165 69.5922 27.6113 69.3159 28.095H69.2961V24.9661H68.4374V31.9346H69.3159V29.5064C69.3159 28.8056 69.7502 27.9469 70.7175 27.9469C71.4183 27.9469 71.8032 28.401 71.8032 29.082V31.9346H72.6817V29.082C72.6817 27.9667 71.9809 27.2165 70.8655 27.2165ZM78.1344 29.842C78.1344 29.842 78.1739 29.6742 78.1739 29.3979C78.1739 28.1739 77.4237 27.2165 76.0517 27.2165C74.6403 27.2165 73.742 28.2233 73.742 29.615C73.742 31.0364 74.6797 31.9938 76.1702 31.9938C76.9697 31.9938 77.6606 31.7076 78.0949 31.1351L77.5619 30.6514C77.3546 30.9278 76.9499 31.2634 76.2393 31.2634C75.3114 31.2634 74.7291 30.7008 74.6403 29.842H78.1344ZM76.0517 27.9469C76.792 27.9469 77.2757 28.4503 77.2855 29.2202H74.66C74.7883 28.4701 75.3016 27.9469 76.0517 27.9469ZM84.0054 27.2165C83.048 27.2165 82.4953 27.7298 82.2386 28.3319H82.2288C82.2386 28.1443 82.1794 27.562 82.1103 27.2461L81.4983 27.2757V33.9481H82.3669V31.1647C82.6828 31.6483 83.2257 31.9938 83.9561 31.9938C85.3182 31.9938 86.2263 31.0462 86.2263 29.615C86.2263 28.1739 85.3182 27.2165 84.0054 27.2165ZM83.9067 31.2634C82.8309 31.2634 82.3669 30.4047 82.3669 29.7039V29.5163C82.3669 28.8254 82.8605 27.9469 83.8475 27.9469C84.7655 27.9469 85.3379 28.6181 85.3379 29.615C85.3379 30.6021 84.7753 31.2634 83.9067 31.2634ZM91.5447 31.1943C91.5052 31.2042 91.4361 31.214 91.3769 31.214C91.1597 31.214 91.0906 31.1153 91.0906 30.8587V28.9734C91.0906 27.8976 90.3503 27.2165 89.0869 27.2165C87.9025 27.2165 87.1721 27.8186 87.1721 28.6675C87.1721 28.8945 87.2313 29.0721 87.2313 29.0721L88.0505 28.934C88.0209 28.8649 88.0012 28.8056 88.0012 28.6971C88.0012 28.2134 88.4059 27.9469 89.0672 27.9469C89.8371 27.9469 90.222 28.3516 90.222 28.9833V29.2794H90.0838C88.0308 29.2794 87.0635 29.6841 87.0635 30.7008C87.0635 31.4608 87.6162 31.9938 88.6428 31.9938C89.7285 31.9938 90.1332 31.441 90.2615 31.2042H90.2812V31.214C90.2812 31.7569 90.6366 31.9839 91.1202 31.9839C91.367 31.9839 91.594 31.9247 91.594 31.9247L91.5447 31.1943ZM88.8204 31.2634C88.2282 31.2634 87.9518 31.0462 87.9518 30.681C87.9518 30.1678 88.4947 29.8815 90.0838 29.8815H90.222V30.3257C90.222 30.76 89.7285 31.2634 88.8204 31.2634ZM94.6359 27.2165C93.945 27.2165 93.5501 27.7199 93.3725 28.3319H93.333C93.333 28.1246 93.2935 27.6015 93.2145 27.2461L92.6026 27.2757V31.9346H93.4712V29.4966C93.4712 28.5293 94.0634 28.0654 94.5865 28.0654C94.7839 28.0654 94.9221 28.1147 95.0208 28.1739L95.238 27.2955C95.0603 27.2461 94.8432 27.2165 94.6359 27.2165ZM98.9466 30.987C98.9466 30.987 98.6307 31.2535 98.0878 31.2535C97.4561 31.2535 97.1896 30.8784 97.1896 30.1283V27.9765H98.9959V27.2757H97.1896V25.8445L96.3112 25.8939V27.2757H95.5709V27.9765H96.3112V30.1579C96.3112 31.3522 96.7948 31.9938 97.999 31.9938C98.759 31.9938 99.2229 31.6878 99.2229 31.6878L98.9466 30.987ZM12.5692 39.2757L11.6414 42.5034C11.5624 42.76 11.513 42.9673 11.4933 43.0462H11.4736C11.4538 42.9673 11.4045 42.7205 11.3452 42.5034L10.3878 39.2757H9.4896L8.53217 42.533C8.47295 42.7501 8.40386 42.9673 8.38412 43.0462H8.36438C8.34464 42.9673 8.27554 42.7896 8.20645 42.533L7.27863 39.2757H6.30146L7.8215 43.9346H8.83816L9.85481 40.7069C9.88442 40.5984 9.91403 40.4602 9.9239 40.3812H9.94364C9.95351 40.4602 9.98313 40.5984 10.0127 40.7069L10.9899 43.9346H12.0263L13.4575 39.2757H12.5692ZM16.7902 39.2165C16.0105 39.2165 15.517 39.6113 15.2406 40.095H15.2209V36.9661H14.3621V43.9346H15.2406V41.5064C15.2406 40.8056 15.6749 39.9469 16.6422 39.9469C17.343 39.9469 17.7279 40.401 17.7279 41.082V43.9346H18.6064V41.082C18.6064 39.9667 17.9056 39.2165 16.7902 39.2165ZM24.0591 41.842C24.0591 41.842 24.0986 41.6742 24.0986 41.3979C24.0986 40.1739 23.3484 39.2165 21.9765 39.2165C20.565 39.2165 19.6668 40.2233 19.6668 41.615C19.6668 43.0364 20.6045 43.9938 22.0949 43.9938C22.8944 43.9938 23.5853 43.7076 24.0196 43.1351L23.4866 42.6514C23.2794 42.9278 22.8747 43.2634 22.164 43.2634C21.2362 43.2634 20.6538 42.7008 20.565 41.842H24.0591ZM21.9765 39.9469C22.7167 39.9469 23.2004 40.4503 23.2103 41.2202H20.5847C20.713 40.4701 21.2263 39.9469 21.9765 39.9469ZM27.2201 39.2165C26.5292 39.2165 26.1344 39.7199 25.9567 40.3319H25.9172C25.9172 40.1246 25.8777 39.6015 25.7988 39.2461L25.1868 39.2757V43.9346H26.0554V41.4966C26.0554 40.5293 26.6476 40.0654 27.1708 40.0654C27.3682 40.0654 27.5064 40.1147 27.6051 40.1739L27.8222 39.2955C27.6446 39.2461 27.4274 39.2165 27.2201 39.2165ZM32.5512 41.842C32.5512 41.842 32.5906 41.6742 32.5906 41.3979C32.5906 40.1739 31.8405 39.2165 30.4685 39.2165C29.057 39.2165 28.1588 40.2233 28.1588 41.615C28.1588 43.0364 29.0965 43.9938 30.5869 43.9938C31.3864 43.9938 32.0774 43.7076 32.5117 43.1351L31.9787 42.6514C31.7714 42.9278 31.3667 43.2634 30.656 43.2634C29.7282 43.2634 29.1459 42.7008 29.057 41.842H32.5512ZM30.4685 39.9469C31.2088 39.9469 31.6924 40.4503 31.7023 41.2202H29.0768C29.2051 40.4701 29.7183 39.9469 30.4685 39.9469ZM37.0009 37.7656C37.0009 37.43 36.7245 37.1733 36.3889 37.1733C36.0533 37.1733 35.7868 37.43 35.7868 37.7656C35.7868 38.1012 36.0533 38.3479 36.3889 38.3479C36.7245 38.3479 37.0009 38.1012 37.0009 37.7656ZM35.925 43.9346H36.8035V39.2461L35.925 39.2757V43.9346ZM38.0614 37.9037C38.0614 38.2295 38.3279 38.4466 38.6438 38.4466C38.6438 39.0092 37.9824 39.4731 37.9824 39.4731L38.3674 39.9469C38.3674 39.9469 39.3643 39.335 39.3643 38.111C39.3643 37.657 39.0879 37.351 38.6832 37.351C38.2983 37.351 38.0614 37.5681 38.0614 37.9037ZM46.0808 39.2362C45.2418 39.2362 44.7286 39.7298 44.4818 40.322C44.235 39.6508 43.6329 39.2362 42.8038 39.2362C41.955 39.2362 41.4417 39.7396 41.2048 40.3319C41.2048 40.1246 41.1653 39.6015 41.0864 39.2461L40.4744 39.2757V43.9346H41.343V41.4966C41.343 40.8254 41.7773 39.9667 42.6558 39.9667C43.3566 39.9667 43.7415 40.4207 43.7415 41.1018V43.9346H44.62V41.4966C44.62 40.8254 45.0543 39.9667 45.9327 39.9667C46.6335 39.9667 47.0185 40.4207 47.0185 41.1018V43.9346H47.897V41.1018C47.897 39.9864 47.1962 39.2362 46.0808 39.2362ZM52.6079 37.7656C52.6079 37.43 52.3316 37.1733 51.996 37.1733C51.6604 37.1733 51.3939 37.43 51.3939 37.7656C51.3939 38.1012 51.6604 38.3479 51.996 38.3479C52.3316 38.3479 52.6079 38.1012 52.6079 37.7656ZM50.1699 45.1092L49.9034 45.7112C49.9034 45.7112 50.1897 45.9876 50.7918 45.9876C51.8973 45.9876 52.4204 45.3263 52.4204 44.1715V39.2461L51.5419 39.2757V44.3393C51.5419 44.9315 51.305 45.2572 50.7128 45.2572C50.3673 45.2572 50.1699 45.1092 50.1699 45.1092ZM57.0228 39.2757V41.7137C57.0228 42.3849 56.5885 43.2634 55.7298 43.2634C55.029 43.2634 54.644 42.8093 54.644 42.1283V39.2757H53.7655V42.1283C53.7655 43.2436 54.4663 43.9938 55.5817 43.9938C56.3812 43.9938 56.8747 43.5398 57.1314 42.9771H57.1412C57.1412 43.0857 57.1807 43.6088 57.2597 43.9642L57.8914 43.9346V39.2757H57.0228ZM61.8962 40.9438L62.6957 40.8846C62.6957 40.8846 62.7351 40.7464 62.7351 40.5589C62.7351 39.789 62.0047 39.2165 60.9091 39.2165C59.8135 39.2165 59.0831 39.8186 59.0831 40.5885C59.0831 42.3158 61.9159 41.7039 61.9159 42.6613C61.9159 43.0166 61.5803 43.2634 60.8894 43.2634C60.1787 43.2634 59.5963 42.8883 59.3989 42.7008L58.8659 43.293C59.1324 43.5101 59.7345 43.9938 60.8795 43.9938C62.0146 43.9938 62.8141 43.5101 62.8042 42.6712C62.7746 40.9044 59.9714 41.694 59.9714 40.5984C59.9714 40.2134 60.307 39.9469 60.8894 39.9469C61.5013 39.9469 61.9258 40.2332 61.9258 40.7168C61.9258 40.7859 61.9159 40.8747 61.8962 40.9438ZM66.7906 42.987C66.7906 42.987 66.4747 43.2535 65.9318 43.2535C65.3001 43.2535 65.0336 42.8784 65.0336 42.1283V39.9765H66.8399V39.2757H65.0336V37.8445L64.1552 37.8939V39.2757H63.4149V39.9765H64.1552V42.1579C64.1552 43.3522 64.6388 43.9938 65.843 43.9938C66.603 43.9938 67.0669 43.6878 67.0669 43.6878L66.7906 42.987ZM72.6621 43.2338H71.6948C71.0532 43.2338 70.6781 43.1548 70.6781 42.8291C70.6781 42.6415 70.8459 42.533 71.1026 42.4935C71.3493 42.5725 71.6356 42.6218 71.9415 42.6218C73.1359 42.6218 73.9354 41.9407 73.9354 40.9241C73.9354 40.549 73.8268 40.2233 73.6294 39.9568C73.9354 39.9074 74.5276 39.562 74.5276 38.6736L73.7873 38.5157C73.7873 39.0882 73.6393 39.4731 73.3037 39.6311C72.9582 39.3744 72.4844 39.2264 71.9317 39.2264C70.7373 39.2264 69.9477 39.9074 69.9477 40.9241C69.9477 41.4374 70.1451 41.8618 70.5005 42.1579C70.1649 42.2862 69.8885 42.5527 69.8885 42.9377C69.8885 43.3226 70.0662 43.5694 70.3425 43.7273C69.8194 43.9148 69.5529 44.2603 69.5529 44.7143C69.5529 45.504 70.3228 45.9975 72.0008 45.9975C73.7774 45.9975 74.4289 45.346 74.4289 44.5465C74.4289 43.6878 73.7676 43.2338 72.6621 43.2338ZM71.9415 39.9469C72.6127 39.9469 73.0569 40.3319 73.0569 40.9241C73.0569 41.5163 72.6127 41.9013 71.9317 41.9013C71.2605 41.9013 70.8262 41.5163 70.8262 40.9241C70.8262 40.3319 71.2704 39.9469 71.9415 39.9469ZM72.0008 45.2671C70.8657 45.2671 70.4116 45.0598 70.4116 44.586C70.4116 44.2504 70.6386 43.9741 71.4579 43.9741H72.4943C73.1951 43.9741 73.5702 44.0728 73.5702 44.5465C73.5702 45.0499 73.126 45.2671 72.0008 45.2671ZM77.3452 39.2165C75.9041 39.2165 74.9467 40.2134 74.9467 41.6249C74.9467 43.0364 75.9041 43.9938 77.3452 43.9938C78.7863 43.9938 79.7437 43.0364 79.7437 41.6249C79.7437 40.2134 78.7863 39.2165 77.3452 39.2165ZM77.3452 43.2634C76.4371 43.2634 75.835 42.5922 75.835 41.6249C75.835 40.6576 76.4371 39.9469 77.3452 39.9469C78.2533 39.9469 78.8554 40.6576 78.8554 41.6249C78.8554 42.5922 78.2533 43.2634 77.3452 43.2634ZM81.9286 37.7656C81.9286 37.43 81.6523 37.1733 81.3167 37.1733C80.9811 37.1733 80.7146 37.43 80.7146 37.7656C80.7146 38.1012 80.9811 38.3479 81.3167 38.3479C81.6523 38.3479 81.9286 38.1012 81.9286 37.7656ZM80.8528 43.9346H81.7312V39.2461L80.8528 39.2757V43.9346ZM85.5456 39.2165C84.6573 39.2165 84.1341 39.7495 83.8874 40.3319H83.8578C83.8578 40.1246 83.8183 39.6015 83.7393 39.2461L83.1273 39.2757V43.9346H83.9959V41.4966C83.9959 40.8254 84.4302 39.9469 85.3975 39.9469C86.0983 39.9469 86.4833 40.401 86.4833 41.082V43.9346H87.3618V41.082C87.3618 39.9667 86.661 39.2165 85.5456 39.2165ZM91.2848 43.2338H90.3175C89.6759 43.2338 89.3008 43.1548 89.3008 42.8291C89.3008 42.6415 89.4686 42.533 89.7253 42.4935C89.972 42.5725 90.2583 42.6218 90.5643 42.6218C91.7586 42.6218 92.5581 41.9407 92.5581 40.9241C92.5581 40.549 92.4495 40.2233 92.2521 39.9568C92.5581 39.9074 93.1503 39.562 93.1503 38.6736L92.41 38.5157C92.41 39.0882 92.262 39.4731 91.9264 39.6311C91.5809 39.3744 91.1071 39.2264 90.5544 39.2264C89.3601 39.2264 88.5704 39.9074 88.5704 40.9241C88.5704 41.4374 88.7678 41.8618 89.1232 42.1579C88.7876 42.2862 88.5112 42.5527 88.5112 42.9377C88.5112 43.3226 88.6889 43.5694 88.9652 43.7273C88.4421 43.9148 88.1756 44.2603 88.1756 44.7143C88.1756 45.504 88.9455 45.9975 90.6235 45.9975C92.4002 45.9975 93.0516 45.346 93.0516 44.5465C93.0516 43.6878 92.3903 43.2338 91.2848 43.2338ZM90.5643 39.9469C91.2354 39.9469 91.6796 40.3319 91.6796 40.9241C91.6796 41.5163 91.2354 41.9013 90.5544 41.9013C89.8832 41.9013 89.4489 41.5163 89.4489 40.9241C89.4489 40.3319 89.8931 39.9469 90.5643 39.9469ZM90.6235 45.2671C89.4884 45.2671 89.0343 45.0598 89.0343 44.586C89.0343 44.2504 89.2614 43.9741 90.0806 43.9741H91.117C91.8178 43.9741 92.1929 44.0728 92.1929 44.5465C92.1929 45.0499 91.7487 45.2671 90.6235 45.2671ZM98.9755 42.987C98.9755 42.987 98.6596 43.2535 98.1167 43.2535C97.485 43.2535 97.2185 42.8784 97.2185 42.1283V39.9765H99.0248V39.2757H97.2185V37.8445L96.3401 37.8939V39.2757H95.5998V39.9765H96.3401V42.1579C96.3401 43.3522 96.8237 43.9938 98.0279 43.9938C98.7879 43.9938 99.2518 43.6878 99.2518 43.6878L98.9755 42.987ZM102.069 39.2165C100.628 39.2165 99.671 40.2134 99.671 41.6249C99.671 43.0364 100.628 43.9938 102.069 43.9938C103.511 43.9938 104.468 43.0364 104.468 41.6249C104.468 40.2134 103.511 39.2165 102.069 39.2165ZM102.069 43.2634C101.161 43.2634 100.559 42.5922 100.559 41.6249C100.559 40.6576 101.161 39.9469 102.069 39.9469C102.978 39.9469 103.58 40.6576 103.58 41.6249C103.58 42.5922 102.978 43.2634 102.069 43.2634ZM10.598 51.2757L9.67017 54.5034C9.5912 54.76 9.54185 54.9673 9.52211 55.0462H9.50237C9.48263 54.9673 9.43328 54.7205 9.37405 54.5034L8.41662 51.2757H7.51841L6.56098 54.533C6.50176 54.7501 6.43267 54.9673 6.41293 55.0462H6.39319C6.37344 54.9673 6.30435 54.7896 6.23526 54.533L5.30744 51.2757H4.33027L5.85031 55.9346H6.86697L7.88362 52.7069C7.91323 52.5984 7.94284 52.4602 7.95271 52.3812H7.97245C7.98232 52.4602 8.01193 52.5984 8.04155 52.7069L9.01872 55.9346H10.0551L11.4863 51.2757H10.598ZM14.4165 51.2165C12.9754 51.2165 12.0179 52.2134 12.0179 53.6249C12.0179 55.0364 12.9754 55.9938 14.4165 55.9938C15.8575 55.9938 16.815 55.0364 16.815 53.6249C16.815 52.2134 15.8575 51.2165 14.4165 51.2165ZM14.4165 55.2634C13.5084 55.2634 12.9063 54.5922 12.9063 53.6249C12.9063 52.6576 13.5084 51.9469 14.4165 51.9469C15.3245 51.9469 15.9266 52.6576 15.9266 53.6249C15.9266 54.5922 15.3245 55.2634 14.4165 55.2634ZM19.9474 51.2165C19.2565 51.2165 18.8617 51.7199 18.684 52.3319H18.6445C18.6445 52.1246 18.6051 51.6015 18.5261 51.2461L17.9141 51.2757V55.9346H18.7827V53.4966C18.7827 52.5293 19.375 52.0654 19.8981 52.0654C20.0955 52.0654 20.2337 52.1147 20.3324 52.1739L20.5495 51.2955C20.3719 51.2461 20.1547 51.2165 19.9474 51.2165ZM24.7647 48.9661V52.0061C24.4588 51.5521 23.9356 51.2165 23.1756 51.2165C21.8135 51.2165 20.9054 52.1641 20.9054 53.5953C20.9054 55.0364 21.8135 55.9938 23.1263 55.9938C24.0245 55.9938 24.6068 55.5003 24.8733 54.8784H24.9029C24.8931 55.066 24.9424 55.6385 24.9918 55.9642L25.6333 55.9346V48.9661H24.7647ZM23.2842 55.2634C22.3662 55.2634 21.7937 54.5922 21.7937 53.5953C21.7937 52.6082 22.3564 51.9469 23.225 51.9469C24.3008 51.9469 24.7647 52.8056 24.7647 53.5064V53.694C24.7647 54.3849 24.2712 55.2634 23.2842 55.2634ZM32.4225 51.2757L31.1196 54.533C31.0406 54.7402 31.011 54.8291 30.9715 55.0462H30.9518C30.9123 54.8488 30.8926 54.7699 30.7939 54.533L29.5107 51.2757H28.5335L30.4583 55.9346H31.4058L33.3108 51.2757H32.4225ZM36.1333 51.2165C34.6922 51.2165 33.7348 52.2134 33.7348 53.6249C33.7348 55.0364 34.6922 55.9938 36.1333 55.9938C37.5744 55.9938 38.5318 55.0364 38.5318 53.6249C38.5318 52.2134 37.5744 51.2165 36.1333 51.2165ZM36.1333 55.2634C35.2252 55.2634 34.6231 54.5922 34.6231 53.6249C34.6231 52.6576 35.2252 51.9469 36.1333 51.9469C37.0414 51.9469 37.6435 52.6576 37.6435 53.6249C37.6435 54.5922 37.0414 55.2634 36.1333 55.2634ZM45.2374 51.2362C44.3984 51.2362 43.8851 51.7298 43.6384 52.322C43.3916 51.6508 42.7895 51.2362 41.9604 51.2362C41.1115 51.2362 40.5983 51.7396 40.3614 52.3319C40.3614 52.1246 40.3219 51.6015 40.243 51.2461L39.631 51.2757V55.9346H40.4996V53.4966C40.4996 52.8254 40.9339 51.9667 41.8123 51.9667C42.5131 51.9667 42.8981 52.4207 42.8981 53.1018V55.9346H43.7766V53.4966C43.7766 52.8254 44.2109 51.9667 45.0893 51.9667C45.7901 51.9667 46.1751 52.4207 46.1751 53.1018V55.9346H47.0535V53.1018C47.0535 51.9864 46.3527 51.2362 45.2374 51.2362ZM49.469 49.7656C49.469 49.43 49.1926 49.1733 48.8571 49.1733C48.5215 49.1733 48.255 49.43 48.255 49.7656C48.255 50.1012 48.5215 50.3479 48.8571 50.3479C49.1926 50.3479 49.469 50.1012 49.469 49.7656ZM48.3931 55.9346H49.2716V51.2461L48.3931 51.2757V55.9346ZM53.6091 54.987C53.6091 54.987 53.2933 55.2535 52.7504 55.2535C52.1187 55.2535 51.8522 54.8784 51.8522 54.1283V51.9765H53.6585V51.2757H51.8522V49.8445L50.9737 49.8939V51.2757H50.2334V51.9765H50.9737V54.1579C50.9737 55.3522 51.4574 55.9938 52.6616 55.9938C53.4216 55.9938 53.8855 55.6878 53.8855 55.6878L53.6091 54.987ZM59.5201 52.9438L60.3196 52.8846C60.3196 52.8846 60.3591 52.7464 60.3591 52.5589C60.3591 51.789 59.6287 51.2165 58.5331 51.2165C57.4375 51.2165 56.707 51.8186 56.707 52.5885C56.707 54.3158 59.5399 53.7039 59.5399 54.6613C59.5399 55.0166 59.2043 55.2634 58.5133 55.2634C57.8027 55.2634 57.2203 54.8883 57.0229 54.7008L56.4899 55.293C56.7564 55.5101 57.3585 55.9938 58.5035 55.9938C59.6386 55.9938 60.4381 55.5101 60.4282 54.6712C60.3986 52.9044 57.5954 53.694 57.5954 52.5984C57.5954 52.2134 57.931 51.9469 58.5133 51.9469C59.1253 51.9469 59.5497 52.2332 59.5497 52.7168C59.5497 52.7859 59.5399 52.8747 59.5201 52.9438ZM63.6529 51.2165C62.2118 51.2165 61.2544 52.2134 61.2544 53.6249C61.2544 55.0364 62.2118 55.9938 63.6529 55.9938C65.094 55.9938 66.0514 55.0364 66.0514 53.6249C66.0514 52.2134 65.094 51.2165 63.6529 51.2165ZM63.6529 55.2634C62.7448 55.2634 62.1427 54.5922 62.1427 53.6249C62.1427 52.6576 62.7448 51.9469 63.6529 51.9469C64.561 51.9469 65.1631 52.6576 65.1631 53.6249C65.1631 54.5922 64.561 55.2634 63.6529 55.2634ZM69.5349 55.9346H70.4331V49.4201H69.5349V55.9346ZM76.2498 51.2165C74.8778 51.2165 73.9105 52.2134 73.9105 53.6348C73.9105 55.0364 74.8679 55.9938 76.3189 55.9938C77.1579 55.9938 77.8587 55.7174 78.293 55.1943L77.7797 54.6415C77.602 54.8587 77.227 55.2634 76.3485 55.2634C75.3615 55.2634 74.7988 54.6021 74.7988 53.615C74.7988 52.6082 75.3911 51.9469 76.2695 51.9469C76.9703 51.9469 77.3849 52.3615 77.3849 52.934C77.3849 53.0425 77.375 53.1314 77.3651 53.1807L78.1745 53.1215C78.1745 53.1215 78.2041 53.0031 78.2041 52.8056C78.2041 51.9173 77.4441 51.2165 76.2498 51.2165ZM83.5394 55.1943C83.4999 55.2042 83.4308 55.214 83.3716 55.214C83.1545 55.214 83.0854 55.1153 83.0854 54.8587V52.9734C83.0854 51.8976 82.3451 51.2165 81.0817 51.2165C79.8972 51.2165 79.1668 51.8186 79.1668 52.6675C79.1668 52.8945 79.226 53.0721 79.226 53.0721L80.0453 52.934C80.0157 52.8649 79.9959 52.8056 79.9959 52.6971C79.9959 52.2134 80.4006 51.9469 81.0619 51.9469C81.8318 51.9469 82.2168 52.3516 82.2168 52.9833V53.2794H82.0786C80.0255 53.2794 79.0582 53.6841 79.0582 54.7008C79.0582 55.4608 79.611 55.9938 80.6375 55.9938C81.7232 55.9938 82.1279 55.441 82.2562 55.2042H82.276V55.214C82.276 55.7569 82.6313 55.9839 83.115 55.9839C83.3617 55.9839 83.5888 55.9247 83.5888 55.9247L83.5394 55.1943ZM80.8152 55.2634C80.2229 55.2634 79.9466 55.0462 79.9466 54.681C79.9466 54.1678 80.4894 53.8815 82.0786 53.8815H82.2168V54.3257C82.2168 54.76 81.7232 55.2634 80.8152 55.2634ZM87.0156 51.2165C86.1272 51.2165 85.6041 51.7495 85.3573 52.3319H85.3277C85.3277 52.1246 85.2882 51.6015 85.2093 51.2461L84.5973 51.2757V55.9346H85.4659V53.4966C85.4659 52.8254 85.9002 51.9469 86.8675 51.9469C87.5683 51.9469 87.9533 52.401 87.9533 53.082V55.9346H88.8317V53.082C88.8317 51.9667 88.1309 51.2165 87.0156 51.2165ZM95.0305 52.9438L95.83 52.8846C95.83 52.8846 95.8695 52.7464 95.8695 52.5589C95.8695 51.789 95.1391 51.2165 94.0435 51.2165C92.9478 51.2165 92.2174 51.8186 92.2174 52.5885C92.2174 54.3158 95.0502 53.7039 95.0502 54.6613C95.0502 55.0166 94.7146 55.2634 94.0237 55.2634C93.313 55.2634 92.7307 54.8883 92.5333 54.7008L92.0003 55.293C92.2668 55.5101 92.8689 55.9938 94.0138 55.9938C95.1489 55.9938 95.9484 55.5101 95.9386 54.6712C95.909 52.9044 93.1058 53.694 93.1058 52.5984C93.1058 52.2134 93.4414 51.9469 94.0237 51.9469C94.6357 51.9469 95.0601 52.2332 95.0601 52.7168C95.0601 52.7859 95.0502 52.8747 95.0305 52.9438ZM101.167 53.842C101.167 53.842 101.206 53.6742 101.206 53.3979C101.206 52.1739 100.456 51.2165 99.0843 51.2165C97.6728 51.2165 96.7746 52.2233 96.7746 53.615C96.7746 55.0364 97.7123 55.9938 99.2028 55.9938C100.002 55.9938 100.693 55.7076 101.127 55.1351L100.594 54.6514C100.387 54.9278 99.9825 55.2634 99.2719 55.2634C98.344 55.2634 97.7617 54.7008 97.6728 53.842H101.167ZM99.0843 51.9469C99.8246 51.9469 100.308 52.4503 100.318 53.2202H97.6926C97.8209 52.4701 98.3342 51.9469 99.0843 51.9469ZM106.411 53.842C106.411 53.842 106.45 53.6742 106.45 53.3979C106.45 52.1739 105.7 51.2165 104.328 51.2165C102.917 51.2165 102.018 52.2233 102.018 53.615C102.018 55.0364 102.956 55.9938 104.446 55.9938C105.246 55.9938 105.937 55.7076 106.371 55.1351L105.838 54.6514C105.631 54.9278 105.226 55.2634 104.516 55.2634C103.588 55.2634 103.005 54.7008 102.917 53.842H106.411ZM104.328 51.9469C105.068 51.9469 105.552 52.4503 105.562 53.2202H102.936C103.065 52.4701 103.578 51.9469 104.328 51.9469ZM11.3546 63.2757L10.4268 66.5034C10.3479 66.76 10.2985 66.9673 10.2788 67.0462H10.259C10.2393 66.9673 10.1899 66.7205 10.1307 66.5034L9.17329 63.2757H8.27508L7.31765 66.533C7.25842 66.7501 7.18933 66.9673 7.16959 67.0462H7.14985C7.13011 66.9673 7.06102 66.7896 6.99192 66.533L6.0641 63.2757H5.08693L6.60698 67.9346H7.62363L8.64028 64.7069C8.66989 64.5984 8.69951 64.4602 8.70938 64.3812H8.72912C8.73899 64.4602 8.7686 64.5984 8.79821 64.7069L9.77538 67.9346H10.8118L12.243 63.2757H11.3546ZM15.5757 63.2165C14.796 63.2165 14.3024 63.6113 14.0261 64.095H14.0063V60.9661H13.1476V67.9346H14.0261V65.5064C14.0261 64.8056 14.4604 63.9469 15.4277 63.9469C16.1285 63.9469 16.5134 64.401 16.5134 65.082V67.9346H17.3919V65.082C17.3919 63.9667 16.6911 63.2165 15.5757 63.2165ZM22.9433 67.1943C22.9038 67.2042 22.8347 67.214 22.7755 67.214C22.5584 67.214 22.4893 67.1153 22.4893 66.8587V64.9734C22.4893 63.8976 21.749 63.2165 20.4856 63.2165C19.3011 63.2165 18.5707 63.8186 18.5707 64.6675C18.5707 64.8945 18.6299 65.0721 18.6299 65.0721L19.4492 64.934C19.4196 64.8649 19.3998 64.8056 19.3998 64.6971C19.3998 64.2134 19.8045 63.9469 20.4658 63.9469C21.2357 63.9469 21.6207 64.3516 21.6207 64.9833V65.2794H21.4825C19.4294 65.2794 18.4621 65.6841 18.4621 66.7008C18.4621 67.4608 19.0149 67.9938 20.0414 67.9938C21.1271 67.9938 21.5318 67.441 21.6601 67.2042H21.6799V67.214C21.6799 67.7569 22.0352 67.9839 22.5189 67.9839C22.7656 67.9839 22.9926 67.9247 22.9926 67.9247L22.9433 67.1943ZM20.2191 67.2634C19.6268 67.2634 19.3505 67.0462 19.3505 66.681C19.3505 66.1678 19.8933 65.8815 21.4825 65.8815H21.6207V66.3257C21.6207 66.76 21.1271 67.2634 20.2191 67.2634ZM26.798 66.987C26.798 66.987 26.4822 67.2535 25.9393 67.2535C25.3076 67.2535 25.0411 66.8784 25.0411 66.1283V63.9765H26.8474V63.2757H25.0411V61.8445L24.1626 61.8939V63.2757H23.4223V63.9765H24.1626V66.1579C24.1626 67.3522 24.6463 67.9938 25.8504 67.9938C26.6105 67.9938 27.0744 67.6878 27.0744 67.6878L26.798 66.987ZM30.2315 67.9346H31.1297V61.4201H30.2315V67.9346ZM35.5985 66.987C35.5985 66.987 35.2826 67.2535 34.7398 67.2535C34.1081 67.2535 33.8416 66.8784 33.8416 66.1283V63.9765H35.6478V63.2757H33.8416V61.8445L32.9631 61.8939V63.2757H32.2228V63.9765H32.9631V66.1579C32.9631 67.3522 33.4467 67.9938 34.6509 67.9938C35.411 67.9938 35.8749 67.6878 35.8749 67.6878L35.5985 66.987ZM44.6384 63.2757L43.7106 66.5034C43.6316 66.76 43.5823 66.9673 43.5625 67.0462H43.5428C43.5231 66.9673 43.4737 66.7205 43.4145 66.5034L42.457 63.2757H41.5588L40.6014 66.533C40.5422 66.7501 40.4731 66.9673 40.4534 67.0462H40.4336C40.4139 66.9673 40.3448 66.7896 40.2757 66.533L39.3479 63.2757H38.3707L39.8907 67.9346H40.9074L41.924 64.7069C41.9537 64.5984 41.9833 64.4602 41.9931 64.3812H42.0129C42.0227 64.4602 42.0524 64.5984 42.082 64.7069L43.0591 67.9346H44.0955L45.5267 63.2757H44.6384ZM48.4569 63.2165C47.0158 63.2165 46.0584 64.2134 46.0584 65.6249C46.0584 67.0364 47.0158 67.9938 48.4569 67.9938C49.898 67.9938 50.8554 67.0364 50.8554 65.6249C50.8554 64.2134 49.898 63.2165 48.4569 63.2165ZM48.4569 67.2634C47.5488 67.2634 46.9467 66.5922 46.9467 65.6249C46.9467 64.6576 47.5488 63.9469 48.4569 63.9469C49.365 63.9469 49.967 64.6576 49.967 65.6249C49.967 66.5922 49.365 67.2634 48.4569 67.2634ZM55.1624 63.2757V65.7137C55.1624 66.3849 54.7281 67.2634 53.8694 67.2634C53.1686 67.2634 52.7837 66.8093 52.7837 66.1283V63.2757H51.9052V66.1283C51.9052 67.2436 52.606 67.9938 53.7214 67.9938C54.5209 67.9938 55.0144 67.5398 55.271 66.9771H55.2809C55.2809 67.0857 55.3204 67.6088 55.3993 67.9642L56.031 67.9346V63.2757H55.1624ZM57.4201 67.9346H58.2887V60.9661H57.4201V67.9346ZM63.2681 60.9661V64.0061C62.9621 63.5521 62.4389 63.2165 61.6789 63.2165C60.3168 63.2165 59.4087 64.1641 59.4087 65.5953C59.4087 67.0364 60.3168 67.9938 61.6296 67.9938C62.5278 67.9938 63.1101 67.5003 63.3766 66.8784H63.4062C63.3964 67.066 63.4457 67.6385 63.4951 67.9642L64.1367 67.9346V60.9661H63.2681ZM61.7875 67.2634C60.8695 67.2634 60.2971 66.5922 60.2971 65.5953C60.2971 64.6082 60.8597 63.9469 61.7283 63.9469C62.8042 63.9469 63.2681 64.8056 63.2681 65.5064V65.694C63.2681 66.3849 62.7745 67.2634 61.7875 67.2634ZM67.7629 67.9346H68.6315V60.9661H67.7629V67.9346ZM72.1401 63.2165C70.699 63.2165 69.7416 64.2134 69.7416 65.6249C69.7416 67.0364 70.699 67.9938 72.1401 67.9938C73.5812 67.9938 74.5386 67.0364 74.5386 65.6249C74.5386 64.2134 73.5812 63.2165 72.1401 63.2165ZM72.1401 67.2634C71.232 67.2634 70.6299 66.5922 70.6299 65.6249C70.6299 64.6576 71.232 63.9469 72.1401 63.9469C73.0482 63.9469 73.6503 64.6576 73.6503 65.6249C73.6503 66.5922 73.0482 67.2634 72.1401 67.2634ZM77.7501 63.2165C76.309 63.2165 75.3515 64.2134 75.3515 65.6249C75.3515 67.0364 76.309 67.9938 77.7501 67.9938C79.1911 67.9938 80.1486 67.0364 80.1486 65.6249C80.1486 64.2134 79.1911 63.2165 77.7501 63.2165ZM77.7501 67.2634C76.842 67.2634 76.2399 66.5922 76.2399 65.6249C76.2399 64.6576 76.842 63.9469 77.7501 63.9469C78.6581 63.9469 79.2602 64.6576 79.2602 65.6249C79.2602 66.5922 78.6581 67.2634 77.7501 67.2634ZM84.4556 67.9346H85.5512L83.3797 65.4571L85.3538 63.2757H84.3569L82.7579 65.0919H82.1163V60.9661H81.2477V67.9346H82.1163V65.7927H82.6197L84.4556 67.9346ZM88.323 67.9346H89.1916V60.9661H88.323V67.9346ZM91.6737 61.7656C91.6737 61.43 91.3974 61.1733 91.0618 61.1733C90.7262 61.1733 90.4597 61.43 90.4597 61.7656C90.4597 62.1012 90.7262 62.3479 91.0618 62.3479C91.3974 62.3479 91.6737 62.1012 91.6737 61.7656ZM90.5979 67.9346H91.4763V63.2461L90.5979 63.2757V67.9346ZM96.0804 67.9346H97.176L95.0045 65.4571L96.9786 63.2757H95.9816L94.3826 65.0919H93.7411V60.9661H92.8725V67.9346H93.7411V65.7927H94.2445L96.0804 67.9346ZM101.731 65.842C101.731 65.842 101.77 65.6742 101.77 65.3979C101.77 64.1739 101.02 63.2165 99.6482 63.2165C98.2367 63.2165 97.3385 64.2233 97.3385 65.615C97.3385 67.0364 98.2762 67.9938 99.7666 67.9938C100.566 67.9938 101.257 67.7076 101.691 67.1351L101.158 66.6514C100.951 66.9278 100.546 67.2634 99.8357 67.2634C98.9079 67.2634 98.3256 66.7008 98.2367 65.842H101.731ZM99.6482 63.9469C100.388 63.9469 100.872 64.4503 100.882 65.2202H98.2565C98.3848 64.4701 98.898 63.9469 99.6482 63.9469ZM102.681 67.4213C102.681 67.7372 102.938 67.9938 103.263 67.9938C103.579 67.9938 103.836 67.7372 103.836 67.4213C103.836 67.1055 103.579 66.839 103.263 66.839C102.938 66.839 102.681 67.1055 102.681 67.4213ZM13.6013 79.4016V73.4596H12.9893V79.9346H16.9769V79.4016H13.6013ZM18.682 73.805C18.682 73.5385 18.4648 73.3411 18.2082 73.3411C17.9516 73.3411 17.7443 73.5385 17.7443 73.805C17.7443 74.0617 17.9516 74.2591 18.2082 74.2591C18.4648 74.2591 18.682 74.0617 18.682 73.805ZM17.8923 79.9346H18.4944V75.2955L17.8923 75.3152V79.9346ZM22.4794 79.3029H21.4726C20.7915 79.3029 20.377 79.214 20.377 78.8291C20.377 78.5922 20.5941 78.4441 20.9396 78.3948C21.1962 78.5034 21.4923 78.5626 21.8279 78.5626C22.963 78.5626 23.7132 77.9013 23.7132 76.9142C23.7132 76.5095 23.5849 76.1641 23.3677 75.8976C23.6638 75.8581 24.1672 75.5225 24.1672 74.7625L23.6441 74.6539C23.6441 75.1474 23.496 75.5324 23.121 75.6607C22.7952 75.404 22.3511 75.2659 21.8181 75.2659C20.6928 75.2659 19.9427 75.9272 19.9427 76.9142C19.9427 77.4275 20.15 77.8519 20.5053 78.148C20.15 78.2369 19.8341 78.5034 19.8341 78.8982C19.8341 79.2831 20.0414 79.52 20.3671 79.6582C19.8341 79.8457 19.5183 80.2011 19.5183 80.7045C19.5183 81.504 20.3276 81.9975 21.8477 81.9975C23.4566 81.9975 24.187 81.4151 24.187 80.5761C24.187 79.7668 23.5454 79.3029 22.4794 79.3029ZM21.8279 75.7594C22.5978 75.7594 23.1111 76.2233 23.1111 76.9142C23.1111 77.6052 22.5978 78.0691 21.8181 78.0691C21.0482 78.0691 20.5448 77.6052 20.5448 76.9142C20.5448 76.2233 21.0482 75.7594 21.8279 75.7594ZM21.8477 81.4842C20.6928 81.4842 20.1105 81.1881 20.1105 80.6255C20.1105 80.1616 20.4856 79.8161 21.3147 79.8161H22.3807C23.1802 79.8161 23.5947 80.0431 23.5947 80.5761C23.5947 81.198 23.0124 81.4842 21.8477 81.4842ZM27.4786 75.2659C26.61 75.2659 26.0474 75.7594 25.7809 76.3319V72.9661H25.1887V79.9346H25.7908V77.4176C25.7908 76.6971 26.3238 75.7693 27.3799 75.7693C28.1893 75.7693 28.6631 76.3121 28.6631 77.1018V79.9346H29.2652V77.1018C29.2652 76.016 28.5841 75.2659 27.4786 75.2659ZM33.437 79.1844C33.437 79.1844 33.0916 79.4707 32.5289 79.4707C31.838 79.4707 31.5518 79.0758 31.5518 78.306V75.8087H33.4272V75.3152H31.5518V73.8741L30.9497 73.9136V75.3152H30.1897V75.8087H30.9497V78.3257C30.9497 79.4213 31.4037 79.9938 32.4796 79.9938C33.1903 79.9938 33.6443 79.6681 33.6443 79.6681L33.437 79.1844ZM34.2338 79.4213C34.2338 79.7372 34.4904 79.9938 34.8161 79.9938C35.132 79.9938 35.3886 79.7372 35.3886 79.4213C35.3886 79.1055 35.132 78.839 34.8161 78.839C34.4904 78.839 34.2338 79.1055 34.2338 79.4213ZM45.0958 73.4201H44.1679L42.1939 77.7433C42.0754 78.0098 41.8681 78.4836 41.8188 78.6514H41.799C41.7398 78.4836 41.5523 78.0098 41.4338 77.7433L39.4598 73.4201H38.4826V79.9346H39.3808L39.3611 75.9272C39.3611 75.6508 39.3314 75.1277 39.3216 75.0783L39.3611 75.0685C39.3709 75.1178 39.4301 75.4238 39.5782 75.7396L41.5325 79.9543H42.0853L43.9705 75.8087C44.0495 75.6409 44.1877 75.177 44.2173 75.0685L44.2568 75.0783C44.2469 75.1277 44.2173 75.6508 44.2173 75.9272L44.1976 79.9346H45.0958V73.4201ZM50.7401 77.842C50.7401 77.842 50.7796 77.6742 50.7796 77.3979C50.7796 76.1739 50.0294 75.2165 48.6574 75.2165C47.246 75.2165 46.3478 76.2233 46.3478 77.615C46.3478 79.0364 47.2855 79.9938 48.7759 79.9938C49.5754 79.9938 50.2663 79.7076 50.7006 79.1351L50.1676 78.6514C49.9603 78.9278 49.5557 79.2634 48.845 79.2634C47.9172 79.2634 47.3348 78.7008 47.246 77.842H50.7401ZM48.6574 75.9469C49.3977 75.9469 49.8814 76.4503 49.8912 77.2202H47.2657C47.394 76.4701 47.9073 75.9469 48.6574 75.9469ZM55.4508 72.9661V76.0061C55.1448 75.5521 54.6216 75.2165 53.8616 75.2165C52.4995 75.2165 51.5914 76.1641 51.5914 77.5953C51.5914 79.0364 52.4995 79.9938 53.8123 79.9938C54.7105 79.9938 55.2928 79.5003 55.5593 78.8784H55.589C55.5791 79.066 55.6284 79.6385 55.6778 79.9642L56.3194 79.9346V72.9661H55.4508ZM53.9702 79.2634C53.0523 79.2634 52.4798 78.5922 52.4798 77.5953C52.4798 76.6082 53.0424 75.9469 53.911 75.9469C54.9869 75.9469 55.4508 76.8056 55.4508 77.5064V77.694C55.4508 78.3849 54.9572 79.2634 53.9702 79.2634ZM58.7852 73.7656C58.7852 73.43 58.5088 73.1733 58.1732 73.1733C57.8376 73.1733 57.5711 73.43 57.5711 73.7656C57.5711 74.1012 57.8376 74.3479 58.1732 74.3479C58.5088 74.3479 58.7852 74.1012 58.7852 73.7656ZM57.7093 79.9346H58.5878V75.2461L57.7093 75.2757V79.9346ZM63.1918 75.2757V77.7137C63.1918 78.3849 62.7575 79.2634 61.8988 79.2634C61.198 79.2634 60.813 78.8093 60.813 78.1283V75.2757H59.9346V78.1283C59.9346 79.2436 60.6354 79.9938 61.7507 79.9938C62.5502 79.9938 63.0437 79.5398 63.3004 78.9771H63.3102C63.3102 79.0857 63.3497 79.6088 63.4287 79.9642L64.0604 79.9346V75.2757H63.1918ZM71.046 75.2362C70.207 75.2362 69.6938 75.7298 69.447 76.322C69.2003 75.6508 68.5982 75.2362 67.7691 75.2362C66.9202 75.2362 66.4069 75.7396 66.17 76.3319C66.17 76.1246 66.1306 75.6015 66.0516 75.2461L65.4396 75.2757V79.9346H66.3082V77.4966C66.3082 76.8254 66.7425 75.9667 67.621 75.9667C68.3218 75.9667 68.7067 76.4207 68.7067 77.1018V79.9346H69.5852V77.4966C69.5852 76.8254 70.0195 75.9667 70.898 75.9667C71.5988 75.9667 71.9837 76.4207 71.9837 77.1018V79.9346H72.8622V77.1018C72.8622 75.9864 72.1614 75.2362 71.046 75.2362ZM74.0143 79.4213C74.0143 79.7372 74.2709 79.9938 74.5966 79.9938C74.9125 79.9938 75.1691 79.7372 75.1691 79.4213C75.1691 79.1055 74.9125 78.839 74.5966 78.839C74.2709 78.839 74.0143 79.1055 74.0143 79.4213ZM81.8461 76.549V76.5194C82.2211 76.4602 82.9121 76.1739 82.9121 75.1869C82.9121 74.0715 82.0829 73.4201 80.6912 73.4201H78.115V79.9346H80.9281C82.3593 79.9346 83.1687 79.3029 83.1687 78.1678C83.1687 77.0623 82.2902 76.6181 81.8461 76.549ZM81.5006 75.3152C81.5006 75.8087 81.1354 76.1246 80.4741 76.1246H79.487V74.4762H80.3951C81.1354 74.4762 81.5006 74.7822 81.5006 75.3152ZM80.6813 78.8784H79.487V77.1018H80.6024C81.2637 77.1018 81.7572 77.4077 81.7572 78.0098C81.7572 78.6021 81.313 78.8784 80.6813 78.8784ZM86.2894 75.2165C84.8088 75.2165 83.8316 76.2036 83.8316 77.6052C83.8316 79.0068 84.8088 79.9938 86.2894 79.9938C87.76 79.9938 88.7372 79.0068 88.7372 77.6052C88.7372 76.2036 87.76 75.2165 86.2894 75.2165ZM86.2894 78.8883C85.6182 78.8883 85.2036 78.3652 85.2036 77.6052C85.2036 76.855 85.6182 76.322 86.2894 76.322C86.9507 76.322 87.3652 76.855 87.3652 77.6052C87.3652 78.3652 86.9507 78.8883 86.2894 78.8883ZM89.6016 79.9346H90.9538V72.9661H89.6016V79.9346ZM95.3464 72.9661V75.8482C95.0799 75.4731 94.6357 75.2165 93.9645 75.2165C92.7801 75.2165 91.8325 76.0851 91.8325 77.6249C91.8325 78.9969 92.632 79.9938 93.8954 79.9938C94.695 79.9938 95.1885 79.6088 95.4451 79.0561H95.4747C95.4648 79.1844 95.5339 79.6878 95.603 79.9741L96.6986 79.9346V72.9661H95.3464ZM94.2705 78.8587C93.6191 78.8587 93.2045 78.3652 93.2045 77.6249C93.2045 76.8451 93.6092 76.3516 94.2409 76.3516C94.9615 76.3516 95.3464 76.934 95.3464 77.4472V77.7631C95.3464 78.306 94.922 78.8587 94.2705 78.8587ZM97.765 79.4213C97.765 79.7372 98.0216 79.9938 98.3473 79.9938C98.6632 79.9938 98.9198 79.7372 98.9198 79.4213C98.9198 79.1055 98.6632 78.839 98.3473 78.839C98.0216 78.839 97.765 79.1055 97.765 79.4213Z" fill="#434343"/>
<path d="M6.14795 91.1592H104.852" stroke="#98D1B3" stroke-width="1.64507" stroke-linecap="round" stroke-linejoin="round"/>
<path d="M13.9889 104.744V104.729C14.2806 104.675 14.8334 104.421 14.8334 103.677C14.8334 102.802 14.2116 102.349 13.1905 102.349H11.5016V107.385H13.3364C14.4495 107.385 15.056 106.893 15.056 106.041C15.056 105.12 14.3958 104.813 13.9889 104.744ZM14.3421 103.7C14.3421 104.183 13.9889 104.583 13.2903 104.583H11.9852V102.763H13.1291C13.9812 102.763 14.3421 103.116 14.3421 103.7ZM13.2826 106.97H11.9852V104.959H13.321C14.0657 104.959 14.5724 105.312 14.5724 105.995C14.5724 106.655 14.0657 106.97 13.2826 106.97ZM19.1966 106.993C19.1659 107.001 19.1122 107.009 19.0661 107.009C18.8972 107.009 18.8281 106.924 18.8281 106.717V105.082C18.8281 104.268 18.2677 103.754 17.3465 103.754C16.4866 103.754 15.9262 104.206 15.9262 104.859C15.9262 105.036 15.9723 105.166 15.9723 105.166L16.4099 105.089C16.3945 105.059 16.3715 104.99 16.3715 104.882C16.3715 104.421 16.7553 104.145 17.3388 104.145C17.9913 104.145 18.3598 104.514 18.3598 105.089V105.366L18.1372 105.373C16.6632 105.389 15.8341 105.665 15.8341 106.471C15.8341 107.047 16.2563 107.423 17.0164 107.423C17.8685 107.423 18.2447 106.97 18.3752 106.702H18.3905V106.886C18.3905 107.27 18.6208 107.423 18.9356 107.423C19.0815 107.423 19.212 107.385 19.2197 107.385L19.1966 106.993ZM17.1162 107.032C16.5711 107.032 16.3101 106.809 16.3101 106.456C16.3101 105.926 16.9319 105.727 18.1372 105.711L18.3598 105.704V106.172C18.3598 106.402 18.0067 107.032 17.1162 107.032ZM22.1322 105.005L22.5621 104.967C22.5621 104.967 22.5852 104.859 22.5852 104.736C22.5852 104.145 22.0401 103.754 21.2647 103.754C20.4663 103.754 19.9366 104.176 19.9366 104.752C19.9366 106.057 22.1936 105.535 22.1936 106.433C22.1936 106.794 21.8635 107.032 21.2571 107.032C20.5892 107.032 20.1669 106.678 20.0671 106.586L19.7754 106.893C19.9136 107.009 20.3512 107.423 21.2571 107.423C22.1092 107.423 22.6696 107.055 22.6619 106.433C22.6466 105.097 20.4126 105.711 20.4126 104.759C20.4126 104.391 20.7273 104.145 21.2494 104.145C21.7714 104.145 22.1553 104.391 22.1553 104.821C22.1553 104.897 22.1399 104.967 22.1322 105.005ZM24.2585 102.617C24.2585 102.41 24.0896 102.257 23.89 102.257C23.6904 102.257 23.5291 102.41 23.5291 102.617C23.5291 102.817 23.6904 102.97 23.89 102.97C24.0896 102.97 24.2585 102.817 24.2585 102.617ZM23.6443 107.385H24.1126V103.777L23.6443 103.792V107.385ZM26.8358 103.754C25.7994 103.754 25.0855 104.506 25.0855 105.604C25.0855 106.686 25.7918 107.423 26.8896 107.423C27.4807 107.423 27.9797 107.231 28.3021 106.855L28.0258 106.563C27.8415 106.771 27.5114 107.032 26.9049 107.032C26.0605 107.032 25.5538 106.456 25.5538 105.596C25.5538 104.721 26.0758 104.145 26.8435 104.145C27.4653 104.145 27.8415 104.521 27.8415 105.036C27.8415 105.128 27.8338 105.204 27.8262 105.228L28.2637 105.197C28.2637 105.197 28.2868 105.097 28.2868 104.967C28.2868 104.276 27.7264 103.754 26.8358 103.754ZM33.8367 103.554L34.2973 103.439C34.1745 103.063 33.8444 102.303 32.6084 102.303C31.6564 102.303 30.9885 102.832 30.9885 103.623C30.9885 105.381 33.8674 104.621 33.8674 106.126C33.8674 106.648 33.3914 107.001 32.6084 107.001C31.7793 107.001 31.3187 106.663 31.0807 106.464L30.7813 106.84C31.073 107.085 31.6718 107.423 32.6084 107.423C33.6678 107.423 34.3434 106.901 34.3434 106.126C34.3434 104.23 31.4722 104.92 31.4722 103.615C31.4722 103.07 31.9328 102.725 32.6084 102.725C33.4605 102.725 33.7676 103.293 33.8367 103.554ZM38.4641 106.993C38.4334 107.001 38.3796 107.009 38.3336 107.009C38.1647 107.009 38.0956 106.924 38.0956 106.717V105.082C38.0956 104.268 37.5352 103.754 36.6139 103.754C35.7541 103.754 35.1937 104.206 35.1937 104.859C35.1937 105.036 35.2397 105.166 35.2397 105.166L35.6773 105.089C35.662 105.059 35.6389 104.99 35.6389 104.882C35.6389 104.421 36.0228 104.145 36.6062 104.145C37.2588 104.145 37.6273 104.514 37.6273 105.089V105.366L37.4047 105.373C35.9307 105.389 35.1016 105.665 35.1016 106.471C35.1016 107.047 35.5238 107.423 36.2838 107.423C37.136 107.423 37.5121 106.97 37.6426 106.702H37.658V106.886C37.658 107.27 37.8883 107.423 38.2031 107.423C38.3489 107.423 38.4794 107.385 38.4871 107.385L38.4641 106.993ZM36.3836 107.032C35.8385 107.032 35.5775 106.809 35.5775 106.456C35.5775 105.926 36.1994 105.727 37.4047 105.711L37.6273 105.704V106.172C37.6273 106.402 37.2741 107.032 36.3836 107.032ZM41.1387 103.754C40.417 103.754 39.9718 104.199 39.7798 104.69H39.7645C39.7645 104.46 39.7415 104.076 39.6954 103.777L39.3653 103.792V107.385H39.8336V105.419C39.8336 104.882 40.2481 104.145 41.0696 104.145C41.6914 104.145 42.0676 104.567 42.0676 105.181V107.385H42.5359V105.181C42.5359 104.337 41.9985 103.754 41.1387 103.754ZM45.733 105.005L46.1629 104.967C46.1629 104.967 46.1859 104.859 46.1859 104.736C46.1859 104.145 45.6409 103.754 44.8655 103.754C44.0671 103.754 43.5374 104.176 43.5374 104.752C43.5374 106.057 45.7944 105.535 45.7944 106.433C45.7944 106.794 45.4643 107.032 44.8578 107.032C44.1899 107.032 43.7677 106.678 43.6679 106.586L43.3762 106.893C43.5143 107.009 43.9519 107.423 44.8578 107.423C45.71 107.423 46.2704 107.055 46.2627 106.433C46.2473 105.097 44.0133 105.711 44.0133 104.759C44.0133 104.391 44.3281 104.145 44.8501 104.145C45.3722 104.145 45.756 104.391 45.756 104.821C45.756 104.897 45.7407 104.967 45.733 105.005ZM47.0992 107.101C47.0992 107.3 47.2681 107.431 47.4677 107.431C47.4677 107.845 47.0224 108.183 47.0224 108.183L47.2527 108.46C47.2527 108.46 47.8823 108.037 47.8823 107.239C47.8823 106.947 47.7134 106.763 47.4677 106.763C47.2451 106.763 47.0992 106.901 47.0992 107.101ZM54.2164 107.016C54.2164 107.016 54.1704 107.032 54.0936 107.032C53.3489 107.032 53.2875 105.604 52.5275 105.312C53.2568 105.135 53.7635 104.644 53.7635 103.884C53.7635 102.871 53.0956 102.349 51.9978 102.349H50.5238V107.385H50.9998V105.389H51.6216C53.0188 105.389 52.6734 107.423 53.9631 107.423C54.1243 107.423 54.2548 107.4 54.2548 107.4L54.2164 107.016ZM50.9998 105.005V102.763H51.9747C52.7885 102.763 53.2798 103.17 53.2798 103.884C53.2798 104.606 52.6887 105.005 51.9133 105.005H50.9998ZM56.4035 103.754C55.3902 103.754 54.6839 104.491 54.6839 105.596C54.6839 106.694 55.3825 107.423 56.4957 107.423C57.0561 107.423 57.5551 107.239 57.8852 106.832L57.5935 106.563C57.3939 106.809 57.0484 107.032 56.5264 107.032C55.7126 107.032 55.1982 106.502 55.1599 105.688H57.9389C57.9389 105.688 57.962 105.573 57.962 105.381C57.962 104.429 57.3708 103.754 56.4035 103.754ZM56.4035 104.145C57.0561 104.145 57.486 104.59 57.486 105.312V105.343H55.1752C55.2597 104.621 55.7433 104.145 56.4035 104.145ZM60.8138 106.893H60.0308C59.5011 106.893 59.1786 106.824 59.1786 106.525C59.1786 106.341 59.3475 106.226 59.6162 106.187C59.8158 106.272 60.0461 106.318 60.3072 106.318C61.19 106.318 61.7735 105.803 61.7735 105.036C61.7735 104.721 61.6737 104.452 61.5048 104.245C61.7351 104.214 62.1266 103.953 62.1266 103.362L61.7197 103.278C61.7197 103.661 61.6046 103.961 61.3129 104.061C61.0595 103.861 60.714 103.754 60.2995 103.754C59.4243 103.754 58.8409 104.268 58.8409 105.036C58.8409 105.435 59.0021 105.765 59.2784 105.995C59.0021 106.064 58.7564 106.272 58.7564 106.579C58.7564 106.878 58.9176 107.062 59.171 107.17C58.7564 107.316 58.5107 107.592 58.5107 107.984C58.5107 108.605 59.1403 108.989 60.3225 108.989C61.5739 108.989 62.142 108.536 62.142 107.884C62.142 107.254 61.643 106.893 60.8138 106.893ZM60.3072 104.137C60.906 104.137 61.3052 104.498 61.3052 105.036C61.3052 105.573 60.906 105.934 60.2995 105.934C59.7007 105.934 59.3092 105.573 59.3092 105.036C59.3092 104.498 59.7007 104.137 60.3072 104.137ZM60.3225 108.59C59.4243 108.59 58.9714 108.36 58.9714 107.922C58.9714 107.561 59.2631 107.293 59.908 107.293H60.7371C61.3589 107.293 61.6813 107.469 61.6813 107.884C61.6813 108.367 61.2284 108.59 60.3225 108.59ZM65.4929 103.792V105.757C65.4929 106.295 65.086 107.032 64.3106 107.032C63.6888 107.032 63.351 106.625 63.351 106.003V103.792H62.8827V106.003C62.8827 106.855 63.3894 107.423 64.2415 107.423C64.9094 107.423 65.347 107.016 65.5389 106.533H65.5466C65.5466 106.717 65.5696 107.101 65.6157 107.4L65.9535 107.385V103.792H65.4929ZM67.1648 107.385H67.6254V101.965H67.1648V107.385ZM71.9685 106.993C71.9378 107.001 71.884 107.009 71.838 107.009C71.6691 107.009 71.6 106.924 71.6 106.717V105.082C71.6 104.268 71.0395 103.754 70.1183 103.754C69.2585 103.754 68.6981 104.206 68.6981 104.859C68.6981 105.036 68.7441 105.166 68.7441 105.166L69.1817 105.089C69.1664 105.059 69.1433 104.99 69.1433 104.882C69.1433 104.421 69.5272 104.145 70.1106 104.145C70.7632 104.145 71.1317 104.514 71.1317 105.089V105.366L70.909 105.373C69.4351 105.389 68.6059 105.665 68.6059 106.471C68.6059 107.047 69.0282 107.423 69.7882 107.423C70.6403 107.423 71.0165 106.97 71.147 106.702H71.1624V106.886C71.1624 107.27 71.3927 107.423 71.7074 107.423C71.8533 107.423 71.9838 107.385 71.9915 107.385L71.9685 106.993ZM69.888 107.032C69.3429 107.032 69.0819 106.809 69.0819 106.456C69.0819 105.926 69.7037 105.727 70.909 105.711L71.1317 105.704V106.172C71.1317 106.402 70.7785 107.032 69.888 107.032ZM74.3053 103.754C73.7525 103.754 73.4224 104.199 73.2842 104.69H73.2689C73.2689 104.46 73.2458 104.076 73.1998 103.777L72.8697 103.792V107.385H73.338V105.442C73.338 104.821 73.7448 104.206 74.2822 104.206C74.4204 104.206 74.5433 104.237 74.597 104.268L74.7121 103.807C74.62 103.777 74.4665 103.754 74.3053 103.754ZM81.4136 103.792L80.5768 106.617C80.5307 106.748 80.5 106.878 80.4846 106.916H80.4693C80.4616 106.878 80.4309 106.725 80.4002 106.617L79.5404 103.792H79.0567L78.1969 106.632C78.1662 106.74 78.1201 106.878 78.1125 106.916H78.0971C78.0894 106.878 78.0434 106.763 78.005 106.632L77.1682 103.792H76.6461L77.7977 107.385H78.3658L79.2256 104.652C79.2486 104.567 79.2794 104.437 79.287 104.391H79.3024C79.3101 104.437 79.3408 104.567 79.3638 104.652L80.2083 107.385H80.7764L81.8895 103.792H81.4136ZM84.1277 103.754C83.1143 103.754 82.408 104.491 82.408 105.596C82.408 106.694 83.1066 107.423 84.2198 107.423C84.7802 107.423 85.2792 107.239 85.6093 106.832L85.3176 106.563C85.118 106.809 84.7725 107.032 84.2505 107.032C83.4367 107.032 82.9224 106.502 82.884 105.688H85.6631C85.6631 105.688 85.6861 105.573 85.6861 105.381C85.6861 104.429 85.095 103.754 84.1277 103.754ZM84.1277 104.145C84.7802 104.145 85.2101 104.59 85.2101 105.312V105.343H82.8994C82.9838 104.621 83.4675 104.145 84.1277 104.145ZM87.2713 102.617C87.2713 102.41 87.1024 102.257 86.9028 102.257C86.7032 102.257 86.542 102.41 86.542 102.617C86.542 102.817 86.7032 102.97 86.9028 102.97C87.1024 102.97 87.2713 102.817 87.2713 102.617ZM86.6571 107.385H87.1254V103.777L86.6571 103.792V107.385ZM90.2248 106.893H89.4418C88.9121 106.893 88.5896 106.824 88.5896 106.525C88.5896 106.341 88.7585 106.226 89.0272 106.187C89.2268 106.272 89.4571 106.318 89.7182 106.318C90.601 106.318 91.1845 105.803 91.1845 105.036C91.1845 104.721 91.0847 104.452 90.9158 104.245C91.1461 104.214 91.5376 103.953 91.5376 103.362L91.1307 103.278C91.1307 103.661 91.0156 103.961 90.7238 104.061C90.4705 103.861 90.125 103.754 89.7105 103.754C88.8353 103.754 88.2518 104.268 88.2518 105.036C88.2518 105.435 88.4131 105.765 88.6894 105.995C88.4131 106.064 88.1674 106.272 88.1674 106.579C88.1674 106.878 88.3286 107.062 88.582 107.17C88.1674 107.316 87.9217 107.592 87.9217 107.984C87.9217 108.605 88.5513 108.989 89.7335 108.989C90.9849 108.989 91.553 108.536 91.553 107.884C91.553 107.254 91.054 106.893 90.2248 106.893ZM89.7182 104.137C90.317 104.137 90.7162 104.498 90.7162 105.036C90.7162 105.573 90.317 105.934 89.7105 105.934C89.1117 105.934 88.7201 105.573 88.7201 105.036C88.7201 104.498 89.1117 104.137 89.7182 104.137ZM89.7335 108.59C88.8353 108.59 88.3824 108.36 88.3824 107.922C88.3824 107.561 88.6741 107.293 89.319 107.293H90.1481C90.7699 107.293 91.0923 107.469 91.0923 107.884C91.0923 108.367 90.6394 108.59 89.7335 108.59ZM94.1131 103.754C93.4375 103.754 93 104.137 92.7927 104.583V101.965H92.3321V107.385H92.8003V105.427C92.8003 104.867 93.2149 104.145 94.0363 104.145C94.6659 104.145 95.0344 104.567 95.0344 105.181V107.385H95.5027V105.181C95.5027 104.337 94.9729 103.754 94.1131 103.754ZM98.7474 106.801C98.7474 106.801 98.4787 107.024 98.0411 107.024C97.5038 107.024 97.2811 106.717 97.2811 106.118V104.176H98.7398V103.792H97.2811V102.671L96.8128 102.702V103.792H96.2217V104.176H96.8128V106.133C96.8128 106.986 97.166 107.431 98.0028 107.431C98.5555 107.431 98.9087 107.177 98.9087 107.177L98.7474 106.801ZM99.4362 107.085C99.4362 107.277 99.5974 107.431 99.7893 107.431C99.9813 107.431 100.135 107.277 100.135 107.085C100.135 106.893 99.9813 106.732 99.7893 106.732C99.5974 106.732 99.4362 106.893 99.4362 107.085Z" fill="#434343"/>
</svg>
