<svg width="111" height="165" viewBox="0 0 111 165" fill="none" xmlns="http://www.w3.org/2000/svg">
<path d="M41 104.03C41 112.297 47.702 118.999 55.9694 118.999H56.5113C64.7786 118.999 71.4807 112.297 71.4807 104.03V103.574C71.4807 95.3063 64.7787 88.6043 56.5113 88.6043H55.9694C47.702 88.6043 41 95.3063 41 103.574V104.03Z" fill="#F0CDDD"/>
<path d="M21 60.0297C21 68.297 27.702 74.999 35.9694 74.999H36.5113C44.7786 74.999 51.4807 68.297 51.4807 60.0297V59.5736C51.4807 51.3063 44.7787 44.6043 36.5113 44.6043H35.9694C27.702 44.6043 21 51.3063 21 59.5736V60.0297Z" fill="#98D1B3"/>
<path d="M80.3379 15.5678C80.3379 23.8351 87.0399 30.5371 95.3073 30.5371H95.8492C104.117 30.5371 110.819 23.8351 110.819 15.5677V15.1117C110.819 6.84436 104.117 0.142355 95.8492 0.142355H95.3073C87.0399 0.142355 80.3379 6.84437 80.3379 15.1117V15.5678Z" fill="#5F97D3"/>
<path d="M0.637939 15.5678C0.637939 23.8351 7.33995 30.5371 15.6073 30.5371H16.1492C24.4166 30.5371 31.1186 23.8351 31.1186 15.5677V15.1117C31.1186 6.84436 24.4166 0.142355 16.1492 0.142355H15.6073C7.33997 0.142355 0.637939 6.84437 0.637939 15.1117V15.5678Z" fill="#012875"/>
<path d="M21 148.03C21 156.297 27.702 162.999 35.9694 162.999H36.5113C44.7786 162.999 51.4807 156.297 51.4807 148.03V147.574C51.4807 139.306 44.7787 132.604 36.5113 132.604H35.9694C27.702 132.604 21 139.306 21 147.574V148.03Z" fill="#F5F5F5"/>
<path fill-rule="evenodd" clip-rule="evenodd" d="M36.1504 164.701H35.6085C27.5065 164.701 20.9385 158.133 20.9385 150.031V149.575C20.9385 141.473 27.5065 134.905 35.6085 134.905H36.1505C44.2525 134.905 50.8204 141.473 50.8204 149.575V150.031C50.8204 158.133 44.2525 164.701 36.1504 164.701ZM35.6085 165C27.3412 165 20.6392 158.298 20.6392 150.031V149.575C20.6392 141.307 27.3412 134.605 35.6085 134.605H36.1505C44.4178 134.605 51.1198 141.307 51.1198 149.575V150.031C51.1198 158.298 44.4178 165 36.1504 165H35.6085Z" fill="#434343"/>
<path d="M61.2512 150.031C61.2512 158.298 67.9532 165 76.2206 165H76.7625C85.0299 165 91.7319 158.298 91.7319 150.031V149.575C91.7319 141.307 85.0299 134.605 76.7625 134.605H76.2206C67.9532 134.605 61.2512 141.307 61.2512 149.575V150.031Z" fill="#434343"/>
<path d="M80.3379 104.03C80.3379 112.297 87.0399 118.999 95.3073 118.999H95.8492C104.117 118.999 110.819 112.297 110.819 104.03V103.574C110.819 95.3063 104.117 88.6043 95.8492 88.6043H95.3073C87.0399 88.6043 80.3379 95.3063 80.3379 103.574V104.03Z" fill="#FF9E01"/>
<path d="M0.637939 104.03C0.637939 112.297 7.33995 118.999 15.6073 118.999H16.1492C24.4166 118.999 31.1186 112.297 31.1186 104.03V103.574C31.1186 95.3063 24.4166 88.6043 16.1492 88.6043H15.6073C7.33997 88.6043 0.637939 95.3063 0.637939 103.574V104.03Z" fill="#CF3B31"/>
<path d="M61.2512 60.0297C61.2512 68.297 67.9532 74.999 76.2206 74.999H76.7625C85.0299 74.999 91.7319 68.297 91.7319 60.0297V59.5736C91.7319 51.3063 85.0299 44.6043 76.7625 44.6043H76.2206C67.9532 44.6043 61.2512 51.3063 61.2512 59.5736V60.0297Z" fill="#195F3A"/>
<path d="M41 15.5678C41 23.8351 47.702 30.5371 55.9694 30.5371H56.5113C64.7786 30.5371 71.4807 23.8351 71.4807 15.5677V15.1117C71.4807 6.84436 64.7787 0.142355 56.5113 0.142355H55.9694C47.702 0.142355 41 6.84437 41 15.1117V15.5678Z" fill="#1664C4"/>
</svg>
