<svg width="197" height="326" viewBox="0 0 197 326" fill="none" xmlns="http://www.w3.org/2000/svg">
<path d="M8 2H188" stroke="#98D1B3" stroke-width="3" stroke-linecap="round" stroke-linejoin="round"/>
<path d="M34.1385 25.16V31.856H25.6185V25.16H23.4345V41H25.6185V33.704H34.1385V41H36.3225V25.16H34.1385ZM50.0513 35.912C50.0513 35.912 50.1473 35.504 50.1473 34.832C50.1473 31.856 48.3233 29.528 44.9873 29.528C41.5553 29.528 39.3713 31.976 39.3713 35.36C39.3713 38.816 41.6513 41.144 45.2753 41.144C47.2193 41.144 48.8993 40.448 49.9553 39.056L48.6593 37.88C48.1553 38.552 47.1713 39.368 45.4433 39.368C43.1873 39.368 41.7713 38 41.5553 35.912H50.0513ZM44.9873 31.304C46.7873 31.304 47.9633 32.528 47.9873 34.4H41.6033C41.9153 32.576 43.1633 31.304 44.9873 31.304ZM63.0413 39.2C62.9453 39.224 62.7773 39.248 62.6333 39.248C62.1053 39.248 61.9373 39.008 61.9373 38.384V33.8C61.9373 31.184 60.1373 29.528 57.0653 29.528C54.1853 29.528 52.4093 30.992 52.4093 33.056C52.4093 33.608 52.5533 34.04 52.5533 34.04L54.5453 33.704C54.4733 33.536 54.4253 33.392 54.4253 33.128C54.4253 31.952 55.4093 31.304 57.0173 31.304C58.8893 31.304 59.8253 32.288 59.8253 33.824V34.544H59.4893C54.4973 34.544 52.1453 35.528 52.1453 38C52.1453 39.848 53.4893 41.144 55.9853 41.144C58.6253 41.144 59.6093 39.8 59.9213 39.224H59.9693V39.248C59.9693 40.568 60.8333 41.12 62.0093 41.12C62.6093 41.12 63.1613 40.976 63.1613 40.976L63.0413 39.2ZM56.4173 39.368C54.9773 39.368 54.3053 38.84 54.3053 37.952C54.3053 36.704 55.6253 36.008 59.4893 36.008H59.8253V37.088C59.8253 38.144 58.6253 39.368 56.4173 39.368ZM74.3256 24.056V31.448C73.5816 30.344 72.3096 29.528 70.4616 29.528C67.1496 29.528 64.9416 31.832 64.9416 35.312C64.9416 38.816 67.1496 41.144 70.3416 41.144C72.5256 41.144 73.9416 39.944 74.5896 38.432H74.6616C74.6376 38.888 74.7576 40.28 74.8776 41.072L76.4376 41V24.056H74.3256ZM70.7256 39.368C68.4936 39.368 67.1016 37.736 67.1016 35.312C67.1016 32.912 68.4696 31.304 70.5816 31.304C73.1976 31.304 74.3256 33.392 74.3256 35.096V35.552C74.3256 37.232 73.1256 39.368 70.7256 39.368ZM82.4333 26C82.4333 25.184 81.7613 24.56 80.9453 24.56C80.1293 24.56 79.4813 25.184 79.4813 26C79.4813 26.816 80.1293 27.416 80.9453 27.416C81.7613 27.416 82.4333 26.816 82.4333 26ZM79.8173 41H81.9533V29.6L79.8173 29.672V41ZM91.228 29.528C89.068 29.528 87.796 30.824 87.196 32.24H87.124C87.124 31.736 87.028 30.464 86.836 29.6L85.348 29.672V41H87.46V35.072C87.46 33.44 88.516 31.304 90.868 31.304C92.572 31.304 93.508 32.408 93.508 34.064V41H95.644V34.064C95.644 31.352 93.94 29.528 91.228 29.528ZM105.183 39.296H102.831C101.271 39.296 100.359 39.104 100.359 38.312C100.359 37.856 100.767 37.592 101.391 37.496C101.991 37.688 102.687 37.808 103.431 37.808C106.335 37.808 108.279 36.152 108.279 33.68C108.279 32.768 108.015 31.976 107.535 31.328C108.279 31.208 109.719 30.368 109.719 28.208L107.919 27.824C107.919 29.216 107.559 30.152 106.743 30.536C105.903 29.912 104.751 29.552 103.407 29.552C100.503 29.552 98.5828 31.208 98.5828 33.68C98.5828 34.928 99.0628 35.96 99.9268 36.68C99.1108 36.992 98.4388 37.64 98.4388 38.576C98.4388 39.512 98.8708 40.112 99.5428 40.496C98.2708 40.952 97.6228 41.792 97.6228 42.896C97.6228 44.816 99.4948 46.016 103.575 46.016C107.895 46.016 109.479 44.432 109.479 42.488C109.479 40.4 107.871 39.296 105.183 39.296ZM103.431 31.304C105.063 31.304 106.143 32.24 106.143 33.68C106.143 35.12 105.063 36.056 103.407 36.056C101.775 36.056 100.719 35.12 100.719 33.68C100.719 32.24 101.799 31.304 103.431 31.304ZM103.575 44.24C100.815 44.24 99.7108 43.736 99.7108 42.584C99.7108 41.768 100.263 41.096 102.255 41.096H104.775C106.479 41.096 107.391 41.336 107.391 42.488C107.391 43.712 106.311 44.24 103.575 44.24ZM120.052 41H122.236V27.008H127.324V25.16H114.964V27.008H120.052V41ZM135.221 29.528C133.325 29.528 132.125 30.488 131.453 31.664H131.405V24.056H129.317V41H131.453V35.096C131.453 33.392 132.509 31.304 134.861 31.304C136.565 31.304 137.501 32.408 137.501 34.064V41H139.637V34.064C139.637 31.352 137.933 29.528 135.221 29.528ZM147.831 29.528C146.151 29.528 145.191 30.752 144.759 32.24H144.663C144.663 31.736 144.567 30.464 144.375 29.6L142.887 29.672V41H144.999V35.072C144.999 32.72 146.439 31.592 147.711 31.592C148.191 31.592 148.527 31.712 148.767 31.856L149.295 29.72C148.863 29.6 148.335 29.528 147.831 29.528ZM160.793 35.912C160.793 35.912 160.889 35.504 160.889 34.832C160.889 31.856 159.065 29.528 155.729 29.528C152.297 29.528 150.113 31.976 150.113 35.36C150.113 38.816 152.393 41.144 156.017 41.144C157.961 41.144 159.641 40.448 160.697 39.056L159.401 37.88C158.897 38.552 157.913 39.368 156.185 39.368C153.929 39.368 152.513 38 152.297 35.912H160.793ZM155.729 31.304C157.529 31.304 158.705 32.528 158.729 34.4H152.345C152.657 32.576 153.905 31.304 155.729 31.304ZM173.543 35.912C173.543 35.912 173.639 35.504 173.639 34.832C173.639 31.856 171.815 29.528 168.479 29.528C165.047 29.528 162.863 31.976 162.863 35.36C162.863 38.816 165.143 41.144 168.767 41.144C170.711 41.144 172.391 40.448 173.447 39.056L172.151 37.88C171.647 38.552 170.663 39.368 168.935 39.368C166.679 39.368 165.263 38 165.047 35.912H173.543ZM168.479 31.304C170.279 31.304 171.455 32.528 171.479 34.4H165.095C165.407 32.576 166.655 31.304 168.479 31.304ZM23.6099 65.12H19.8659V77H21.5039V73.166H23.8079C26.6519 73.166 28.2719 71.708 28.2719 69.134C28.2719 66.56 26.5799 65.12 23.6099 65.12ZM23.5559 71.78H21.5039V66.506H23.5019C25.4999 66.506 26.6159 67.46 26.6159 69.134C26.6159 70.826 25.5179 71.78 23.5559 71.78ZM37.7937 75.65C37.7217 75.668 37.5957 75.686 37.4877 75.686C37.0917 75.686 36.9657 75.506 36.9657 75.038V71.6C36.9657 69.638 35.6157 68.396 33.3117 68.396C31.1517 68.396 29.8197 69.494 29.8197 71.042C29.8197 71.456 29.9277 71.78 29.9277 71.78L31.4217 71.528C31.3677 71.402 31.3317 71.294 31.3317 71.096C31.3317 70.214 32.0697 69.728 33.2757 69.728C34.6797 69.728 35.3817 70.466 35.3817 71.618V72.158H35.1297C31.3857 72.158 29.6217 72.896 29.6217 74.75C29.6217 76.136 30.6297 77.108 32.5017 77.108C34.4817 77.108 35.2197 76.1 35.4537 75.668H35.4897V75.686C35.4897 76.676 36.1377 77.09 37.0197 77.09C37.4697 77.09 37.8837 76.982 37.8837 76.982L37.7937 75.65ZM32.8257 75.776C31.7457 75.776 31.2417 75.38 31.2417 74.714C31.2417 73.778 32.2317 73.256 35.1297 73.256H35.3817V74.066C35.3817 74.858 34.4817 75.776 32.8257 75.776ZM43.4309 68.396C42.1709 68.396 41.4509 69.314 41.1269 70.43H41.0549C41.0549 70.052 40.9829 69.098 40.8389 68.45L39.7229 68.504V77H41.3069V72.554C41.3069 70.79 42.3869 69.944 43.3409 69.944C43.7009 69.944 43.9529 70.034 44.1329 70.142L44.5289 68.54C44.2049 68.45 43.8089 68.396 43.4309 68.396ZM53.4558 75.65C53.3838 75.668 53.2578 75.686 53.1498 75.686C52.7538 75.686 52.6278 75.506 52.6278 75.038V71.6C52.6278 69.638 51.2778 68.396 48.9738 68.396C46.8138 68.396 45.4818 69.494 45.4818 71.042C45.4818 71.456 45.5898 71.78 45.5898 71.78L47.0838 71.528C47.0298 71.402 46.9938 71.294 46.9938 71.096C46.9938 70.214 47.7318 69.728 48.9378 69.728C50.3418 69.728 51.0438 70.466 51.0438 71.618V72.158H50.7918C47.0478 72.158 45.2838 72.896 45.2838 74.75C45.2838 76.136 46.2918 77.108 48.1638 77.108C50.1438 77.108 50.8818 76.1 51.1158 75.668H51.1518V75.686C51.1518 76.676 51.7998 77.09 52.6818 77.09C53.1318 77.09 53.5458 76.982 53.5458 76.982L53.4558 75.65ZM48.4878 75.776C47.4078 75.776 46.9038 75.38 46.9038 74.714C46.9038 73.778 47.8938 73.256 50.7918 73.256H51.0438V74.066C51.0438 74.858 50.1438 75.776 48.4878 75.776ZM60.101 75.722H58.337C57.167 75.722 56.483 75.578 56.483 74.984C56.483 74.642 56.789 74.444 57.257 74.372C57.707 74.516 58.229 74.606 58.787 74.606C60.965 74.606 62.423 73.364 62.423 71.51C62.423 70.826 62.225 70.232 61.865 69.746C62.423 69.656 63.503 69.026 63.503 67.406L62.153 67.118C62.153 68.162 61.883 68.864 61.271 69.152C60.641 68.684 59.777 68.414 58.769 68.414C56.591 68.414 55.151 69.656 55.151 71.51C55.151 72.446 55.511 73.22 56.159 73.76C55.547 73.994 55.043 74.48 55.043 75.182C55.043 75.884 55.367 76.334 55.871 76.622C54.917 76.964 54.431 77.594 54.431 78.422C54.431 79.862 55.835 80.762 58.895 80.762C62.135 80.762 63.323 79.574 63.323 78.116C63.323 76.55 62.117 75.722 60.101 75.722ZM58.787 69.728C60.011 69.728 60.821 70.43 60.821 71.51C60.821 72.59 60.011 73.292 58.769 73.292C57.545 73.292 56.753 72.59 56.753 71.51C56.753 70.43 57.563 69.728 58.787 69.728ZM58.895 79.43C56.825 79.43 55.997 79.052 55.997 78.188C55.997 77.576 56.411 77.072 57.905 77.072H59.795C61.073 77.072 61.757 77.252 61.757 78.116C61.757 79.034 60.947 79.43 58.895 79.43ZM68.6379 68.396C67.3779 68.396 66.6579 69.314 66.3339 70.43H66.2619C66.2619 70.052 66.1899 69.098 66.0459 68.45L64.9299 68.504V77H66.5139V72.554C66.5139 70.79 67.5939 69.944 68.5479 69.944C68.9079 69.944 69.1599 70.034 69.3399 70.142L69.7359 68.54C69.4119 68.45 69.0159 68.396 68.6379 68.396ZM78.6628 75.65C78.5908 75.668 78.4648 75.686 78.3568 75.686C77.9608 75.686 77.8348 75.506 77.8348 75.038V71.6C77.8348 69.638 76.4848 68.396 74.1808 68.396C72.0208 68.396 70.6888 69.494 70.6888 71.042C70.6888 71.456 70.7968 71.78 70.7968 71.78L72.2908 71.528C72.2368 71.402 72.2008 71.294 72.2008 71.096C72.2008 70.214 72.9388 69.728 74.1448 69.728C75.5488 69.728 76.2508 70.466 76.2508 71.618V72.158H75.9988C72.2548 72.158 70.4908 72.896 70.4908 74.75C70.4908 76.136 71.4988 77.108 73.3708 77.108C75.3508 77.108 76.0888 76.1 76.3228 75.668H76.3588V75.686C76.3588 76.676 77.0068 77.09 77.8888 77.09C78.3388 77.09 78.7528 76.982 78.7528 76.982L78.6628 75.65ZM73.6948 75.776C72.6148 75.776 72.1108 75.38 72.1108 74.714C72.1108 73.778 73.1008 73.256 75.9988 73.256H76.2508V74.066C76.2508 74.858 75.3508 75.776 73.6948 75.776ZM85.164 68.396C83.418 68.396 82.41 69.332 81.942 70.43H81.924C81.942 70.088 81.834 69.026 81.708 68.45L80.592 68.504V80.672H82.176V75.596C82.752 76.478 83.742 77.108 85.074 77.108C87.558 77.108 89.214 75.38 89.214 72.77C89.214 70.142 87.558 68.396 85.164 68.396ZM84.984 75.776C83.022 75.776 82.176 74.21 82.176 72.932V72.59C82.176 71.33 83.076 69.728 84.876 69.728C86.55 69.728 87.594 70.952 87.594 72.77C87.594 74.57 86.568 75.776 84.984 75.776ZM95.6548 68.396C94.2328 68.396 93.3328 69.116 92.8288 69.998H92.7928V64.292H91.2268V77H92.8288V72.572C92.8288 71.294 93.6208 69.728 95.3848 69.728C96.6628 69.728 97.3648 70.556 97.3648 71.798V77H98.9668V71.798C98.9668 69.764 97.6888 68.396 95.6548 68.396ZM110.601 75.272C110.601 75.272 110.025 75.758 109.035 75.758C107.883 75.758 107.397 75.074 107.397 73.706V69.782H110.691V68.504H107.397V65.894L105.795 65.984V68.504H104.445V69.782H105.795V73.76C105.795 75.938 106.677 77.108 108.873 77.108C110.259 77.108 111.105 76.55 111.105 76.55L110.601 75.272ZM119.897 73.184C119.897 73.184 119.969 72.878 119.969 72.374C119.969 70.142 118.601 68.396 116.099 68.396C113.525 68.396 111.887 70.232 111.887 72.77C111.887 75.362 113.597 77.108 116.315 77.108C117.773 77.108 119.033 76.586 119.825 75.542L118.853 74.66C118.475 75.164 117.737 75.776 116.441 75.776C114.749 75.776 113.687 74.75 113.525 73.184H119.897ZM116.099 69.728C117.449 69.728 118.331 70.646 118.349 72.05H113.561C113.795 70.682 114.731 69.728 116.099 69.728ZM125.669 72.716L128.765 68.504H126.965L125.183 71.042C125.039 71.258 124.823 71.636 124.787 71.762H124.751C124.715 71.636 124.463 71.258 124.319 71.042L122.537 68.504H120.665L123.851 72.806L120.737 77H122.537L124.445 74.336C124.571 74.174 124.697 73.976 124.733 73.832H124.769C124.787 73.976 124.913 74.174 125.039 74.336L126.947 77H128.819L125.669 72.716ZM135.72 75.272C135.72 75.272 135.144 75.758 134.154 75.758C133.002 75.758 132.516 75.074 132.516 73.706V69.782H135.81V68.504H132.516V65.894L130.914 65.984V68.504H129.564V69.782H130.914V73.76C130.914 75.938 131.796 77.108 133.992 77.108C135.378 77.108 136.224 76.55 136.224 76.55L135.72 75.272ZM145.419 68.396C144.159 68.396 143.439 69.314 143.115 70.43H143.043C143.043 70.052 142.971 69.098 142.827 68.45L141.711 68.504V77H143.295V72.554C143.295 70.79 144.375 69.944 145.329 69.944C145.689 69.944 145.941 70.034 146.121 70.142L146.517 68.54C146.193 68.45 145.797 68.396 145.419 68.396ZM149.896 65.75C149.896 65.138 149.392 64.67 148.78 64.67C148.168 64.67 147.682 65.138 147.682 65.75C147.682 66.362 148.168 66.812 148.78 66.812C149.392 66.812 149.896 66.362 149.896 65.75ZM147.934 77H149.536V68.45L147.934 68.504V77ZM156.798 75.722H155.034C153.864 75.722 153.18 75.578 153.18 74.984C153.18 74.642 153.486 74.444 153.954 74.372C154.404 74.516 154.926 74.606 155.484 74.606C157.662 74.606 159.12 73.364 159.12 71.51C159.12 70.826 158.922 70.232 158.562 69.746C159.12 69.656 160.2 69.026 160.2 67.406L158.85 67.118C158.85 68.162 158.58 68.864 157.968 69.152C157.338 68.684 156.474 68.414 155.466 68.414C153.288 68.414 151.848 69.656 151.848 71.51C151.848 72.446 152.208 73.22 152.856 73.76C152.244 73.994 151.74 74.48 151.74 75.182C151.74 75.884 152.064 76.334 152.568 76.622C151.614 76.964 151.128 77.594 151.128 78.422C151.128 79.862 152.532 80.762 155.592 80.762C158.832 80.762 160.02 79.574 160.02 78.116C160.02 76.55 158.814 75.722 156.798 75.722ZM155.484 69.728C156.708 69.728 157.518 70.43 157.518 71.51C157.518 72.59 156.708 73.292 155.466 73.292C154.242 73.292 153.45 72.59 153.45 71.51C153.45 70.43 154.26 69.728 155.484 69.728ZM155.592 79.43C153.522 79.43 152.694 79.052 152.694 78.188C152.694 77.576 153.108 77.072 154.602 77.072H156.492C157.77 77.072 158.454 77.252 158.454 78.116C158.454 79.034 157.644 79.43 155.592 79.43ZM166.055 68.396C164.633 68.396 163.733 69.116 163.229 69.998H163.193V64.292H161.627V77H163.229V72.572C163.229 71.294 164.021 69.728 165.785 69.728C167.063 69.728 167.765 70.556 167.765 71.798V77H169.367V71.798C169.367 69.764 168.089 68.396 166.055 68.396ZM177.011 75.272C177.011 75.272 176.435 75.758 175.445 75.758C174.293 75.758 173.807 75.074 173.807 73.706V69.782H177.101V68.504H173.807V65.894L172.205 65.984V68.504H170.855V69.782H172.205V73.76C172.205 75.938 173.087 77.108 175.283 77.108C176.669 77.108 177.515 76.55 177.515 76.55L177.011 75.272ZM5.15382 90.396C3.73182 90.396 2.83182 91.116 2.32782 91.998H2.29182V86.292H0.72582V99H2.32782V94.572C2.32782 93.294 3.11982 91.728 4.88382 91.728C6.16182 91.728 6.86382 92.556 6.86382 93.798V99H8.46582V93.798C8.46582 91.764 7.18782 90.396 5.15382 90.396ZM18.4096 95.184C18.4096 95.184 18.4816 94.878 18.4816 94.374C18.4816 92.142 17.1136 90.396 14.6116 90.396C12.0376 90.396 10.3996 92.232 10.3996 94.77C10.3996 97.362 12.1096 99.108 14.8276 99.108C16.2856 99.108 17.5456 98.586 18.3376 97.542L17.3656 96.66C16.9876 97.164 16.2496 97.776 14.9536 97.776C13.2616 97.776 12.1996 96.75 12.0376 95.184H18.4096ZM14.6116 91.728C15.9616 91.728 16.8436 92.646 16.8616 94.05H12.0736C12.3076 92.682 13.2436 91.728 14.6116 91.728ZM24.1741 90.396C22.9141 90.396 22.1941 91.314 21.8701 92.43H21.7981C21.7981 92.052 21.7261 91.098 21.5821 90.45L20.4661 90.504V99H22.0501V94.554C22.0501 92.79 23.1301 91.944 24.0841 91.944C24.4441 91.944 24.6961 92.034 24.8761 92.142L25.2721 90.54C24.9481 90.45 24.5521 90.396 24.1741 90.396ZM33.8959 95.184C33.8959 95.184 33.9679 94.878 33.9679 94.374C33.9679 92.142 32.5999 90.396 30.0979 90.396C27.5239 90.396 25.8859 92.232 25.8859 94.77C25.8859 97.362 27.5959 99.108 30.3139 99.108C31.7719 99.108 33.0319 98.586 33.8239 97.542L32.8519 96.66C32.4739 97.164 31.7359 97.776 30.4399 97.776C28.7479 97.776 27.6859 96.75 27.5239 95.184H33.8959ZM30.0979 91.728C31.4479 91.728 32.3299 92.646 32.3479 94.05H27.5599C27.7939 92.682 28.7299 91.728 30.0979 91.728ZM35.6284 98.064C35.6284 98.64 36.0964 99.108 36.6904 99.108C37.2664 99.108 37.7344 98.64 37.7344 98.064C37.7344 97.488 37.2664 97.002 36.6904 97.002C36.0964 97.002 35.6284 97.488 35.6284 98.064ZM45.0147 97.614V87.12H43.3767V99H50.9367V97.614H45.0147ZM59.7533 95.184C59.7533 95.184 59.8253 94.878 59.8253 94.374C59.8253 92.142 58.4573 90.396 55.9553 90.396C53.3813 90.396 51.7433 92.232 51.7433 94.77C51.7433 97.362 53.4533 99.108 56.1713 99.108C57.6293 99.108 58.8893 98.586 59.6813 97.542L58.7093 96.66C58.3313 97.164 57.5933 97.776 56.2973 97.776C54.6053 97.776 53.5433 96.75 53.3813 95.184H59.7533ZM55.9553 91.728C57.3053 91.728 58.1873 92.646 58.2053 94.05H53.4173C53.6513 92.682 54.5873 91.728 55.9553 91.728ZM67.0332 97.272C67.0332 97.272 66.4572 97.758 65.4672 97.758C64.3152 97.758 63.8292 97.074 63.8292 95.706V91.782H67.1232V90.504H63.8292V87.894L62.2272 87.984V90.504H60.8772V91.782H62.2272V95.76C62.2272 97.938 63.1092 99.108 65.3052 99.108C66.6912 99.108 67.5372 98.55 67.5372 98.55L67.0332 97.272ZM68.6945 88.002C68.6945 88.596 69.1805 88.992 69.7565 88.992C69.7565 90.018 68.5505 90.864 68.5505 90.864L69.2525 91.728C69.2525 91.728 71.0705 90.612 71.0705 88.38C71.0705 87.552 70.5665 86.994 69.8285 86.994C69.1265 86.994 68.6945 87.39 68.6945 88.002ZM77.6017 93.546L79.0597 93.438C79.0597 93.438 79.1317 93.186 79.1317 92.844C79.1317 91.44 77.7997 90.396 75.8017 90.396C73.8037 90.396 72.4717 91.494 72.4717 92.898C72.4717 96.048 77.6377 94.932 77.6377 96.678C77.6377 97.326 77.0257 97.776 75.7657 97.776C74.4697 97.776 73.4077 97.092 73.0477 96.75L72.0757 97.83C72.5617 98.226 73.6597 99.108 75.7477 99.108C77.8177 99.108 79.2757 98.226 79.2577 96.696C79.2037 93.474 74.0917 94.914 74.0917 92.916C74.0917 92.214 74.7037 91.728 75.7657 91.728C76.8817 91.728 77.6557 92.25 77.6557 93.132C77.6557 93.258 77.6377 93.42 77.6017 93.546ZM90.4824 97.272C90.4824 97.272 89.9064 97.758 88.9164 97.758C87.7644 97.758 87.2784 97.074 87.2784 95.706V91.782H90.5724V90.504H87.2784V87.894L85.6764 87.984V90.504H84.3264V91.782H85.6764V95.76C85.6764 97.938 86.5584 99.108 88.7544 99.108C90.1404 99.108 90.9864 98.55 90.9864 98.55L90.4824 97.272ZM98.2457 90.504V94.95C98.2457 96.174 97.4537 97.776 95.8877 97.776C94.6097 97.776 93.9077 96.948 93.9077 95.706V90.504H92.3057V95.706C92.3057 97.74 93.5837 99.108 95.6177 99.108C97.0757 99.108 97.9757 98.28 98.4437 97.254H98.4617C98.4617 97.452 98.5337 98.406 98.6777 99.054L99.8297 99V90.504H98.2457ZM106.053 90.396C104.793 90.396 104.073 91.314 103.749 92.43H103.677C103.677 92.052 103.605 91.098 103.461 90.45L102.345 90.504V99H103.929V94.554C103.929 92.79 105.009 91.944 105.963 91.944C106.323 91.944 106.575 92.034 106.755 92.142L107.151 90.54C106.827 90.45 106.431 90.396 106.053 90.396ZM112.96 90.396C111.34 90.396 110.386 91.368 109.936 92.43H109.882C109.882 92.052 109.81 91.098 109.666 90.45L108.55 90.504V99H110.134V94.554C110.134 93.33 110.926 91.728 112.69 91.728C113.968 91.728 114.67 92.556 114.67 93.798V99H116.272V93.798C116.272 91.764 114.994 90.396 112.96 90.396ZM127.906 97.272C127.906 97.272 127.33 97.758 126.34 97.758C125.188 97.758 124.702 97.074 124.702 95.706V91.782H127.996V90.504H124.702V87.894L123.1 87.984V90.504H121.75V91.782H123.1V95.76C123.1 97.938 123.982 99.108 126.178 99.108C127.564 99.108 128.41 98.55 128.41 98.55L127.906 97.272ZM134.248 90.396C132.826 90.396 131.926 91.116 131.422 91.998H131.386V86.292H129.82V99H131.422V94.572C131.422 93.294 132.214 91.728 133.978 91.728C135.256 91.728 135.958 92.556 135.958 93.798V99H137.56V93.798C137.56 91.764 136.282 90.396 134.248 90.396ZM141.977 87.75C141.977 87.138 141.473 86.67 140.861 86.67C140.249 86.67 139.763 87.138 139.763 87.75C139.763 88.362 140.249 88.812 140.861 88.812C141.473 88.812 141.977 88.362 141.977 87.75ZM140.015 99H141.617V90.45L140.015 90.504V99ZM148.951 93.546L150.409 93.438C150.409 93.438 150.481 93.186 150.481 92.844C150.481 91.44 149.149 90.396 147.151 90.396C145.153 90.396 143.821 91.494 143.821 92.898C143.821 96.048 148.987 94.932 148.987 96.678C148.987 97.326 148.375 97.776 147.115 97.776C145.819 97.776 144.757 97.092 144.397 96.75L143.425 97.83C143.911 98.226 145.009 99.108 147.097 99.108C149.167 99.108 150.625 98.226 150.607 96.696C150.553 93.474 145.441 94.914 145.441 92.916C145.441 92.214 146.053 91.728 147.115 91.728C148.231 91.728 149.005 92.25 149.005 93.132C149.005 93.258 148.987 93.42 148.951 93.546ZM161.832 97.272C161.832 97.272 161.256 97.758 160.266 97.758C159.114 97.758 158.628 97.074 158.628 95.706V91.782H161.922V90.504H158.628V87.894L157.026 87.984V90.504H155.676V91.782H157.026V95.76C157.026 97.938 157.908 99.108 160.104 99.108C161.49 99.108 162.336 98.55 162.336 98.55L161.832 97.272ZM168.173 90.396C166.751 90.396 165.851 91.116 165.347 91.998H165.311V86.292H163.745V99H165.347V94.572C165.347 93.294 166.139 91.728 167.903 91.728C169.181 91.728 169.883 92.556 169.883 93.798V99H171.485V93.798C171.485 91.764 170.207 90.396 168.173 90.396ZM175.903 87.75C175.903 87.138 175.399 86.67 174.787 86.67C174.175 86.67 173.689 87.138 173.689 87.75C173.689 88.362 174.175 88.812 174.787 88.812C175.399 88.812 175.903 88.362 175.903 87.75ZM173.941 99H175.543V90.45L173.941 90.504V99ZM182.499 90.396C180.879 90.396 179.925 91.368 179.475 92.43H179.421C179.421 92.052 179.349 91.098 179.205 90.45L178.089 90.504V99H179.673V94.554C179.673 93.33 180.465 91.728 182.229 91.728C183.507 91.728 184.209 92.556 184.209 93.798V99H185.811V93.798C185.811 91.764 184.533 90.396 182.499 90.396ZM192.965 97.722H191.201C190.031 97.722 189.347 97.578 189.347 96.984C189.347 96.642 189.653 96.444 190.121 96.372C190.571 96.516 191.093 96.606 191.651 96.606C193.829 96.606 195.287 95.364 195.287 93.51C195.287 92.826 195.089 92.232 194.729 91.746C195.287 91.656 196.367 91.026 196.367 89.406L195.017 89.118C195.017 90.162 194.747 90.864 194.135 91.152C193.505 90.684 192.641 90.414 191.633 90.414C189.455 90.414 188.015 91.656 188.015 93.51C188.015 94.446 188.375 95.22 189.023 95.76C188.411 95.994 187.907 96.48 187.907 97.182C187.907 97.884 188.231 98.334 188.735 98.622C187.781 98.964 187.295 99.594 187.295 100.422C187.295 101.862 188.699 102.762 191.759 102.762C194.999 102.762 196.187 101.574 196.187 100.116C196.187 98.55 194.981 97.722 192.965 97.722ZM191.651 91.728C192.875 91.728 193.685 92.43 193.685 93.51C193.685 94.59 192.875 95.292 191.633 95.292C190.409 95.292 189.617 94.59 189.617 93.51C189.617 92.43 190.427 91.728 191.651 91.728ZM191.759 101.43C189.689 101.43 188.861 101.052 188.861 100.188C188.861 99.576 189.275 99.072 190.769 99.072H192.659C193.937 99.072 194.621 99.252 194.621 100.116C194.621 101.034 193.811 101.43 191.759 101.43ZM14.7839 119.65C14.7119 119.668 14.5859 119.686 14.4779 119.686C14.0819 119.686 13.9559 119.506 13.9559 119.038V115.6C13.9559 113.638 12.6059 112.396 10.3019 112.396C8.14189 112.396 6.80989 113.494 6.80989 115.042C6.80989 115.456 6.91789 115.78 6.91789 115.78L8.41189 115.528C8.35789 115.402 8.32189 115.294 8.32189 115.096C8.32189 114.214 9.05989 113.728 10.2659 113.728C11.6699 113.728 12.3719 114.466 12.3719 115.618V116.158H12.1199C8.37589 116.158 6.61189 116.896 6.61189 118.75C6.61189 120.136 7.61989 121.108 9.49189 121.108C11.4719 121.108 12.2099 120.1 12.4439 119.668H12.4799V119.686C12.4799 120.676 13.1279 121.09 14.0099 121.09C14.4599 121.09 14.8739 120.982 14.8739 120.982L14.7839 119.65ZM9.81589 119.776C8.73589 119.776 8.23189 119.38 8.23189 118.714C8.23189 117.778 9.22189 117.256 12.1199 117.256H12.3719V118.066C12.3719 118.858 11.4719 119.776 9.81589 119.776ZM16.7311 121H18.3151V108.292H16.7311V121ZM20.8796 121H22.4636V108.292H20.8796V121ZM34.206 119.272C34.206 119.272 33.63 119.758 32.64 119.758C31.488 119.758 31.002 119.074 31.002 117.706V113.782H34.296V112.504H31.002V109.894L29.4 109.984V112.504H28.05V113.782H29.4V117.76C29.4 119.938 30.282 121.108 32.478 121.108C33.864 121.108 34.71 120.55 34.71 120.55L34.206 119.272ZM40.5474 112.396C39.1254 112.396 38.2254 113.116 37.7214 113.998H37.6854V108.292H36.1194V121H37.7214V116.572C37.7214 115.294 38.5134 113.728 40.2774 113.728C41.5554 113.728 42.2574 114.556 42.2574 115.798V121H43.8594V115.798C43.8594 113.764 42.5814 112.396 40.5474 112.396ZM53.8031 117.184C53.8031 117.184 53.8751 116.878 53.8751 116.374C53.8751 114.142 52.5071 112.396 50.0051 112.396C47.4311 112.396 45.7931 114.232 45.7931 116.77C45.7931 119.362 47.5031 121.108 50.2211 121.108C51.6791 121.108 52.9391 120.586 53.7311 119.542L52.7591 118.66C52.3811 119.164 51.6431 119.776 50.3471 119.776C48.6551 119.776 47.5931 118.75 47.4311 117.184H53.8031ZM50.0051 113.728C51.3551 113.728 52.2371 114.646 52.2551 116.05H47.4671C47.7011 114.682 48.6371 113.728 50.0051 113.728ZM70.4317 112.504L68.7397 118.39C68.5957 118.858 68.5057 119.236 68.4697 119.38H68.4337C68.3977 119.236 68.3077 118.786 68.1997 118.39L66.4537 112.504H64.8157L63.0697 118.444C62.9617 118.84 62.8357 119.236 62.7997 119.38H62.7637C62.7277 119.236 62.6017 118.912 62.4757 118.444L60.7837 112.504H59.0017L61.7737 121H63.6277L65.4817 115.114C65.5357 114.916 65.5897 114.664 65.6077 114.52H65.6437C65.6617 114.664 65.7157 114.916 65.7697 115.114L67.5517 121H69.4417L72.0517 112.504H70.4317ZM81.2292 119.65C81.1572 119.668 81.0312 119.686 80.9232 119.686C80.5272 119.686 80.4012 119.506 80.4012 119.038V115.6C80.4012 113.638 79.0512 112.396 76.7472 112.396C74.5872 112.396 73.2552 113.494 73.2552 115.042C73.2552 115.456 73.3632 115.78 73.3632 115.78L74.8572 115.528C74.8032 115.402 74.7672 115.294 74.7672 115.096C74.7672 114.214 75.5052 113.728 76.7112 113.728C78.1152 113.728 78.8172 114.466 78.8172 115.618V116.158H78.5652C74.8212 116.158 73.0572 116.896 73.0572 118.75C73.0572 120.136 74.0652 121.108 75.9372 121.108C77.9172 121.108 78.6552 120.1 78.8892 119.668H78.9252V119.686C78.9252 120.676 79.5732 121.09 80.4552 121.09C80.9052 121.09 81.3192 120.982 81.3192 120.982L81.2292 119.65ZM76.2612 119.776C75.1812 119.776 74.6772 119.38 74.6772 118.714C74.6772 117.778 75.6672 117.256 78.5652 117.256H78.8172V118.066C78.8172 118.858 77.9172 119.776 76.2612 119.776ZM86.4458 122.512L90.4778 112.504H88.8578L86.4818 118.444C86.3378 118.822 86.2658 118.984 86.1938 119.38H86.1758C86.1038 119.02 86.0678 118.876 85.8878 118.444L83.5478 112.504H81.7658L85.3658 121.216L85.0418 122.062C84.7538 122.818 84.3758 123.394 83.4938 123.394C82.9718 123.394 82.5758 123.178 82.5758 123.178L82.2878 124.492C82.2878 124.492 82.7918 124.762 83.6018 124.762C85.1678 124.762 85.9598 123.772 86.4458 122.512ZM103.43 119.65C103.358 119.668 103.232 119.686 103.124 119.686C102.728 119.686 102.602 119.506 102.602 119.038V115.6C102.602 113.638 101.252 112.396 98.9484 112.396C96.7884 112.396 95.4564 113.494 95.4564 115.042C95.4564 115.456 95.5644 115.78 95.5644 115.78L97.0584 115.528C97.0044 115.402 96.9684 115.294 96.9684 115.096C96.9684 114.214 97.7064 113.728 98.9124 113.728C100.316 113.728 101.018 114.466 101.018 115.618V116.158H100.766C97.0224 116.158 95.2584 116.896 95.2584 118.75C95.2584 120.136 96.2664 121.108 98.1384 121.108C100.118 121.108 100.856 120.1 101.09 119.668H101.126V119.686C101.126 120.676 101.774 121.09 102.656 121.09C103.106 121.09 103.52 120.982 103.52 120.982L103.43 119.65ZM98.4624 119.776C97.3824 119.776 96.8784 119.38 96.8784 118.714C96.8784 117.778 97.8684 117.256 100.766 117.256H101.018V118.066C101.018 118.858 100.118 119.776 98.4624 119.776ZM109.068 112.396C107.808 112.396 107.088 113.314 106.764 114.43H106.692C106.692 114.052 106.62 113.098 106.476 112.45L105.36 112.504V121H106.944V116.554C106.944 114.79 108.024 113.944 108.978 113.944C109.338 113.944 109.59 114.034 109.77 114.142L110.166 112.54C109.842 112.45 109.446 112.396 109.068 112.396ZM115.135 112.396C112.507 112.396 110.761 114.214 110.761 116.788C110.761 119.362 112.507 121.108 115.135 121.108C117.763 121.108 119.509 119.362 119.509 116.788C119.509 114.214 117.763 112.396 115.135 112.396ZM115.135 119.776C113.479 119.776 112.381 118.552 112.381 116.788C112.381 115.024 113.479 113.728 115.135 113.728C116.791 113.728 117.889 115.024 117.889 116.788C117.889 118.552 116.791 119.776 115.135 119.776ZM127.364 112.504V116.95C127.364 118.174 126.572 119.776 125.006 119.776C123.728 119.776 123.026 118.948 123.026 117.706V112.504H121.424V117.706C121.424 119.74 122.702 121.108 124.736 121.108C126.194 121.108 127.094 120.28 127.562 119.254H127.58C127.58 119.452 127.652 120.406 127.796 121.054L128.948 121V112.504H127.364ZM135.873 112.396C134.253 112.396 133.299 113.368 132.849 114.43H132.795C132.795 114.052 132.723 113.098 132.579 112.45L131.463 112.504V121H133.047V116.554C133.047 115.33 133.839 113.728 135.603 113.728C136.881 113.728 137.583 114.556 137.583 115.798V121H139.185V115.798C139.185 113.764 137.907 112.396 135.873 112.396ZM148.157 108.292V113.836C147.599 113.008 146.645 112.396 145.259 112.396C142.775 112.396 141.119 114.124 141.119 116.734C141.119 119.362 142.775 121.108 145.169 121.108C146.807 121.108 147.869 120.208 148.355 119.074H148.409C148.391 119.416 148.481 120.46 148.571 121.054L149.741 121V108.292H148.157ZM145.457 119.776C143.783 119.776 142.739 118.552 142.739 116.734C142.739 114.934 143.765 113.728 145.349 113.728C147.311 113.728 148.157 115.294 148.157 116.572V116.914C148.157 118.174 147.257 119.776 145.457 119.776ZM151.934 120.064C151.934 120.64 152.402 121.108 152.996 121.108C153.572 121.108 154.04 120.64 154.04 120.064C154.04 119.488 153.572 119.002 152.996 119.002C152.402 119.002 151.934 119.488 151.934 120.064ZM161.657 121H163.295V110.506H167.111V109.12H157.841V110.506H161.657V121ZM173.034 112.396C171.612 112.396 170.712 113.116 170.208 113.998H170.172V108.292H168.606V121H170.208V116.572C170.208 115.294 171 113.728 172.764 113.728C174.042 113.728 174.744 114.556 174.744 115.798V121H176.346V115.798C176.346 113.764 175.068 112.396 173.034 112.396ZM180.763 109.75C180.763 109.138 180.259 108.67 179.647 108.67C179.035 108.67 178.549 109.138 178.549 109.75C178.549 110.362 179.035 110.812 179.647 110.812C180.259 110.812 180.763 110.362 180.763 109.75ZM178.801 121H180.403V112.45L178.801 112.504V121ZM187.737 115.546L189.195 115.438C189.195 115.438 189.267 115.186 189.267 114.844C189.267 113.44 187.935 112.396 185.937 112.396C183.939 112.396 182.607 113.494 182.607 114.898C182.607 118.048 187.773 116.932 187.773 118.678C187.773 119.326 187.161 119.776 185.901 119.776C184.605 119.776 183.543 119.092 183.183 118.75L182.211 119.83C182.697 120.226 183.795 121.108 185.883 121.108C187.953 121.108 189.411 120.226 189.393 118.696C189.339 115.474 184.227 116.914 184.227 114.916C184.227 114.214 184.839 113.728 185.901 113.728C187.017 113.728 187.791 114.25 187.791 115.132C187.791 115.258 187.773 115.42 187.737 115.546ZM2.90797 131.75C2.90797 131.138 2.40397 130.67 1.79197 130.67C1.17997 130.67 0.693969 131.138 0.693969 131.75C0.693969 132.362 1.17997 132.812 1.79197 132.812C2.40397 132.812 2.90797 132.362 2.90797 131.75ZM0.945969 143H2.54797V134.45L0.945969 134.504V143ZM9.88198 137.546L11.34 137.438C11.34 137.438 11.412 137.186 11.412 136.844C11.412 135.44 10.08 134.396 8.08198 134.396C6.08398 134.396 4.75198 135.494 4.75198 136.898C4.75198 140.048 9.91798 138.932 9.91798 140.678C9.91798 141.326 9.30598 141.776 8.04598 141.776C6.74998 141.776 5.68798 141.092 5.32798 140.75L4.35598 141.83C4.84198 142.226 5.93998 143.108 8.02798 143.108C10.098 143.108 11.556 142.226 11.538 140.696C11.484 137.474 6.37198 138.914 6.37198 136.916C6.37198 136.214 6.98398 135.728 8.04598 135.728C9.16198 135.728 9.93598 136.25 9.93598 137.132C9.93598 137.258 9.91798 137.42 9.88198 137.546ZM22.7627 141.272C22.7627 141.272 22.1867 141.758 21.1967 141.758C20.0447 141.758 19.5587 141.074 19.5587 139.706V135.782H22.8527V134.504H19.5587V131.894L17.9567 131.984V134.504H16.6067V135.782H17.9567V139.76C17.9567 141.938 18.8387 143.108 21.0347 143.108C22.4207 143.108 23.2667 142.55 23.2667 142.55L22.7627 141.272ZM29.104 134.396C27.682 134.396 26.782 135.116 26.278 135.998H26.242V130.292H24.676V143H26.278V138.572C26.278 137.294 27.07 135.728 28.834 135.728C30.112 135.728 30.814 136.556 30.814 137.798V143H32.416V137.798C32.416 135.764 31.138 134.396 29.104 134.396ZM42.3598 139.184C42.3598 139.184 42.4318 138.878 42.4318 138.374C42.4318 136.142 41.0638 134.396 38.5618 134.396C35.9878 134.396 34.3498 136.232 34.3498 138.77C34.3498 141.362 36.0598 143.108 38.7778 143.108C40.2358 143.108 41.4958 142.586 42.2878 141.542L41.3158 140.66C40.9378 141.164 40.1998 141.776 38.9038 141.776C37.2118 141.776 36.1498 140.75 35.9878 139.184H42.3598ZM38.5618 135.728C39.9118 135.728 40.7938 136.646 40.8118 138.05H36.0238C36.2578 136.682 37.1938 135.728 38.5618 135.728ZM53.0664 134.396C51.3204 134.396 50.3124 135.332 49.8444 136.43H49.8264C49.8444 136.088 49.7364 135.026 49.6104 134.45L48.4944 134.504V146.672H50.0784V141.596C50.6544 142.478 51.6444 143.108 52.9764 143.108C55.4604 143.108 57.1164 141.38 57.1164 138.77C57.1164 136.142 55.4604 134.396 53.0664 134.396ZM52.8864 141.776C50.9244 141.776 50.0784 140.21 50.0784 138.932V138.59C50.0784 137.33 50.9784 135.728 52.7784 135.728C54.4524 135.728 55.4964 136.952 55.4964 138.77C55.4964 140.57 54.4704 141.776 52.8864 141.776ZM66.8151 141.65C66.7431 141.668 66.6171 141.686 66.5091 141.686C66.1131 141.686 65.9871 141.506 65.9871 141.038V137.6C65.9871 135.638 64.6371 134.396 62.3331 134.396C60.1731 134.396 58.8411 135.494 58.8411 137.042C58.8411 137.456 58.9491 137.78 58.9491 137.78L60.4431 137.528C60.3891 137.402 60.3531 137.294 60.3531 137.096C60.3531 136.214 61.0911 135.728 62.2971 135.728C63.7011 135.728 64.4031 136.466 64.4031 137.618V138.158H64.1511C60.4071 138.158 58.6431 138.896 58.6431 140.75C58.6431 142.136 59.6511 143.108 61.5231 143.108C63.5031 143.108 64.2411 142.1 64.4751 141.668H64.5111V141.686C64.5111 142.676 65.1591 143.09 66.0411 143.09C66.4911 143.09 66.9051 142.982 66.9051 142.982L66.8151 141.65ZM61.8471 141.776C60.7671 141.776 60.2631 141.38 60.2631 140.714C60.2631 139.778 61.2531 139.256 64.1511 139.256H64.4031V140.066C64.4031 140.858 63.5031 141.776 61.8471 141.776ZM72.4524 134.396C71.1924 134.396 70.4724 135.314 70.1484 136.43H70.0764C70.0764 136.052 70.0044 135.098 69.8604 134.45L68.7444 134.504V143H70.3284V138.554C70.3284 136.79 71.4084 135.944 72.3624 135.944C72.7224 135.944 72.9744 136.034 73.1544 136.142L73.5504 134.54C73.2264 134.45 72.8304 134.396 72.4524 134.396ZM80.3135 141.272C80.3135 141.272 79.7375 141.758 78.7475 141.758C77.5955 141.758 77.1095 141.074 77.1095 139.706V135.782H80.4035V134.504H77.1095V131.894L75.5075 131.984V134.504H74.1575V135.782H75.5075V139.76C75.5075 141.938 76.3895 143.108 78.5855 143.108C79.9715 143.108 80.8175 142.55 80.8175 142.55L80.3135 141.272ZM96.7989 134.504L95.1069 140.39C94.9629 140.858 94.8729 141.236 94.8369 141.38H94.8009C94.7649 141.236 94.6749 140.786 94.5669 140.39L92.8209 134.504H91.1829L89.4369 140.444C89.3289 140.84 89.2029 141.236 89.1669 141.38H89.1309C89.0949 141.236 88.9689 140.912 88.8429 140.444L87.1509 134.504H85.3689L88.1409 143H89.9949L91.8489 137.114C91.9029 136.916 91.9569 136.664 91.9749 136.52H92.0109C92.0289 136.664 92.0829 136.916 92.1369 137.114L93.9189 143H95.8089L98.4189 134.504H96.7989ZM104.497 134.396C103.075 134.396 102.175 135.116 101.671 135.998H101.635V130.292H100.069V143H101.671V138.572C101.671 137.294 102.463 135.728 104.227 135.728C105.505 135.728 106.207 136.556 106.207 137.798V143H107.809V137.798C107.809 135.764 106.531 134.396 104.497 134.396ZM117.752 139.184C117.752 139.184 117.824 138.878 117.824 138.374C117.824 136.142 116.456 134.396 113.954 134.396C111.38 134.396 109.742 136.232 109.742 138.77C109.742 141.362 111.452 143.108 114.17 143.108C115.628 143.108 116.888 142.586 117.68 141.542L116.708 140.66C116.33 141.164 115.592 141.776 114.296 141.776C112.604 141.776 111.542 140.75 111.38 139.184H117.752ZM113.954 135.728C115.304 135.728 116.186 136.646 116.204 138.05H111.416C111.65 136.682 112.586 135.728 113.954 135.728ZM123.517 134.396C122.257 134.396 121.537 135.314 121.213 136.43H121.141C121.141 136.052 121.069 135.098 120.925 134.45L119.809 134.504V143H121.393V138.554C121.393 136.79 122.473 135.944 123.427 135.944C123.787 135.944 124.039 136.034 124.219 136.142L124.615 134.54C124.291 134.45 123.895 134.396 123.517 134.396ZM133.239 139.184C133.239 139.184 133.311 138.878 133.311 138.374C133.311 136.142 131.943 134.396 129.441 134.396C126.867 134.396 125.229 136.232 125.229 138.77C125.229 141.362 126.939 143.108 129.657 143.108C131.115 143.108 132.375 142.586 133.167 141.542L132.195 140.66C131.817 141.164 131.079 141.776 129.783 141.776C128.091 141.776 127.029 140.75 126.867 139.184H133.239ZM129.441 135.728C130.791 135.728 131.673 136.646 131.691 138.05H126.903C127.137 136.682 128.073 135.728 129.441 135.728ZM141.353 131.75C141.353 131.138 140.849 130.67 140.237 130.67C139.625 130.67 139.139 131.138 139.139 131.75C139.139 132.362 139.625 132.812 140.237 132.812C140.849 132.812 141.353 132.362 141.353 131.75ZM139.391 143H140.993V134.45L139.391 134.504V143ZM143.287 132.002C143.287 132.596 143.773 132.992 144.349 132.992C144.349 134.018 143.143 134.864 143.143 134.864L143.845 135.728C143.845 135.728 145.663 134.612 145.663 132.38C145.663 131.552 145.159 130.994 144.421 130.994C143.719 130.994 143.287 131.39 143.287 132.002ZM157.912 134.432C156.382 134.432 155.446 135.332 154.996 136.412C154.546 135.188 153.448 134.432 151.936 134.432C150.388 134.432 149.452 135.35 149.02 136.43C149.02 136.052 148.948 135.098 148.804 134.45L147.688 134.504V143H149.272V138.554C149.272 137.33 150.064 135.764 151.666 135.764C152.944 135.764 153.646 136.592 153.646 137.834V143H155.248V138.554C155.248 137.33 156.04 135.764 157.642 135.764C158.92 135.764 159.622 136.592 159.622 137.834V143H161.224V137.834C161.224 135.8 159.946 134.432 157.912 134.432ZM169.815 131.75C169.815 131.138 169.311 130.67 168.699 130.67C168.087 130.67 167.601 131.138 167.601 131.75C167.601 132.362 168.087 132.812 168.699 132.812C169.311 132.812 169.815 132.362 169.815 131.75ZM165.369 145.142L164.883 146.24C164.883 146.24 165.405 146.744 166.503 146.744C168.519 146.744 169.473 145.538 169.473 143.432V134.45L167.871 134.504V143.738C167.871 144.818 167.439 145.412 166.359 145.412C165.729 145.412 165.369 145.142 165.369 145.142ZM177.866 134.504V138.95C177.866 140.174 177.074 141.776 175.508 141.776C174.23 141.776 173.528 140.948 173.528 139.706V134.504H171.926V139.706C171.926 141.74 173.204 143.108 175.238 143.108C176.696 143.108 177.596 142.28 178.064 141.254H178.082C178.082 141.452 178.154 142.406 178.298 143.054L179.45 143V134.504H177.866ZM186.753 137.546L188.211 137.438C188.211 137.438 188.283 137.186 188.283 136.844C188.283 135.44 186.951 134.396 184.953 134.396C182.955 134.396 181.623 135.494 181.623 136.898C181.623 140.048 186.789 138.932 186.789 140.678C186.789 141.326 186.177 141.776 184.917 141.776C183.621 141.776 182.559 141.092 182.199 140.75L181.227 141.83C181.713 142.226 182.811 143.108 184.899 143.108C186.969 143.108 188.427 142.226 188.409 140.696C188.355 137.474 183.243 138.914 183.243 136.916C183.243 136.214 183.855 135.728 184.917 135.728C186.033 135.728 186.807 136.25 186.807 137.132C186.807 137.258 186.789 137.42 186.753 137.546ZM195.679 141.272C195.679 141.272 195.103 141.758 194.113 141.758C192.961 141.758 192.475 141.074 192.475 139.706V135.782H195.769V134.504H192.475V131.894L190.873 131.984V134.504H189.523V135.782H190.873V139.76C190.873 141.938 191.755 143.108 193.951 143.108C195.337 143.108 196.183 142.55 196.183 142.55L195.679 141.272ZM8.37737 163.722H6.61337C5.44337 163.722 4.75937 163.578 4.75937 162.984C4.75937 162.642 5.06537 162.444 5.53337 162.372C5.98337 162.516 6.50537 162.606 7.06337 162.606C9.24137 162.606 10.6994 161.364 10.6994 159.51C10.6994 158.826 10.5014 158.232 10.1414 157.746C10.6994 157.656 11.7794 157.026 11.7794 155.406L10.4294 155.118C10.4294 156.162 10.1594 156.864 9.54737 157.152C8.91737 156.684 8.05337 156.414 7.04537 156.414C4.86737 156.414 3.42737 157.656 3.42737 159.51C3.42737 160.446 3.78737 161.22 4.43537 161.76C3.82337 161.994 3.31937 162.48 3.31937 163.182C3.31937 163.884 3.64337 164.334 4.14737 164.622C3.19337 164.964 2.70737 165.594 2.70737 166.422C2.70737 167.862 4.11137 168.762 7.17137 168.762C10.4114 168.762 11.5994 167.574 11.5994 166.116C11.5994 164.55 10.3934 163.722 8.37737 163.722ZM7.06337 157.728C8.28737 157.728 9.09737 158.43 9.09737 159.51C9.09737 160.59 8.28737 161.292 7.04537 161.292C5.82137 161.292 5.02937 160.59 5.02937 159.51C5.02937 158.43 5.83937 157.728 7.06337 157.728ZM7.17137 167.43C5.10137 167.43 4.27337 167.052 4.27337 166.188C4.27337 165.576 4.68737 165.072 6.18137 165.072H8.07137C9.34937 165.072 10.0334 165.252 10.0334 166.116C10.0334 167.034 9.22337 167.43 7.17137 167.43ZM16.9177 156.396C14.2897 156.396 12.5437 158.214 12.5437 160.788C12.5437 163.362 14.2897 165.108 16.9177 165.108C19.5457 165.108 21.2917 163.362 21.2917 160.788C21.2917 158.214 19.5457 156.396 16.9177 156.396ZM16.9177 163.776C15.2617 163.776 14.1637 162.552 14.1637 160.788C14.1637 159.024 15.2617 157.728 16.9177 157.728C18.5737 157.728 19.6717 159.024 19.6717 160.788C19.6717 162.552 18.5737 163.776 16.9177 163.776ZM25.2761 153.75C25.2761 153.138 24.7721 152.67 24.1601 152.67C23.5481 152.67 23.0621 153.138 23.0621 153.75C23.0621 154.362 23.5481 154.812 24.1601 154.812C24.7721 154.812 25.2761 154.362 25.2761 153.75ZM23.3141 165H24.9161V156.45L23.3141 156.504V165ZM31.8721 156.396C30.2521 156.396 29.2981 157.368 28.8481 158.43H28.7941C28.7941 158.052 28.7221 157.098 28.5781 156.45L27.4621 156.504V165H29.0461V160.554C29.0461 159.33 29.8381 157.728 31.6021 157.728C32.8801 157.728 33.5821 158.556 33.5821 159.798V165H35.1841V159.798C35.1841 157.764 33.9061 156.396 31.8721 156.396ZM42.3383 163.722H40.5743C39.4043 163.722 38.7203 163.578 38.7203 162.984C38.7203 162.642 39.0263 162.444 39.4943 162.372C39.9443 162.516 40.4663 162.606 41.0243 162.606C43.2023 162.606 44.6603 161.364 44.6603 159.51C44.6603 158.826 44.4623 158.232 44.1023 157.746C44.6603 157.656 45.7403 157.026 45.7403 155.406L44.3903 155.118C44.3903 156.162 44.1203 156.864 43.5083 157.152C42.8783 156.684 42.0143 156.414 41.0063 156.414C38.8283 156.414 37.3883 157.656 37.3883 159.51C37.3883 160.446 37.7483 161.22 38.3963 161.76C37.7843 161.994 37.2803 162.48 37.2803 163.182C37.2803 163.884 37.6043 164.334 38.1083 164.622C37.1543 164.964 36.6683 165.594 36.6683 166.422C36.6683 167.862 38.0723 168.762 41.1323 168.762C44.3723 168.762 45.5603 167.574 45.5603 166.116C45.5603 164.55 44.3543 163.722 42.3383 163.722ZM41.0243 157.728C42.2483 157.728 43.0583 158.43 43.0583 159.51C43.0583 160.59 42.2483 161.292 41.0063 161.292C39.7823 161.292 38.9903 160.59 38.9903 159.51C38.9903 158.43 39.8003 157.728 41.0243 157.728ZM41.1323 167.43C39.0623 167.43 38.2343 167.052 38.2343 166.188C38.2343 165.576 38.6483 165.072 40.1423 165.072H42.0323C43.3103 165.072 43.9943 165.252 43.9943 166.116C43.9943 167.034 43.1843 167.43 41.1323 167.43ZM56.3633 163.272C56.3633 163.272 55.7873 163.758 54.7973 163.758C53.6453 163.758 53.1593 163.074 53.1593 161.706V157.782H56.4533V156.504H53.1593V153.894L51.5573 153.984V156.504H50.2073V157.782H51.5573V161.76C51.5573 163.938 52.4393 165.108 54.6353 165.108C56.0213 165.108 56.8673 164.55 56.8673 164.55L56.3633 163.272ZM62.0056 156.396C59.3776 156.396 57.6316 158.214 57.6316 160.788C57.6316 163.362 59.3776 165.108 62.0056 165.108C64.6336 165.108 66.3796 163.362 66.3796 160.788C66.3796 158.214 64.6336 156.396 62.0056 156.396ZM62.0056 163.776C60.3496 163.776 59.2516 162.552 59.2516 160.788C59.2516 159.024 60.3496 157.728 62.0056 157.728C63.6616 157.728 64.7596 159.024 64.7596 160.788C64.7596 162.552 63.6616 163.776 62.0056 163.776ZM82.9561 156.504L81.2641 162.39C81.1201 162.858 81.0301 163.236 80.9941 163.38H80.9581C80.9221 163.236 80.8321 162.786 80.7241 162.39L78.9781 156.504H77.3401L75.5941 162.444C75.4861 162.84 75.3601 163.236 75.3241 163.38H75.2881C75.2521 163.236 75.1261 162.912 75.0001 162.444L73.3081 156.504H71.5261L74.2981 165H76.1521L78.0061 159.114C78.0601 158.916 78.1141 158.664 78.1321 158.52H78.1681C78.1861 158.664 78.2401 158.916 78.2941 159.114L80.0761 165H81.9661L84.5761 156.504H82.9561ZM89.9196 156.396C87.2916 156.396 85.5456 158.214 85.5456 160.788C85.5456 163.362 87.2916 165.108 89.9196 165.108C92.5476 165.108 94.2936 163.362 94.2936 160.788C94.2936 158.214 92.5476 156.396 89.9196 156.396ZM89.9196 163.776C88.2636 163.776 87.1656 162.552 87.1656 160.788C87.1656 159.024 88.2636 157.728 89.9196 157.728C91.5756 157.728 92.6736 159.024 92.6736 160.788C92.6736 162.552 91.5756 163.776 89.9196 163.776ZM100.006 156.396C98.7461 156.396 98.0261 157.314 97.7021 158.43H97.6301C97.6301 158.052 97.5581 157.098 97.4141 156.45L96.2981 156.504V165H97.8821V160.554C97.8821 158.79 98.9621 157.944 99.9161 157.944C100.276 157.944 100.528 158.034 100.708 158.142L101.104 156.54C100.78 156.45 100.384 156.396 100.006 156.396ZM108.791 152.292V157.836C108.233 157.008 107.279 156.396 105.893 156.396C103.409 156.396 101.753 158.124 101.753 160.734C101.753 163.362 103.409 165.108 105.803 165.108C107.441 165.108 108.503 164.208 108.989 163.074H109.043C109.025 163.416 109.115 164.46 109.205 165.054L110.375 165V152.292H108.791ZM106.091 163.776C104.417 163.776 103.373 162.552 103.373 160.734C103.373 158.934 104.399 157.728 105.983 157.728C107.945 157.728 108.791 159.294 108.791 160.572V160.914C108.791 162.174 107.891 163.776 106.091 163.776ZM122.756 156.504L120.38 162.444C120.236 162.822 120.182 162.984 120.11 163.38H120.074C120.002 163.02 119.966 162.876 119.786 162.444L117.446 156.504H115.664L119.174 165H120.902L124.376 156.504H122.756ZM129.523 156.396C126.895 156.396 125.149 158.214 125.149 160.788C125.149 163.362 126.895 165.108 129.523 165.108C132.151 165.108 133.897 163.362 133.897 160.788C133.897 158.214 132.151 156.396 129.523 156.396ZM129.523 163.776C127.867 163.776 126.769 162.552 126.769 160.788C126.769 159.024 127.867 157.728 129.523 157.728C131.179 157.728 132.277 159.024 132.277 160.788C132.277 162.552 131.179 163.776 129.523 163.776ZM146.126 156.432C144.596 156.432 143.66 157.332 143.21 158.412C142.76 157.188 141.662 156.432 140.15 156.432C138.602 156.432 137.666 157.35 137.234 158.43C137.234 158.052 137.162 157.098 137.018 156.45L135.902 156.504V165H137.486V160.554C137.486 159.33 138.278 157.764 139.88 157.764C141.158 157.764 141.86 158.592 141.86 159.834V165H143.462V160.554C143.462 159.33 144.254 157.764 145.856 157.764C147.134 157.764 147.836 158.592 147.836 159.834V165H149.438V159.834C149.438 157.8 148.16 156.432 146.126 156.432ZM153.843 153.75C153.843 153.138 153.339 152.67 152.727 152.67C152.115 152.67 151.629 153.138 151.629 153.75C151.629 154.362 152.115 154.812 152.727 154.812C153.339 154.812 153.843 154.362 153.843 153.75ZM151.881 165H153.483V156.45L151.881 156.504V165ZM161.393 163.272C161.393 163.272 160.817 163.758 159.827 163.758C158.675 163.758 158.189 163.074 158.189 161.706V157.782H161.483V156.504H158.189V153.894L156.587 153.984V156.504H155.237V157.782H156.587V161.76C156.587 163.938 157.469 165.108 159.665 165.108C161.051 165.108 161.897 164.55 161.897 164.55L161.393 163.272ZM172.172 159.546L173.63 159.438C173.63 159.438 173.702 159.186 173.702 158.844C173.702 157.44 172.37 156.396 170.372 156.396C168.374 156.396 167.042 157.494 167.042 158.898C167.042 162.048 172.208 160.932 172.208 162.678C172.208 163.326 171.596 163.776 170.336 163.776C169.04 163.776 167.978 163.092 167.618 162.75L166.646 163.83C167.132 164.226 168.23 165.108 170.318 165.108C172.388 165.108 173.846 164.226 173.828 162.696C173.774 159.474 168.662 160.914 168.662 158.916C168.662 158.214 169.274 157.728 170.336 157.728C171.452 157.728 172.226 158.25 172.226 159.132C172.226 159.258 172.208 159.42 172.172 159.546ZM179.709 156.396C177.081 156.396 175.335 158.214 175.335 160.788C175.335 163.362 177.081 165.108 179.709 165.108C182.337 165.108 184.083 163.362 184.083 160.788C184.083 158.214 182.337 156.396 179.709 156.396ZM179.709 163.776C178.053 163.776 176.955 162.552 176.955 160.788C176.955 159.024 178.053 157.728 179.709 157.728C181.365 157.728 182.463 159.024 182.463 160.788C182.463 162.552 181.365 163.776 179.709 163.776ZM190.435 165H192.073V153.12H190.435V165ZM34.8536 178.396C32.3516 178.396 30.5876 180.214 30.5876 182.806C30.5876 185.362 32.3336 187.108 34.9796 187.108C36.5096 187.108 37.7876 186.604 38.5796 185.65L37.6436 184.642C37.3196 185.038 36.6356 185.776 35.0336 185.776C33.2336 185.776 32.2076 184.57 32.2076 182.77C32.2076 180.934 33.2876 179.728 34.8896 179.728C36.1676 179.728 36.9236 180.484 36.9236 181.528C36.9236 181.726 36.9056 181.888 36.8876 181.978L38.3636 181.87C38.3636 181.87 38.4176 181.654 38.4176 181.294C38.4176 179.674 37.0316 178.396 34.8536 178.396ZM48.1472 185.65C48.0752 185.668 47.9492 185.686 47.8412 185.686C47.4452 185.686 47.3192 185.506 47.3192 185.038V181.6C47.3192 179.638 45.9692 178.396 43.6652 178.396C41.5052 178.396 40.1732 179.494 40.1732 181.042C40.1732 181.456 40.2812 181.78 40.2812 181.78L41.7752 181.528C41.7212 181.402 41.6852 181.294 41.6852 181.096C41.6852 180.214 42.4232 179.728 43.6292 179.728C45.0332 179.728 45.7352 180.466 45.7352 181.618V182.158H45.4832C41.7392 182.158 39.9752 182.896 39.9752 184.75C39.9752 186.136 40.9832 187.108 42.8552 187.108C44.8352 187.108 45.5732 186.1 45.8072 185.668H45.8432V185.686C45.8432 186.676 46.4912 187.09 47.3732 187.09C47.8232 187.09 48.2372 186.982 48.2372 186.982L48.1472 185.65ZM43.1792 185.776C42.0992 185.776 41.5952 185.38 41.5952 184.714C41.5952 183.778 42.5852 183.256 45.4832 183.256H45.7352V184.066C45.7352 184.858 44.8352 185.776 43.1792 185.776ZM54.4864 178.396C52.8664 178.396 51.9124 179.368 51.4624 180.43H51.4084C51.4084 180.052 51.3364 179.098 51.1924 178.45L50.0764 178.504V187H51.6604V182.554C51.6604 181.33 52.4524 179.728 54.2164 179.728C55.4944 179.728 56.1964 180.556 56.1964 181.798V187H57.7984V181.798C57.7984 179.764 56.5204 178.396 54.4864 178.396ZM69.1027 181.546L70.5607 181.438C70.5607 181.438 70.6327 181.186 70.6327 180.844C70.6327 179.44 69.3007 178.396 67.3027 178.396C65.3047 178.396 63.9727 179.494 63.9727 180.898C63.9727 184.048 69.1387 182.932 69.1387 184.678C69.1387 185.326 68.5267 185.776 67.2667 185.776C65.9707 185.776 64.9087 185.092 64.5487 184.75L63.5767 185.83C64.0627 186.226 65.1607 187.108 67.2487 187.108C69.3187 187.108 70.7767 186.226 70.7587 184.696C70.7047 181.474 65.5927 182.914 65.5927 180.916C65.5927 180.214 66.2047 179.728 67.2667 179.728C68.3827 179.728 69.1567 180.25 69.1567 181.132C69.1567 181.258 69.1387 181.42 69.1027 181.546ZM80.2933 183.184C80.2933 183.184 80.3653 182.878 80.3653 182.374C80.3653 180.142 78.9973 178.396 76.4953 178.396C73.9213 178.396 72.2833 180.232 72.2833 182.77C72.2833 185.362 73.9933 187.108 76.7113 187.108C78.1693 187.108 79.4293 186.586 80.2213 185.542L79.2493 184.66C78.8713 185.164 78.1333 185.776 76.8373 185.776C75.1453 185.776 74.0833 184.75 73.9213 183.184H80.2933ZM76.4953 179.728C77.8453 179.728 78.7273 180.646 78.7453 182.05H73.9573C74.1913 180.682 75.1273 179.728 76.4953 179.728ZM89.8558 183.184C89.8558 183.184 89.9278 182.878 89.9278 182.374C89.9278 180.142 88.5598 178.396 86.0578 178.396C83.4838 178.396 81.8458 180.232 81.8458 182.77C81.8458 185.362 83.5558 187.108 86.2738 187.108C87.7318 187.108 88.9918 186.586 89.7838 185.542L88.8118 184.66C88.4338 185.164 87.6958 185.776 86.3998 185.776C84.7078 185.776 83.6458 184.75 83.4838 183.184H89.8558ZM86.0578 179.728C87.4078 179.728 88.2898 180.646 88.3078 182.05H83.5198C83.7538 180.682 84.6898 179.728 86.0578 179.728ZM106.484 178.504L104.792 184.39C104.648 184.858 104.558 185.236 104.522 185.38H104.486C104.45 185.236 104.36 184.786 104.252 184.39L102.506 178.504H100.868L99.1225 184.444C99.0145 184.84 98.8885 185.236 98.8525 185.38H98.8165C98.7805 185.236 98.6545 184.912 98.5285 184.444L96.8365 178.504H95.0545L97.8265 187H99.6805L101.534 181.114C101.588 180.916 101.642 180.664 101.66 180.52H101.696C101.714 180.664 101.768 180.916 101.822 181.114L103.604 187H105.494L108.104 178.504H106.484ZM114.182 178.396C112.76 178.396 111.86 179.116 111.356 179.998H111.32V174.292H109.754V187H111.356V182.572C111.356 181.294 112.148 179.728 113.912 179.728C115.19 179.728 115.892 180.556 115.892 181.798V187H117.494V181.798C117.494 179.764 116.216 178.396 114.182 178.396ZM127.618 185.65C127.546 185.668 127.42 185.686 127.312 185.686C126.916 185.686 126.79 185.506 126.79 185.038V181.6C126.79 179.638 125.44 178.396 123.136 178.396C120.976 178.396 119.644 179.494 119.644 181.042C119.644 181.456 119.752 181.78 119.752 181.78L121.246 181.528C121.192 181.402 121.156 181.294 121.156 181.096C121.156 180.214 121.894 179.728 123.1 179.728C124.504 179.728 125.206 180.466 125.206 181.618V182.158H124.954C121.21 182.158 119.446 182.896 119.446 184.75C119.446 186.136 120.454 187.108 122.326 187.108C124.306 187.108 125.044 186.1 125.278 185.668H125.314V185.686C125.314 186.676 125.962 187.09 126.844 187.09C127.294 187.09 127.708 186.982 127.708 186.982L127.618 185.65ZM122.65 185.776C121.57 185.776 121.066 185.38 121.066 184.714C121.066 183.778 122.056 183.256 124.954 183.256H125.206V184.066C125.206 184.858 124.306 185.776 122.65 185.776ZM134.647 185.272C134.647 185.272 134.071 185.758 133.081 185.758C131.929 185.758 131.443 185.074 131.443 183.706V179.782H134.737V178.504H131.443V175.894L129.841 175.984V178.504H128.491V179.782H129.841V183.76C129.841 185.938 130.723 187.108 132.919 187.108C134.305 187.108 135.151 186.55 135.151 186.55L134.647 185.272ZM145.757 185.272C145.757 185.272 145.181 185.758 144.191 185.758C143.039 185.758 142.553 185.074 142.553 183.706V179.782H145.847V178.504H142.553V175.894L140.951 175.984V178.504H139.601V179.782H140.951V183.76C140.951 185.938 141.833 187.108 144.029 187.108C145.415 187.108 146.261 186.55 146.261 186.55L145.757 185.272ZM152.098 178.396C150.676 178.396 149.776 179.116 149.272 179.998H149.236V174.292H147.67V187H149.272V182.572C149.272 181.294 150.064 179.728 151.828 179.728C153.106 179.728 153.808 180.556 153.808 181.798V187H155.41V181.798C155.41 179.764 154.132 178.396 152.098 178.396ZM165.354 183.184C165.354 183.184 165.426 182.878 165.426 182.374C165.426 180.142 164.058 178.396 161.556 178.396C158.982 178.396 157.344 180.232 157.344 182.77C157.344 185.362 159.054 187.108 161.772 187.108C163.23 187.108 164.49 186.586 165.282 185.542L164.31 184.66C163.932 185.164 163.194 185.776 161.898 185.776C160.206 185.776 159.144 184.75 158.982 183.184H165.354ZM161.556 179.728C162.906 179.728 163.788 180.646 163.806 182.05H159.018C159.252 180.682 160.188 179.728 161.556 179.728ZM18.4287 200.396C16.6827 200.396 15.6747 201.332 15.2067 202.43H15.1887C15.2067 202.088 15.0987 201.026 14.9727 200.45L13.8567 200.504V212.672H15.4407V207.596C16.0167 208.478 17.0067 209.108 18.3387 209.108C20.8227 209.108 22.4787 207.38 22.4787 204.77C22.4787 202.142 20.8227 200.396 18.4287 200.396ZM18.2487 207.776C16.2867 207.776 15.4407 206.21 15.4407 204.932V204.59C15.4407 203.33 16.3407 201.728 18.1407 201.728C19.8147 201.728 20.8587 202.952 20.8587 204.77C20.8587 206.57 19.8327 207.776 18.2487 207.776ZM32.1774 207.65C32.1054 207.668 31.9794 207.686 31.8714 207.686C31.4754 207.686 31.3494 207.506 31.3494 207.038V203.6C31.3494 201.638 29.9994 200.396 27.6954 200.396C25.5354 200.396 24.2034 201.494 24.2034 203.042C24.2034 203.456 24.3114 203.78 24.3114 203.78L25.8054 203.528C25.7514 203.402 25.7154 203.294 25.7154 203.096C25.7154 202.214 26.4534 201.728 27.6594 201.728C29.0634 201.728 29.7654 202.466 29.7654 203.618V204.158H29.5134C25.7694 204.158 24.0054 204.896 24.0054 206.75C24.0054 208.136 25.0134 209.108 26.8854 209.108C28.8654 209.108 29.6034 208.1 29.8374 207.668H29.8734V207.686C29.8734 208.676 30.5214 209.09 31.4034 209.09C31.8534 209.09 32.2674 208.982 32.2674 208.982L32.1774 207.65ZM27.2094 207.776C26.1294 207.776 25.6254 207.38 25.6254 206.714C25.6254 205.778 26.6154 205.256 29.5134 205.256H29.7654V206.066C29.7654 206.858 28.8654 207.776 27.2094 207.776ZM37.8147 200.396C36.5547 200.396 35.8347 201.314 35.5107 202.43H35.4387C35.4387 202.052 35.3667 201.098 35.2227 200.45L34.1067 200.504V209H35.6907V204.554C35.6907 202.79 36.7707 201.944 37.7247 201.944C38.0847 201.944 38.3367 202.034 38.5167 202.142L38.9127 200.54C38.5887 200.45 38.1927 200.396 37.8147 200.396ZM47.8396 207.65C47.7676 207.668 47.6416 207.686 47.5336 207.686C47.1376 207.686 47.0116 207.506 47.0116 207.038V203.6C47.0116 201.638 45.6616 200.396 43.3576 200.396C41.1976 200.396 39.8656 201.494 39.8656 203.042C39.8656 203.456 39.9736 203.78 39.9736 203.78L41.4676 203.528C41.4136 203.402 41.3776 203.294 41.3776 203.096C41.3776 202.214 42.1156 201.728 43.3216 201.728C44.7256 201.728 45.4276 202.466 45.4276 203.618V204.158H45.1756C41.4316 204.158 39.6676 204.896 39.6676 206.75C39.6676 208.136 40.6756 209.108 42.5476 209.108C44.5276 209.108 45.2656 208.1 45.4996 207.668H45.5356V207.686C45.5356 208.676 46.1836 209.09 47.0656 209.09C47.5156 209.09 47.9296 208.982 47.9296 208.982L47.8396 207.65ZM42.8716 207.776C41.7916 207.776 41.2876 207.38 41.2876 206.714C41.2876 205.778 42.2776 205.256 45.1756 205.256H45.4276V206.066C45.4276 206.858 44.5276 207.776 42.8716 207.776ZM54.4848 207.722H52.7208C51.5508 207.722 50.8668 207.578 50.8668 206.984C50.8668 206.642 51.1728 206.444 51.6408 206.372C52.0908 206.516 52.6128 206.606 53.1708 206.606C55.3488 206.606 56.8068 205.364 56.8068 203.51C56.8068 202.826 56.6088 202.232 56.2488 201.746C56.8068 201.656 57.8868 201.026 57.8868 199.406L56.5368 199.118C56.5368 200.162 56.2668 200.864 55.6548 201.152C55.0248 200.684 54.1608 200.414 53.1528 200.414C50.9748 200.414 49.5348 201.656 49.5348 203.51C49.5348 204.446 49.8948 205.22 50.5428 205.76C49.9308 205.994 49.4268 206.48 49.4268 207.182C49.4268 207.884 49.7508 208.334 50.2548 208.622C49.3008 208.964 48.8148 209.594 48.8148 210.422C48.8148 211.862 50.2188 212.762 53.2788 212.762C56.5188 212.762 57.7068 211.574 57.7068 210.116C57.7068 208.55 56.5008 207.722 54.4848 207.722ZM53.1708 201.728C54.3948 201.728 55.2048 202.43 55.2048 203.51C55.2048 204.59 54.3948 205.292 53.1528 205.292C51.9288 205.292 51.1368 204.59 51.1368 203.51C51.1368 202.43 51.9468 201.728 53.1708 201.728ZM53.2788 211.43C51.2088 211.43 50.3808 211.052 50.3808 210.188C50.3808 209.576 50.7948 209.072 52.2888 209.072H54.1788C55.4568 209.072 56.1408 209.252 56.1408 210.116C56.1408 211.034 55.3308 211.43 53.2788 211.43ZM63.0217 200.396C61.7617 200.396 61.0417 201.314 60.7177 202.43H60.6457C60.6457 202.052 60.5737 201.098 60.4297 200.45L59.3137 200.504V209H60.8977V204.554C60.8977 202.79 61.9777 201.944 62.9317 201.944C63.2917 201.944 63.5437 202.034 63.7237 202.142L64.1197 200.54C63.7957 200.45 63.3997 200.396 63.0217 200.396ZM73.0466 207.65C72.9746 207.668 72.8486 207.686 72.7406 207.686C72.3446 207.686 72.2186 207.506 72.2186 207.038V203.6C72.2186 201.638 70.8686 200.396 68.5646 200.396C66.4046 200.396 65.0726 201.494 65.0726 203.042C65.0726 203.456 65.1806 203.78 65.1806 203.78L66.6746 203.528C66.6206 203.402 66.5846 203.294 66.5846 203.096C66.5846 202.214 67.3226 201.728 68.5286 201.728C69.9326 201.728 70.6346 202.466 70.6346 203.618V204.158H70.3826C66.6386 204.158 64.8746 204.896 64.8746 206.75C64.8746 208.136 65.8826 209.108 67.7546 209.108C69.7346 209.108 70.4726 208.1 70.7066 207.668H70.7426V207.686C70.7426 208.676 71.3906 209.09 72.2726 209.09C72.7226 209.09 73.1366 208.982 73.1366 208.982L73.0466 207.65ZM68.0786 207.776C66.9986 207.776 66.4946 207.38 66.4946 206.714C66.4946 205.778 67.4846 205.256 70.3826 205.256H70.6346V206.066C70.6346 206.858 69.7346 207.776 68.0786 207.776ZM79.5478 200.396C77.8018 200.396 76.7938 201.332 76.3258 202.43H76.3078C76.3258 202.088 76.2178 201.026 76.0918 200.45L74.9758 200.504V212.672H76.5598V207.596C77.1358 208.478 78.1258 209.108 79.4578 209.108C81.9418 209.108 83.5978 207.38 83.5978 204.77C83.5978 202.142 81.9418 200.396 79.5478 200.396ZM79.3678 207.776C77.4058 207.776 76.5598 206.21 76.5598 204.932V204.59C76.5598 203.33 77.4598 201.728 79.2598 201.728C80.9338 201.728 81.9778 202.952 81.9778 204.77C81.9778 206.57 80.9518 207.776 79.3678 207.776ZM90.0386 200.396C88.6166 200.396 87.7166 201.116 87.2126 201.998H87.1766V196.292H85.6106V209H87.2126V204.572C87.2126 203.294 88.0046 201.728 89.7686 201.728C91.0466 201.728 91.7486 202.556 91.7486 203.798V209H93.3506V203.798C93.3506 201.764 92.0726 200.396 90.0386 200.396ZM104.984 207.272C104.984 207.272 104.408 207.758 103.418 207.758C102.266 207.758 101.78 207.074 101.78 205.706V201.782H105.074V200.504H101.78V197.894L100.178 197.984V200.504H98.8284V201.782H100.178V205.76C100.178 207.938 101.06 209.108 103.256 209.108C104.642 209.108 105.488 208.55 105.488 208.55L104.984 207.272ZM114.281 205.184C114.281 205.184 114.353 204.878 114.353 204.374C114.353 202.142 112.985 200.396 110.483 200.396C107.909 200.396 106.271 202.232 106.271 204.77C106.271 207.362 107.981 209.108 110.699 209.108C112.157 209.108 113.417 208.586 114.209 207.542L113.237 206.66C112.859 207.164 112.121 207.776 110.825 207.776C109.133 207.776 108.071 206.75 107.909 205.184H114.281ZM110.483 201.728C111.833 201.728 112.715 202.646 112.733 204.05H107.945C108.179 202.682 109.115 201.728 110.483 201.728ZM120.052 204.716L123.148 200.504H121.348L119.566 203.042C119.422 203.258 119.206 203.636 119.17 203.762H119.134C119.098 203.636 118.846 203.258 118.702 203.042L116.92 200.504H115.048L118.234 204.806L115.12 209H116.92L118.828 206.336C118.954 206.174 119.08 205.976 119.116 205.832H119.152C119.17 205.976 119.296 206.174 119.422 206.336L121.33 209H123.202L120.052 204.716ZM130.103 207.272C130.103 207.272 129.527 207.758 128.537 207.758C127.385 207.758 126.899 207.074 126.899 205.706V201.782H130.193V200.504H126.899V197.894L125.297 197.984V200.504H123.947V201.782H125.297V205.76C125.297 207.938 126.179 209.108 128.375 209.108C129.761 209.108 130.607 208.55 130.607 208.55L130.103 207.272ZM146.589 200.504L144.897 206.39C144.753 206.858 144.663 207.236 144.627 207.38H144.591C144.555 207.236 144.465 206.786 144.357 206.39L142.611 200.504H140.973L139.227 206.444C139.119 206.84 138.993 207.236 138.957 207.38H138.921C138.885 207.236 138.759 206.912 138.633 206.444L136.941 200.504H135.159L137.931 209H139.785L141.639 203.114C141.693 202.916 141.747 202.664 141.765 202.52H141.801C141.819 202.664 141.873 202.916 141.927 203.114L143.709 209H145.599L148.209 200.504H146.589ZM153.552 200.396C150.924 200.396 149.178 202.214 149.178 204.788C149.178 207.362 150.924 209.108 153.552 209.108C156.18 209.108 157.926 207.362 157.926 204.788C157.926 202.214 156.18 200.396 153.552 200.396ZM153.552 207.776C151.896 207.776 150.798 206.552 150.798 204.788C150.798 203.024 151.896 201.728 153.552 201.728C155.208 201.728 156.306 203.024 156.306 204.788C156.306 206.552 155.208 207.776 153.552 207.776ZM165.781 200.504V204.95C165.781 206.174 164.989 207.776 163.423 207.776C162.145 207.776 161.443 206.948 161.443 205.706V200.504H159.841V205.706C159.841 207.74 161.119 209.108 163.153 209.108C164.611 209.108 165.511 208.28 165.979 207.254H165.997C165.997 207.452 166.069 208.406 166.213 209.054L167.365 209V200.504H165.781ZM169.898 209H171.482V196.292H169.898V209ZM180.563 196.292V201.836C180.005 201.008 179.051 200.396 177.665 200.396C175.181 200.396 173.525 202.124 173.525 204.734C173.525 207.362 175.181 209.108 177.575 209.108C179.213 209.108 180.275 208.208 180.761 207.074H180.815C180.797 207.416 180.887 208.46 180.977 209.054L182.147 209V196.292H180.563ZM177.863 207.776C176.189 207.776 175.145 206.552 175.145 204.734C175.145 202.934 176.171 201.728 177.755 201.728C179.717 201.728 180.563 203.294 180.563 204.572V204.914C180.563 206.174 179.663 207.776 177.863 207.776ZM63.6911 231H65.2751V218.292H63.6911V231ZM71.6735 222.396C69.0455 222.396 67.2995 224.214 67.2995 226.788C67.2995 229.362 69.0455 231.108 71.6735 231.108C74.3015 231.108 76.0475 229.362 76.0475 226.788C76.0475 224.214 74.3015 222.396 71.6735 222.396ZM71.6735 229.776C70.0175 229.776 68.9195 228.552 68.9195 226.788C68.9195 225.024 70.0175 223.728 71.6735 223.728C73.3295 223.728 74.4275 225.024 74.4275 226.788C74.4275 228.552 73.3295 229.776 71.6735 229.776ZM81.904 222.396C79.276 222.396 77.53 224.214 77.53 226.788C77.53 229.362 79.276 231.108 81.904 231.108C84.532 231.108 86.278 229.362 86.278 226.788C86.278 224.214 84.532 222.396 81.904 222.396ZM81.904 229.776C80.248 229.776 79.15 228.552 79.15 226.788C79.15 225.024 80.248 223.728 81.904 223.728C83.56 223.728 84.658 225.024 84.658 226.788C84.658 228.552 83.56 229.776 81.904 229.776ZM94.1325 231H96.1305L92.1705 226.482L95.7705 222.504H93.9525L91.0365 225.816H89.8665V218.292H88.2825V231H89.8665V227.094H90.7845L94.1325 231ZM101.185 231H102.769V218.292H101.185V231ZM107.296 219.75C107.296 219.138 106.792 218.67 106.18 218.67C105.568 218.67 105.082 219.138 105.082 219.75C105.082 220.362 105.568 220.812 106.18 220.812C106.792 220.812 107.296 220.362 107.296 219.75ZM105.334 231H106.936V222.45L105.334 222.504V231ZM115.332 231H117.33L113.37 226.482L116.97 222.504H115.152L112.236 225.816H111.066V218.292H109.482V231H111.066V227.094H111.984L115.332 231ZM125.636 227.184C125.636 227.184 125.708 226.878 125.708 226.374C125.708 224.142 124.34 222.396 121.838 222.396C119.264 222.396 117.626 224.232 117.626 226.77C117.626 229.362 119.336 231.108 122.054 231.108C123.512 231.108 124.772 230.586 125.564 229.542L124.592 228.66C124.214 229.164 123.476 229.776 122.18 229.776C120.488 229.776 119.426 228.75 119.264 227.184H125.636ZM121.838 223.728C123.188 223.728 124.07 224.646 124.088 226.05H119.3C119.534 224.682 120.47 223.728 121.838 223.728ZM127.369 230.064C127.369 230.64 127.837 231.108 128.431 231.108C129.007 231.108 129.475 230.64 129.475 230.064C129.475 229.488 129.007 229.002 128.431 229.002C127.837 229.002 127.369 229.488 127.369 230.064ZM21.5922 274.028V263.192H20.4762V275H27.7482V274.028H21.5922ZM30.8575 263.822C30.8575 263.336 30.4615 262.976 29.9935 262.976C29.5255 262.976 29.1475 263.336 29.1475 263.822C29.1475 264.29 29.5255 264.65 29.9935 264.65C30.4615 264.65 30.8575 264.29 30.8575 263.822ZM29.4175 275H30.5155V266.54L29.4175 266.576V275ZM37.7826 273.848H35.9466C34.7046 273.848 33.9486 273.686 33.9486 272.984C33.9486 272.552 34.3446 272.282 34.9746 272.192C35.4426 272.39 35.9826 272.498 36.5946 272.498C38.6646 272.498 40.0326 271.292 40.0326 269.492C40.0326 268.754 39.7986 268.124 39.4026 267.638C39.9426 267.566 40.8606 266.954 40.8606 265.568L39.9066 265.37C39.9066 266.27 39.6366 266.972 38.9526 267.206C38.3586 266.738 37.5486 266.486 36.5766 266.486C34.5246 266.486 33.1566 267.692 33.1566 269.492C33.1566 270.428 33.5346 271.202 34.1826 271.742C33.5346 271.904 32.9586 272.39 32.9586 273.11C32.9586 273.812 33.3366 274.244 33.9306 274.496C32.9586 274.838 32.3826 275.486 32.3826 276.404C32.3826 277.862 33.8586 278.762 36.6306 278.762C39.5646 278.762 40.8966 277.7 40.8966 276.17C40.8966 274.694 39.7266 273.848 37.7826 273.848ZM36.5946 267.386C37.9986 267.386 38.9346 268.232 38.9346 269.492C38.9346 270.752 37.9986 271.598 36.5766 271.598C35.1726 271.598 34.2546 270.752 34.2546 269.492C34.2546 268.232 35.1726 267.386 36.5946 267.386ZM36.6306 277.826C34.5246 277.826 33.4626 277.286 33.4626 276.26C33.4626 275.414 34.1466 274.784 35.6586 274.784H37.6026C39.0606 274.784 39.8166 275.198 39.8166 276.17C39.8166 277.304 38.7546 277.826 36.6306 277.826ZM46.8993 266.486C45.3153 266.486 44.2893 267.386 43.8033 268.43V262.292H42.7233V275H43.8213V270.41C43.8213 269.096 44.7933 267.404 46.7193 267.404C48.1953 267.404 49.0593 268.394 49.0593 269.834V275H50.1573V269.834C50.1573 267.854 48.9153 266.486 46.8993 266.486ZM57.7653 273.632C57.7653 273.632 57.1353 274.154 56.1093 274.154C54.8493 274.154 54.3273 273.434 54.3273 272.03V267.476H57.7473V266.576H54.3273V263.948L53.2293 264.02V266.576H51.8433V267.476H53.2293V272.066C53.2293 274.064 54.0573 275.108 56.0193 275.108C57.3153 275.108 58.1433 274.514 58.1433 274.514L57.7653 273.632ZM59.2182 274.064C59.2182 274.64 59.6862 275.108 60.2802 275.108C60.8562 275.108 61.3242 274.64 61.3242 274.064C61.3242 273.488 60.8562 273.002 60.2802 273.002C59.6862 273.002 59.2182 273.488 59.2182 274.064ZM79.0265 263.12H77.3345L73.7345 271.004C73.5185 271.49 73.1405 272.354 73.0505 272.66H73.0145C72.9065 272.354 72.5645 271.49 72.3485 271.004L68.7485 263.12H66.9665V275H68.6045L68.5685 267.692C68.5685 267.188 68.5145 266.234 68.4965 266.144L68.5685 266.126C68.5865 266.216 68.6945 266.774 68.9645 267.35L72.5285 275.036H73.5365L76.9745 267.476C77.1185 267.17 77.3705 266.324 77.4245 266.126L77.4965 266.144C77.4785 266.234 77.4245 267.188 77.4245 267.692L77.3885 275H79.0265V263.12ZM89.3197 271.184C89.3197 271.184 89.3917 270.878 89.3917 270.374C89.3917 268.142 88.0237 266.396 85.5217 266.396C82.9477 266.396 81.3097 268.232 81.3097 270.77C81.3097 273.362 83.0197 275.108 85.7377 275.108C87.1957 275.108 88.4557 274.586 89.2477 273.542L88.2757 272.66C87.8977 273.164 87.1597 273.776 85.8637 273.776C84.1717 273.776 83.1097 272.75 82.9477 271.184H89.3197ZM85.5217 267.728C86.8717 267.728 87.7537 268.646 87.7717 270.05H82.9837C83.2177 268.682 84.1537 267.728 85.5217 267.728ZM97.9102 262.292V267.836C97.3522 267.008 96.3982 266.396 95.0122 266.396C92.5282 266.396 90.8722 268.124 90.8722 270.734C90.8722 273.362 92.5282 275.108 94.9222 275.108C96.5602 275.108 97.6222 274.208 98.1082 273.074H98.1622C98.1442 273.416 98.2342 274.46 98.3242 275.054L99.4942 275V262.292H97.9102ZM95.2102 273.776C93.5362 273.776 92.4922 272.552 92.4922 270.734C92.4922 268.934 93.5182 267.728 95.1022 267.728C97.0642 267.728 97.9102 269.294 97.9102 270.572V270.914C97.9102 272.174 97.0102 273.776 95.2102 273.776ZM103.991 263.75C103.991 263.138 103.487 262.67 102.875 262.67C102.263 262.67 101.777 263.138 101.777 263.75C101.777 264.362 102.263 264.812 102.875 264.812C103.487 264.812 103.991 264.362 103.991 263.75ZM102.029 275H103.631V266.45L102.029 266.504V275ZM112.027 266.504V270.95C112.027 272.174 111.235 273.776 109.669 273.776C108.391 273.776 107.689 272.948 107.689 271.706V266.504H106.087V271.706C106.087 273.74 107.365 275.108 109.399 275.108C110.857 275.108 111.757 274.28 112.225 273.254H112.243C112.243 273.452 112.315 274.406 112.459 275.054L113.611 275V266.504H112.027ZM126.35 266.432C124.82 266.432 123.884 267.332 123.434 268.412C122.984 267.188 121.886 266.432 120.374 266.432C118.826 266.432 117.89 267.35 117.458 268.43C117.458 268.052 117.386 267.098 117.242 266.45L116.126 266.504V275H117.71V270.554C117.71 269.33 118.502 267.764 120.104 267.764C121.382 267.764 122.084 268.592 122.084 269.834V275H123.686V270.554C123.686 269.33 124.478 267.764 126.08 267.764C127.358 267.764 128.06 268.592 128.06 269.834V275H129.662V269.834C129.662 267.8 128.384 266.432 126.35 266.432ZM131.763 274.064C131.763 274.64 132.231 275.108 132.825 275.108C133.401 275.108 133.869 274.64 133.869 274.064C133.869 273.488 133.401 273.002 132.825 273.002C132.231 273.002 131.763 273.488 131.763 274.064ZM146.045 268.826V268.772C146.729 268.664 147.989 268.142 147.989 266.342C147.989 264.308 146.477 263.12 143.939 263.12H139.241V275H144.371C146.981 275 148.457 273.848 148.457 271.778C148.457 269.762 146.855 268.952 146.045 268.826ZM145.415 266.576C145.415 267.476 144.749 268.052 143.543 268.052H141.743V265.046H143.399C144.749 265.046 145.415 265.604 145.415 266.576ZM143.921 273.074H141.743V269.834H143.777C144.983 269.834 145.883 270.392 145.883 271.49C145.883 272.57 145.073 273.074 143.921 273.074ZM154.148 266.396C151.448 266.396 149.666 268.196 149.666 270.752C149.666 273.308 151.448 275.108 154.148 275.108C156.83 275.108 158.612 273.308 158.612 270.752C158.612 268.196 156.83 266.396 154.148 266.396ZM154.148 273.092C152.924 273.092 152.168 272.138 152.168 270.752C152.168 269.384 152.924 268.412 154.148 268.412C155.354 268.412 156.11 269.384 156.11 270.752C156.11 272.138 155.354 273.092 154.148 273.092ZM160.189 275H162.655V262.292H160.189V275ZM170.665 262.292V267.548C170.179 266.864 169.369 266.396 168.145 266.396C165.985 266.396 164.257 267.98 164.257 270.788C164.257 273.29 165.715 275.108 168.019 275.108C169.477 275.108 170.377 274.406 170.845 273.398H170.899C170.881 273.632 171.007 274.55 171.133 275.072L173.131 275V262.292H170.665ZM168.703 273.038C167.515 273.038 166.759 272.138 166.759 270.788C166.759 269.366 167.497 268.466 168.649 268.466C169.963 268.466 170.665 269.528 170.665 270.464V271.04C170.665 272.03 169.891 273.038 168.703 273.038ZM175.076 274.064C175.076 274.64 175.544 275.108 176.138 275.108C176.714 275.108 177.182 274.64 177.182 274.064C177.182 273.488 176.714 273.002 176.138 273.002C175.544 273.002 175.076 273.488 175.076 274.064Z" fill="#434343"/>
<path d="M8 294H188" stroke="#98D1B3" stroke-width="3" stroke-linecap="round" stroke-linejoin="round"/>
<path d="M22.2993 318.184V318.156C22.8313 318.058 23.8393 317.596 23.8393 316.238C23.8393 314.642 22.7053 313.816 20.8433 313.816H17.7633V323H21.1093C23.1393 323 24.2453 322.104 24.2453 320.55C24.2453 318.87 23.0413 318.31 22.2993 318.184ZM22.9433 316.28C22.9433 317.162 22.2993 317.89 21.0253 317.89H18.6453V314.572H20.7313C22.2853 314.572 22.9433 315.216 22.9433 316.28ZM21.0113 322.244H18.6453V318.576H21.0813C22.4393 318.576 23.3633 319.22 23.3633 320.466C23.3633 321.67 22.4393 322.244 21.0113 322.244ZM31.7962 322.286C31.7402 322.3 31.6422 322.314 31.5582 322.314C31.2502 322.314 31.1242 322.16 31.1242 321.782V318.8C31.1242 317.316 30.1022 316.378 28.4222 316.378C26.8542 316.378 25.8322 317.204 25.8322 318.394C25.8322 318.716 25.9162 318.954 25.9162 318.954L26.7142 318.814C26.6862 318.758 26.6442 318.632 26.6442 318.436C26.6442 317.596 27.3442 317.092 28.4082 317.092C29.5982 317.092 30.2702 317.764 30.2702 318.814V319.318L29.8642 319.332C27.1762 319.36 25.6642 319.864 25.6642 321.334C25.6642 322.384 26.4342 323.07 27.8202 323.07C29.3742 323.07 30.0602 322.244 30.2982 321.754H30.3262V322.09C30.3262 322.79 30.7462 323.07 31.3202 323.07C31.5862 323.07 31.8242 323 31.8382 323L31.7962 322.286ZM28.0022 322.356C27.0082 322.356 26.5322 321.95 26.5322 321.306C26.5322 320.34 27.6662 319.976 29.8642 319.948L30.2702 319.934V320.788C30.2702 321.208 29.6262 322.356 28.0022 322.356ZM37.1497 318.66L37.9337 318.59C37.9337 318.59 37.9757 318.394 37.9757 318.17C37.9757 317.092 36.9817 316.378 35.5677 316.378C34.1117 316.378 33.1457 317.148 33.1457 318.198C33.1457 320.578 37.2617 319.626 37.2617 321.264C37.2617 321.922 36.6597 322.356 35.5537 322.356C34.3357 322.356 33.5657 321.712 33.3837 321.544L32.8517 322.104C33.1037 322.314 33.9017 323.07 35.5537 323.07C37.1077 323.07 38.1297 322.398 38.1157 321.264C38.0877 318.828 34.0137 319.948 34.0137 318.212C34.0137 317.54 34.5877 317.092 35.5397 317.092C36.4917 317.092 37.1917 317.54 37.1917 318.324C37.1917 318.464 37.1637 318.59 37.1497 318.66ZM41.0271 314.306C41.0271 313.928 40.7191 313.648 40.3551 313.648C39.9911 313.648 39.6971 313.928 39.6971 314.306C39.6971 314.67 39.9911 314.95 40.3551 314.95C40.7191 314.95 41.0271 314.67 41.0271 314.306ZM39.9071 323H40.7611V316.42L39.9071 316.448V323ZM45.7273 316.378C43.8373 316.378 42.5353 317.75 42.5353 319.752C42.5353 321.726 43.8233 323.07 45.8253 323.07C46.9033 323.07 47.8133 322.72 48.4013 322.034L47.8973 321.502C47.5613 321.88 46.9593 322.356 45.8533 322.356C44.3133 322.356 43.3893 321.306 43.3893 319.738C43.3893 318.142 44.3413 317.092 45.7413 317.092C46.8753 317.092 47.5613 317.778 47.5613 318.716C47.5613 318.884 47.5473 319.024 47.5333 319.066L48.3313 319.01C48.3313 319.01 48.3733 318.828 48.3733 318.59C48.3733 317.33 47.3513 316.378 45.7273 316.378ZM58.4943 316.014L59.3343 315.804C59.1103 315.118 58.5083 313.732 56.2543 313.732C54.5183 313.732 53.3003 314.698 53.3003 316.14C53.3003 319.346 58.5503 317.96 58.5503 320.704C58.5503 321.656 57.6823 322.3 56.2543 322.3C54.7423 322.3 53.9023 321.684 53.4683 321.32L52.9223 322.006C53.4543 322.454 54.5463 323.07 56.2543 323.07C58.1863 323.07 59.4183 322.118 59.4183 320.704C59.4183 317.246 54.1823 318.506 54.1823 316.126C54.1823 315.132 55.0223 314.502 56.2543 314.502C57.8083 314.502 58.3683 315.538 58.4943 316.014ZM66.9329 322.286C66.8769 322.3 66.7789 322.314 66.6949 322.314C66.3869 322.314 66.2609 322.16 66.2609 321.782V318.8C66.2609 317.316 65.2389 316.378 63.5589 316.378C61.9909 316.378 60.9689 317.204 60.9689 318.394C60.9689 318.716 61.0529 318.954 61.0529 318.954L61.8509 318.814C61.8229 318.758 61.7809 318.632 61.7809 318.436C61.7809 317.596 62.4809 317.092 63.5449 317.092C64.7349 317.092 65.4069 317.764 65.4069 318.814V319.318L65.0009 319.332C62.3129 319.36 60.8009 319.864 60.8009 321.334C60.8009 322.384 61.5709 323.07 62.9569 323.07C64.5109 323.07 65.1969 322.244 65.4349 321.754H65.4629V322.09C65.4629 322.79 65.8829 323.07 66.4569 323.07C66.7229 323.07 66.9609 323 66.9749 323L66.9329 322.286ZM63.1389 322.356C62.1449 322.356 61.6689 321.95 61.6689 321.306C61.6689 320.34 62.8029 319.976 65.0009 319.948L65.4069 319.934V320.788C65.4069 321.208 64.7629 322.356 63.1389 322.356ZM71.8104 316.378C70.4944 316.378 69.6824 317.19 69.3324 318.086H69.3044C69.3044 317.666 69.2624 316.966 69.1784 316.42L68.5764 316.448V323H69.4304V319.416C69.4304 318.436 70.1864 317.092 71.6844 317.092C72.8184 317.092 73.5044 317.862 73.5044 318.982V323H74.3584V318.982C74.3584 317.442 73.3784 316.378 71.8104 316.378ZM80.1887 318.66L80.9727 318.59C80.9727 318.59 81.0147 318.394 81.0147 318.17C81.0147 317.092 80.0207 316.378 78.6067 316.378C77.1507 316.378 76.1847 317.148 76.1847 318.198C76.1847 320.578 80.3007 319.626 80.3007 321.264C80.3007 321.922 79.6987 322.356 78.5927 322.356C77.3747 322.356 76.6047 321.712 76.4227 321.544L75.8907 322.104C76.1427 322.314 76.9407 323.07 78.5927 323.07C80.1467 323.07 81.1687 322.398 81.1547 321.264C81.1267 318.828 77.0527 319.948 77.0527 318.212C77.0527 317.54 77.6267 317.092 78.5787 317.092C79.5307 317.092 80.2307 317.54 80.2307 318.324C80.2307 318.464 80.2027 318.59 80.1887 318.66ZM82.6802 322.482C82.6802 322.846 82.9882 323.084 83.3522 323.084C83.3522 323.84 82.5402 324.456 82.5402 324.456L82.9602 324.96C82.9602 324.96 84.1082 324.19 84.1082 322.734C84.1082 322.202 83.8002 321.866 83.3522 321.866C82.9462 321.866 82.6802 322.118 82.6802 322.482ZM95.6594 322.328C95.6594 322.328 95.5754 322.356 95.4354 322.356C94.0774 322.356 93.9654 319.752 92.5794 319.22C93.9094 318.898 94.8334 318.002 94.8334 316.616C94.8334 314.768 93.6154 313.816 91.6134 313.816H88.9254V323H89.7934V319.36H90.9274C93.4754 319.36 92.8454 323.07 95.1974 323.07C95.4914 323.07 95.7294 323.028 95.7294 323.028L95.6594 322.328ZM89.7934 318.66V314.572H91.5714C93.0554 314.572 93.9514 315.314 93.9514 316.616C93.9514 317.932 92.8734 318.66 91.4594 318.66H89.7934ZM99.6478 316.378C97.7998 316.378 96.5118 317.722 96.5118 319.738C96.5118 321.74 97.7858 323.07 99.8158 323.07C100.838 323.07 101.748 322.734 102.35 321.992L101.818 321.502C101.454 321.95 100.824 322.356 99.8718 322.356C98.3878 322.356 97.4498 321.39 97.3798 319.906H102.448C102.448 319.906 102.49 319.696 102.49 319.346C102.49 317.61 101.412 316.378 99.6478 316.378ZM99.6478 317.092C100.838 317.092 101.622 317.904 101.622 319.22V319.276H97.4078C97.5618 317.96 98.4438 317.092 99.6478 317.092ZM107.691 322.104H106.263C105.297 322.104 104.709 321.978 104.709 321.432C104.709 321.096 105.017 320.886 105.507 320.816C105.871 320.97 106.291 321.054 106.767 321.054C108.377 321.054 109.441 320.116 109.441 318.716C109.441 318.142 109.259 317.652 108.951 317.274C109.371 317.218 110.085 316.742 110.085 315.664L109.343 315.51C109.343 316.21 109.133 316.756 108.601 316.938C108.139 316.574 107.509 316.378 106.753 316.378C105.157 316.378 104.093 317.316 104.093 318.716C104.093 319.444 104.387 320.046 104.891 320.466C104.387 320.592 103.939 320.97 103.939 321.53C103.939 322.076 104.233 322.412 104.695 322.608C103.939 322.874 103.491 323.378 103.491 324.092C103.491 325.226 104.639 325.926 106.795 325.926C109.077 325.926 110.113 325.1 110.113 323.91C110.113 322.762 109.203 322.104 107.691 322.104ZM106.767 317.078C107.859 317.078 108.587 317.736 108.587 318.716C108.587 319.696 107.859 320.354 106.753 320.354C105.661 320.354 104.947 319.696 104.947 318.716C104.947 317.736 105.661 317.078 106.767 317.078ZM106.795 325.198C105.157 325.198 104.331 324.778 104.331 323.98C104.331 323.322 104.863 322.832 106.039 322.832H107.551C108.685 322.832 109.273 323.154 109.273 323.91C109.273 324.792 108.447 325.198 106.795 325.198ZM116.223 316.448V320.032C116.223 321.012 115.481 322.356 114.067 322.356C112.933 322.356 112.317 321.614 112.317 320.48V316.448H111.463V320.48C111.463 322.034 112.387 323.07 113.941 323.07C115.159 323.07 115.957 322.328 116.307 321.446H116.321C116.321 321.782 116.363 322.482 116.447 323.028L117.063 323V316.448H116.223ZM119.272 323H120.112V313.116H119.272V323ZM128.033 322.286C127.977 322.3 127.879 322.314 127.795 322.314C127.487 322.314 127.361 322.16 127.361 321.782V318.8C127.361 317.316 126.339 316.378 124.659 316.378C123.091 316.378 122.069 317.204 122.069 318.394C122.069 318.716 122.153 318.954 122.153 318.954L122.951 318.814C122.923 318.758 122.881 318.632 122.881 318.436C122.881 317.596 123.581 317.092 124.645 317.092C125.835 317.092 126.507 317.764 126.507 318.814V319.318L126.101 319.332C123.413 319.36 121.901 319.864 121.901 321.334C121.901 322.384 122.671 323.07 124.057 323.07C125.611 323.07 126.297 322.244 126.535 321.754H126.563V322.09C126.563 322.79 126.983 323.07 127.557 323.07C127.823 323.07 128.061 323 128.075 323L128.033 322.286ZM124.239 322.356C123.245 322.356 122.769 321.95 122.769 321.306C122.769 320.34 123.903 319.976 126.101 319.948L126.507 319.934V320.788C126.507 321.208 125.863 322.356 124.239 322.356ZM132.294 316.378C131.286 316.378 130.684 317.19 130.432 318.086H130.404C130.404 317.666 130.362 316.966 130.278 316.42L129.676 316.448V323H130.53V319.458C130.53 318.324 131.272 317.204 132.252 317.204C132.504 317.204 132.728 317.26 132.826 317.316L133.036 316.476C132.868 316.42 132.588 316.378 132.294 316.378ZM145.257 316.448L143.731 321.6C143.647 321.838 143.591 322.076 143.563 322.146H143.535C143.521 322.076 143.465 321.796 143.409 321.6L141.841 316.448H140.959L139.391 321.628C139.335 321.824 139.251 322.076 139.237 322.146H139.209C139.195 322.076 139.111 321.866 139.041 321.628L137.515 316.448H136.563L138.663 323H139.699L141.267 318.016C141.309 317.862 141.365 317.624 141.379 317.54H141.407C141.421 317.624 141.477 317.862 141.519 318.016L143.059 323H144.095L146.125 316.448H145.257ZM150.206 316.378C148.358 316.378 147.07 317.722 147.07 319.738C147.07 321.74 148.344 323.07 150.374 323.07C151.396 323.07 152.306 322.734 152.908 321.992L152.376 321.502C152.012 321.95 151.382 322.356 150.43 322.356C148.946 322.356 148.008 321.39 147.938 319.906H153.006C153.006 319.906 153.048 319.696 153.048 319.346C153.048 317.61 151.97 316.378 150.206 316.378ZM150.206 317.092C151.396 317.092 152.18 317.904 152.18 319.22V319.276H147.966C148.12 317.96 149.002 317.092 150.206 317.092ZM155.939 314.306C155.939 313.928 155.631 313.648 155.267 313.648C154.903 313.648 154.609 313.928 154.609 314.306C154.609 314.67 154.903 314.95 155.267 314.95C155.631 314.95 155.939 314.67 155.939 314.306ZM154.819 323H155.673V316.42L154.819 316.448V323ZM161.325 322.104H159.897C158.931 322.104 158.343 321.978 158.343 321.432C158.343 321.096 158.651 320.886 159.141 320.816C159.505 320.97 159.925 321.054 160.401 321.054C162.011 321.054 163.075 320.116 163.075 318.716C163.075 318.142 162.893 317.652 162.585 317.274C163.005 317.218 163.719 316.742 163.719 315.664L162.977 315.51C162.977 316.21 162.767 316.756 162.235 316.938C161.773 316.574 161.143 316.378 160.387 316.378C158.791 316.378 157.727 317.316 157.727 318.716C157.727 319.444 158.021 320.046 158.525 320.466C158.021 320.592 157.573 320.97 157.573 321.53C157.573 322.076 157.867 322.412 158.329 322.608C157.573 322.874 157.125 323.378 157.125 324.092C157.125 325.226 158.273 325.926 160.429 325.926C162.711 325.926 163.747 325.1 163.747 323.91C163.747 322.762 162.837 322.104 161.325 322.104ZM160.401 317.078C161.493 317.078 162.221 317.736 162.221 318.716C162.221 319.696 161.493 320.354 160.387 320.354C159.295 320.354 158.581 319.696 158.581 318.716C158.581 317.736 159.295 317.078 160.401 317.078ZM160.429 325.198C158.791 325.198 157.965 324.778 157.965 323.98C157.965 323.322 158.497 322.832 159.673 322.832H161.185C162.319 322.832 162.907 323.154 162.907 323.91C162.907 324.792 162.081 325.198 160.429 325.198ZM168.416 316.378C167.184 316.378 166.386 317.078 166.008 317.89V313.116H165.168V323H166.022V319.43C166.022 318.408 166.778 317.092 168.276 317.092C169.424 317.092 170.096 317.862 170.096 318.982V323H170.95V318.982C170.95 317.442 169.984 316.378 168.416 316.378ZM176.867 321.936C176.867 321.936 176.377 322.342 175.579 322.342C174.599 322.342 174.193 321.782 174.193 320.69V317.148H176.853V316.448H174.193V314.404L173.339 314.46V316.448H172.261V317.148H173.339V320.718C173.339 322.272 173.983 323.084 175.509 323.084C176.517 323.084 177.161 322.622 177.161 322.622L176.867 321.936ZM178.124 322.454C178.124 322.804 178.418 323.084 178.768 323.084C179.118 323.084 179.398 322.804 179.398 322.454C179.398 322.104 179.118 321.81 178.768 321.81C178.418 321.81 178.124 322.104 178.124 322.454Z" fill="#434343"/>
</svg>
