<svg width="463" height="463" viewBox="0 0 463 463" fill="none" xmlns="http://www.w3.org/2000/svg">
<rect width="100" height="100" rx="50" transform="matrix(1 0 0 -1 183 332)" fill="#F0CDDD"/>
<rect width="100" height="100" rx="50" transform="matrix(1 0 0 -1 91 218)" fill="#98D1B3"/>
<rect width="100" height="100" rx="50" transform="matrix(1 0 0 -1 363 100)" fill="#5F97D3"/>
<rect width="100" height="100" rx="50" transform="matrix(1 0 0 -1 0 100)" fill="#012875"/>
<rect x="0.5" y="-0.5" width="99" height="99" rx="49.5" transform="matrix(1 0 0 -1 91 449)" fill="#F5F5F5" stroke="#434343"/>
<rect width="100" height="100" rx="50" transform="matrix(1 0 0 -1 275 450)" fill="#434343"/>
<rect width="100" height="100" rx="50" transform="matrix(1 0 0 -1 363 332)" fill="#FF9E01"/>
<rect width="100" height="100" rx="50" transform="matrix(1 0 0 -1 0 332)" fill="#CF3B31"/>
<rect width="100" height="100" rx="50" transform="matrix(1 0 0 -1 275 218)" fill="#195F3A"/>
<rect width="100" height="100" rx="50" transform="matrix(1 0 0 -1 183 100)" fill="#1664C4"/>
<path d="M215.966 108.364L216.134 107.644H214.478L214.814 106.108H213.89L213.554 107.644H212.162L212.498 106.108H211.586L211.25 107.644H209.666L209.498 108.364H211.094L210.806 109.696H209.222L209.054 110.416H210.65L210.302 112H211.226L211.562 110.416H212.954L212.606 112H213.53L213.878 110.416H215.522L215.69 109.696H214.034L214.322 108.364H215.966ZM213.11 109.696H211.718L212.006 108.364H213.398L213.11 109.696ZM218.416 112H219.508V104.08H219.364L216.364 104.764V105.808L218.416 105.256V112ZM224.477 106.948C222.881 106.948 222.353 107.968 222.293 108.328L222.245 108.316V108.064C222.245 106.204 223.169 104.968 224.525 104.968C225.497 104.968 225.977 105.4 226.169 105.628L226.769 104.932C226.457 104.584 225.821 104.008 224.453 104.008C222.461 104.008 221.141 105.652 221.141 108.112C221.141 110.74 222.437 112.072 224.261 112.072C225.893 112.072 227.009 111.028 227.009 109.456C227.009 107.956 225.917 106.948 224.477 106.948ZM224.249 111.112C223.229 111.112 222.653 110.572 222.401 109.576C222.413 108.592 223.145 107.92 224.249 107.92C225.245 107.92 225.905 108.532 225.905 109.456C225.905 110.452 225.221 111.112 224.249 111.112ZM231.473 106.948C229.877 106.948 229.349 107.968 229.289 108.328L229.241 108.316V108.064C229.241 106.204 230.165 104.968 231.521 104.968C232.493 104.968 232.973 105.4 233.165 105.628L233.765 104.932C233.453 104.584 232.817 104.008 231.449 104.008C229.457 104.008 228.137 105.652 228.137 108.112C228.137 110.74 229.433 112.072 231.257 112.072C232.889 112.072 234.005 111.028 234.005 109.456C234.005 107.956 232.913 106.948 231.473 106.948ZM231.245 111.112C230.225 111.112 229.649 110.572 229.397 109.576C229.409 108.592 230.141 107.92 231.245 107.92C232.241 107.92 232.901 108.532 232.901 109.456C232.901 110.452 232.217 111.112 231.245 111.112ZM240.041 104.08H238.493L234.821 109.204V110.128H238.961V112H240.041V110.128H241.265V109.204H240.041V104.08ZM238.949 109.204H236.753C236.501 109.204 236.117 109.204 235.985 109.216L235.961 109.18C236.057 109.084 236.357 108.628 236.549 108.364L238.529 105.688C238.673 105.484 238.913 105.112 238.937 105.052L238.973 105.076C238.949 105.172 238.949 105.508 238.949 105.724V109.204ZM245.775 104.008C243.687 104.008 242.199 105.604 242.199 108.04C242.199 110.584 243.723 112.072 245.955 112.072C247.707 112.072 248.607 110.92 248.847 110.584L248.187 109.912C247.767 110.488 247.011 111.112 245.979 111.112C244.587 111.112 243.303 110.224 243.303 108.04C243.303 106.084 244.419 104.968 245.787 104.968C247.215 104.968 247.743 106.096 247.743 106.852L248.775 106.684C248.763 105.652 247.995 104.008 245.775 104.008ZM254.772 104.08H253.224L249.552 109.204V110.128H253.692V112H254.772V110.128H255.996V109.204H254.772V104.08ZM253.68 109.204H251.484C251.232 109.204 250.848 109.204 250.716 109.216L250.692 109.18C250.788 109.084 251.088 108.628 251.28 108.364L253.26 105.688C253.404 105.484 253.644 105.112 253.668 105.052L253.704 105.076C253.68 105.172 253.68 105.508 253.68 105.724V109.204Z" fill="#434343"/>
<path d="M34.6166 108.364L34.7846 107.644H33.1286L33.4646 106.108H32.5406L32.2046 107.644H30.8126L31.1486 106.108H30.2366L29.9006 107.644H28.3166L28.1486 108.364H29.7446L29.4566 109.696H27.8726L27.7046 110.416H29.3006L28.9526 112H29.8766L30.2126 110.416H31.6046L31.2566 112H32.1806L32.5286 110.416H34.1726L34.3406 109.696H32.6846L32.9726 108.364H34.6166ZM31.7606 109.696H30.3686L30.6566 108.364H32.0486L31.7606 109.696ZM38.9036 112.072C40.9196 112.072 42.0476 110.62 42.0476 108.052C42.0476 105.46 40.9196 104.008 38.9036 104.008C36.9236 104.008 35.8076 105.46 35.8076 108.052C35.8076 110.62 36.9236 112.072 38.9036 112.072ZM38.9036 111.112C37.6316 111.112 36.9116 110.02 36.9116 108.052C36.9116 106.072 37.6316 104.968 38.9036 104.968C40.1996 104.968 40.9436 106.072 40.9436 108.052C40.9436 110.02 40.1996 111.112 38.9036 111.112ZM44.9999 112H46.0919V104.08H45.9479L42.9479 104.764V105.808L44.9999 105.256V112ZM49.3813 111.112L49.3573 111.064C49.4773 111.016 49.8373 110.8 50.0413 110.656C51.5893 109.588 53.0293 108.232 53.0293 106.504C53.0293 105.004 51.9733 104.008 50.3293 104.008C48.7573 104.008 47.6773 104.896 47.6773 106.216C47.6773 106.588 47.7253 106.756 47.7493 106.804L48.8173 106.636C48.7813 106.552 48.7573 106.408 48.7573 106.264C48.7573 105.484 49.3933 104.968 50.3413 104.968C51.2893 104.968 51.9253 105.58 51.9253 106.552C51.9253 108.628 49.6333 109.78 47.7613 111.124V112H53.2933V111.076H50.0773C49.7533 111.076 49.4773 111.1 49.3813 111.112ZM58.9893 107.812V107.788C59.5773 107.572 59.9973 106.912 59.9973 106.132C59.9973 104.896 58.9533 104.008 57.3813 104.008C55.8093 104.008 54.7653 104.896 54.7653 106.132C54.7653 106.912 55.1853 107.572 55.7733 107.788V107.812C54.9093 108.112 54.3333 108.832 54.3333 109.756C54.3333 111.148 55.5573 112.072 57.3813 112.072C59.2053 112.072 60.4293 111.148 60.4293 109.756C60.4293 108.832 59.8533 108.112 58.9893 107.812ZM57.3813 104.956C58.2693 104.956 58.8693 105.388 58.8693 106.144C58.8693 106.828 58.2933 107.344 57.3813 107.344C56.4693 107.344 55.8933 106.828 55.8933 106.144C55.8933 105.388 56.4933 104.956 57.3813 104.956ZM57.3813 111.124C56.2173 111.124 55.4493 110.524 55.4493 109.636C55.4493 108.82 56.2173 108.316 57.3813 108.316C58.5453 108.316 59.3133 108.82 59.3133 109.636C59.3133 110.524 58.5453 111.124 57.3813 111.124ZM66.7006 104.08H61.3606V106.096H62.3326V105.004H64.9486C65.2846 105.004 65.5486 104.992 65.6566 104.98L65.6806 105.016C65.6686 105.028 65.5126 105.328 65.3806 105.628L62.5246 112H63.6526L66.7006 105.004V104.08ZM68.1643 104.08L67.8283 108.292H68.9083C68.9083 108.292 69.3883 107.692 70.3363 107.692C71.3923 107.692 72.1123 108.376 72.1123 109.384C72.1123 110.428 71.2963 111.112 70.2043 111.112C68.9083 111.112 68.2843 110.056 68.2843 110.056L67.3843 110.632C67.3843 110.632 68.2003 112.072 70.2043 112.072C71.9683 112.072 73.2163 110.992 73.2163 109.384C73.2163 107.812 72.1363 106.72 70.5163 106.72C69.7963 106.72 69.2203 106.984 68.9323 107.284L68.8963 107.26L69.1123 105.004H72.6883V104.08H68.1643Z" fill="#434343"/>
<path d="M395.533 108.364L395.701 107.644H394.045L394.381 106.108H393.457L393.121 107.644H391.729L392.065 106.108H391.153L390.817 107.644H389.233L389.065 108.364H390.661L390.373 109.696H388.789L388.621 110.416H390.217L389.869 112H390.793L391.129 110.416H392.521L392.173 112H393.097L393.445 110.416H395.089L395.257 109.696H393.601L393.889 108.364H395.533ZM392.677 109.696H391.285L391.573 108.364H392.965L392.677 109.696ZM397.276 104.08L396.94 108.292H398.02C398.02 108.292 398.5 107.692 399.448 107.692C400.504 107.692 401.224 108.376 401.224 109.384C401.224 110.428 400.408 111.112 399.316 111.112C398.02 111.112 397.396 110.056 397.396 110.056L396.496 110.632C396.496 110.632 397.312 112.072 399.316 112.072C401.08 112.072 402.328 110.992 402.328 109.384C402.328 107.812 401.248 106.72 399.628 106.72C398.908 106.72 398.332 106.984 398.044 107.284L398.008 107.26L398.224 105.004H401.8V104.08H397.276ZM408.611 105.004V104.08H403.823V112H404.915V108.472H408.071V107.524H404.915V105.004H408.611ZM412.207 104.008C410.575 104.008 409.459 105.052 409.459 106.624C409.459 108.124 410.551 109.132 411.991 109.132C413.587 109.132 414.103 108.112 414.163 107.776L414.211 107.788V108.016C414.211 109.864 413.299 111.112 411.943 111.112C410.983 111.112 410.503 110.692 410.311 110.464L409.699 111.148C410.011 111.508 410.659 112.072 412.027 112.072C414.019 112.072 415.315 110.428 415.315 107.968C415.315 105.34 414.043 104.008 412.207 104.008ZM412.219 108.172C411.235 108.172 410.563 107.536 410.563 106.624C410.563 105.64 411.259 104.968 412.219 104.968C413.239 104.968 413.803 105.508 414.055 106.504C414.043 107.488 413.311 108.172 412.219 108.172ZM421.652 104.08H416.312V106.096H417.284V105.004H419.9C420.236 105.004 420.5 104.992 420.608 104.98L420.632 105.016C420.62 105.028 420.464 105.328 420.332 105.628L417.476 112H418.604L421.652 105.004V104.08ZM425.359 104.08H422.959V112H425.767C427.951 112 429.415 110.8 429.415 108.04C429.415 105.556 427.951 104.08 425.359 104.08ZM425.755 111.076H424.051V105.004H425.347C427.243 105.004 428.311 106.012 428.311 108.04C428.311 110.164 427.231 111.076 425.755 111.076ZM433.278 104.008C431.73 104.008 430.698 104.86 430.698 106.036C430.698 106.408 430.746 106.576 430.77 106.624L431.838 106.456C431.802 106.372 431.778 106.228 431.778 106.084C431.778 105.448 432.366 104.968 433.278 104.968C434.19 104.968 434.802 105.544 434.802 106.336C434.802 107.08 434.142 107.452 433.134 107.512L432.69 107.536V108.508L433.122 108.532C434.43 108.604 435.102 109.012 435.09 109.804C435.078 110.608 434.442 111.112 433.302 111.112C431.946 111.112 431.31 110.068 431.31 110.068L430.434 110.584C430.434 110.584 431.07 112.072 433.302 112.072C435.15 112.072 436.194 111.124 436.194 109.9C436.194 108.64 435.09 108.004 434.286 108.004V107.98C435.066 107.98 435.906 107.248 435.906 106.252C435.906 104.908 434.874 104.008 433.278 104.008Z" fill="#434343"/>
<path d="M124.538 226.364L124.706 225.644H123.05L123.386 224.108H122.462L122.126 225.644H120.734L121.07 224.108H120.158L119.822 225.644H118.238L118.07 226.364H119.666L119.378 227.696H117.794L117.626 228.416H119.222L118.874 230H119.798L120.134 228.416H121.526L121.178 230H122.102L122.45 228.416H124.094L124.262 227.696H122.606L122.894 226.364H124.538ZM121.682 227.696H120.29L120.578 226.364H121.97L121.682 227.696ZM128.369 222.008C126.737 222.008 125.621 223.052 125.621 224.624C125.621 226.124 126.713 227.132 128.153 227.132C129.749 227.132 130.265 226.112 130.325 225.776L130.373 225.788V226.016C130.373 227.864 129.461 229.112 128.105 229.112C127.145 229.112 126.665 228.692 126.473 228.464L125.861 229.148C126.173 229.508 126.821 230.072 128.189 230.072C130.181 230.072 131.477 228.428 131.477 225.968C131.477 223.34 130.205 222.008 128.369 222.008ZM128.381 226.172C127.397 226.172 126.725 225.536 126.725 224.624C126.725 223.64 127.421 222.968 128.381 222.968C129.401 222.968 129.965 223.508 130.217 224.504C130.205 225.488 129.473 226.172 128.381 226.172ZM137.298 225.812V225.788C137.886 225.572 138.306 224.912 138.306 224.132C138.306 222.896 137.262 222.008 135.69 222.008C134.118 222.008 133.074 222.896 133.074 224.132C133.074 224.912 133.494 225.572 134.082 225.788V225.812C133.218 226.112 132.642 226.832 132.642 227.756C132.642 229.148 133.866 230.072 135.69 230.072C137.514 230.072 138.738 229.148 138.738 227.756C138.738 226.832 138.162 226.112 137.298 225.812ZM135.69 222.956C136.578 222.956 137.178 223.388 137.178 224.144C137.178 224.828 136.602 225.344 135.69 225.344C134.778 225.344 134.202 224.828 134.202 224.144C134.202 223.388 134.802 222.956 135.69 222.956ZM135.69 229.124C134.526 229.124 133.758 228.524 133.758 227.636C133.758 226.82 134.526 226.316 135.69 226.316C136.854 226.316 137.622 226.82 137.622 227.636C137.622 228.524 136.854 229.124 135.69 229.124ZM142.705 222.08H140.305V230H143.113C145.297 230 146.761 228.8 146.761 226.04C146.761 223.556 145.297 222.08 142.705 222.08ZM143.101 229.076H141.397V223.004H142.693C144.589 223.004 145.657 224.012 145.657 226.04C145.657 228.164 144.577 229.076 143.101 229.076ZM149.582 230H150.674V222.08H150.53L147.53 222.764V223.808L149.582 223.256V230ZM156.819 225.836V225.812C157.263 225.728 158.043 225.32 158.043 224.192C158.043 222.788 157.035 222.08 155.379 222.08H152.715V230H155.763C157.515 230 158.451 229.184 158.451 227.84C158.451 226.436 157.359 225.944 156.819 225.836ZM156.939 224.252C156.939 224.948 156.423 225.5 155.391 225.5H153.807V223.004H155.235C156.423 223.004 156.939 223.424 156.939 224.252ZM155.631 229.076H153.807V226.316H155.487C156.531 226.316 157.359 226.736 157.359 227.732C157.359 228.656 156.615 229.076 155.631 229.076ZM162.272 222.008C160.724 222.008 159.692 222.86 159.692 224.036C159.692 224.408 159.74 224.576 159.764 224.624L160.832 224.456C160.796 224.372 160.772 224.228 160.772 224.084C160.772 223.448 161.36 222.968 162.272 222.968C163.184 222.968 163.796 223.544 163.796 224.336C163.796 225.08 163.136 225.452 162.128 225.512L161.684 225.536V226.508L162.116 226.532C163.424 226.604 164.096 227.012 164.084 227.804C164.072 228.608 163.436 229.112 162.296 229.112C160.94 229.112 160.304 228.068 160.304 228.068L159.428 228.584C159.428 228.584 160.064 230.072 162.296 230.072C164.144 230.072 165.188 229.124 165.188 227.9C165.188 226.64 164.084 226.004 163.28 226.004V225.98C164.06 225.98 164.9 225.248 164.9 224.252C164.9 222.908 163.868 222.008 162.272 222.008Z" fill="#434343"/>
<path d="M33.3353 340.364L33.5033 339.644H31.8473L32.1833 338.108H31.2593L30.9233 339.644H29.5313L29.8673 338.108H28.9553L28.6193 339.644H27.0353L26.8673 340.364H28.4633L28.1753 341.696H26.5913L26.4233 342.416H28.0193L27.6713 344H28.5953L28.9313 342.416H30.3233L29.9753 344H30.8993L31.2473 342.416H32.8913L33.0593 341.696H31.4033L31.6913 340.364H33.3353ZM30.4793 341.696H29.0873L29.3753 340.364H30.7673L30.4793 341.696ZM38.0663 336.008C35.9783 336.008 34.4903 337.604 34.4903 340.04C34.4903 342.584 36.0143 344.072 38.2463 344.072C39.9983 344.072 40.8983 342.92 41.1383 342.584L40.4783 341.912C40.0583 342.488 39.3023 343.112 38.2703 343.112C36.8783 343.112 35.5943 342.224 35.5943 340.04C35.5943 338.084 36.7103 336.968 38.0783 336.968C39.5063 336.968 40.0343 338.096 40.0343 338.852L41.0663 338.684C41.0543 337.652 40.2863 336.008 38.0663 336.008ZM47.351 337.004V336.08H42.563V344H43.655V340.472H46.811V339.524H43.655V337.004H47.351ZM50.9596 336.008C49.4116 336.008 48.3796 336.86 48.3796 338.036C48.3796 338.408 48.4276 338.576 48.4516 338.624L49.5196 338.456C49.4836 338.372 49.4596 338.228 49.4596 338.084C49.4596 337.448 50.0476 336.968 50.9596 336.968C51.8716 336.968 52.4836 337.544 52.4836 338.336C52.4836 339.08 51.8236 339.452 50.8156 339.512L50.3716 339.536V340.508L50.8036 340.532C52.1116 340.604 52.7836 341.012 52.7716 341.804C52.7596 342.608 52.1236 343.112 50.9836 343.112C49.6276 343.112 48.9916 342.068 48.9916 342.068L48.1156 342.584C48.1156 342.584 48.7516 344.072 50.9836 344.072C52.8316 344.072 53.8756 343.124 53.8756 341.9C53.8756 340.64 52.7716 340.004 51.9676 340.004V339.98C52.7476 339.98 53.5876 339.248 53.5876 338.252C53.5876 336.908 52.5556 336.008 50.9596 336.008ZM59.581 339.836V339.812C60.025 339.728 60.805 339.32 60.805 338.192C60.805 336.788 59.797 336.08 58.141 336.08H55.477V344H58.525C60.277 344 61.213 343.184 61.213 341.84C61.213 340.436 60.121 339.944 59.581 339.836ZM59.701 338.252C59.701 338.948 59.185 339.5 58.153 339.5H56.569V337.004H57.997C59.185 337.004 59.701 337.424 59.701 338.252ZM58.393 343.076H56.569V340.316H58.249C59.293 340.316 60.121 340.736 60.121 341.732C60.121 342.656 59.377 343.076 58.393 343.076ZM65.0338 336.008C63.4858 336.008 62.4538 336.86 62.4538 338.036C62.4538 338.408 62.5018 338.576 62.5258 338.624L63.5938 338.456C63.5578 338.372 63.5338 338.228 63.5338 338.084C63.5338 337.448 64.1218 336.968 65.0338 336.968C65.9458 336.968 66.5578 337.544 66.5578 338.336C66.5578 339.08 65.8978 339.452 64.8898 339.512L64.4458 339.536V340.508L64.8778 340.532C66.1858 340.604 66.8578 341.012 66.8458 341.804C66.8338 342.608 66.1978 343.112 65.0578 343.112C63.7018 343.112 63.0658 342.068 63.0658 342.068L62.1898 342.584C62.1898 342.584 62.8258 344.072 65.0578 344.072C66.9058 344.072 67.9498 343.124 67.9498 341.9C67.9498 340.64 66.8458 340.004 66.0418 340.004V339.98C66.8218 339.98 67.6618 339.248 67.6618 338.252C67.6618 336.908 66.6298 336.008 65.0338 336.008ZM70.8593 344H71.9513V336.08H71.8073L68.8073 336.764V337.808L70.8593 337.256V344Z" fill="#434343"/>
<path d="M125.605 458.364L125.773 457.644H124.117L124.453 456.108H123.529L123.193 457.644H121.801L122.137 456.108H121.225L120.889 457.644H119.305L119.137 458.364H120.733L120.445 459.696H118.861L118.693 460.416H120.289L119.941 462H120.865L121.201 460.416H122.593L122.245 462H123.169L123.517 460.416H125.161L125.329 459.696H123.673L123.961 458.364H125.605ZM122.749 459.696H121.357L121.645 458.364H123.037L122.749 459.696ZM131.98 455.004V454.08H127.192V462H128.284V458.472H131.44V457.524H128.284V455.004H131.98ZM133.489 454.08L133.153 458.292H134.233C134.233 458.292 134.713 457.692 135.661 457.692C136.717 457.692 137.437 458.376 137.437 459.384C137.437 460.428 136.621 461.112 135.529 461.112C134.233 461.112 133.609 460.056 133.609 460.056L132.708 460.632C132.708 460.632 133.525 462.072 135.529 462.072C137.293 462.072 138.541 460.992 138.541 459.384C138.541 457.812 137.461 456.72 135.84 456.72C135.121 456.72 134.545 456.984 134.257 457.284L134.221 457.26L134.437 455.004H138.013V454.08H133.489ZM144.824 455.004V454.08H140.036V462H141.128V458.472H144.284V457.524H141.128V455.004H144.824ZM146.332 454.08L145.996 458.292H147.076C147.076 458.292 147.556 457.692 148.504 457.692C149.56 457.692 150.28 458.376 150.28 459.384C150.28 460.428 149.464 461.112 148.372 461.112C147.076 461.112 146.452 460.056 146.452 460.056L145.552 460.632C145.552 460.632 146.368 462.072 148.372 462.072C150.136 462.072 151.384 460.992 151.384 459.384C151.384 457.812 150.304 456.72 148.684 456.72C147.964 456.72 147.388 456.984 147.1 457.284L147.064 457.26L147.28 455.004H150.856V454.08H146.332ZM157.667 455.004V454.08H152.879V462H153.971V458.472H157.127V457.524H153.971V455.004H157.667ZM159.176 454.08L158.84 458.292H159.92C159.92 458.292 160.4 457.692 161.348 457.692C162.404 457.692 163.124 458.376 163.124 459.384C163.124 460.428 162.308 461.112 161.216 461.112C159.92 461.112 159.296 460.056 159.296 460.056L158.396 460.632C158.396 460.632 159.212 462.072 161.216 462.072C162.98 462.072 164.228 460.992 164.228 459.384C164.228 457.812 163.148 456.72 161.528 456.72C160.808 456.72 160.232 456.984 159.944 457.284L159.908 457.26L160.124 455.004H163.7V454.08H159.176Z" fill="#434343"/>
<path d="M308.076 458.364L308.244 457.644H306.588L306.924 456.108H306L305.664 457.644H304.272L304.608 456.108H303.696L303.36 457.644H301.776L301.608 458.364H303.204L302.916 459.696H301.332L301.164 460.416H302.76L302.412 462H303.336L303.672 460.416H305.064L304.716 462H305.64L305.988 460.416H307.632L307.8 459.696H306.144L306.432 458.364H308.076ZM305.22 459.696H303.828L304.116 458.364H305.508L305.22 459.696ZM314.163 454.08H312.615L308.943 459.204V460.128H313.083V462H314.163V460.128H315.387V459.204H314.163V454.08ZM313.071 459.204H310.875C310.623 459.204 310.239 459.204 310.107 459.216L310.083 459.18C310.179 459.084 310.479 458.628 310.671 458.364L312.651 455.688C312.795 455.484 313.035 455.112 313.059 455.052L313.095 455.076C313.071 455.172 313.071 455.508 313.071 455.724V459.204ZM319.008 454.008C317.46 454.008 316.428 454.86 316.428 456.036C316.428 456.408 316.476 456.576 316.5 456.624L317.568 456.456C317.532 456.372 317.508 456.228 317.508 456.084C317.508 455.448 318.096 454.968 319.008 454.968C319.92 454.968 320.532 455.544 320.532 456.336C320.532 457.08 319.872 457.452 318.864 457.512L318.42 457.536V458.508L318.852 458.532C320.16 458.604 320.832 459.012 320.82 459.804C320.808 460.608 320.172 461.112 319.032 461.112C317.676 461.112 317.04 460.068 317.04 460.068L316.164 460.584C316.164 460.584 316.8 462.072 319.032 462.072C320.88 462.072 321.924 461.124 321.924 459.9C321.924 458.64 320.82 458.004 320.016 458.004V457.98C320.796 457.98 321.636 457.248 321.636 456.252C321.636 454.908 320.604 454.008 319.008 454.008ZM328.026 454.08H326.478L322.806 459.204V460.128H326.946V462H328.026V460.128H329.25V459.204H328.026V454.08ZM326.934 459.204H324.738C324.486 459.204 324.102 459.204 323.97 459.216L323.946 459.18C324.042 459.084 324.342 458.628 324.534 458.364L326.514 455.688C326.658 455.484 326.898 455.112 326.922 455.052L326.958 455.076C326.934 455.172 326.934 455.508 326.934 455.724V459.204ZM332.872 454.008C331.324 454.008 330.292 454.86 330.292 456.036C330.292 456.408 330.34 456.576 330.364 456.624L331.432 456.456C331.396 456.372 331.372 456.228 331.372 456.084C331.372 455.448 331.96 454.968 332.872 454.968C333.784 454.968 334.396 455.544 334.396 456.336C334.396 457.08 333.736 457.452 332.728 457.512L332.284 457.536V458.508L332.716 458.532C334.024 458.604 334.696 459.012 334.684 459.804C334.672 460.608 334.036 461.112 332.896 461.112C331.54 461.112 330.904 460.068 330.904 460.068L330.028 460.584C330.028 460.584 330.664 462.072 332.896 462.072C334.744 462.072 335.788 461.124 335.788 459.9C335.788 458.64 334.684 458.004 333.88 458.004V457.98C334.66 457.98 335.5 457.248 335.5 456.252C335.5 454.908 334.468 454.008 332.872 454.008ZM341.889 454.08H340.341L336.669 459.204V460.128H340.809V462H341.889V460.128H343.113V459.204H341.889V454.08ZM340.797 459.204H338.601C338.349 459.204 337.965 459.204 337.833 459.216L337.809 459.18C337.905 459.084 338.205 458.628 338.397 458.364L340.377 455.688C340.521 455.484 340.761 455.112 340.785 455.052L340.821 455.076C340.797 455.172 340.797 455.508 340.797 455.724V459.204ZM346.735 454.008C345.187 454.008 344.155 454.86 344.155 456.036C344.155 456.408 344.203 456.576 344.227 456.624L345.295 456.456C345.259 456.372 345.235 456.228 345.235 456.084C345.235 455.448 345.823 454.968 346.735 454.968C347.647 454.968 348.259 455.544 348.259 456.336C348.259 457.08 347.599 457.452 346.591 457.512L346.147 457.536V458.508L346.579 458.532C347.887 458.604 348.559 459.012 348.547 459.804C348.535 460.608 347.899 461.112 346.759 461.112C345.403 461.112 344.767 460.068 344.767 460.068L343.891 460.584C343.891 460.584 344.527 462.072 346.759 462.072C348.607 462.072 349.651 461.124 349.651 459.9C349.651 458.64 348.547 458.004 347.743 458.004V457.98C348.523 457.98 349.363 457.248 349.363 456.252C349.363 454.908 348.331 454.008 346.735 454.008Z" fill="#434343"/>
<path d="M214.142 340.364L214.31 339.644H212.654L212.99 338.108H212.066L211.73 339.644H210.338L210.674 338.108H209.762L209.426 339.644H207.842L207.674 340.364H209.27L208.982 341.696H207.398L207.23 342.416H208.826L208.478 344H209.402L209.738 342.416H211.13L210.782 344H211.706L212.054 342.416H213.698L213.866 341.696H212.21L212.498 340.364H214.142ZM211.286 341.696H209.894L210.182 340.364H211.574L211.286 341.696ZM220.517 337.004V336.08H215.729V344H216.821V340.472H219.977V339.524H216.821V337.004H220.517ZM224.57 344.072C226.586 344.072 227.714 342.62 227.714 340.052C227.714 337.46 226.586 336.008 224.57 336.008C222.59 336.008 221.474 337.46 221.474 340.052C221.474 342.62 222.59 344.072 224.57 344.072ZM224.57 343.112C223.298 343.112 222.578 342.02 222.578 340.052C222.578 338.072 223.298 336.968 224.57 336.968C225.866 336.968 226.61 338.072 226.61 340.052C226.61 342.02 225.866 343.112 224.57 343.112ZM232.502 336.008C230.414 336.008 228.926 337.604 228.926 340.04C228.926 342.584 230.45 344.072 232.682 344.072C234.434 344.072 235.334 342.92 235.574 342.584L234.914 341.912C234.494 342.488 233.738 343.112 232.706 343.112C231.314 343.112 230.03 342.224 230.03 340.04C230.03 338.084 231.146 336.968 232.514 336.968C233.942 336.968 234.47 338.096 234.47 338.852L235.502 338.684C235.49 337.652 234.722 336.008 232.502 336.008ZM239.399 336.08H236.999V344H239.807C241.991 344 243.455 342.8 243.455 340.04C243.455 337.556 241.991 336.08 239.399 336.08ZM239.795 343.076H238.091V337.004H239.387C241.283 337.004 242.351 338.012 242.351 340.04C242.351 342.164 241.271 343.076 239.795 343.076ZM247.461 336.08H245.061V344H247.869C250.053 344 251.517 342.8 251.517 340.04C251.517 337.556 250.053 336.08 247.461 336.08ZM247.857 343.076H246.153V337.004H247.449C249.345 337.004 250.413 338.012 250.413 340.04C250.413 342.164 249.333 343.076 247.857 343.076ZM255.524 336.08H253.124V344H255.932C258.116 344 259.58 342.8 259.58 340.04C259.58 337.556 258.116 336.08 255.524 336.08ZM255.92 343.076H254.216V337.004H255.512C257.408 337.004 258.476 338.012 258.476 340.04C258.476 342.164 257.396 343.076 255.92 343.076Z" fill="#434343"/>
<path d="M397.997 340.364L398.165 339.644H396.509L396.845 338.108H395.921L395.585 339.644H394.193L394.529 338.108H393.617L393.281 339.644H391.697L391.529 340.364H393.125L392.837 341.696H391.253L391.085 342.416H392.681L392.333 344H393.257L393.593 342.416H394.985L394.637 344H395.561L395.909 342.416H397.553L397.721 341.696H396.065L396.353 340.364H397.997ZM395.141 341.696H393.749L394.037 340.364H395.429L395.141 341.696ZM404.372 337.004V336.08H399.584V344H400.676V340.472H403.832V339.524H400.676V337.004H404.372ZM410.513 337.004V336.08H405.725V344H406.817V340.472H409.973V339.524H406.817V337.004H410.513ZM414.11 336.008C412.478 336.008 411.362 337.052 411.362 338.624C411.362 340.124 412.454 341.132 413.894 341.132C415.49 341.132 416.006 340.112 416.066 339.776L416.114 339.788V340.016C416.114 341.864 415.202 343.112 413.846 343.112C412.886 343.112 412.406 342.692 412.214 342.464L411.602 343.148C411.914 343.508 412.562 344.072 413.93 344.072C415.922 344.072 417.218 342.428 417.218 339.968C417.218 337.34 415.946 336.008 414.11 336.008ZM414.122 340.172C413.138 340.172 412.466 339.536 412.466 338.624C412.466 337.64 413.162 336.968 414.122 336.968C415.142 336.968 415.706 337.508 415.958 338.504C415.946 339.488 415.214 340.172 414.122 340.172ZM423.758 337.004V336.08H418.85V344H423.758V343.076H419.942V340.352H423.338V339.428H419.942V337.004H423.758ZM428.101 344.072C430.117 344.072 431.245 342.62 431.245 340.052C431.245 337.46 430.117 336.008 428.101 336.008C426.121 336.008 425.005 337.46 425.005 340.052C425.005 342.62 426.121 344.072 428.101 344.072ZM428.101 343.112C426.829 343.112 426.109 342.02 426.109 340.052C426.109 338.072 426.829 336.968 428.101 336.968C429.397 336.968 430.141 338.072 430.141 340.052C430.141 342.02 429.397 343.112 428.101 343.112ZM434.197 344H435.289V336.08H435.145L432.145 336.764V337.808L434.197 337.256V344Z" fill="#434343"/>
<path d="M309.88 226.364L310.048 225.644H308.392L308.728 224.108H307.804L307.468 225.644H306.076L306.412 224.108H305.5L305.164 225.644H303.58L303.412 226.364H305.008L304.72 227.696H303.136L302.968 228.416H304.564L304.216 230H305.14L305.476 228.416H306.868L306.52 230H307.444L307.792 228.416H309.436L309.604 227.696H307.948L308.236 226.364H309.88ZM307.024 227.696H305.632L305.92 226.364H307.312L307.024 227.696ZM312.33 230H313.422V222.08H313.278L310.278 222.764V223.808L312.33 223.256V230ZM317.707 222.008C316.075 222.008 314.959 223.052 314.959 224.624C314.959 226.124 316.051 227.132 317.491 227.132C319.087 227.132 319.603 226.112 319.663 225.776L319.711 225.788V226.016C319.711 227.864 318.799 229.112 317.443 229.112C316.483 229.112 316.003 228.692 315.811 228.464L315.199 229.148C315.511 229.508 316.159 230.072 317.527 230.072C319.519 230.072 320.815 228.428 320.815 225.968C320.815 223.34 319.543 222.008 317.707 222.008ZM317.719 226.172C316.735 226.172 316.063 225.536 316.063 224.624C316.063 223.64 316.759 222.968 317.719 222.968C318.739 222.968 319.303 223.508 319.555 224.504C319.543 225.488 318.811 226.172 317.719 226.172ZM322.604 222.08L322.268 226.292H323.348C323.348 226.292 323.828 225.692 324.776 225.692C325.832 225.692 326.552 226.376 326.552 227.384C326.552 228.428 325.736 229.112 324.644 229.112C323.348 229.112 322.724 228.056 322.724 228.056L321.824 228.632C321.824 228.632 322.64 230.072 324.644 230.072C326.408 230.072 327.656 228.992 327.656 227.384C327.656 225.812 326.576 224.72 324.956 224.72C324.236 224.72 323.66 224.984 323.372 225.284L323.336 225.26L323.552 223.004H327.128V222.08H322.604ZM333.939 223.004V222.08H329.151V230H330.243V226.472H333.399V225.524H330.243V223.004H333.939ZM337.547 222.008C335.999 222.008 334.967 222.86 334.967 224.036C334.967 224.408 335.015 224.576 335.039 224.624L336.107 224.456C336.071 224.372 336.047 224.228 336.047 224.084C336.047 223.448 336.635 222.968 337.547 222.968C338.459 222.968 339.071 223.544 339.071 224.336C339.071 225.08 338.411 225.452 337.403 225.512L336.959 225.536V226.508L337.391 226.532C338.699 226.604 339.371 227.012 339.359 227.804C339.347 228.608 338.711 229.112 337.571 229.112C336.215 229.112 335.579 228.068 335.579 228.068L334.703 228.584C334.703 228.584 335.339 230.072 337.571 230.072C339.419 230.072 340.463 229.124 340.463 227.9C340.463 226.64 339.359 226.004 338.555 226.004V225.98C339.335 225.98 340.175 225.248 340.175 224.252C340.175 222.908 339.143 222.008 337.547 222.008ZM347.129 230H348.257L345.281 222.08H344.189L341.213 230H342.341L343.073 228.032H346.397L347.129 230ZM343.409 227.132L344.465 224.264C344.549 224.036 344.633 223.748 344.717 223.436H344.741C344.825 223.748 344.909 224.036 344.993 224.264L346.061 227.132H343.409Z" fill="#434343"/>
</svg>
