<svg width="547" height="191" viewBox="0 0 547 191" fill="none" xmlns="http://www.w3.org/2000/svg">
<path d="M21.467 44.976H7.68163V151.499H21.467V44.976ZM36.7478 151.499H49.4366V78.3428H49.7499L75.1274 151.499H89.226V44.976H76.6939V118.132H76.224L50.8464 44.976H36.7478V151.499ZM104.518 151.499H127.076C149.164 151.499 156.996 141.003 156.996 117.349V78.9694C156.996 54.5318 148.537 44.976 126.292 44.976H104.518V151.499ZM118.303 138.497V57.8215H126.292C139.295 57.8215 143.211 62.8343 143.211 78.0295V118.916C143.211 133.797 139.295 138.497 126.292 138.497H118.303ZM184.238 44.976H170.452V151.499H184.238V44.976ZM223.016 153.692H224.583C240.874 153.692 248.237 143.353 248.237 122.205V116.409H235.548V123.772C235.548 136.304 231.945 141.63 223.799 141.63C215.654 141.63 212.051 136.304 212.051 123.772V72.2334C212.051 59.5446 215.654 54.6884 223.799 54.6884C231.945 54.6884 235.548 59.5446 235.548 72.2334V80.8492H248.237V74.1132C248.237 52.8086 240.091 42.7829 224.426 42.7829H223.173C206.881 42.7829 198.265 52.8086 198.265 74.1132V122.205C198.265 143.353 206.098 153.692 223.016 153.692ZM294.908 151.499H308.85L289.425 44.3494H270.471L251.046 151.499H264.048L268.434 125.652H290.679L294.908 151.499ZM279.713 55.785L288.799 112.806H270.471L279.086 55.785H279.713ZM323.558 151.499H337.344V57.9781H355.828V44.976H304.917V57.9781H323.558V151.499ZM542.039 151.499L528.097 104.19C536.4 99.804 541.413 91.0316 541.256 75.5231C541.256 55.0017 532.484 44.976 511.336 44.976H489.874V151.499H503.66V106.54H514.625L527.471 151.499H542.039ZM503.66 93.8513V57.8215H511.179C522.771 57.8215 527.001 62.3644 527.001 75.993C527.001 89.1517 522.771 93.8513 511.179 93.8513H503.66Z" fill="#195F3A"/>
<path d="M355.216 96.5868C355.216 84.2566 358.873 72.2033 365.723 61.9511C372.573 51.699 382.31 43.7085 393.702 38.9902C405.094 34.2718 417.629 33.0375 429.722 35.4434C441.815 37.8492 452.923 43.7871 461.642 52.5063C470.36 61.2254 476.297 72.334 478.702 84.4274C481.107 96.5208 479.872 109.056 475.153 120.447C470.434 131.839 462.442 141.575 452.19 148.424C441.937 155.274 429.883 158.929 417.553 158.928C409.367 158.928 401.26 157.316 393.697 154.183C386.133 151.05 379.261 146.458 373.473 140.669C367.684 134.88 363.093 128.007 359.96 120.444C356.828 112.88 355.216 104.773 355.216 96.5868" stroke="#195F3A" stroke-width="5.24963" stroke-miterlimit="10"/>
<path d="M428.052 96.5867C428.049 98.8296 427.328 101.012 425.994 102.815C424.66 104.618 422.783 105.946 420.639 106.605C418.495 107.263 416.196 107.217 414.08 106.474C411.964 105.731 410.142 104.329 408.88 102.475C407.619 100.62 406.985 98.4102 407.071 96.169C407.157 93.9277 407.959 91.7731 409.36 90.021C410.76 88.2689 412.685 87.0115 414.852 86.4331C417.019 85.8547 419.314 85.9858 421.401 86.8071C423.364 87.5803 425.048 88.9268 426.235 90.6712C427.421 92.4157 428.055 94.477 428.052 96.5867Z" fill="#195F3A" stroke="#195F3A" stroke-width="2.09797" stroke-linecap="square" stroke-linejoin="round"/>
<path d="M418.974 89.7476L446.563 72.8604L423.979 96.2061L418.974 89.7476Z" fill="#195F3A" stroke="#195F3A" stroke-width="1.31241" stroke-linecap="square" stroke-linejoin="round"/>
<path d="M409.599 97.875L397.463 107.791C397.463 107.791 395.449 109.386 397.091 111.761C398.469 113.756 400.614 114.141 402.035 112.998C403.455 111.855 413.926 103.915 413.926 103.915L409.599 97.875Z" fill="#195F3A" stroke="#195F3A" stroke-width="1.60876" stroke-linecap="square" stroke-linejoin="round"/>
<path d="M463.995 121.137C459.546 129.617 452.861 136.719 444.665 141.672C436.469 146.625 427.074 149.242 417.497 149.238C392.754 149.238 370.777 130.606 365.932 104.875" stroke="#195F3A" stroke-width="2.62481" stroke-miterlimit="10"/>
<path d="M376.064 99.1648C375.288 75.6215 385.844 63.0619 400.525 54.6982L397.627 47.1719C397.627 47.1719 383.628 51.6171 373.073 67.1872C373.073 67.1872 363.166 80.984 364.365 99.5505L376.064 99.1648Z" fill="#195F3A" stroke="#195F3A" stroke-width="0.263422" stroke-linecap="round" stroke-linejoin="round"/>
<path d="M456.761 67.9203C447.057 55.4454 430.513 46.6584 406.348 52.6983L403.808 44.7721C403.808 44.7721 420.78 39.3861 438.909 47.7121C438.909 47.7121 452.551 52.9617 460.957 65.2955L456.761 67.9203Z" fill="#195F3A" stroke="#195F3A" stroke-width="0.263422" stroke-linecap="round" stroke-linejoin="round"/>
<path d="M467.5 116.94C468.873 113.379 470.393 106.036 471.047 100.547C473.036 83.7489 463.887 69.8252 463.887 69.8252L460.077 71.9843C466.474 81.3922 471.987 94.5116 465.068 115.999L467.5 116.94Z" fill="#195F3A" stroke="#195F3A" stroke-width="0.263422" stroke-linecap="round" stroke-linejoin="round"/>
</svg>
