<svg width="262" height="365" viewBox="0 0 262 365" fill="none" xmlns="http://www.w3.org/2000/svg">
<g filter="url(#filter0_d)">
<g clip-path="url(#clip0)">
<rect x="2" width="253.494" height="354.043" rx="10.6213" fill="white"/>
<circle cx="25.0127" cy="23.0132" r="8.32" fill="white" stroke="#757575" stroke-width="1.06213"/>
<path d="M25.0893 18.5896C26.1089 18.5896 26.7334 19.2651 26.7334 20.1318C26.7334 20.7946 26.504 21.1769 25.7265 21.8779L25.3697 22.1838C24.5667 22.8848 24.2226 23.5348 24.2226 24.4398V25.0643H25.204V24.5545C25.204 24.1594 25.2805 23.8407 25.4207 23.5986C25.5736 23.3564 25.8413 23.0633 26.2364 22.7446C26.8227 22.2475 27.2178 21.8269 27.4345 21.4828C27.6766 21.0622 27.8041 20.6161 27.8041 20.119C27.8041 19.3925 27.5492 18.7935 27.0393 18.3219C26.5295 17.8503 25.8795 17.6082 25.0893 17.6082C23.7765 17.6082 22.7059 18.3092 22.2598 19.5837L23.1774 20.0553C23.5216 19.0739 24.1588 18.5896 25.0893 18.5896ZM23.9677 27.0654C23.9677 27.486 24.3118 27.8173 24.7197 27.8173C25.1403 27.8173 25.4589 27.486 25.4589 27.0654C25.4589 26.6575 25.1403 26.3261 24.7197 26.3261C24.3118 26.3261 23.9677 26.6575 23.9677 27.0654Z" fill="#757575"/>
<rect x="2" y="60.1875" width="242.165" height="161.443" fill="white"/>
<path d="M203.804 87.3897L208.38 92.7594L216.55 82.8462" stroke="#9CE184" stroke-width="2.12426" stroke-linecap="round"/>
<path d="M15.4536 114.002L255.494 114.002" stroke="#EEEEEE" stroke-width="0.354043"/>
<path d="M15.4536 167.816L255.494 167.816" stroke="#EEEEEE" stroke-width="0.354043"/>
<path d="M17.7308 85.1369C18.6131 85.1369 19.3665 84.9089 19.9712 84.443C20.5858 83.9771 21.0121 83.412 21.2401 82.7478L20.5065 82.4009C20.0604 83.6202 19.1385 84.3637 17.7605 84.3637C16.8783 84.3637 16.1546 84.0564 15.5796 83.4517C15.0047 82.847 14.7172 82.0737 14.7172 81.1518C14.7172 80.2299 15.0146 79.4765 15.5995 78.8817C16.1943 78.2869 16.908 77.9895 17.7506 77.9895C18.4941 77.9895 19.0889 78.1779 19.535 78.5546C19.991 78.9214 20.3082 79.3873 20.4966 79.9325L21.2302 79.5954C21.022 78.9412 20.6155 78.386 20.0108 77.9201C19.4061 77.4542 18.6626 77.2163 17.7705 77.2163C16.6899 77.2163 15.768 77.593 15.0047 78.3464C14.2414 79.0899 13.8647 80.0415 13.8647 81.2014C13.8647 82.3513 14.2314 83.2931 14.9749 84.0366C15.7184 84.7701 16.6404 85.1369 17.7308 85.1369ZM27.088 85.0576V81.7863C27.088 80.5174 26.3544 79.6648 25.0855 79.6648C24.3024 79.6648 23.6977 80.0118 23.2714 80.7156V76.9883H22.4982V85.0576H23.2714V82.044C23.2714 81.5682 23.4201 81.1716 23.7175 80.8544C24.0149 80.5273 24.3916 80.3687 24.8476 80.3687C25.7993 80.3687 26.3148 80.9932 26.3148 81.9746V85.0576H27.088ZM33.4407 82.6487C33.4506 82.5991 33.4506 82.5099 33.4506 82.391C33.4506 81.588 33.2326 80.9436 32.7964 80.4381C32.3602 79.9325 31.7456 79.6748 30.9525 79.6748C30.2289 79.6748 29.6142 79.9424 29.1186 80.4876C28.6229 81.0329 28.3751 81.6673 28.3751 82.4009C28.3751 83.1642 28.6328 83.8185 29.1483 84.3538C29.6638 84.8792 30.2983 85.1468 31.0616 85.1468C32.0132 85.1468 32.8559 84.6512 33.3019 83.7788L32.727 83.4021C32.4197 84.0366 31.7951 84.4628 31.0517 84.4628C30.5362 84.4628 30.1 84.2943 29.7431 83.9473C29.3862 83.6004 29.188 83.1642 29.1582 82.6487H33.4407ZM29.1681 81.9944C29.2375 81.5384 29.4358 81.1518 29.7729 80.8346C30.1099 80.5075 30.5064 80.3489 30.9525 80.3489C31.9438 80.3489 32.5585 81.0031 32.6675 81.9944H29.1681ZM38.2925 83.5508C38.2925 83.2237 38.1636 82.9263 37.9158 82.6785C37.6283 82.3811 37.1624 82.163 36.5279 82.0242C35.5465 81.816 35.2888 81.6277 35.2888 81.1915C35.2888 80.9635 35.3978 80.7751 35.606 80.6066C35.8142 80.4381 36.0719 80.3588 36.3594 80.3588C36.9046 80.3588 37.321 80.6562 37.5985 81.251L38.233 80.904C37.8761 80.0812 37.2516 79.6748 36.3594 79.6748C35.8836 79.6748 35.4573 79.8235 35.0806 80.1208C34.7039 80.4182 34.5155 80.7949 34.5155 81.251C34.5155 81.5583 34.6147 81.816 34.803 82.044C35.0905 82.3711 35.4573 82.5397 36.181 82.6983C37.1425 82.9263 37.5093 83.1543 37.5093 83.6004C37.5093 84.1258 36.9839 84.4628 36.3792 84.4628C35.7547 84.4628 35.2789 84.1159 34.9517 83.4319L34.3173 83.7788C34.7237 84.6908 35.4176 85.1468 36.3891 85.1468C36.9344 85.1468 37.3904 84.9981 37.7472 84.7007C38.114 84.3934 38.2925 84.0167 38.2925 83.5508ZM41.458 85.0973C41.686 85.0973 41.8942 85.0675 42.0627 85.018V84.3736C41.9537 84.4033 41.7951 84.4133 41.5869 84.4133C41.0119 84.4133 40.7245 84.1654 40.7245 83.6698V80.448H42.0627V79.764H40.7245V78.2373H39.9611V79.764H38.9797V80.448H39.9611V83.6896C39.9611 84.6313 40.4568 85.0973 41.458 85.0973ZM50.8179 80.8445H47.1599V78.0589H51.1549V77.2956H46.347V85.0576H47.1599V81.5979H50.8179V80.8445ZM53.2145 76.9784H52.4314V85.0576H53.2145V76.9784ZM54.7697 77.8706C54.7697 78.1878 55.0275 78.4455 55.3447 78.4455C55.6718 78.4455 55.9296 78.1878 55.9296 77.8706C55.9296 77.5434 55.6718 77.2857 55.3447 77.2857C55.0275 77.2857 54.7697 77.5434 54.7697 77.8706ZM55.7412 79.764H54.9581V85.0576H55.7412V79.764ZM62.1638 82.6487C62.1737 82.5991 62.1737 82.5099 62.1737 82.391C62.1737 81.588 61.9556 80.9436 61.5195 80.4381C61.0833 79.9325 60.4687 79.6748 59.6756 79.6748C58.9519 79.6748 58.3373 79.9424 57.8417 80.4876C57.346 81.0329 57.0982 81.6673 57.0982 82.4009C57.0982 83.1642 57.3559 83.8185 57.8714 84.3538C58.3869 84.8792 59.0213 85.1468 59.7847 85.1468C60.7363 85.1468 61.5789 84.6512 62.025 83.7788L61.4501 83.4021C61.1428 84.0366 60.5182 84.4628 59.7747 84.4628C59.2593 84.4628 58.8231 84.2943 58.4662 83.9473C58.1093 83.6004 57.9111 83.1642 57.8813 82.6487H62.1638ZM57.8912 81.9944C57.9606 81.5384 58.1589 81.1518 58.4959 80.8346C58.833 80.5075 59.2295 80.3489 59.6756 80.3489C60.6669 80.3489 61.2815 81.0031 61.3906 81.9944H57.8912ZM67.0156 83.5508C67.0156 83.2237 66.8867 82.9263 66.6389 82.6785C66.3514 82.3811 65.8854 82.163 65.251 82.0242C64.2696 81.816 64.0119 81.6277 64.0119 81.1915C64.0119 80.9635 64.1209 80.7751 64.3291 80.6066C64.5373 80.4381 64.795 80.3588 65.0825 80.3588C65.6277 80.3588 66.0441 80.6562 66.3216 81.251L66.9561 80.904C66.5992 80.0812 65.9747 79.6748 65.0825 79.6748C64.6066 79.6748 64.1804 79.8235 63.8037 80.1208C63.427 80.4182 63.2386 80.7949 63.2386 81.251C63.2386 81.5583 63.3378 81.816 63.5261 82.044C63.8136 82.3711 64.1804 82.5397 64.904 82.6983C65.8656 82.9263 66.2324 83.1543 66.2324 83.6004C66.2324 84.1258 65.707 84.4628 65.1023 84.4628C64.4778 84.4628 64.0019 84.1159 63.6748 83.4319L63.0404 83.7788C63.4468 84.6908 64.1407 85.1468 65.1122 85.1468C65.6574 85.1468 66.1135 84.9981 66.4703 84.7007C66.8371 84.3934 67.0156 84.0167 67.0156 83.5508Z" fill="black"/>
<path d="M14.9523 89.8581H14.2555V96.5112H14.9523V89.8581ZM18.6748 94.234C18.6748 94.8798 18.8703 95.4321 19.2611 95.8909C19.6605 96.3498 20.1703 96.5792 20.7991 96.5792C21.5553 96.5792 22.1501 96.2308 22.5665 95.5426V96.5112H23.2122V89.5947H22.558V92.9255C22.0906 92.2372 21.5043 91.8973 20.7991 91.8973C20.1788 91.8973 19.669 92.1353 19.2696 92.6026C18.8703 93.0699 18.6748 93.6137 18.6748 94.234ZM20.935 95.9929C20.4507 95.9929 20.0683 95.823 19.7794 95.4916C19.4905 95.1517 19.3461 94.7354 19.3461 94.251C19.3461 93.7497 19.4905 93.3248 19.7794 92.9935C20.0683 92.6536 20.4507 92.4836 20.935 92.4836C21.3939 92.4836 21.7762 92.6621 22.0906 93.0105C22.405 93.3588 22.5665 93.7582 22.5665 94.2255C22.5665 94.7099 22.4135 95.1262 22.0991 95.4746C21.7932 95.823 21.4024 95.9929 20.935 95.9929ZM24.5535 90.3509C24.5535 90.6228 24.7744 90.8437 25.0463 90.8437C25.3267 90.8437 25.5477 90.6228 25.5477 90.3509C25.5477 90.0705 25.3267 89.8496 25.0463 89.8496C24.7744 89.8496 24.5535 90.0705 24.5535 90.3509ZM25.3862 91.9738H24.715V96.5112H25.3862V91.9738ZM26.5578 94.234C26.5578 94.8798 26.7532 95.4321 27.1441 95.8909C27.5435 96.3498 28.0533 96.5792 28.6821 96.5792C29.4383 96.5792 30.0331 96.2308 30.4495 95.5426V96.5112H31.0952V89.5947H30.441V92.9255C29.9736 92.2372 29.3873 91.8973 28.6821 91.8973C28.0618 91.8973 27.552 92.1353 27.1526 92.6026C26.7532 93.0699 26.5578 93.6137 26.5578 94.234ZM28.818 95.9929C28.3337 95.9929 27.9513 95.823 27.6624 95.4916C27.3735 95.1517 27.2291 94.7354 27.2291 94.251C27.2291 93.7497 27.3735 93.3248 27.6624 92.9935C27.9513 92.6536 28.3337 92.4836 28.818 92.4836C29.2769 92.4836 29.6592 92.6621 29.9736 93.0105C30.288 93.3588 30.4495 93.7582 30.4495 94.2255C30.4495 94.7099 30.2965 95.1262 29.9821 95.4746C29.6762 95.823 29.2854 95.9929 28.818 95.9929ZM36.2627 91.498V96.5112H37.6392V89.8581H36.5091L34.2489 91.1836L34.8607 92.2967L36.2627 91.498ZM43.6308 94.285C43.6308 93.6137 43.4269 93.0869 43.019 92.7216C42.6196 92.3477 42.1098 92.1608 41.498 92.1608C41.0647 92.1608 40.6653 92.3052 40.3 92.6026L40.5124 91.1071H43.3334V89.8581H39.4163L38.9319 93.2314L40.2235 93.7582C40.4954 93.4948 40.8013 93.3673 41.1327 93.3673C41.8209 93.3673 42.2458 93.7497 42.2458 94.319C42.2458 94.9308 41.8039 95.3047 41.1836 95.3047C40.5974 95.3047 40.181 95.0667 39.9261 94.5909L38.7535 95.2877C39.2038 96.1544 40.0026 96.5877 41.1497 96.5877C41.8634 96.5877 42.4582 96.3838 42.9255 95.9674C43.3929 95.5511 43.6308 94.9903 43.6308 94.285ZM47.1441 91.9738V96.5112H47.8069V94.2935C47.8069 93.8262 47.9173 93.4353 48.1468 93.1039C48.3762 92.7725 48.7331 92.6026 49.2259 92.6026C49.2854 92.6026 49.3703 92.6111 49.4808 92.6196V91.9143C49.4468 91.9058 49.3703 91.9058 49.2599 91.9058C48.6821 91.9058 48.1128 92.2202 47.7984 92.8745V91.9738H47.1441ZM54.2249 94.4465C54.2334 94.404 54.2334 94.3275 54.2334 94.2255C54.2334 93.5373 54.0465 92.985 53.6726 92.5516C53.2987 92.1183 52.7719 91.8973 52.0922 91.8973C51.4719 91.8973 50.9451 92.1268 50.5202 92.5941C50.0954 93.0614 49.8829 93.6052 49.8829 94.234C49.8829 94.8883 50.1039 95.4491 50.5457 95.9079C50.9876 96.3583 51.5314 96.5877 52.1856 96.5877C53.0013 96.5877 53.7236 96.1629 54.106 95.4151L53.6131 95.0922C53.3497 95.636 52.8144 96.0014 52.1771 96.0014C51.7353 96.0014 51.3614 95.857 51.0555 95.5596C50.7496 95.2622 50.5797 94.8883 50.5542 94.4465H54.2249ZM50.5627 93.8857C50.6222 93.4948 50.7921 93.1634 51.081 92.8915C51.3699 92.6111 51.7098 92.4751 52.0922 92.4751C52.9419 92.4751 53.4687 93.0359 53.5621 93.8857H50.5627ZM59.9215 94.234C59.9215 93.6137 59.7176 93.0699 59.3182 92.6026C58.9189 92.1353 58.409 91.8973 57.7887 91.8973C57.0665 91.8973 56.4802 92.2542 56.0299 92.9595V91.9738H55.3756V98.7459H56.0384V95.5766C56.4632 96.2478 57.0495 96.5792 57.7887 96.5792C58.409 96.5792 58.9189 96.3498 59.3182 95.8825C59.7176 95.4151 59.9215 94.8713 59.9215 94.234ZM57.6528 95.9929C57.1855 95.9929 56.7946 95.823 56.4887 95.4746C56.1828 95.1262 56.0299 94.7099 56.0299 94.2255C56.0299 93.7582 56.1828 93.3588 56.4972 93.0105C56.8116 92.6621 57.194 92.4836 57.6528 92.4836C58.1371 92.4836 58.5195 92.6536 58.8084 93.002C59.0973 93.3418 59.2417 93.7582 59.2417 94.251C59.2417 94.7523 59.0973 95.1687 58.8084 95.5001C58.528 95.8315 58.1371 95.9929 57.6528 95.9929ZM64.1008 95.2197C64.1008 94.9393 63.9903 94.6844 63.7779 94.4719C63.5315 94.217 63.1321 94.0301 62.5883 93.9111C61.7471 93.7327 61.5262 93.5713 61.5262 93.1974C61.5262 93.002 61.6196 92.8405 61.7981 92.6961C61.9765 92.5516 62.1974 92.4836 62.4439 92.4836C62.9112 92.4836 63.2681 92.7386 63.506 93.2484L64.0498 92.951C63.7439 92.2457 63.2086 91.8973 62.4439 91.8973C62.036 91.8973 61.6706 92.0248 61.3477 92.2797C61.0249 92.5346 60.8634 92.8575 60.8634 93.2484C60.8634 93.5118 60.9484 93.7327 61.1098 93.9281C61.3562 94.2085 61.6706 94.353 62.2909 94.4889C63.1151 94.6844 63.4295 94.8798 63.4295 95.2622C63.4295 95.7125 62.9792 96.0014 62.4609 96.0014C61.9255 96.0014 61.5177 95.704 61.2373 95.1177L60.6935 95.4151C61.0418 96.1968 61.6366 96.5877 62.4693 96.5877C62.9367 96.5877 63.3275 96.4602 63.6334 96.2053C63.9478 95.9419 64.1008 95.619 64.1008 95.2197ZM68.6421 96.5112H69.3728L70.5794 92.8235H70.5879L71.786 96.5112H72.5252L74.0547 91.9738H73.3664L72.1684 95.7465H72.1599L70.9193 91.9738H70.2565L69.0245 95.738H69.016L67.8264 91.9738H67.1211L68.6421 96.5112ZM74.8552 90.3509C74.8552 90.6228 75.0761 90.8437 75.348 90.8437C75.6284 90.8437 75.8494 90.6228 75.8494 90.3509C75.8494 90.0705 75.6284 89.8496 75.348 89.8496C75.0761 89.8496 74.8552 90.0705 74.8552 90.3509ZM75.6879 91.9738H75.0167V96.5112H75.6879V91.9738ZM78.7714 96.5452C78.9668 96.5452 79.1452 96.5197 79.2897 96.4772V95.9249C79.1962 95.9504 79.0602 95.9589 78.8818 95.9589C78.389 95.9589 78.1426 95.7465 78.1426 95.3216V92.5601H79.2897V91.9738H78.1426V90.6653H77.4883V91.9738H76.6471V92.5601H77.4883V95.3386C77.4883 96.1459 77.9132 96.5452 78.7714 96.5452ZM84.3444 96.5112V93.7072C84.3444 92.6196 83.7156 91.8889 82.628 91.8889C81.9567 91.8889 81.4384 92.1862 81.073 92.7895V89.5947H80.4103V96.5112H81.073V93.9281C81.073 93.5203 81.2005 93.1804 81.4554 92.9085C81.7103 92.6281 82.0332 92.4921 82.4241 92.4921C83.2398 92.4921 83.6816 93.0275 83.6816 93.8687V96.5112H84.3444ZM89.4437 91.498V96.5112H90.8203V89.8581H89.6902L87.4299 91.1836L88.0417 92.2967L89.4437 91.498ZM92.0195 93.1804C92.0195 94.0726 92.2575 94.8968 92.6993 95.5426C93.1496 96.1883 93.9144 96.5962 94.8575 96.5962C96.7694 96.5962 97.721 94.9053 97.721 93.1464C97.721 91.9313 97.3302 90.8947 96.4465 90.2489C96.0131 89.9175 95.4863 89.7561 94.883 89.7561C94.2627 89.7561 93.7274 89.926 93.2856 90.2574C92.8437 90.5888 92.5209 91.0052 92.3169 91.5065C92.1215 92.0078 92.0195 92.5686 92.0195 93.1804ZM93.5405 92.2287C93.634 91.9313 93.7954 91.6594 94.0248 91.43C94.2543 91.1921 94.5347 91.0731 94.866 91.0731C95.1974 91.0731 95.4778 91.1921 95.7072 91.43C96.3785 92.1013 96.455 93.2144 96.1916 94.1066C96.0981 94.4125 95.9367 94.6844 95.7072 94.9223C95.4778 95.1517 95.1974 95.2707 94.866 95.2707C94.5347 95.2707 94.2543 95.1517 94.0248 94.9223C93.3536 94.234 93.2771 93.0954 93.5405 92.2287ZM101.917 89.5862H101.246V96.5112H101.917V89.5862ZM107.958 94.234C107.958 93.6137 107.754 93.0699 107.355 92.6026C106.955 92.1353 106.445 91.8973 105.825 91.8973C105.111 91.8973 104.525 92.2457 104.075 92.951V89.5947H103.412V96.5112H104.066V95.5596C104.483 96.2393 105.069 96.5792 105.825 96.5792C106.445 96.5792 106.955 96.3498 107.355 95.8825C107.754 95.4151 107.958 94.8713 107.958 94.234ZM105.689 95.9929C105.222 95.9929 104.831 95.823 104.525 95.4746C104.219 95.1262 104.066 94.7099 104.066 94.2255C104.066 93.7582 104.219 93.3588 104.534 93.0105C104.848 92.6621 105.23 92.4836 105.689 92.4836C106.174 92.4836 106.556 92.6536 106.845 93.002C107.134 93.3418 107.278 93.7582 107.278 94.251C107.278 94.7523 107.134 95.1687 106.845 95.5001C106.564 95.8315 106.174 95.9929 105.689 95.9929ZM112.488 96.5112H113.219L114.425 92.8235H114.434L115.632 96.5112H116.371L117.901 91.9738H117.212L116.014 95.7465H116.006L114.765 91.9738H114.102L112.87 95.738H112.862L111.672 91.9738H110.967L112.488 96.5112ZM122.782 94.4465C122.79 94.404 122.79 94.3275 122.79 94.2255C122.79 93.5373 122.604 92.985 122.23 92.5516C121.856 92.1183 121.329 91.8973 120.649 91.8973C120.029 91.8973 119.502 92.1268 119.077 92.5941C118.652 93.0614 118.44 93.6052 118.44 94.234C118.44 94.8883 118.661 95.4491 119.103 95.9079C119.545 96.3583 120.088 96.5877 120.743 96.5877C121.558 96.5877 122.281 96.1629 122.663 95.4151L122.17 95.0922C121.907 95.636 121.371 96.0014 120.734 96.0014C120.292 96.0014 119.918 95.857 119.613 95.5596C119.307 95.2622 119.137 94.8883 119.111 94.4465H122.782ZM119.12 93.8857C119.179 93.4948 119.349 93.1634 119.638 92.8915C119.927 92.6111 120.267 92.4751 120.649 92.4751C121.499 92.4751 122.026 93.0359 122.119 93.8857H119.12ZM123.771 90.3509C123.771 90.6228 123.992 90.8437 124.264 90.8437C124.544 90.8437 124.765 90.6228 124.765 90.3509C124.765 90.0705 124.544 89.8496 124.264 89.8496C123.992 89.8496 123.771 90.0705 123.771 90.3509ZM124.604 91.9738H123.933V96.5112H124.604V91.9738ZM129.659 96.5537C129.659 97.6668 128.987 98.2021 128.036 98.2021C127.534 98.2021 127.135 98.0492 126.872 97.7773C126.608 97.5054 126.481 97.3184 126.336 97.0041L125.801 97.3184C126.234 98.2956 126.982 98.7799 128.044 98.7799C129.446 98.7799 130.321 97.9642 130.321 96.5282V91.9738H129.667V92.9255C129.208 92.2372 128.622 91.8973 127.9 91.8973C127.279 91.8973 126.77 92.1268 126.37 92.5941C125.971 93.0614 125.775 93.5968 125.775 94.217C125.775 94.8543 125.971 95.4066 126.362 95.857C126.753 96.3073 127.262 96.5282 127.9 96.5282C128.656 96.5282 129.242 96.1883 129.659 95.5001V96.5537ZM128.036 95.9504C127.551 95.9504 127.169 95.789 126.88 95.4576C126.6 95.1262 126.455 94.7184 126.455 94.234C126.455 93.7327 126.6 93.3164 126.88 92.985C127.16 92.6536 127.551 92.4836 128.036 92.4836C128.495 92.4836 128.877 92.6536 129.191 93.002C129.506 93.3503 129.667 93.7497 129.667 94.2085C129.667 94.6844 129.514 95.0922 129.2 95.4406C128.894 95.7805 128.503 95.9504 128.036 95.9504ZM135.75 96.5112V93.7072C135.75 92.6196 135.121 91.8889 134.033 91.8889C133.362 91.8889 132.844 92.1862 132.478 92.7895V89.5947H131.816V96.5112H132.478V93.9281C132.478 93.5203 132.606 93.1804 132.861 92.9085C133.116 92.6281 133.439 92.4921 133.829 92.4921C134.645 92.4921 135.087 93.0275 135.087 93.8687V96.5112H135.75ZM138.732 96.5452C138.927 96.5452 139.106 96.5197 139.25 96.4772V95.9249C139.157 95.9504 139.021 95.9589 138.842 95.9589C138.349 95.9589 138.103 95.7465 138.103 95.3216V92.5601H139.25V91.9738H138.103V90.6653H137.449V91.9738H136.608V92.5601H137.449V95.3386C137.449 96.1459 137.874 96.5452 138.732 96.5452ZM143.379 95.2197C143.379 94.9393 143.268 94.6844 143.056 94.4719C142.809 94.217 142.41 94.0301 141.866 93.9111C141.025 93.7327 140.804 93.5713 140.804 93.1974C140.804 93.002 140.898 92.8405 141.076 92.6961C141.254 92.5516 141.475 92.4836 141.722 92.4836C142.189 92.4836 142.546 92.7386 142.784 93.2484L143.328 92.951C143.022 92.2457 142.486 91.8973 141.722 91.8973C141.314 91.8973 140.949 92.0248 140.626 92.2797C140.303 92.5346 140.141 92.8575 140.141 93.2484C140.141 93.5118 140.226 93.7327 140.388 93.9281C140.634 94.2085 140.949 94.353 141.569 94.4889C142.393 94.6844 142.707 94.8798 142.707 95.2622C142.707 95.7125 142.257 96.0014 141.739 96.0014C141.203 96.0014 140.796 95.704 140.515 95.1177L139.971 95.4151C140.32 96.1968 140.915 96.5877 141.747 96.5877C142.215 96.5877 142.605 96.4602 142.911 96.2053C143.226 95.9419 143.379 95.619 143.379 95.2197ZM145.003 95.3641C144.663 95.3641 144.391 95.636 144.391 95.9759C144.391 96.3158 144.663 96.5877 145.003 96.5877C145.334 96.5877 145.606 96.3158 145.606 95.9759C145.606 95.636 145.334 95.3641 145.003 95.3641Z" fill="#828282"/>
<path d="M34.2234 97.3609H44.0217V97.7858H34.2234V97.3609ZM87.4045 97.3609H98.1289V97.7858H87.4045V97.3609Z" fill="#828282"/>
<path d="M14.4099 138.872H17.2946C18.0877 138.872 18.7419 138.694 19.2574 138.337C19.7828 137.98 20.0406 137.445 20.0406 136.741C20.0406 136.374 19.9117 135.997 19.6639 135.611C19.416 135.224 19.0294 134.966 18.5139 134.837C19.0195 134.609 19.3863 134.253 19.5152 133.896C19.6639 133.529 19.6936 133.301 19.6936 133.063C19.6936 132.448 19.4557 131.972 18.9898 131.626C18.5239 131.279 17.9291 131.11 17.1955 131.11H14.4099V138.872ZM15.2129 131.854H17.1261C18.1174 131.854 18.8708 132.27 18.8708 133.152C18.8708 133.975 18.2859 134.56 17.0666 134.56H15.2129V131.854ZM15.2129 135.283H17.1658C17.8398 135.283 18.4247 135.393 18.8708 135.839C19.0988 136.057 19.2079 136.334 19.2079 136.681C19.2079 137.187 19.0195 137.554 18.6329 137.782C18.2562 138.01 17.82 138.129 17.3144 138.129H15.2129V135.283ZM21.2837 131.685C21.2837 132.002 21.5414 132.26 21.8586 132.26C22.1858 132.26 22.4435 132.002 22.4435 131.685C22.4435 131.358 22.1858 131.1 21.8586 131.1C21.5414 131.1 21.2837 131.358 21.2837 131.685ZM22.2552 133.578H21.472V138.872H22.2552V133.578ZM24.4052 136.196C24.4052 135.63 24.5836 135.155 24.9405 134.768C25.3073 134.371 25.7633 134.173 26.3184 134.173C27.1908 134.173 27.736 134.669 27.9739 135.333L28.648 135.036C28.3407 134.153 27.508 133.489 26.3184 133.489C25.565 133.489 24.9207 133.757 24.3953 134.282C23.8699 134.808 23.6121 135.462 23.6121 136.225C23.6121 137.008 23.8699 137.663 24.3853 138.188C24.9107 138.704 25.5452 138.961 26.3085 138.961C27.508 138.961 28.3407 138.297 28.6678 137.385L27.9937 137.088C27.6864 137.881 27.1214 138.277 26.3184 138.277C25.7534 138.277 25.2974 138.069 24.9405 137.663C24.5836 137.256 24.4052 136.761 24.4052 136.196ZM31.5036 138.515L30.1355 141.479H30.9682L34.5965 133.578H33.7638L31.9298 137.673L29.9868 133.578H29.0947L31.5036 138.515ZM35.8673 136.196C35.8673 135.63 36.0457 135.155 36.4026 134.768C36.7694 134.371 37.2254 134.173 37.7805 134.173C38.6529 134.173 39.1981 134.669 39.436 135.333L40.1101 135.036C39.8028 134.153 38.9701 133.489 37.7805 133.489C37.0271 133.489 36.3828 133.757 35.8574 134.282C35.332 134.808 35.0742 135.462 35.0742 136.225C35.0742 137.008 35.332 137.663 35.8475 138.188C36.3729 138.704 37.0073 138.961 37.7706 138.961C38.9701 138.961 39.8028 138.297 40.13 137.385L39.4559 137.088C39.1486 137.881 38.5835 138.277 37.7805 138.277C37.2155 138.277 36.7595 138.069 36.4026 137.663C36.0457 137.256 35.8673 136.761 35.8673 136.196ZM42.188 130.793H41.4049V138.872H42.188V130.793ZM48.6106 136.463C48.6205 136.414 48.6205 136.324 48.6205 136.205C48.6205 135.402 48.4025 134.758 47.9663 134.253C47.5301 133.747 46.9155 133.489 46.1224 133.489C45.3988 133.489 44.7841 133.757 44.2885 134.302C43.7928 134.847 43.545 135.482 43.545 136.215C43.545 136.979 43.8027 137.633 44.3182 138.168C44.8337 138.694 45.4681 138.961 46.2315 138.961C47.1831 138.961 48.0257 138.466 48.4718 137.593L47.8969 137.217C47.5896 137.851 46.965 138.277 46.2215 138.277C45.7061 138.277 45.2699 138.109 44.913 137.762C44.5561 137.415 44.3579 136.979 44.3281 136.463H48.6106ZM44.338 135.809C44.4074 135.353 44.6057 134.966 44.9427 134.649C45.2798 134.322 45.6763 134.163 46.1224 134.163C47.1137 134.163 47.7284 134.818 47.8374 135.809H44.338ZM56.2509 138.951C57.1332 138.951 57.8866 138.723 58.4913 138.257C59.1059 137.792 59.5322 137.226 59.7602 136.562L59.0266 136.215C58.5805 137.435 57.6586 138.178 56.2806 138.178C55.3984 138.178 54.6747 137.871 54.0997 137.266C53.5248 136.661 53.2373 135.888 53.2373 134.966C53.2373 134.044 53.5347 133.291 54.1196 132.696C54.7144 132.101 55.4281 131.804 56.2707 131.804C57.0142 131.804 57.609 131.992 58.0551 132.369C58.5111 132.736 58.8283 133.202 59.0167 133.747L59.7503 133.41C59.5421 132.756 59.1356 132.2 58.5309 131.735C57.9262 131.269 57.1828 131.031 56.2906 131.031C55.21 131.031 54.2881 131.407 53.5248 132.161C52.7615 132.904 52.3848 133.856 52.3848 135.016C52.3848 136.166 52.7516 137.108 53.495 137.851C54.2385 138.585 55.1605 138.951 56.2509 138.951ZM61.0183 133.578V138.872H61.7915V136.285C61.7915 135.74 61.9204 135.283 62.1881 134.897C62.4557 134.51 62.8721 134.312 63.447 134.312C63.5164 134.312 63.6156 134.322 63.7444 134.332V133.509C63.7048 133.499 63.6156 133.499 63.4867 133.499C62.8126 133.499 62.1484 133.866 61.7816 134.629V133.578H61.0183ZM64.7247 133.578V136.85C64.7247 138.119 65.4583 138.971 66.7271 138.971C67.5301 138.971 68.1348 138.614 68.5413 137.901V138.872H69.2947V133.578H68.5313V136.602C68.5313 137.078 68.3826 137.474 68.0852 137.792C67.7879 138.109 67.4111 138.267 66.9551 138.267C66.0035 138.267 65.488 137.643 65.488 136.661V133.578H64.7247ZM75.6375 138.872V135.601C75.6375 134.332 74.9039 133.479 73.635 133.479C72.832 133.479 72.2273 133.836 71.811 134.55V133.578H71.0477V138.872H71.8209V135.858C71.8209 135.383 71.9696 134.986 72.267 134.669C72.5644 134.342 72.9411 134.183 73.3971 134.183C74.3488 134.183 74.8642 134.808 74.8642 135.789V138.872H75.6375ZM77.7176 136.196C77.7176 135.63 77.8961 135.155 78.2529 134.768C78.6197 134.371 79.0757 134.173 79.6309 134.173C80.5032 134.173 81.0485 134.669 81.2864 135.333L81.9605 135.036C81.6532 134.153 80.8204 133.489 79.6309 133.489C78.8775 133.489 78.2331 133.757 77.7077 134.282C77.1823 134.808 76.9246 135.462 76.9246 136.225C76.9246 137.008 77.1823 137.663 77.6978 138.188C78.2232 138.704 78.8576 138.961 79.621 138.961C80.8204 138.961 81.6532 138.297 81.9803 137.385L81.3062 137.088C80.9989 137.881 80.4338 138.277 79.6309 138.277C79.0658 138.277 78.6098 138.069 78.2529 137.663C77.8961 137.256 77.7176 136.761 77.7176 136.196ZM87.845 138.872V135.601C87.845 134.332 87.1115 133.479 85.8426 133.479C85.0594 133.479 84.4547 133.826 84.0284 134.53V130.803H83.2552V138.872H84.0284V135.858C84.0284 135.383 84.1771 134.986 84.4745 134.669C84.7719 134.342 85.1486 134.183 85.6046 134.183C86.5563 134.183 87.0718 134.808 87.0718 135.789V138.872H87.845Z" fill="black"/>
<path d="M14.9523 143.673H14.2555V150.326H14.9523V143.673ZM18.6748 148.048C18.6748 148.694 18.8703 149.247 19.2611 149.705C19.6605 150.164 20.1703 150.394 20.7991 150.394C21.5553 150.394 22.1501 150.045 22.5665 149.357V150.326H23.2122V143.409H22.558V146.74C22.0906 146.052 21.5043 145.712 20.7991 145.712C20.1788 145.712 19.669 145.95 19.2696 146.417C18.8703 146.884 18.6748 147.428 18.6748 148.048ZM20.935 149.807C20.4507 149.807 20.0683 149.637 19.7794 149.306C19.4905 148.966 19.3461 148.55 19.3461 148.065C19.3461 147.564 19.4905 147.139 19.7794 146.808C20.0683 146.468 20.4507 146.298 20.935 146.298C21.3939 146.298 21.7762 146.477 22.0906 146.825C22.405 147.173 22.5665 147.573 22.5665 148.04C22.5665 148.524 22.4135 148.941 22.0991 149.289C21.7932 149.637 21.4024 149.807 20.935 149.807ZM24.5535 144.165C24.5535 144.437 24.7744 144.658 25.0463 144.658C25.3267 144.658 25.5477 144.437 25.5477 144.165C25.5477 143.885 25.3267 143.664 25.0463 143.664C24.7744 143.664 24.5535 143.885 24.5535 144.165ZM25.3862 145.788H24.715V150.326H25.3862V145.788ZM26.5578 148.048C26.5578 148.694 26.7532 149.247 27.1441 149.705C27.5435 150.164 28.0533 150.394 28.6821 150.394C29.4383 150.394 30.0331 150.045 30.4495 149.357V150.326H31.0952V143.409H30.441V146.74C29.9736 146.052 29.3873 145.712 28.6821 145.712C28.0618 145.712 27.552 145.95 27.1526 146.417C26.7532 146.884 26.5578 147.428 26.5578 148.048ZM28.818 149.807C28.3337 149.807 27.9513 149.637 27.6624 149.306C27.3735 148.966 27.2291 148.55 27.2291 148.065C27.2291 147.564 27.3735 147.139 27.6624 146.808C27.9513 146.468 28.3337 146.298 28.818 146.298C29.2769 146.298 29.6592 146.477 29.9736 146.825C30.288 147.173 30.4495 147.573 30.4495 148.04C30.4495 148.524 30.2965 148.941 29.9821 149.289C29.6762 149.637 29.2854 149.807 28.818 149.807ZM36.2627 145.312V150.326H37.6392V143.673H36.5091L34.2489 144.998L34.8607 146.111L36.2627 145.312ZM38.8215 150.326H43.6903V149.068H40.8183L41.9399 148.176C42.5772 147.675 43.0275 147.258 43.2739 146.927C43.5288 146.595 43.6563 146.196 43.6563 145.72C43.6563 145.109 43.4439 144.599 43.0105 144.191C42.5772 143.774 42.0079 143.571 41.2941 143.571C40.7248 143.571 40.215 143.707 39.7646 143.978C39.3228 144.242 39.0254 144.641 38.864 145.159L40.13 145.695C40.3509 145.143 40.7333 144.862 41.2856 144.862C41.8294 144.862 42.2373 145.253 42.2373 145.729C42.2373 145.975 42.1608 146.196 41.9994 146.4C41.8379 146.604 41.5575 146.876 41.1412 147.216L38.8215 149.119V150.326ZM47.2769 145.788V150.326H47.9396V148.108C47.9396 147.641 48.0501 147.25 48.2795 146.918C48.5089 146.587 48.8658 146.417 49.3586 146.417C49.4181 146.417 49.5031 146.426 49.6136 146.434V145.729C49.5796 145.72 49.5031 145.72 49.3926 145.72C48.8148 145.72 48.2455 146.035 47.9311 146.689V145.788H47.2769ZM54.3577 148.261C54.3662 148.218 54.3662 148.142 54.3662 148.04C54.3662 147.352 54.1792 146.799 53.8054 146.366C53.4315 145.933 52.9047 145.712 52.2249 145.712C51.6046 145.712 51.0778 145.941 50.653 146.409C50.2281 146.876 50.0157 147.42 50.0157 148.048C50.0157 148.703 50.2366 149.264 50.6785 149.722C51.1203 150.173 51.6641 150.402 52.3184 150.402C53.1341 150.402 53.8564 149.977 54.2387 149.23L53.7459 148.907C53.4825 149.45 52.9472 149.816 52.3099 149.816C51.8681 149.816 51.4942 149.671 51.1883 149.374C50.8824 149.077 50.7125 148.703 50.687 148.261H54.3577ZM50.6955 147.7C50.7549 147.309 50.9249 146.978 51.2138 146.706C51.5027 146.426 51.8426 146.29 52.2249 146.29C53.0746 146.29 53.6014 146.85 53.6949 147.7H50.6955ZM60.0543 148.048C60.0543 147.428 59.8503 146.884 59.451 146.417C59.0516 145.95 58.5418 145.712 57.9215 145.712C57.1993 145.712 56.613 146.069 56.1626 146.774V145.788H55.5084V152.56H56.1711V149.391C56.596 150.062 57.1823 150.394 57.9215 150.394C58.5418 150.394 59.0516 150.164 59.451 149.697C59.8503 149.23 60.0543 148.686 60.0543 148.048ZM57.7856 149.807C57.3182 149.807 56.9274 149.637 56.6215 149.289C56.3156 148.941 56.1626 148.524 56.1626 148.04C56.1626 147.573 56.3156 147.173 56.63 146.825C56.9444 146.477 57.3267 146.298 57.7856 146.298C58.2699 146.298 58.6523 146.468 58.9412 146.816C59.2301 147.156 59.3745 147.573 59.3745 148.065C59.3745 148.567 59.2301 148.983 58.9412 149.315C58.6608 149.646 58.2699 149.807 57.7856 149.807ZM64.2335 149.034C64.2335 148.754 64.1231 148.499 63.9107 148.286C63.6642 148.031 63.2649 147.845 62.7211 147.726C61.8799 147.547 61.6589 147.386 61.6589 147.012C61.6589 146.816 61.7524 146.655 61.9309 146.511C62.1093 146.366 62.3302 146.298 62.5766 146.298C63.044 146.298 63.4008 146.553 63.6388 147.063L64.1826 146.765C63.8767 146.06 63.3414 145.712 62.5766 145.712C62.1688 145.712 61.8034 145.839 61.4805 146.094C61.1576 146.349 60.9962 146.672 60.9962 147.063C60.9962 147.326 61.0811 147.547 61.2426 147.743C61.489 148.023 61.8034 148.167 62.4237 148.303C63.2479 148.499 63.5623 148.694 63.5623 149.077C63.5623 149.527 63.1119 149.816 62.5936 149.816C62.0583 149.816 61.6504 149.518 61.37 148.932L60.8262 149.23C61.1746 150.011 61.7694 150.402 62.6021 150.402C63.0695 150.402 63.4603 150.275 63.7662 150.02C64.0806 149.756 64.2335 149.433 64.2335 149.034ZM65.603 151.626C66.2062 151.192 66.5121 150.666 66.5121 150.045V150.011C66.5121 149.51 66.2402 149.179 65.8409 149.179C65.5095 149.179 65.2461 149.442 65.2461 149.782C65.2461 150.122 65.4755 150.343 65.8069 150.343C65.8749 150.343 65.9428 150.326 66.0108 150.3C65.9598 150.649 65.7134 150.988 65.2716 151.32L65.603 151.626ZM74.2394 148.261C74.2479 148.218 74.2479 148.142 74.2479 148.04C74.2479 147.352 74.0609 146.799 73.6871 146.366C73.3132 145.933 72.7864 145.712 72.1066 145.712C71.4863 145.712 70.9595 145.941 70.5347 146.409C70.1098 146.876 69.8974 147.42 69.8974 148.048C69.8974 148.703 70.1183 149.264 70.5602 149.722C71.002 150.173 71.5458 150.402 72.2001 150.402C73.0158 150.402 73.7381 149.977 74.1204 149.23L73.6276 148.907C73.3642 149.45 72.8289 149.816 72.1916 149.816C71.7498 149.816 71.3759 149.671 71.07 149.374C70.7641 149.077 70.5942 148.703 70.5687 148.261H74.2394ZM70.5772 147.7C70.6366 147.309 70.8066 146.978 71.0955 146.706C71.3844 146.426 71.7243 146.29 72.1066 146.29C72.9563 146.29 73.4831 146.85 73.5766 147.7H70.5772ZM76.8685 147.709C76.3927 147.709 75.9764 147.819 75.611 148.031C75.2541 148.244 75.0757 148.567 75.0757 149.017V149.068C75.0757 149.45 75.2116 149.773 75.492 150.028C75.7724 150.275 76.1463 150.402 76.5966 150.402C77.2424 150.402 77.7522 150.113 78.1261 149.527H78.1346V150.326H78.7804V147.394C78.7804 147.114 78.7379 146.867 78.6444 146.646C78.3725 146.026 77.8202 145.712 76.9875 145.712C76.0868 145.712 75.4665 146.103 75.1267 146.884L75.6705 147.19C75.9509 146.595 76.3842 146.298 76.9705 146.298C77.7437 146.298 78.1261 146.663 78.1261 147.403V147.709H76.8685ZM78.1261 148.414C78.1261 148.83 77.9902 149.162 77.7267 149.425C77.4633 149.688 77.1235 149.816 76.7156 149.816C76.1463 149.816 75.7384 149.518 75.7384 149.017C75.7639 148.422 76.3417 148.244 76.86 148.252H78.1261V148.414ZM80.5678 148.031C80.5678 147.547 80.7207 147.139 81.0266 146.808C81.341 146.468 81.7319 146.298 82.2077 146.298C82.9555 146.298 83.4228 146.723 83.6267 147.292L84.2045 147.037C83.9411 146.281 83.2274 145.712 82.2077 145.712C81.562 145.712 81.0096 145.941 80.5593 146.392C80.109 146.842 79.888 147.403 79.888 148.057C79.888 148.728 80.109 149.289 80.5508 149.739C81.0012 150.181 81.545 150.402 82.1992 150.402C83.2274 150.402 83.9411 149.833 84.2215 149.051L83.6437 148.796C83.3803 149.476 82.896 149.816 82.2077 149.816C81.7234 149.816 81.3325 149.637 81.0266 149.289C80.7207 148.941 80.5678 148.516 80.5678 148.031ZM89.2484 150.326V147.522C89.2484 146.434 88.6197 145.703 87.532 145.703C86.8608 145.703 86.3425 146.001 85.9771 146.604V143.409H85.3143V150.326H85.9771V147.743C85.9771 147.335 86.1045 146.995 86.3595 146.723C86.6144 146.443 86.9373 146.307 87.3281 146.307C88.1438 146.307 88.5857 146.842 88.5857 147.683V150.326H89.2484ZM96.0642 149.034C96.0642 148.754 95.9537 148.499 95.7413 148.286C95.4949 148.031 95.0955 147.845 94.5517 147.726C93.7105 147.547 93.4896 147.386 93.4896 147.012C93.4896 146.816 93.583 146.655 93.7615 146.511C93.9399 146.366 94.1608 146.298 94.4073 146.298C94.8746 146.298 95.2315 146.553 95.4694 147.063L96.0132 146.765C95.7073 146.06 95.172 145.712 94.4073 145.712C93.9994 145.712 93.634 145.839 93.3111 146.094C92.9883 146.349 92.8268 146.672 92.8268 147.063C92.8268 147.326 92.9118 147.547 93.0732 147.743C93.3196 148.023 93.634 148.167 94.2543 148.303C95.0785 148.499 95.3929 148.694 95.3929 149.077C95.3929 149.527 94.9426 149.816 94.4243 149.816C93.8889 149.816 93.4811 149.518 93.2007 148.932L92.6569 149.23C93.0053 150.011 93.6 150.402 94.4327 150.402C94.9001 150.402 95.2909 150.275 95.5968 150.02C95.9112 149.756 96.0642 149.433 96.0642 149.034ZM97.0852 144.165C97.0852 144.437 97.3061 144.658 97.578 144.658C97.8584 144.658 98.0794 144.437 98.0794 144.165C98.0794 143.885 97.8584 143.664 97.578 143.664C97.3061 143.664 97.0852 143.885 97.0852 144.165ZM97.9179 145.788H97.2467V150.326H97.9179V145.788ZM99.0895 148.048C99.0895 148.694 99.2849 149.247 99.6758 149.705C100.075 150.164 100.585 150.394 101.214 150.394C101.97 150.394 102.565 150.045 102.981 149.357V150.326H103.627V143.409H102.973V146.74C102.505 146.052 101.919 145.712 101.214 145.712C100.593 145.712 100.084 145.95 99.6843 146.417C99.2849 146.884 99.0895 147.428 99.0895 148.048ZM101.35 149.807C100.865 149.807 100.483 149.637 100.194 149.306C99.9052 148.966 99.7608 148.55 99.7608 148.065C99.7608 147.564 99.9052 147.139 100.194 146.808C100.483 146.468 100.865 146.298 101.35 146.298C101.809 146.298 102.191 146.477 102.505 146.825C102.82 147.173 102.981 147.573 102.981 148.04C102.981 148.524 102.828 148.941 102.514 149.289C102.208 149.637 101.817 149.807 101.35 149.807ZM109.14 148.261C109.149 148.218 109.149 148.142 109.149 148.04C109.149 147.352 108.962 146.799 108.588 146.366C108.214 145.933 107.687 145.712 107.007 145.712C106.387 145.712 105.86 145.941 105.436 146.409C105.011 146.876 104.798 147.42 104.798 148.048C104.798 148.703 105.019 149.264 105.461 149.722C105.903 150.173 106.447 150.402 107.101 150.402C107.917 150.402 108.639 149.977 109.021 149.23L108.528 148.907C108.265 149.45 107.73 149.816 107.092 149.816C106.651 149.816 106.277 149.671 105.971 149.374C105.665 149.077 105.495 148.703 105.47 148.261H109.14ZM105.478 147.7C105.537 147.309 105.707 146.978 105.996 146.706C106.285 146.426 106.625 146.29 107.007 146.29C107.857 146.29 108.384 146.85 108.477 147.7H105.478ZM110.733 149.179C110.393 149.179 110.121 149.45 110.121 149.79C110.121 150.13 110.393 150.402 110.733 150.402C111.064 150.402 111.336 150.13 111.336 149.79C111.336 149.45 111.064 149.179 110.733 149.179Z" fill="#828282"/>
<path d="M34.2234 151.175H44.1576V151.6H34.2234V151.175Z" fill="#828282"/>
<path d="M16.5016 192.766C17.255 192.766 17.8597 192.558 18.3157 192.131C18.7717 191.705 18.9997 191.19 18.9997 190.595C18.9997 190.109 18.8213 189.673 18.4644 189.286C18.0778 188.86 17.4235 188.533 16.5115 188.305C15.3318 187.998 14.856 187.621 14.856 186.917C14.856 186.53 15.0146 186.213 15.3318 185.965C15.649 185.718 16.0257 185.599 16.4619 185.599C17.3144 185.599 17.9092 186.015 18.2364 186.838L18.9303 186.451C18.5635 185.47 17.711 184.835 16.4817 184.835C15.8076 184.835 15.2327 185.034 14.7568 185.42C14.281 185.807 14.0431 186.312 14.0431 186.957C14.0431 188.037 14.7767 188.721 16.3628 189.108C17.5524 189.395 18.167 189.861 18.167 190.654C18.167 191.051 18.0084 191.378 17.6812 191.626C17.364 191.874 16.9675 192.003 16.5016 192.003C15.5003 192.003 14.9155 191.467 14.5189 190.506L13.8151 190.872C14.2909 192.131 15.1831 192.766 16.5016 192.766ZM20.367 187.393V190.664C20.367 191.933 21.1006 192.786 22.3695 192.786C23.1724 192.786 23.7772 192.429 24.1836 191.715V192.687H24.937V187.393H24.1737V190.416C24.1737 190.892 24.025 191.289 23.7276 191.606C23.4302 191.923 23.0535 192.082 22.5975 192.082C21.6458 192.082 21.1303 191.457 21.1303 190.476V187.393H20.367ZM31.9936 190.03C31.9936 189.306 31.7556 188.672 31.2897 188.126C30.8238 187.581 30.229 187.304 29.5054 187.304C28.6627 187.304 27.9787 187.72 27.4533 188.543V187.393H26.69V195.294H27.4632V191.596C27.9589 192.379 28.6429 192.766 29.5054 192.766C30.229 192.766 30.8238 192.498 31.2897 191.953C31.7556 191.408 31.9936 190.773 31.9936 190.03ZM29.3467 192.082C28.8015 192.082 28.3455 191.884 27.9886 191.477C27.6318 191.071 27.4533 190.585 27.4533 190.02C27.4533 189.475 27.6318 189.009 27.9985 188.602C28.3653 188.196 28.8114 187.988 29.3467 187.988C29.9118 187.988 30.3579 188.186 30.6949 188.592C31.032 188.989 31.2005 189.475 31.2005 190.05C31.2005 190.634 31.032 191.12 30.6949 191.507C30.3678 191.893 29.9118 192.082 29.3467 192.082ZM38.0391 190.278C38.0491 190.228 38.0491 190.139 38.0491 190.02C38.0491 189.217 37.831 188.573 37.3948 188.067C36.9586 187.561 36.344 187.304 35.5509 187.304C34.8273 187.304 34.2126 187.571 33.717 188.117C33.2213 188.662 32.9735 189.296 32.9735 190.03C32.9735 190.793 33.2312 191.447 33.7467 191.983C34.2622 192.508 34.8967 192.776 35.66 192.776C36.6116 192.776 37.4543 192.28 37.9004 191.408L37.3254 191.031C37.0181 191.665 36.3935 192.092 35.6501 192.092C35.1346 192.092 34.6984 191.923 34.3415 191.576C33.9846 191.229 33.7864 190.793 33.7566 190.278H38.0391ZM33.7666 189.623C33.8359 189.167 34.0342 188.781 34.3713 188.464C34.7083 188.136 35.1048 187.978 35.5509 187.978C36.5422 187.978 37.1569 188.632 37.2659 189.623H33.7666ZM39.3816 187.393V192.687H40.1548V190.099C40.1548 189.554 40.2837 189.098 40.5514 188.711C40.819 188.325 41.2354 188.126 41.8103 188.126C41.8797 188.126 41.9789 188.136 42.1077 188.146V187.323C42.0681 187.314 41.9789 187.314 41.85 187.314C41.1759 187.314 40.5117 187.68 40.1449 188.444V187.393H39.3816ZM47.5192 192.687V189.643C47.5192 189.177 47.648 188.791 47.9157 188.483C48.1834 188.166 48.5402 188.007 48.9863 188.007C49.9082 188.007 50.3543 188.652 50.3543 189.604V192.687H51.1276V189.415C51.1276 188.146 50.4138 187.304 49.1747 187.304C48.3915 187.304 47.767 187.651 47.311 188.354C46.9839 187.651 46.4188 187.294 45.6158 187.294C44.8624 187.294 44.3569 187.631 43.9108 188.315V187.393H43.1475V192.687H43.9207V189.673C43.9207 189.217 44.0496 188.82 44.3172 188.493C44.5849 188.166 44.9417 187.998 45.3878 187.998C46.2998 187.998 46.7559 188.662 46.7559 189.584V192.687H47.5192ZM54.5338 189.633C53.9787 189.633 53.493 189.762 53.0667 190.01C52.6503 190.258 52.4422 190.634 52.4422 191.16V191.219C52.4422 191.665 52.6008 192.042 52.9279 192.34C53.255 192.627 53.6912 192.776 54.2166 192.776C54.97 192.776 55.5648 192.439 56.001 191.755H56.0109V192.687H56.7643V189.266C56.7643 188.939 56.7147 188.652 56.6057 188.394C56.2885 187.67 55.6441 187.304 54.6726 187.304C53.6218 187.304 52.8982 187.76 52.5016 188.672L53.1361 189.029C53.4632 188.335 53.9688 187.988 54.6528 187.988C55.5549 187.988 56.001 188.414 56.001 189.276V189.633H54.5338ZM56.001 190.456C56.001 190.942 55.8424 191.328 55.5351 191.636C55.2278 191.943 54.8312 192.092 54.3554 192.092C53.6912 192.092 53.2154 191.745 53.2154 191.16C53.2451 190.466 53.9192 190.258 54.5239 190.268H56.001V190.456ZM63.033 192.687V189.415C63.033 188.146 62.2994 187.294 61.0305 187.294C60.2276 187.294 59.6229 187.651 59.2065 188.364V187.393H58.4432V192.687H59.2164V189.673C59.2164 189.197 59.3651 188.801 59.6625 188.483C59.9599 188.156 60.3366 187.998 60.7926 187.998C61.7443 187.998 62.2598 188.622 62.2598 189.604V192.687H63.033ZM68.6254 192.687H69.4779L70.8856 188.384H70.8955L72.2932 192.687H73.1557L74.9401 187.393H74.1371L72.7393 191.794H72.7294L71.2821 187.393H70.5089L69.0715 191.784H69.0615L67.6737 187.393H66.8509L68.6254 192.687ZM75.874 185.499C75.874 185.817 76.1317 186.074 76.449 186.074C76.7761 186.074 77.0338 185.817 77.0338 185.499C77.0338 185.172 76.7761 184.915 76.449 184.915C76.1317 184.915 75.874 185.172 75.874 185.499ZM76.8455 187.393H76.0623V192.687H76.8455V187.393ZM80.4428 192.726C80.6708 192.726 80.879 192.696 81.0475 192.647V192.003C80.9385 192.032 80.7799 192.042 80.5717 192.042C79.9967 192.042 79.7092 191.794 79.7092 191.299V188.077H81.0475V187.393H79.7092V185.866H78.9459V187.393H77.9645V188.077H78.9459V191.319C78.9459 192.26 79.4416 192.726 80.4428 192.726ZM86.9447 192.687V189.415C86.9447 188.146 86.2111 187.294 84.9422 187.294C84.1591 187.294 83.5544 187.641 83.1281 188.345V184.617H82.3549V192.687H83.1281V189.673C83.1281 189.197 83.2768 188.801 83.5742 188.483C83.8716 188.156 84.2483 187.998 84.7043 187.998C85.656 187.998 86.1715 188.622 86.1715 189.604V192.687H86.9447ZM92.4082 192.687V189.653H94.0538C94.9559 189.653 95.6597 189.425 96.1653 188.979C96.6709 188.523 96.9187 187.948 96.9187 187.254C96.9187 186.6 96.6907 186.045 96.2248 185.599C95.7588 185.152 95.0848 184.924 94.1926 184.924H91.5953V192.687H92.4082ZM92.4082 185.688H94.1232C94.827 185.688 95.3227 185.846 95.63 186.154C95.9373 186.461 96.086 186.838 96.086 187.284C96.086 187.72 95.9175 188.097 95.5804 188.424C95.2434 188.741 94.7477 188.9 94.0835 188.9H92.4082V185.688ZM99.724 189.633C99.1689 189.633 98.6832 189.762 98.2569 190.01C97.8405 190.258 97.6324 190.634 97.6324 191.16V191.219C97.6324 191.665 97.791 192.042 98.1181 192.34C98.4452 192.627 98.8814 192.776 99.4068 192.776C100.16 192.776 100.755 192.439 101.191 191.755H101.201V192.687H101.955V189.266C101.955 188.939 101.905 188.652 101.796 188.394C101.479 187.67 100.834 187.304 99.8628 187.304C98.812 187.304 98.0884 187.76 97.6918 188.672L98.3263 189.029C98.6534 188.335 99.159 187.988 99.843 187.988C100.745 187.988 101.191 188.414 101.191 189.276V189.633H99.724ZM101.191 190.456C101.191 190.942 101.033 191.328 100.725 191.636C100.418 191.943 100.021 192.092 99.5456 192.092C98.8814 192.092 98.4056 191.745 98.4056 191.16C98.4353 190.466 99.1094 190.258 99.7141 190.268H101.191V190.456ZM103.574 187.393V190.664C103.574 191.933 104.308 192.786 105.576 192.786C106.379 192.786 106.984 192.429 107.391 191.715V192.687H108.144V187.393H107.381V190.416C107.381 190.892 107.232 191.289 106.935 191.606C106.637 191.923 106.26 192.082 105.804 192.082C104.853 192.082 104.337 191.457 104.337 190.476V187.393H103.574ZM113.406 191.18C113.406 190.853 113.277 190.555 113.029 190.307C112.742 190.01 112.276 189.792 111.642 189.653C110.66 189.445 110.402 189.257 110.402 188.82C110.402 188.592 110.512 188.404 110.72 188.236C110.928 188.067 111.186 187.988 111.473 187.988C112.018 187.988 112.435 188.285 112.712 188.88L113.347 188.533C112.99 187.71 112.365 187.304 111.473 187.304C110.997 187.304 110.571 187.452 110.194 187.75C109.818 188.047 109.629 188.424 109.629 188.88C109.629 189.187 109.728 189.445 109.917 189.673C110.204 190 110.571 190.169 111.295 190.327C112.256 190.555 112.623 190.783 112.623 191.229C112.623 191.755 112.098 192.092 111.493 192.092C110.868 192.092 110.393 191.745 110.065 191.061L109.431 191.408C109.837 192.32 110.531 192.776 111.503 192.776C112.048 192.776 112.504 192.627 112.861 192.33C113.228 192.022 113.406 191.646 113.406 191.18ZM119.465 190.278C119.475 190.228 119.475 190.139 119.475 190.02C119.475 189.217 119.257 188.573 118.82 188.067C118.384 187.561 117.77 187.304 116.977 187.304C116.253 187.304 115.638 187.571 115.143 188.117C114.647 188.662 114.399 189.296 114.399 190.03C114.399 190.793 114.657 191.447 115.172 191.983C115.688 192.508 116.322 192.776 117.086 192.776C118.037 192.776 118.88 192.28 119.326 191.408L118.751 191.031C118.444 191.665 117.819 192.092 117.076 192.092C116.56 192.092 116.124 191.923 115.767 191.576C115.41 191.229 115.212 190.793 115.182 190.278H119.465ZM115.192 189.623C115.262 189.167 115.46 188.781 115.797 188.464C116.134 188.136 116.53 187.978 116.977 187.978C117.968 187.978 118.583 188.632 118.692 189.623H115.192Z" fill="black"/>
<path d="M107.788 246.128H109.878V241.081H112.41L115.299 246.128H117.661L114.5 240.724C116.285 240.129 117.321 238.77 117.321 236.917C117.321 235.745 116.948 234.776 116.217 233.994C115.486 233.212 114.33 232.822 112.784 232.822H107.788V246.128ZM109.878 234.759H112.563C114.738 234.759 115.197 235.948 115.197 236.968C115.197 238.192 114.415 239.194 112.563 239.194H109.878V234.759ZM128.516 234.708V232.822H120.002V246.128H128.584V244.225H122.093V240.299H127.938V238.413H122.093V234.708H128.516ZM135.128 246.281C136.505 246.281 137.61 245.907 138.425 245.142C139.241 244.378 139.649 243.477 139.649 242.44C139.649 241.472 139.326 240.673 138.697 240.061C138.068 239.432 136.93 238.871 135.281 238.379C133.65 237.886 132.817 237.342 132.817 236.339C132.817 235.269 133.752 234.521 135.043 234.521C136.318 234.521 137.219 235.15 137.728 236.39L139.462 235.456C138.833 233.807 137.338 232.635 135.094 232.635C133.854 232.635 132.817 233.009 131.951 233.756C131.101 234.487 130.676 235.388 130.676 236.458C130.676 237.478 131.016 238.294 131.696 238.888C132.341 239.466 133.378 239.976 134.823 240.435C136.726 241.03 137.491 241.591 137.491 242.559C137.491 243.664 136.522 244.378 135.162 244.378C133.718 244.378 132.562 243.596 132.002 242.168L130.234 243.086C130.982 245.125 132.8 246.281 135.128 246.281ZM140.533 234.759H144.747V246.128H146.837V234.759H151.069V232.822H140.533V234.759Z" fill="black"/>
<path d="M14.9523 197.487H14.2555V204.14H14.9523V197.487ZM18.6748 201.863C18.6748 202.509 18.8703 203.061 19.2611 203.52C19.6605 203.979 20.1703 204.208 20.7991 204.208C21.5553 204.208 22.1501 203.86 22.5665 203.171V204.14H23.2122V197.224H22.558V200.554C22.0906 199.866 21.5043 199.526 20.7991 199.526C20.1788 199.526 19.669 199.764 19.2696 200.232C18.8703 200.699 18.6748 201.243 18.6748 201.863ZM20.935 203.622C20.4507 203.622 20.0683 203.452 19.7794 203.12C19.4905 202.781 19.3461 202.364 19.3461 201.88C19.3461 201.379 19.4905 200.954 19.7794 200.622C20.0683 200.282 20.4507 200.113 20.935 200.113C21.3939 200.113 21.7762 200.291 22.0906 200.639C22.405 200.988 22.5665 201.387 22.5665 201.854C22.5665 202.339 22.4135 202.755 22.0991 203.103C21.7932 203.452 21.4024 203.622 20.935 203.622ZM24.5535 197.98C24.5535 198.252 24.7744 198.473 25.0463 198.473C25.3267 198.473 25.5477 198.252 25.5477 197.98C25.5477 197.699 25.3267 197.478 25.0463 197.478C24.7744 197.478 24.5535 197.699 24.5535 197.98ZM25.3862 199.603H24.715V204.14H25.3862V199.603ZM26.5578 201.863C26.5578 202.509 26.7532 203.061 27.1441 203.52C27.5435 203.979 28.0533 204.208 28.6821 204.208C29.4383 204.208 30.0331 203.86 30.4495 203.171V204.14H31.0952V197.224H30.441V200.554C29.9736 199.866 29.3873 199.526 28.6821 199.526C28.0618 199.526 27.552 199.764 27.1526 200.232C26.7532 200.699 26.5578 201.243 26.5578 201.863ZM28.818 203.622C28.3337 203.622 27.9513 203.452 27.6624 203.12C27.3735 202.781 27.2291 202.364 27.2291 201.88C27.2291 201.379 27.3735 200.954 27.6624 200.622C27.9513 200.282 28.3337 200.113 28.818 200.113C29.2769 200.113 29.6592 200.291 29.9736 200.639C30.288 200.988 30.4495 201.387 30.4495 201.854C30.4495 202.339 30.2965 202.755 29.9821 203.103C29.6762 203.452 29.2854 203.622 28.818 203.622ZM34.6227 204.14H39.4915V202.883H36.6195L37.7412 201.99C38.3784 201.489 38.8288 201.073 39.0752 200.741C39.3301 200.41 39.4576 200.011 39.4576 199.535C39.4576 198.923 39.2451 198.413 38.8118 198.005C38.3784 197.589 37.8091 197.385 37.0954 197.385C36.5261 197.385 36.0163 197.521 35.5659 197.793C35.1241 198.056 34.8267 198.456 34.6652 198.974L35.9313 199.509C36.1522 198.957 36.5346 198.677 37.0869 198.677C37.6307 198.677 38.0386 199.067 38.0386 199.543C38.0386 199.79 37.9621 200.011 37.8006 200.215C37.6392 200.418 37.3588 200.69 36.9424 201.03L34.6227 202.934V204.14ZM43.5005 202.823V204.14H44.843V202.815H45.7862V201.583H44.843V197.487H43.2031L40.2206 201.472V202.823H43.5005ZM43.5005 199.101V201.583H41.6481L43.5005 199.101ZM49.2684 199.603V204.14H49.9311V201.922C49.9311 201.455 50.0416 201.064 50.271 200.733C50.5004 200.401 50.8573 200.232 51.3501 200.232C51.4096 200.232 51.4946 200.24 51.605 200.249V199.543C51.5711 199.535 51.4946 199.535 51.3841 199.535C50.8063 199.535 50.237 199.849 49.9226 200.503V199.603H49.2684ZM56.3492 202.075C56.3577 202.033 56.3577 201.956 56.3577 201.854C56.3577 201.166 56.1707 200.614 55.7969 200.181C55.423 199.747 54.8962 199.526 54.2164 199.526C53.5961 199.526 53.0693 199.756 52.6445 200.223C52.2196 200.69 52.0072 201.234 52.0072 201.863C52.0072 202.517 52.2281 203.078 52.67 203.537C53.1118 203.987 53.6556 204.217 54.3099 204.217C55.1256 204.217 55.8478 203.792 56.2302 203.044L55.7374 202.721C55.474 203.265 54.9387 203.63 54.3014 203.63C53.8595 203.63 53.4857 203.486 53.1798 203.188C52.8739 202.891 52.7039 202.517 52.6785 202.075H56.3492ZM52.687 201.515C52.7464 201.124 52.9164 200.792 53.2053 200.52C53.4942 200.24 53.834 200.104 54.2164 200.104C55.0661 200.104 55.5929 200.665 55.6864 201.515H52.687ZM62.0458 201.863C62.0458 201.243 61.8418 200.699 61.4425 200.232C61.0431 199.764 60.5333 199.526 59.913 199.526C59.1908 199.526 58.6045 199.883 58.1541 200.588V199.603H57.4999V206.375H58.1626V203.205C58.5875 203.877 59.1738 204.208 59.913 204.208C60.5333 204.208 61.0431 203.979 61.4425 203.511C61.8418 203.044 62.0458 202.5 62.0458 201.863ZM59.7771 203.622C59.3097 203.622 58.9189 203.452 58.613 203.103C58.3071 202.755 58.1541 202.339 58.1541 201.854C58.1541 201.387 58.3071 200.988 58.6215 200.639C58.9358 200.291 59.3182 200.113 59.7771 200.113C60.2614 200.113 60.6437 200.282 60.9326 200.631C61.2215 200.971 61.366 201.387 61.366 201.88C61.366 202.381 61.2215 202.798 60.9326 203.129C60.6522 203.46 60.2614 203.622 59.7771 203.622ZM66.225 202.849C66.225 202.568 66.1146 202.313 65.9021 202.101C65.6557 201.846 65.2564 201.659 64.7126 201.54C63.8714 201.362 63.6504 201.2 63.6504 200.826C63.6504 200.631 63.7439 200.469 63.9223 200.325C64.1008 200.181 64.3217 200.113 64.5681 200.113C65.0354 200.113 65.3923 200.367 65.6302 200.877L66.1741 200.58C65.8682 199.875 65.3328 199.526 64.5681 199.526C64.1603 199.526 63.7949 199.654 63.472 199.909C63.1491 200.164 62.9877 200.486 62.9877 200.877C62.9877 201.141 63.0726 201.362 63.2341 201.557C63.4805 201.837 63.7949 201.982 64.4152 202.118C65.2394 202.313 65.5538 202.509 65.5538 202.891C65.5538 203.341 65.1034 203.63 64.5851 203.63C64.0498 203.63 63.6419 203.333 63.3615 202.747L62.8177 203.044C63.1661 203.826 63.7609 204.217 64.5936 204.217C65.0609 204.217 65.4518 204.089 65.7577 203.834C66.0721 203.571 66.225 203.248 66.225 202.849ZM67.8494 202.993C67.5095 202.993 67.2376 203.265 67.2376 203.605C67.2376 203.945 67.5095 204.217 67.8494 204.217C68.1807 204.217 68.4526 203.945 68.4526 203.605C68.4526 203.265 68.1807 202.993 67.8494 202.993Z" fill="#828282"/>
<path d="M34.2234 204.99H46.1515V205.415H34.2234V204.99Z" fill="#828282"/>
<path d="M77.2392 37.1265H81.8842V41.6157H84.1784V30.5271H81.8842V34.9031H77.2392V30.5271H74.945V41.6157H77.2392V37.1265ZM85.9639 37.8487C85.9639 38.9816 86.3604 39.9163 87.1535 40.6669C87.9465 41.4175 88.9237 41.7857 90.085 41.7857C91.2321 41.7857 92.2092 41.4033 93.0164 40.6527C93.8237 39.888 94.2202 38.9392 94.2202 37.8062C94.2202 36.6875 93.8237 35.7669 93.0306 35.0164C92.2375 34.2658 91.2604 33.8834 90.1133 33.8834C88.9662 33.8834 87.9749 34.2658 87.1677 35.0305C86.3604 35.7811 85.9639 36.7299 85.9639 37.8487ZM88.2298 37.8204C88.2298 37.2681 88.4139 36.8007 88.7679 36.4467C89.122 36.0785 89.561 35.8944 90.085 35.8944C90.6089 35.8944 91.0621 36.0785 91.4162 36.4467C91.7702 36.8007 91.9543 37.2681 91.9543 37.8204C91.9543 38.9533 91.1613 39.7605 90.0991 39.7605C89.5751 39.7605 89.122 39.5764 88.7679 39.2224C88.4139 38.8542 88.2298 38.3869 88.2298 37.8204ZM103.54 38.7834L102.124 34.0534H100.085L98.6688 38.7409H98.6547L97.2951 34.0534H95.0293L97.3801 41.6157H99.5185L101.076 36.7866H101.09L102.634 41.6157H104.801L107.18 34.0534H104.971L103.54 38.7834ZM111.281 32.3115C111.281 31.1785 110.615 30.4421 109.667 30.4421C108.859 30.4421 108.194 31.0936 108.194 31.9291C108.194 32.708 108.732 33.2603 109.454 33.2603C109.638 33.2603 109.808 33.232 109.95 33.1612C109.652 33.8409 109.143 34.4216 108.449 34.9031L109.284 35.6961C110.488 34.8606 111.281 33.6285 111.281 32.3823V32.3115ZM117.844 41.6157H119.982V30.0881H117.787V34.9172H117.759C117.192 34.2516 116.442 33.9118 115.493 33.9118C114.459 33.9118 113.595 34.3083 112.901 35.1155C112.207 35.9086 111.867 36.8149 111.867 37.8204C111.867 38.8825 112.207 39.8172 112.873 40.5961C113.539 41.375 114.402 41.7573 115.465 41.7573C116.527 41.7573 117.32 41.3891 117.815 40.6527H117.844V41.6157ZM117.844 37.8204C117.844 38.3869 117.66 38.8542 117.306 39.2224C116.951 39.5764 116.498 39.7605 115.974 39.7605C115.45 39.7605 114.997 39.5764 114.643 39.2224C114.289 38.8542 114.105 38.3869 114.105 37.8204C114.105 36.7016 114.912 35.9086 115.974 35.9086C117.036 35.9086 117.844 36.7016 117.844 37.8204ZM128.342 41.6157H130.637V37.1265L134.701 30.5271H132.081L129.489 34.9597L126.926 30.5271H124.278L128.342 37.2256V41.6157ZM133.663 37.8487C133.663 38.9816 134.059 39.9163 134.852 40.6669C135.645 41.4175 136.623 41.7857 137.784 41.7857C138.931 41.7857 139.908 41.4033 140.715 40.6527C141.523 39.888 141.919 38.9392 141.919 37.8062C141.919 36.6875 141.523 35.7669 140.73 35.0164C139.936 34.2658 138.959 33.8834 137.812 33.8834C136.665 33.8834 135.674 34.2658 134.867 35.0305C134.059 35.7811 133.663 36.7299 133.663 37.8487ZM135.929 37.8204C135.929 37.2681 136.113 36.8007 136.467 36.4467C136.821 36.0785 137.26 35.8944 137.784 35.8944C138.308 35.8944 138.761 36.0785 139.115 36.4467C139.469 36.8007 139.653 37.2681 139.653 37.8204C139.653 38.9533 138.86 39.7605 137.798 39.7605C137.274 39.7605 136.821 39.5764 136.467 39.2224C136.113 38.8542 135.929 38.3869 135.929 37.8204ZM143.422 34.0534V38.7975C143.422 39.6331 143.663 40.3412 144.13 40.9218C144.612 41.4883 145.306 41.7715 146.198 41.7715C147.104 41.7715 147.812 41.4033 148.308 40.6811H148.322V41.6157H150.503V34.0534H148.294V38.2736C148.294 39.1091 147.826 39.7181 146.934 39.7181C146.042 39.7181 145.631 39.1657 145.631 38.2736V34.0534H143.422ZM166.019 36.0502C166.019 34.3083 165.467 32.9629 164.348 31.9858C163.229 31.0086 161.7 30.5271 159.76 30.5271H156.361V41.6157H159.717C161.657 41.6157 163.187 41.1059 164.32 40.0863C165.453 39.0666 166.019 37.7213 166.019 36.0502ZM163.668 36.0502C163.668 37.1123 163.314 37.9478 162.606 38.5568C161.898 39.1516 160.964 39.449 159.788 39.449H158.655V32.6938H159.816C160.949 32.6938 161.87 32.9912 162.592 33.586C163.314 34.1667 163.668 34.988 163.668 36.0502ZM167.214 37.8487C167.214 38.9816 167.61 39.9163 168.403 40.6669C169.197 41.4175 170.174 41.7857 171.335 41.7857C172.482 41.7857 173.459 41.4033 174.266 40.6527C175.074 39.888 175.47 38.9392 175.47 37.8062C175.47 36.6875 175.074 35.7669 174.281 35.0164C173.488 34.2658 172.51 33.8834 171.363 33.8834C170.216 33.8834 169.225 34.2658 168.418 35.0305C167.61 35.7811 167.214 36.7299 167.214 37.8487ZM169.48 37.8204C169.48 37.2681 169.664 36.8007 170.018 36.4467C170.372 36.0785 170.811 35.8944 171.335 35.8944C171.859 35.8944 172.312 36.0785 172.666 36.4467C173.02 36.8007 173.204 37.2681 173.204 37.8204C173.204 38.9533 172.411 39.7605 171.349 39.7605C170.825 39.7605 170.372 39.5764 170.018 39.2224C169.664 38.8542 169.48 38.3869 169.48 37.8204ZM179.82 32.4248C180.499 32.4248 180.981 32.8638 180.981 33.4869C180.981 33.9118 180.684 34.3791 180.089 34.9031L179.409 35.4979C178.658 36.1635 178.361 36.7016 178.361 37.5088V37.9762H180.514V37.877C180.514 37.1973 180.882 36.7441 181.562 36.1918C182.156 35.7103 182.595 35.2713 182.864 34.8606C183.148 34.4499 183.289 33.9401 183.289 33.3595C183.289 32.4814 182.978 31.7592 182.34 31.2069C181.703 30.6404 180.882 30.3572 179.876 30.3572C178.389 30.3572 177.03 31.1644 176.449 32.4814L178.361 33.4869C178.701 32.7788 179.182 32.4248 179.82 32.4248ZM179.508 39.0241C178.772 39.0241 178.149 39.6614 178.149 40.412C178.149 41.1625 178.772 41.7715 179.508 41.7715C180.287 41.7715 180.896 41.1625 180.896 40.412C180.896 39.6331 180.287 39.0241 179.508 39.0241Z" fill="black"/>
<path d="M96.444 55.695C97.1974 55.695 97.8021 55.4869 98.2581 55.0606C98.7141 54.6343 98.9421 54.1188 98.9421 53.524C98.9421 53.0383 98.7637 52.6021 98.4068 52.2155C98.0202 51.7892 97.3659 51.4621 96.4539 51.2341C95.2742 50.9268 94.7984 50.5501 94.7984 49.8462C94.7984 49.4596 94.957 49.1424 95.2742 48.8946C95.5914 48.6467 95.9681 48.5278 96.4043 48.5278C97.2569 48.5278 97.8517 48.9441 98.1788 49.7669L98.8727 49.3803C98.5059 48.3989 97.6534 47.7645 96.4242 47.7645C95.7501 47.7645 95.1751 47.9627 94.6993 48.3494C94.2234 48.736 93.9855 49.2415 93.9855 49.8859C93.9855 50.9664 94.7191 51.6504 96.3052 52.0371C97.4948 52.3245 98.1094 52.7905 98.1094 53.5835C98.1094 53.98 97.9508 54.3072 97.6237 54.555C97.3064 54.8028 96.9099 54.9317 96.444 54.9317C95.4427 54.9317 94.8579 54.3964 94.4613 53.4348L93.7575 53.8016C94.2333 55.0606 95.1255 55.695 96.444 55.695ZM105.048 53.2068C105.058 53.1573 105.058 53.068 105.058 52.9491C105.058 52.1461 104.84 51.5017 104.404 50.9962C103.967 50.4906 103.353 50.2329 102.56 50.2329C101.836 50.2329 101.221 50.5005 100.726 51.0457C100.23 51.591 99.9823 52.2254 99.9823 52.959C99.9823 53.7223 100.24 54.3766 100.756 54.9119C101.271 55.4373 101.905 55.7049 102.669 55.7049C103.62 55.7049 104.463 55.2093 104.909 54.3369L104.334 53.9602C104.027 54.5947 103.402 55.0209 102.659 55.0209C102.143 55.0209 101.707 54.8524 101.35 54.5054C100.993 54.1585 100.795 53.7223 100.765 53.2068H105.048ZM100.775 52.5525C100.845 52.0965 101.043 51.7099 101.38 51.3927C101.717 51.0656 102.114 50.907 102.56 50.907C103.551 50.907 104.166 51.5612 104.275 52.5525H100.775ZM108.147 55.6554C108.375 55.6554 108.584 55.6256 108.752 55.5761V54.9317C108.643 54.9615 108.484 54.9714 108.276 54.9714C107.701 54.9714 107.414 54.7235 107.414 54.2279V51.0061H108.752V50.3221H107.414V48.7954H106.65V50.3221H105.669V51.0061H106.65V54.2477C106.65 55.1895 107.146 55.6554 108.147 55.6554ZM114.315 48.7161V55.6157H115.128V47.8537H114.335L112.085 49.2118L112.451 49.8264L114.315 48.7161ZM120.759 46.7831H120.005V56.7657H120.759V46.7831ZM128.03 52.4732L130.32 55.6157H131.311L128.912 52.3345C129.527 52.2552 130.033 52.0271 130.439 51.6405C130.845 51.2539 131.044 50.7483 131.044 50.1139C131.044 49.4695 130.816 48.9243 130.35 48.4981C129.894 48.0718 129.22 47.8537 128.318 47.8537H125.631V55.6157H126.444V52.4732H128.03ZM126.444 48.617H128.268C129.626 48.617 130.221 49.2713 130.221 50.1436C130.221 50.5798 130.052 50.9565 129.725 51.2638C129.398 51.5711 128.902 51.7298 128.248 51.7298H126.444V48.617ZM134.762 55.7049C135.535 55.7049 136.189 55.4373 136.715 54.9119C137.24 54.3865 137.508 53.7322 137.508 52.9491C137.508 52.1858 137.24 51.5513 136.715 51.0259C136.189 50.5005 135.545 50.2329 134.782 50.2329C133.998 50.2329 133.344 50.5005 132.819 51.0259C132.293 51.5513 132.036 52.2056 132.036 52.9887C132.036 53.7421 132.293 54.3865 132.819 54.9119C133.344 55.4373 133.998 55.7049 134.762 55.7049ZM134.782 55.0209C134.216 55.0209 133.741 54.8227 133.374 54.4162C133.007 54.0098 132.829 53.5141 132.829 52.9491C132.829 52.384 133.007 51.8983 133.374 51.5017C133.741 51.1052 134.197 50.907 134.762 50.907C135.327 50.907 135.793 51.1151 136.159 51.5216C136.526 51.928 136.715 52.4237 136.715 52.9887C136.715 53.5538 136.526 54.0296 136.159 54.4261C135.793 54.8227 135.337 55.0209 134.782 55.0209ZM138.81 50.3221V53.5934C138.81 54.8623 139.544 55.7149 140.813 55.7149C141.616 55.7149 142.22 55.358 142.627 54.6442V55.6157H143.38V50.3221H142.617V53.3456C142.617 53.8214 142.468 54.218 142.171 54.5352C141.873 54.8524 141.497 55.011 141.041 55.011C140.089 55.011 139.573 54.3865 139.573 53.4051V50.3221H138.81ZM149.723 55.6157V52.3444C149.723 51.0755 148.989 50.2229 147.721 50.2229C146.918 50.2229 146.313 50.5798 145.896 51.2936V50.3221H145.133V55.6157H145.906V52.6021C145.906 52.1263 146.055 51.7298 146.352 51.4125C146.65 51.0854 147.027 50.9268 147.483 50.9268C148.434 50.9268 148.95 51.5513 148.95 52.5327V55.6157H149.723ZM151.02 52.959C151.02 53.7124 151.248 54.3567 151.704 54.8921C152.17 55.4274 152.765 55.695 153.498 55.695C154.381 55.695 155.074 55.2886 155.56 54.4856V55.6157H156.314V47.5464H155.55V51.4324C155.005 50.6294 154.321 50.2329 153.498 50.2329C152.775 50.2329 152.18 50.5104 151.714 51.0557C151.248 51.6009 151.02 52.2353 151.02 52.959ZM153.657 55.011C153.092 55.011 152.646 54.8128 152.309 54.4261C151.972 54.0296 151.803 53.5439 151.803 52.9788C151.803 52.3939 151.972 51.8983 152.309 51.5117C152.646 51.1151 153.092 50.9169 153.657 50.9169C154.192 50.9169 154.638 51.125 155.005 51.5315C155.372 51.9379 155.56 52.4038 155.56 52.9491C155.56 53.5141 155.382 53.9999 155.015 54.4063C154.658 54.8128 154.202 55.011 153.657 55.011ZM162.322 48.7161V55.6157H163.135V47.8537H162.342L160.092 49.2118L160.459 49.8264L162.322 48.7161Z" fill="#757575"/>
<path d="M227.171 14.1621L234.252 21.243M241.333 28.3238L234.252 21.243M234.252 21.243L241.333 14.1621L227.171 28.3238" stroke="#B4B4B4" stroke-width="1.77021"/>
<path d="M234.878 82.2203C234.532 81.8747 233.972 81.8747 233.626 82.2203C233.28 82.566 233.28 83.1264 233.626 83.4721L234.878 82.2203ZM244.247 94.0933C244.593 94.439 245.153 94.439 245.499 94.0933C245.845 93.7477 245.845 93.1873 245.499 92.8416L244.247 94.0933ZM245.499 83.4721C245.845 83.1264 245.845 82.566 245.499 82.2203C245.153 81.8747 244.593 81.8747 244.247 82.2203L245.499 83.4721ZM233.626 92.8416C233.28 93.1873 233.28 93.7477 233.626 94.0933C233.972 94.439 234.532 94.439 234.878 94.0933L233.626 92.8416ZM233.626 83.4721L238.937 88.7827L240.188 87.531L234.878 82.2203L233.626 83.4721ZM238.937 88.7827L244.247 94.0933L245.499 92.8416L240.188 87.531L238.937 88.7827ZM240.188 88.7827L245.499 83.4721L244.247 82.2203L238.937 87.531L240.188 88.7827ZM244.247 82.2203L233.626 92.8416L234.878 94.0933L245.499 83.4721L244.247 82.2203Z" fill="#DE683F"/>
<path d="M203.804 140.496L208.38 145.866L216.55 135.953" stroke="#9CE184" stroke-width="2.12426" stroke-linecap="round"/>
<path d="M234.878 135.327C234.532 134.981 233.972 134.981 233.626 135.327C233.28 135.672 233.28 136.233 233.626 136.579L234.878 135.327ZM244.247 147.2C244.593 147.545 245.153 147.545 245.499 147.2C245.845 146.854 245.845 146.294 245.499 145.948L244.247 147.2ZM245.499 136.579C245.845 136.233 245.845 135.672 245.499 135.327C245.153 134.981 244.593 134.981 244.247 135.327L245.499 136.579ZM233.626 145.948C233.28 146.294 233.28 146.854 233.626 147.2C233.972 147.545 234.532 147.545 234.878 147.2L233.626 145.948ZM233.626 136.579L238.937 141.889L240.188 140.637L234.878 135.327L233.626 136.579ZM238.937 141.889L244.247 147.2L245.499 145.948L240.188 140.637L238.937 141.889ZM240.188 141.889L245.499 136.579L244.247 135.327L238.937 140.637L240.188 141.889ZM244.247 135.327L233.626 145.948L234.878 147.2L245.499 136.579L244.247 135.327Z" fill="#DE683F"/>
<path d="M203.804 193.603L208.38 198.972L216.55 189.059" stroke="#9CE184" stroke-width="2.12426" stroke-linecap="round"/>
<path d="M234.878 188.433C234.532 188.088 233.972 188.088 233.626 188.433C233.28 188.779 233.28 189.339 233.626 189.685L234.878 188.433ZM244.247 200.306C244.593 200.652 245.153 200.652 245.499 200.306C245.845 199.961 245.845 199.4 245.499 199.054L244.247 200.306ZM245.499 189.685C245.845 189.339 245.845 188.779 245.499 188.433C245.153 188.088 244.593 188.088 244.247 188.433L245.499 189.685ZM233.626 199.054C233.28 199.4 233.28 199.961 233.626 200.306C233.972 200.652 234.532 200.652 234.878 200.306L233.626 199.054ZM233.626 189.685L238.937 194.996L240.188 193.744L234.878 188.433L233.626 189.685ZM238.937 194.996L244.247 200.306L245.499 199.054L240.188 193.744L238.937 194.996ZM240.188 194.996L245.499 189.685L244.247 188.433L238.937 193.744L240.188 194.996ZM244.247 188.433L233.626 199.054L234.878 200.306L245.499 189.685L244.247 188.433Z" fill="#DE683F"/>
<rect x="19.7021" y="308.018" width="212.426" height="35.4043" rx="17.7021" fill="#FFB636"/>
<path d="M70.5142 322.4C69.2538 322.046 68.7298 321.706 68.7298 321.04C68.7298 320.375 69.2963 319.907 70.2026 319.907C71.2223 319.907 71.9162 320.36 72.2986 321.267L74.1962 320.233C73.559 318.703 72.157 317.84 70.3018 317.84C69.2396 317.84 68.3191 318.151 67.5686 318.788C66.818 319.412 66.4356 320.205 66.4356 321.182C66.4356 322.003 66.7189 322.683 67.2853 323.235C67.7951 323.745 68.7015 324.198 69.9902 324.581C70.8116 324.821 71.3639 325.048 71.6471 325.246C71.9445 325.43 72.0861 325.685 72.0861 326.011C72.0861 326.691 71.3781 327.186 70.4009 327.186C69.2821 327.186 68.4183 326.606 67.9792 325.643L65.9966 326.662C66.6622 328.263 68.2483 329.268 70.3301 329.268C71.6046 329.268 72.596 328.957 73.3182 328.319C74.0405 327.682 74.3945 326.846 74.3945 325.841C74.3945 324.071 73.1624 323.15 70.5142 322.4ZM80.5897 327.229C80.4339 327.271 80.264 327.285 80.0799 327.285C79.216 327.285 78.7628 326.946 78.7628 326.082V323.448H80.6322V321.536H78.7628V319.171H76.5819V321.536H75.1941V323.448H76.5536V326.351C76.5536 328.121 77.5874 329.197 79.5559 329.197C79.9241 329.197 80.264 329.155 80.5897 329.056V327.229ZM84.4161 329.24C85.4216 329.24 86.1722 328.872 86.682 328.149L86.7103 328.163V329.098H88.7496V324.411C88.7496 322.428 87.4609 321.366 85.4641 321.366C83.8072 321.366 82.6459 321.961 81.9945 323.164L83.6797 324.17C84.0621 323.49 84.6144 323.15 85.365 323.15C86.158 323.15 86.5829 323.561 86.5829 324.085C86.5829 324.453 86.3846 324.637 85.9881 324.637H85.2375C84.3878 324.637 83.6797 324.765 82.9858 325.09C82.306 325.416 81.867 326.068 81.867 326.96V326.988C81.867 327.668 82.1078 328.22 82.6034 328.631C83.0991 329.041 83.708 329.24 84.4161 329.24ZM85.0534 327.625C84.4869 327.625 84.0904 327.37 84.0904 326.861C84.0904 326.294 84.6002 325.997 85.2375 325.997H86.5687V326.167C86.5687 327.002 86.0022 327.625 85.0534 327.625ZM95.5009 321.507C95.3876 321.465 95.2459 321.451 95.0618 321.451C94.0564 321.451 93.2491 322.003 92.9234 322.697H92.9093V321.536H90.7142V329.098H92.9234V325.898C92.9234 324.538 93.5465 323.646 94.9769 323.646C95.161 323.646 95.3309 323.66 95.5009 323.688V321.507ZM101.404 327.229C101.248 327.271 101.078 327.285 100.894 327.285C100.03 327.285 99.5767 326.946 99.5767 326.082V323.448H101.446V321.536H99.5767V319.171H97.3958V321.536H96.0079V323.448H97.3674V326.351C97.3674 328.121 98.4012 329.197 100.37 329.197C100.738 329.197 101.078 329.155 101.404 329.056V327.229ZM109.195 321.451L114.293 329.098H116.63V318.01H114.364V325.246L109.549 318.01H106.929V329.098H109.195V321.451ZM126.178 325.926C126.193 325.756 126.207 325.487 126.207 325.133C126.207 324.014 125.853 323.094 125.159 322.4C124.465 321.706 123.559 321.352 122.44 321.352C121.349 321.352 120.4 321.734 119.607 322.513C118.829 323.292 118.432 324.212 118.432 325.303C118.432 326.464 118.829 327.413 119.622 328.163C120.429 328.9 121.406 329.268 122.581 329.268C124.125 329.268 125.201 328.702 125.839 327.555L124.238 326.507C123.898 327.059 123.219 327.413 122.553 327.413C121.604 327.413 120.811 326.846 120.684 325.926H126.178ZM120.74 324.467C120.783 324.17 120.953 323.872 121.25 323.589C121.548 323.292 121.93 323.15 122.383 323.15C123.389 323.15 123.941 323.802 123.998 324.467H120.74ZM129.088 329.098L130.546 326.875L131.991 329.098H134.469L131.736 325.246L134.398 321.536H131.962L130.56 323.674L129.201 321.536H126.723L129.357 325.289L126.638 329.098H129.088ZM140.321 327.229C140.165 327.271 139.995 327.285 139.811 327.285C138.947 327.285 138.494 326.946 138.494 326.082V323.448H140.363V321.536H138.494V319.171H136.313V321.536H134.925V323.448H136.284V326.351C136.284 328.121 137.318 329.197 139.287 329.197C139.655 329.197 139.995 329.155 140.321 329.056V327.229ZM154.371 329.098L151.865 324.765C153.38 324.212 154.145 323.136 154.145 321.522C154.145 320.403 153.777 319.539 153.026 318.93C152.29 318.321 151.355 318.01 150.222 318.01H145.846V329.098H148.14V325.119H149.528L151.822 329.098H154.371ZM148.14 320.176H150.038C151.043 320.176 151.822 320.587 151.822 321.564C151.822 322.527 151.015 322.994 150.052 322.994H148.14V320.176ZM155.275 325.331C155.275 326.464 155.671 327.399 156.464 328.149C157.257 328.9 158.234 329.268 159.396 329.268C160.543 329.268 161.52 328.886 162.327 328.135C163.134 327.37 163.531 326.422 163.531 325.289C163.531 324.17 163.134 323.249 162.341 322.499C161.548 321.748 160.571 321.366 159.424 321.366C158.277 321.366 157.285 321.748 156.478 322.513C155.671 323.264 155.275 324.212 155.275 325.331ZM157.54 325.303C157.54 324.751 157.725 324.283 158.079 323.929C158.433 323.561 158.872 323.377 159.396 323.377C159.92 323.377 160.373 323.561 160.727 323.929C161.081 324.283 161.265 324.751 161.265 325.303C161.265 326.436 160.472 327.243 159.41 327.243C158.886 327.243 158.433 327.059 158.079 326.705C157.725 326.337 157.54 325.869 157.54 325.303ZM165.034 321.536V326.28C165.034 327.116 165.275 327.824 165.742 328.404C166.223 328.971 166.917 329.254 167.81 329.254C168.716 329.254 169.424 328.886 169.92 328.163H169.934V329.098H172.115V321.536H169.905V325.756C169.905 326.592 169.438 327.2 168.546 327.2C167.654 327.2 167.243 326.648 167.243 325.756V321.536H165.034ZM181.23 329.098V324.396C181.23 323.547 181.004 322.839 180.536 322.258C180.083 321.677 179.403 321.394 178.497 321.394C178.171 321.394 177.775 321.408 177.109 321.791C176.783 321.975 176.543 322.216 176.359 322.527H176.344V321.536H174.149V329.098H176.359V324.906C176.359 324.071 176.826 323.433 177.718 323.433C178.582 323.433 179.035 324.014 179.035 324.906V329.098H181.23ZM188.717 329.098H190.855V317.571H188.66V322.4H188.632C188.066 321.734 187.315 321.394 186.366 321.394C185.332 321.394 184.469 321.791 183.775 322.598C183.081 323.391 182.741 324.297 182.741 325.303C182.741 326.365 183.081 327.3 183.746 328.079C184.412 328.857 185.276 329.24 186.338 329.24C187.4 329.24 188.193 328.872 188.689 328.135H188.717V329.098ZM188.717 325.303C188.717 325.869 188.533 326.337 188.179 326.705C187.825 327.059 187.372 327.243 186.848 327.243C186.324 327.243 185.871 327.059 185.517 326.705C185.162 326.337 184.978 325.869 184.978 325.303C184.978 324.184 185.786 323.391 186.848 323.391C187.91 323.391 188.717 324.184 188.717 325.303Z" fill="white"/>
<path d="M93.6934 279.45C93.6934 276.678 92.5782 274.893 89.806 273.746V273.714C92.0684 272.503 93.2155 270.751 93.2155 268.457C93.2155 266.322 92.4189 264.569 90.8257 263.263C89.2325 261.957 87.1613 261.287 84.6122 261.287C80.4381 261.287 77.1242 263.231 75.7222 266.672L80.3425 268.871C81.2028 267.023 82.5411 266.099 84.421 266.099C86.6834 266.099 88.0216 267.246 88.0216 268.807C88.0216 270.464 86.7152 271.611 84.5166 271.611H82.1587V276.391H84.8034C87.0976 276.391 88.4677 277.442 88.4677 279.322C88.4677 281.075 87.002 282.222 84.8034 282.222C82.5411 282.222 80.7248 281.17 79.8645 279.354L75.3398 281.68C76.8374 285.153 80.3106 287.002 84.6759 287.002C87.2569 287.002 89.3918 286.301 91.1124 284.867C92.8331 283.433 93.6934 281.617 93.6934 279.45ZM96.8522 274.129C96.8522 277.474 97.7443 280.565 99.4013 282.987C101.09 285.408 103.958 286.938 107.495 286.938C114.664 286.938 118.233 280.597 118.233 274.001C118.233 269.445 116.767 265.557 113.453 263.135C111.828 261.893 109.853 261.287 107.59 261.287C105.264 261.287 103.257 261.925 101.6 263.167C99.943 264.41 98.7321 265.971 97.9674 267.851C97.2345 269.731 96.8522 271.834 96.8522 274.129ZM102.556 270.56C102.906 269.445 103.512 268.425 104.372 267.565C105.232 266.672 106.284 266.226 107.527 266.226C108.769 266.226 109.821 266.672 110.681 267.565C113.198 270.082 113.485 274.256 112.497 277.602C112.147 278.749 111.541 279.768 110.681 280.661C109.821 281.521 108.769 281.967 107.527 281.967C106.284 281.967 105.232 281.521 104.372 280.661C101.855 278.08 101.568 273.81 102.556 270.56ZM142.849 281.489C142.849 278.526 140.587 276.837 136.285 275.945C134.788 275.626 134.055 275.116 134.055 274.383C134.055 273.714 134.82 273.141 135.839 273.141C137.273 273.141 138.293 273.682 138.93 274.766L142.531 272.631C141.415 270.56 139.121 269.19 135.967 269.19C134.182 269.19 132.653 269.699 131.347 270.719C130.072 271.707 129.435 273.013 129.435 274.575C129.435 277.347 131.442 279.195 135.489 280.087C137.656 280.565 138.197 281.075 138.197 281.744C138.197 282.413 137.369 282.987 136.126 282.987C134.278 282.987 133.003 282.286 132.302 280.916L128.638 283.082C130.008 285.695 132.494 287.002 136.062 287.002C140.268 287.002 142.849 284.771 142.849 281.489ZM162.723 279.482C162.755 279.099 162.787 278.494 162.787 277.697C162.787 275.18 161.991 273.109 160.429 271.548C158.868 269.986 156.829 269.19 154.311 269.19C151.858 269.19 149.723 270.05 147.939 271.802C146.186 273.555 145.294 275.626 145.294 278.08C145.294 280.692 146.186 282.827 147.97 284.516C149.787 286.173 151.985 287.002 154.63 287.002C158.103 287.002 160.525 285.727 161.959 283.146L158.358 280.788C157.593 282.031 156.064 282.827 154.566 282.827C152.431 282.827 150.647 281.553 150.36 279.482H162.723ZM150.488 276.2C150.583 275.531 150.966 274.861 151.635 274.224C152.304 273.555 153.164 273.236 154.184 273.236C156.446 273.236 157.689 274.702 157.816 276.2H150.488ZM174.448 287.002C178.24 287.002 181.33 285.185 182.637 281.712L178.24 279.896C177.507 281.585 176.264 282.413 174.48 282.413C172.058 282.413 170.401 280.629 170.401 278.08C170.401 275.435 172.185 273.778 174.48 273.778C176.168 273.778 177.411 274.606 178.144 276.295L182.509 274.479C181.394 271.133 178.271 269.221 174.48 269.221C171.931 269.221 169.764 270.082 167.979 271.802C166.195 273.523 165.303 275.626 165.303 278.143C165.303 280.692 166.163 282.795 167.884 284.484C169.605 286.173 171.803 287.002 174.448 287.002Z" fill="#63C6D4"/>
</g>
<rect x="2.5" y="0.5" width="252.494" height="353.043" rx="10.1213" stroke="black" stroke-opacity="0.2"/>
</g>
<defs>
<filter id="filter0_d" x="0" y="0" width="261.494" height="364.043" filterUnits="userSpaceOnUse" color-interpolation-filters="sRGB">
<feFlood flood-opacity="0" result="BackgroundImageFix"/>
<feColorMatrix in="SourceAlpha" type="matrix" values="0 0 0 0 0 0 0 0 0 0 0 0 0 0 0 0 0 0 127 0"/>
<feOffset dx="2" dy="6"/>
<feGaussianBlur stdDeviation="2"/>
<feColorMatrix type="matrix" values="0 0 0 0 0 0 0 0 0 0 0 0 0 0 0 0 0 0 0.1 0"/>
<feBlend mode="normal" in2="BackgroundImageFix" result="effect1_dropShadow"/>
<feBlend mode="normal" in="SourceGraphic" in2="effect1_dropShadow" result="shape"/>
</filter>
<clipPath id="clip0">
<rect x="2" width="253.494" height="354.043" rx="10.6213" fill="white"/>
</clipPath>
</defs>
</svg>
