<svg width="261" height="364" viewBox="0 0 261 364" fill="none" xmlns="http://www.w3.org/2000/svg">
<g filter="url(#filter0_d)">
<g clip-path="url(#clip0)">
<rect x="2" width="253" height="353.352" rx="10.6006" fill="white"/>
<rect x="2" y="60.0693" width="253" height="161.128" fill="white"/>
<path d="M16.134 113.779L267.014 113.779" stroke="#EEEEEE" stroke-width="0.353352"/>
<path d="M21.1928 79.429C20.9751 78.7859 20.5695 78.2318 19.9659 77.7767C19.3723 77.3117 18.6303 77.0841 17.7398 77.0841C16.6317 77.0841 15.7017 77.47 14.9596 78.2318C14.2176 78.9936 13.8416 79.9434 13.8416 81.0614C13.8416 82.1893 14.1978 83.1293 14.9102 83.8713C15.6225 84.6133 16.5526 84.9893 17.7101 84.9893C18.8084 84.9893 19.6889 84.6529 20.3419 83.9801C21.0048 83.3074 21.3313 82.4664 21.3313 81.4572V81.1604H17.2253V81.9123H20.4606C20.4211 82.6247 20.1341 83.1886 19.5999 83.6042C19.0755 84.0197 18.4522 84.2275 17.7299 84.2275C16.8098 84.2275 16.0777 83.9208 15.5137 83.3074C14.9596 82.684 14.6826 81.9222 14.6826 81.012C14.6826 80.0918 14.9794 79.3399 15.5632 78.7463C16.1568 78.1527 16.8791 77.8558 17.72 77.8558C18.4621 77.8558 19.0557 78.0438 19.5009 78.4099C19.9461 78.776 20.2726 79.2212 20.4606 79.7654L21.1928 79.429ZM24.9962 84.9992C25.7679 84.9992 26.4209 84.7321 26.9453 84.2077C27.4697 83.6833 27.7368 83.0303 27.7368 82.2487C27.7368 81.4869 27.4697 80.8537 26.9453 80.3293C26.4209 79.8049 25.7778 79.5378 25.016 79.5378C24.2344 79.5378 23.5814 79.8049 23.057 80.3293C22.5326 80.8537 22.2754 81.5067 22.2754 82.2883C22.2754 83.0402 22.5326 83.6833 23.057 84.2077C23.5814 84.7321 24.2344 84.9992 24.9962 84.9992ZM25.016 84.3165C24.452 84.3165 23.9771 84.1186 23.611 83.713C23.245 83.3074 23.0669 82.8127 23.0669 82.2487C23.0669 81.6848 23.245 81.2 23.611 80.8042C23.9771 80.4085 24.4322 80.2106 24.9962 80.2106C25.5601 80.2106 26.0251 80.4183 26.3912 80.824C26.7573 81.2296 26.9453 81.7243 26.9453 82.2883C26.9453 82.8522 26.7573 83.3271 26.3912 83.7229C26.0251 84.1186 25.57 84.3165 25.016 84.3165ZM34.3893 82.2586C34.3893 81.5364 34.1519 80.9031 33.6869 80.359C33.2218 79.8148 32.6282 79.5378 31.906 79.5378C31.0749 79.5378 30.3922 79.9434 29.8678 80.7646V76.8566H29.0961V84.9102H29.8579V83.802C30.3427 84.5936 31.0254 84.9893 31.906 84.9893C32.6282 84.9893 33.2218 84.7222 33.6869 84.178C34.1519 83.6338 34.3893 83.0006 34.3893 82.2586ZM31.7477 84.3066C31.2035 84.3066 30.7484 84.1088 30.3922 83.7031C30.036 83.2975 29.8579 82.8127 29.8579 82.2487C29.8579 81.7045 30.036 81.2395 30.4021 80.8339C30.7682 80.4282 31.2134 80.2205 31.7477 80.2205C32.3116 80.2205 32.7568 80.4183 33.0932 80.824C33.4296 81.2197 33.5978 81.7045 33.5978 82.2784C33.5978 82.8621 33.4296 83.3469 33.0932 83.7328C32.7667 84.1186 32.3116 84.3066 31.7477 84.3066ZM36.5348 76.8467H35.7532V84.9102H36.5348V76.8467ZM42.9449 82.5059C42.9548 82.4565 42.9548 82.3674 42.9548 82.2487C42.9548 81.4473 42.7371 80.8042 42.3018 80.2996C41.8664 79.795 41.253 79.5378 40.4615 79.5378C39.7393 79.5378 39.1258 79.8049 38.6312 80.3491C38.1365 80.8933 37.8891 81.5265 37.8891 82.2586C37.8891 83.0204 38.1464 83.6734 38.6608 84.2077C39.1753 84.7321 39.8085 84.9992 40.5704 84.9992C41.5202 84.9992 42.3611 84.5045 42.8064 83.6338L42.2325 83.2579C41.9258 83.8911 41.3025 84.3165 40.5605 84.3165C40.046 84.3165 39.6106 84.1483 39.2545 83.802C38.8983 83.4558 38.7004 83.0204 38.6707 82.5059H42.9449ZM38.6806 81.853C38.7499 81.3978 38.9478 81.012 39.2842 80.6954C39.6205 80.3689 40.0163 80.2106 40.4615 80.2106C41.4509 80.2106 42.0643 80.8636 42.1732 81.853H38.6806ZM46.0383 84.9497C46.2658 84.9497 46.4736 84.9201 46.6418 84.8706V84.2275C46.5329 84.2572 46.3746 84.2671 46.1669 84.2671C45.593 84.2671 45.3061 84.0197 45.3061 83.525V80.3095H46.6418V79.6268H45.3061V78.1032H44.5443V79.6268H43.5648V80.3095H44.5443V83.5448C44.5443 84.4847 45.039 84.9497 46.0383 84.9497ZM53.0053 84.9893C53.7572 84.9893 54.3608 84.7815 54.8159 84.3561C55.271 83.9307 55.4986 83.4162 55.4986 82.8226C55.4986 82.3378 55.3205 81.9024 54.9643 81.5166C54.5784 81.0911 53.9254 80.7646 53.0152 80.5371C51.8378 80.2304 51.3629 79.8544 51.3629 79.1519C51.3629 78.7661 51.5212 78.4495 51.8378 78.2021C52.1544 77.9548 52.5304 77.8361 52.9657 77.8361C53.8166 77.8361 54.4102 78.2516 54.7367 79.0728L55.4293 78.6869C55.0632 77.7074 54.2124 77.0742 52.9855 77.0742C52.3127 77.0742 51.7389 77.2721 51.264 77.658C50.7891 78.0438 50.5516 78.5484 50.5516 79.1915C50.5516 80.2699 51.2838 80.9526 52.8668 81.3385C54.0541 81.6254 54.6675 82.0904 54.6675 82.8819C54.6675 83.2777 54.5092 83.6042 54.1827 83.8515C53.8661 84.0989 53.4703 84.2275 53.0053 84.2275C52.006 84.2275 51.4223 83.6932 51.0265 82.7335L50.3241 83.0996C50.799 84.3561 51.6894 84.9893 53.0053 84.9893ZM56.5466 82.2586C56.5466 83.0105 56.7742 83.6536 57.2293 84.1879C57.6943 84.7222 58.2879 84.9893 59.0201 84.9893C59.9006 84.9893 60.5833 84.5936 61.0681 83.802V87.5122H61.8299V79.6268H61.078V80.7547C60.5239 79.9434 59.8413 79.5378 59.0201 79.5378C58.2978 79.5378 57.7042 79.8148 57.2392 80.359C56.7742 80.9031 56.5466 81.5364 56.5466 82.2586ZM59.1784 84.3066C58.6144 84.3066 58.1692 84.1088 57.8328 83.7229C57.4964 83.3271 57.3282 82.8423 57.3282 82.2784C57.3282 81.6947 57.4964 81.2 57.8328 80.8141C58.1692 80.4183 58.6144 80.2205 59.1784 80.2205C59.7126 80.2205 60.1579 80.4282 60.5239 80.8339C60.89 81.2395 61.078 81.7045 61.078 82.2487C61.078 82.8127 60.8999 83.2975 60.5338 83.7031C60.1777 84.1088 59.7225 84.3066 59.1784 84.3066ZM63.5203 79.6268V82.8918C63.5203 84.1582 64.2525 85.0091 65.5189 85.0091C66.3203 85.0091 66.9238 84.6529 67.3294 83.9406V84.9102H68.0814V79.6268H67.3195V82.6445C67.3195 83.1194 67.1711 83.5151 66.8743 83.8317C66.5775 84.1483 66.2015 84.3066 65.7464 84.3066C64.7966 84.3066 64.2821 83.6833 64.2821 82.7038V79.6268H63.5203ZM71.5525 81.8628C70.9984 81.8628 70.5136 81.9915 70.0882 82.2388C69.6727 82.4862 69.4649 82.8621 69.4649 83.3865V83.4459C69.4649 83.8911 69.6232 84.2671 69.9497 84.5639C70.2762 84.8508 70.7115 84.9992 71.2359 84.9992C71.9878 84.9992 72.5815 84.6628 73.0168 83.9801H73.0267V84.9102H73.7786V81.4968C73.7786 81.1703 73.7291 80.8834 73.6203 80.6261C73.3037 79.9039 72.6606 79.5378 71.691 79.5378C70.6423 79.5378 69.92 79.9929 69.5243 80.9031L70.1575 81.2593C70.484 80.5668 70.9885 80.2205 71.6712 80.2205C72.5716 80.2205 73.0168 80.6459 73.0168 81.5067V81.8628H71.5525ZM73.0168 82.684C73.0168 83.1688 72.8585 83.5547 72.5518 83.8614C72.2451 84.1681 71.8493 84.3165 71.3744 84.3165C70.7115 84.3165 70.2366 83.9702 70.2366 83.3865C70.2663 82.6939 70.9391 82.4862 71.5426 82.4961H73.0168V82.684ZM77.2561 84.9497C77.4836 84.9497 77.6914 84.9201 77.8596 84.8706V84.2275C77.7508 84.2572 77.5925 84.2671 77.3847 84.2671C76.8108 84.2671 76.5239 84.0197 76.5239 83.525V80.3095H77.8596V79.6268H76.5239V78.1032H75.7621V79.6268H74.7826V80.3095H75.7621V83.5448C75.7621 84.4847 76.2568 84.9497 77.2561 84.9497ZM82.6668 83.4063C82.6668 83.0798 82.5382 82.783 82.2909 82.5356C82.004 82.2388 81.5389 82.0212 80.9057 81.8826C79.9262 81.6749 79.669 81.4869 79.669 81.0516C79.669 80.824 79.7778 80.636 79.9856 80.4678C80.1934 80.2996 80.4506 80.2205 80.7375 80.2205C81.2817 80.2205 81.6972 80.5173 81.9743 81.1109L82.6075 80.7646C82.2513 79.9434 81.628 79.5378 80.7375 79.5378C80.2626 79.5378 79.8372 79.6862 79.4612 79.983C79.0853 80.2798 78.8973 80.6558 78.8973 81.1109C78.8973 81.4176 78.9962 81.6749 79.1842 81.9024C79.4711 82.2289 79.8372 82.3971 80.5595 82.5554C81.5192 82.783 81.8852 83.0105 81.8852 83.4558C81.8852 83.9801 81.3609 84.3165 80.7573 84.3165C80.134 84.3165 79.6591 83.9702 79.3326 83.2876L78.6994 83.6338C79.1051 84.5441 79.7976 84.9992 80.7672 84.9992C81.3114 84.9992 81.7665 84.8508 82.1227 84.554C82.4888 84.2473 82.6668 83.8713 82.6668 83.4063Z" fill="black"/>
<path d="M14.9893 91.1258V96.0444H15.5688V90.5109H15.0035L13.3992 91.4791L13.6607 91.9173L14.9893 91.1258ZM16.7327 96.0444H20.4641V95.5073H17.5242L19.2203 94.0233C19.6584 93.6346 19.9694 93.3024 20.1531 93.0268C20.3439 92.7441 20.4358 92.4261 20.4358 92.0798C20.4358 91.5993 20.2662 91.2106 19.9199 90.9067C19.5807 90.6028 19.1496 90.4473 18.6337 90.4473C17.7009 90.4473 17.0436 90.9986 16.8104 91.7689L17.3334 91.988C17.5878 91.3237 18.0189 90.9915 18.6196 90.9915C18.9871 90.9915 19.2839 91.1046 19.503 91.3237C19.722 91.5427 19.8351 91.7971 19.8351 92.094C19.8351 92.3625 19.7574 92.6099 19.609 92.8289C19.4606 93.048 19.1708 93.3448 18.7397 93.7264L16.7327 95.5073V96.0444ZM23.4808 92.2706V96.0444H24.032V94.1999C24.032 93.8112 24.1239 93.4862 24.3147 93.2106C24.5055 92.9349 24.8024 92.7936 25.2122 92.7936C25.2617 92.7936 25.3324 92.8007 25.4243 92.8077V92.2212C25.396 92.2141 25.3324 92.2141 25.2405 92.2141C24.76 92.2141 24.2865 92.4756 24.025 93.0197V92.2706H23.4808ZM29.37 94.3271C29.377 94.2918 29.377 94.2282 29.377 94.1434C29.377 93.571 29.2216 93.1116 28.9106 92.7512C28.5997 92.3908 28.1615 92.207 27.5962 92.207C27.0803 92.207 26.6421 92.3978 26.2888 92.7865C25.9354 93.1752 25.7587 93.6275 25.7587 94.1505C25.7587 94.6946 25.9425 95.1611 26.31 95.5427C26.6774 95.9172 27.1297 96.108 27.6739 96.108C28.3523 96.108 28.953 95.7547 29.271 95.1328L28.8612 94.8642C28.6421 95.3165 28.1969 95.6204 27.6668 95.6204C27.2993 95.6204 26.9884 95.5003 26.734 95.2529C26.4796 95.0056 26.3382 94.6946 26.317 94.3271H29.37ZM26.3241 93.8607C26.3736 93.5356 26.5149 93.26 26.7552 93.0339C26.9955 92.8007 27.2781 92.6876 27.5962 92.6876C28.3029 92.6876 28.741 93.154 28.8188 93.8607H26.3241ZM34.1079 94.1505C34.1079 93.6346 33.9383 93.1823 33.6061 92.7936C33.274 92.4049 32.8499 92.207 32.3341 92.207C31.7334 92.207 31.2457 92.5038 30.8712 93.0904V92.2706H30.327V97.9031H30.8782V95.2671C31.2316 95.8254 31.7192 96.101 32.3341 96.101C32.8499 96.101 33.274 95.9102 33.6061 95.5215C33.9383 95.1328 34.1079 94.6805 34.1079 94.1505ZM32.221 95.6133C31.8323 95.6133 31.5072 95.472 31.2528 95.1823C30.9984 94.8925 30.8712 94.5462 30.8712 94.1434C30.8712 93.7547 30.9984 93.4226 31.2599 93.1328C31.5213 92.8431 31.8394 92.6947 32.221 92.6947C32.6238 92.6947 32.9418 92.836 33.1821 93.1257C33.4224 93.4084 33.5425 93.7547 33.5425 94.1646C33.5425 94.5816 33.4224 94.9278 33.1821 95.2035C32.9489 95.4791 32.6238 95.6133 32.221 95.6133ZM37.5838 94.9702C37.5838 94.737 37.4919 94.525 37.3153 94.3483C37.1103 94.1363 36.7782 93.9809 36.3259 93.8819C35.6262 93.7335 35.4425 93.5992 35.4425 93.2883C35.4425 93.1257 35.5202 92.9915 35.6686 92.8713C35.8171 92.7512 36.0008 92.6947 36.2057 92.6947C36.5944 92.6947 36.8912 92.9067 37.0891 93.3307L37.5414 93.0833C37.287 92.4968 36.8418 92.207 36.2057 92.207C35.8665 92.207 35.5626 92.313 35.2941 92.525C35.0255 92.7371 34.8913 93.0056 34.8913 93.3307C34.8913 93.5498 34.9619 93.7335 35.0962 93.8961C35.3012 94.1293 35.5626 94.2494 36.0785 94.3625C36.764 94.525 37.0255 94.6876 37.0255 95.0056C37.0255 95.3801 36.651 95.6204 36.2199 95.6204C35.7746 95.6204 35.4354 95.3731 35.2022 94.8854L34.7499 95.1328C35.0397 95.783 35.5344 96.108 36.2269 96.108C36.6156 96.108 36.9407 96.002 37.1951 95.79C37.4566 95.5709 37.5838 95.3024 37.5838 94.9702ZM41.8626 96.0727C42.0252 96.0727 42.1736 96.0515 42.2937 96.0162V95.5568C42.216 95.578 42.1029 95.5851 41.9545 95.5851C41.5446 95.5851 41.3397 95.4084 41.3397 95.055V92.7583H42.2937V92.2706H41.3397V91.1823H40.7955V92.2706H40.0959V92.7583H40.7955V95.0692C40.7955 95.7406 41.1489 96.0727 41.8626 96.0727ZM44.8176 96.108C45.3689 96.108 45.8353 95.9172 46.2099 95.5427C46.5844 95.1681 46.7752 94.7017 46.7752 94.1434C46.7752 93.5992 46.5844 93.1469 46.2099 92.7724C45.8353 92.3978 45.3759 92.207 44.8318 92.207C44.2735 92.207 43.8071 92.3978 43.4325 92.7724C43.058 93.1469 42.8742 93.6134 42.8742 94.1717C42.8742 94.7088 43.058 95.1681 43.4325 95.5427C43.8071 95.9172 44.2735 96.108 44.8176 96.108ZM44.8318 95.6204C44.429 95.6204 44.0897 95.4791 43.8283 95.1893C43.5668 94.8996 43.4396 94.5462 43.4396 94.1434C43.4396 93.7406 43.5668 93.3943 43.8283 93.1116C44.0897 92.8289 44.4148 92.6876 44.8176 92.6876C45.2205 92.6876 45.5526 92.836 45.8141 93.1257C46.0756 93.4155 46.2099 93.7688 46.2099 94.1717C46.2099 94.5745 46.0756 94.9137 45.8141 95.1964C45.5526 95.4791 45.2275 95.6204 44.8318 95.6204ZM49.0677 96.0727C49.2302 96.0727 49.3786 96.0515 49.4988 96.0162V95.5568C49.421 95.578 49.308 95.5851 49.1596 95.5851C48.7497 95.5851 48.5447 95.4084 48.5447 95.055V92.7583H49.4988V92.2706H48.5447V91.1823H48.0006V92.2706H47.3009V92.7583H48.0006V95.0692C48.0006 95.7406 48.3539 96.0727 49.0677 96.0727ZM51.6605 93.8678C51.2647 93.8678 50.9184 93.9597 50.6145 94.1363C50.3177 94.313 50.1693 94.5816 50.1693 94.9561V94.9985C50.1693 95.3165 50.2824 95.5851 50.5156 95.7971C50.7488 96.002 51.0598 96.108 51.4343 96.108C51.9714 96.108 52.3954 95.8678 52.7064 95.3801H52.7135V96.0444H53.2506V93.6063C53.2506 93.3731 53.2152 93.1681 53.1375 92.9844C52.9113 92.4685 52.452 92.207 51.7594 92.207C51.0103 92.207 50.4944 92.5321 50.2117 93.1823L50.664 93.4367C50.8972 92.942 51.2576 92.6947 51.7453 92.6947C52.3884 92.6947 52.7064 92.9985 52.7064 93.6134V93.8678H51.6605ZM52.7064 94.4543C52.7064 94.8006 52.5933 95.0762 52.3742 95.2953C52.1552 95.5144 51.8725 95.6204 51.5333 95.6204C51.0598 95.6204 50.7206 95.3731 50.7206 94.9561C50.7418 94.4614 51.2223 94.313 51.6534 94.3201H52.7064V94.4543ZM55.0057 90.2848H54.4474V96.0444H55.0057V90.2848ZM58.8656 89.7477H58.3285V96.8642H58.8656V89.7477ZM63.2509 91.1258V96.0444H63.8304V90.5109H63.265L61.6608 91.4791L61.9223 91.9173L63.2509 91.1258ZM67.3334 90.4544C66.2027 90.4473 65.4394 91.2954 65.1638 92.2777C64.867 93.2671 65.0295 94.3978 65.5878 95.2105C65.9553 95.7476 66.5702 96.101 67.3051 96.101C67.6726 96.101 68.0048 96.0162 68.3086 95.8536C69.185 95.3731 69.616 94.2918 69.616 93.2671C69.616 91.8961 68.8457 90.4544 67.3334 90.4544ZM65.6161 93.2671C65.6161 92.7512 65.7504 92.2141 66.0119 91.7618C66.2733 91.3025 66.7468 90.9915 67.3122 90.9915C67.8776 90.9915 68.3581 91.3166 68.6196 91.7759C68.8811 92.2353 69.0224 92.7795 69.0224 93.2954C69.0224 94.2777 68.5136 95.5709 67.3193 95.5709C66.1249 95.5709 65.6161 94.2706 65.6161 93.2671ZM71.2033 90.2848H70.645V96.0444H71.2033V90.2848ZM76.2272 94.1505C76.2272 93.6346 76.0575 93.1823 75.7254 92.7936C75.3932 92.4049 74.9692 92.207 74.4533 92.207C73.8597 92.207 73.3721 92.4968 72.9975 93.0833V90.2919H72.4463V96.0444H72.9904V95.2529C73.3367 95.8183 73.8244 96.101 74.4533 96.101C74.9692 96.101 75.3932 95.9102 75.7254 95.5215C76.0575 95.1328 76.2272 94.6805 76.2272 94.1505ZM74.3403 95.6133C73.9516 95.6133 73.6265 95.472 73.3721 95.1823C73.1177 94.8925 72.9904 94.5462 72.9904 94.1434C72.9904 93.7547 73.1177 93.4226 73.3791 93.1328C73.6406 92.8431 73.9586 92.6947 74.3403 92.6947C74.7431 92.6947 75.0611 92.836 75.3014 93.1257C75.5416 93.4084 75.6618 93.7547 75.6618 94.1646C75.6618 94.5816 75.5416 94.9278 75.3014 95.2035C75.0682 95.4791 74.7431 95.6133 74.3403 95.6133ZM79.7031 94.9702C79.7031 94.737 79.6112 94.525 79.4345 94.3483C79.2296 94.1363 78.8974 93.9809 78.4452 93.8819C77.7455 93.7335 77.5618 93.5992 77.5618 93.2883C77.5618 93.1257 77.6395 92.9915 77.7879 92.8713C77.9363 92.7512 78.1201 92.6947 78.325 92.6947C78.7137 92.6947 79.0105 92.9067 79.2084 93.3307L79.6607 93.0833C79.4063 92.4968 78.961 92.207 78.325 92.207C77.9858 92.207 77.6819 92.313 77.4134 92.525C77.1448 92.7371 77.0105 93.0056 77.0105 93.3307C77.0105 93.5498 77.0812 93.7335 77.2155 93.8961C77.4204 94.1293 77.6819 94.2494 78.1978 94.3625C78.8833 94.525 79.1448 94.6876 79.1448 95.0056C79.1448 95.3801 78.7702 95.6204 78.3391 95.6204C77.8939 95.6204 77.5547 95.3731 77.3215 94.8854L76.8692 95.1328C77.159 95.783 77.6536 96.108 78.3462 96.108C78.7349 96.108 79.06 96.002 79.3144 95.79C79.5759 95.5709 79.7031 95.3024 79.7031 94.9702Z" fill="#828282"/>
<path d="M107.582 245.678H109.668V240.641H112.195L115.078 245.678H117.436L114.281 240.285C116.062 239.691 117.097 238.334 117.097 236.485C117.097 235.315 116.724 234.348 115.994 233.568C115.265 232.788 114.112 232.398 112.568 232.398H107.582V245.678ZM109.668 234.331H112.348C114.519 234.331 114.977 235.519 114.977 236.536C114.977 237.757 114.196 238.758 112.348 238.758H109.668V234.331ZM128.27 234.281V232.398H119.772V245.678H128.337V243.779H121.858V239.861H127.693V237.978H121.858V234.281H128.27ZM134.869 245.831C136.243 245.831 137.345 245.458 138.159 244.694C138.973 243.931 139.38 243.032 139.38 241.998C139.38 241.031 139.058 240.234 138.431 239.623C137.803 238.996 136.667 238.436 135.022 237.944C133.393 237.452 132.562 236.909 132.562 235.909C132.562 234.84 133.495 234.094 134.784 234.094C136.056 234.094 136.955 234.721 137.464 235.96L139.194 235.027C138.566 233.382 137.074 232.211 134.835 232.211C133.597 232.211 132.562 232.584 131.697 233.331C130.849 234.06 130.425 234.959 130.425 236.027C130.425 237.045 130.764 237.859 131.443 238.453C132.087 239.03 133.122 239.538 134.564 239.996C136.463 240.59 137.226 241.15 137.226 242.116C137.226 243.219 136.26 243.931 134.903 243.931C133.461 243.931 132.308 243.151 131.748 241.726L129.984 242.642C130.73 244.678 132.545 245.831 134.869 245.831ZM140.262 234.331H144.469V245.678H146.555V234.331H150.778V232.398H140.262V234.331Z" fill="black"/>
<path d="M60.3852 41.561H62.6608V32.7131H65.9823V30.4941H57.0637V32.7131H60.3852V41.561ZM70.9263 33.9852C70.8133 33.9428 70.6719 33.9286 70.4882 33.9286C69.4847 33.9286 68.679 34.4799 68.3539 35.1724H68.3398V34.0134H66.149V41.561H68.3539V38.3667C68.3539 37.0099 68.9758 36.1194 70.4034 36.1194C70.5871 36.1194 70.7567 36.1335 70.9263 36.1618V33.9852ZM74.1077 41.7024C75.1112 41.7024 75.8603 41.3349 76.3692 40.6141L76.3974 40.6282V41.561H78.4327V36.8827C78.4327 34.9039 77.1465 33.8438 75.1536 33.8438C73.4999 33.8438 72.341 34.4375 71.6908 35.6389L73.3727 36.6424C73.7544 35.9639 74.3056 35.6247 75.0547 35.6247C75.8462 35.6247 76.2702 36.0346 76.2702 36.5576C76.2702 36.9251 76.0723 37.1088 75.6766 37.1088H74.9275C74.0794 37.1088 73.3727 37.236 72.6802 37.5611C72.0017 37.8862 71.5636 38.5363 71.5636 39.4268V39.4551C71.5636 40.1335 71.8039 40.6847 72.2985 41.0946C72.7932 41.5045 73.401 41.7024 74.1077 41.7024ZM74.7437 40.0911C74.1784 40.0911 73.7826 39.8367 73.7826 39.3279C73.7826 38.7625 74.2915 38.4657 74.9275 38.4657H76.2561V38.6353C76.2561 39.4692 75.6907 40.0911 74.7437 40.0911ZM83.9977 41.7306C85.6797 41.7306 87.0507 40.925 87.6302 39.3844L85.6797 38.5787C85.3546 39.3279 84.8033 39.6953 84.0118 39.6953C82.9376 39.6953 82.2027 38.9038 82.2027 37.7731C82.2027 36.6 82.9942 35.865 84.0118 35.865C84.7609 35.865 85.3122 36.2325 85.6373 36.9816L87.5736 36.176C87.0789 34.6919 85.6938 33.8438 84.0118 33.8438C82.8811 33.8438 81.92 34.2254 81.1285 34.9887C80.337 35.7519 79.9412 36.6848 79.9412 37.8014C79.9412 38.9321 80.3228 39.8649 81.0861 40.6141C81.8493 41.3632 82.8246 41.7306 83.9977 41.7306ZM91.2942 37.9851H91.3507L94.0221 41.561H96.8065L93.6829 37.4904L96.7217 34.0134H93.909L91.2942 36.9816V30.0418H89.0893V41.561H91.2942V37.9851ZM104.141 41.561H106.431V37.0805L110.487 30.4941H107.873L105.286 34.918L102.728 30.4941H100.085L104.141 37.1795V41.561ZM109.451 37.8014C109.451 38.9321 109.847 39.8649 110.639 40.6141C111.43 41.3632 112.405 41.7306 113.564 41.7306C114.709 41.7306 115.684 41.349 116.49 40.5999C117.296 39.8367 117.691 38.8897 117.691 37.759C117.691 36.6424 117.296 35.7237 116.504 34.9746C115.713 34.2254 114.737 33.8438 113.593 33.8438C112.448 33.8438 111.458 34.2254 110.653 34.9887C109.847 35.7378 109.451 36.6848 109.451 37.8014ZM111.713 37.7731C111.713 37.2219 111.896 36.7554 112.25 36.4021C112.603 36.0346 113.041 35.8509 113.564 35.8509C114.087 35.8509 114.54 36.0346 114.893 36.4021C115.246 36.7554 115.43 37.2219 115.43 37.7731C115.43 38.9038 114.639 39.7095 113.578 39.7095C113.055 39.7095 112.603 39.5257 112.25 39.1724C111.896 38.8049 111.713 38.3385 111.713 37.7731ZM119.192 34.0134V38.7484C119.192 39.5823 119.432 40.289 119.898 40.8685C120.379 41.4338 121.071 41.7165 121.962 41.7165C122.866 41.7165 123.573 41.349 124.068 40.6282H124.082V41.561H126.259V34.0134H124.054V38.2254C124.054 39.0593 123.587 39.6671 122.697 39.6671C121.806 39.6671 121.396 39.1158 121.396 38.2254V34.0134H119.192ZM133.067 33.9852C132.954 33.9428 132.812 33.9286 132.628 33.9286C131.625 33.9286 130.819 34.4799 130.494 35.1724H130.48V34.0134H128.289V41.561H130.494V38.3667C130.494 37.0099 131.116 36.1194 132.544 36.1194C132.727 36.1194 132.897 36.1335 133.067 36.1618V33.9852ZM145.821 34.0417C145.821 32.911 145.454 32.0347 144.704 31.4269C143.969 30.805 143.022 30.4941 141.863 30.4941H137.75V41.561H140.04V37.66H141.779C142.994 37.66 143.969 37.3491 144.704 36.7413C145.454 36.1194 145.821 35.2148 145.821 34.0417ZM143.517 34.0982C143.517 35.0594 142.697 35.5258 141.68 35.5258H140.04V32.6566H141.666C142.726 32.6566 143.517 33.0947 143.517 34.0982ZM152.045 33.9852C151.932 33.9428 151.791 33.9286 151.607 33.9286C150.604 33.9286 149.798 34.4799 149.473 35.1724H149.459V34.0134H147.268V41.561H149.473V38.3667C149.473 37.0099 150.095 36.1194 151.522 36.1194C151.706 36.1194 151.876 36.1335 152.045 36.1618V33.9852ZM152.64 37.8014C152.64 38.9321 153.036 39.8649 153.828 40.6141C154.619 41.3632 155.594 41.7306 156.753 41.7306C157.898 41.7306 158.873 41.349 159.679 40.5999C160.485 39.8367 160.88 38.8897 160.88 37.759C160.88 36.6424 160.485 35.7237 159.693 34.9746C158.902 34.2254 157.926 33.8438 156.782 33.8438C155.637 33.8438 154.647 34.2254 153.842 34.9887C153.036 35.7378 152.64 36.6848 152.64 37.8014ZM154.902 37.7731C154.902 37.2219 155.085 36.7554 155.439 36.4021C155.792 36.0346 156.23 35.8509 156.753 35.8509C157.276 35.8509 157.729 36.0346 158.082 36.4021C158.435 36.7554 158.619 37.2219 158.619 37.7731C158.619 38.9038 157.828 39.7095 156.767 39.7095C156.244 39.7095 155.792 39.5257 155.439 39.1724C155.085 38.8049 154.902 38.3385 154.902 37.7731ZM162.154 43.1723C162.833 44.614 164.105 45.3348 165.971 45.3348C167.172 45.3348 168.147 45.0098 168.896 44.3454C169.66 43.6811 170.041 42.7624 170.041 41.5893V34.0134H167.879V34.9322H167.85C167.271 34.2396 166.508 33.9004 165.561 33.9004C164.515 33.9004 163.653 34.282 162.988 35.0594C162.324 35.8226 161.999 36.713 161.999 37.7166C161.999 38.7908 162.338 39.6953 163.017 40.4162C163.695 41.137 164.571 41.5045 165.646 41.5045C166.578 41.5045 167.299 41.1653 167.822 40.501H167.85V41.6458C167.85 42.819 167.101 43.4126 165.956 43.4126C165.038 43.4126 164.373 42.9886 163.949 42.1405L162.154 43.1723ZM167.907 37.7166C167.907 38.8332 167.101 39.5823 166.07 39.5823C165.009 39.5823 164.232 38.8332 164.232 37.7166C164.232 36.6282 165.038 35.865 166.07 35.865C167.13 35.865 167.907 36.6282 167.907 37.7166ZM176.863 33.9852C176.75 33.9428 176.608 33.9286 176.425 33.9286C175.421 33.9286 174.616 34.4799 174.29 35.1724H174.276V34.0134H172.086V41.561H174.29V38.3667C174.29 37.0099 174.912 36.1194 176.34 36.1194C176.524 36.1194 176.693 36.1335 176.863 36.1618V33.9852ZM185.189 38.395C185.203 38.2254 185.217 37.9568 185.217 37.6035C185.217 36.4869 184.864 35.5682 184.171 34.8756C183.479 34.183 182.574 33.8297 181.458 33.8297C180.369 33.8297 179.422 34.2113 178.631 34.9887C177.854 35.7661 177.458 36.6848 177.458 37.7731C177.458 38.9321 177.854 39.8791 178.645 40.6282C179.451 41.3632 180.426 41.7306 181.599 41.7306C183.14 41.7306 184.214 41.1653 184.85 40.0204L183.253 38.9745C182.914 39.5257 182.235 39.8791 181.571 39.8791C180.624 39.8791 179.832 39.3137 179.705 38.395H185.189ZM179.762 36.9392C179.804 36.6424 179.974 36.3456 180.27 36.0629C180.567 35.7661 180.949 35.6247 181.401 35.6247C182.405 35.6247 182.956 36.2749 183.012 36.9392H179.762ZM192.467 39.2854C192.467 37.971 191.464 37.2219 189.556 36.8261C188.892 36.6848 188.566 36.4586 188.566 36.1335C188.566 35.8367 188.906 35.5823 189.358 35.5823C189.994 35.5823 190.446 35.8226 190.729 36.3032L192.326 35.3562C191.831 34.4375 190.814 33.8297 189.415 33.8297C188.623 33.8297 187.945 34.0558 187.365 34.5081C186.8 34.9463 186.517 35.5258 186.517 36.2184C186.517 37.448 187.407 38.2678 189.202 38.6635C190.164 38.8756 190.404 39.1017 190.404 39.3985C190.404 39.6953 190.036 39.9498 189.485 39.9498C188.665 39.9498 188.1 39.6388 187.789 39.031L186.164 39.9922C186.771 41.1511 187.874 41.7306 189.457 41.7306C191.323 41.7306 192.467 40.7413 192.467 39.2854ZM199.7 39.2854C199.7 37.971 198.697 37.2219 196.789 36.8261C196.124 36.6848 195.799 36.4586 195.799 36.1335C195.799 35.8367 196.138 35.5823 196.591 35.5823C197.227 35.5823 197.679 35.8226 197.962 36.3032L199.559 35.3562C199.064 34.4375 198.046 33.8297 196.647 33.8297C195.856 33.8297 195.177 34.0558 194.598 34.5081C194.032 34.9463 193.75 35.5258 193.75 36.2184C193.75 37.448 194.64 38.2678 196.435 38.6635C197.396 38.8756 197.637 39.1017 197.637 39.3985C197.637 39.6953 197.269 39.9498 196.718 39.9498C195.898 39.9498 195.333 39.6388 195.022 39.031L193.396 39.9922C194.004 41.1511 195.107 41.7306 196.69 41.7306C198.555 41.7306 199.7 40.7413 199.7 39.2854Z" fill="black"/>
<path d="M96.2598 55.6402C97.0118 55.6402 97.6153 55.4324 98.0704 55.007C98.5255 54.5815 98.7531 54.0671 98.7531 53.4734C98.7531 52.9886 98.575 52.5533 98.2188 52.1674C97.8329 51.742 97.1799 51.4155 96.2697 51.188C95.0923 50.8812 94.6174 50.5053 94.6174 49.8028C94.6174 49.417 94.7757 49.1003 95.0923 48.853C95.4089 48.6057 95.7849 48.4869 96.2202 48.4869C97.0711 48.4869 97.6647 48.9025 97.9912 49.7237L98.6838 49.3378C98.3177 48.3583 97.4669 47.7251 96.24 47.7251C95.5672 47.7251 94.9934 47.923 94.5185 48.3088C94.0436 48.6947 93.8061 49.1993 93.8061 49.8424C93.8061 50.9208 94.5383 51.6035 96.1213 51.9894C97.3086 52.2763 97.922 52.7413 97.922 53.5328C97.922 53.9285 97.7637 54.255 97.4372 54.5024C97.1206 54.7497 96.7248 54.8784 96.2598 54.8784C95.2605 54.8784 94.6768 54.3441 94.281 53.3844L93.5786 53.7505C94.0535 55.007 94.9439 55.6402 96.2598 55.6402ZM104.847 53.1568C104.857 53.1074 104.857 53.0183 104.857 52.8996C104.857 52.0982 104.639 51.4551 104.204 50.9505C103.769 50.4459 103.155 50.1887 102.364 50.1887C101.641 50.1887 101.028 50.4558 100.533 51C100.039 51.5441 99.7912 52.1773 99.7912 52.9095C99.7912 53.6713 100.048 54.3243 100.563 54.8586C101.077 55.3829 101.711 55.6501 102.472 55.6501C103.422 55.6501 104.263 55.1554 104.708 54.2847L104.135 53.9088C103.828 54.542 103.205 54.9674 102.463 54.9674C101.948 54.9674 101.513 54.7992 101.157 54.4529C100.8 54.1066 100.603 53.6713 100.573 53.1568H104.847ZM100.583 52.5038C100.652 52.0487 100.85 51.6629 101.186 51.3463C101.523 51.0198 101.918 50.8615 102.364 50.8615C103.353 50.8615 103.966 51.5144 104.075 52.5038H100.583ZM107.94 55.6006C108.168 55.6006 108.376 55.5709 108.544 55.5215V54.8784C108.435 54.908 108.277 54.9179 108.069 54.9179C107.495 54.9179 107.208 54.6706 107.208 54.1759V50.9604H108.544V50.2777H107.208V48.7541H106.446V50.2777H105.467V50.9604H106.446V54.1957C106.446 55.1356 106.941 55.6006 107.94 55.6006ZM114.096 48.6749V55.561H114.907V47.8141H114.116L111.87 49.1696L112.236 49.783L114.096 48.6749ZM120.527 46.7456H119.775V56.7087H120.527V46.7456ZM127.784 52.4247L130.07 55.561H131.059L128.665 52.2862C129.278 52.207 129.783 51.9795 130.189 51.5936C130.594 51.2077 130.792 50.7032 130.792 50.0699C130.792 49.4268 130.565 48.8827 130.1 48.4572C129.644 48.0318 128.972 47.8141 128.071 47.8141H125.39V55.561H126.201V52.4247H127.784ZM126.201 48.576H128.022C129.377 48.576 129.971 49.229 129.971 50.0996C129.971 50.535 129.803 50.9109 129.476 51.2176C129.15 51.5243 128.655 51.6826 128.002 51.6826H126.201V48.576ZM134.503 55.6501C135.275 55.6501 135.928 55.3829 136.452 54.8586C136.976 54.3342 137.243 53.6812 137.243 52.8996C137.243 52.1378 136.976 51.5046 136.452 50.9802C135.928 50.4558 135.284 50.1887 134.523 50.1887C133.741 50.1887 133.088 50.4558 132.564 50.9802C132.039 51.5046 131.782 52.1575 131.782 52.9392C131.782 53.6911 132.039 54.3342 132.564 54.8586C133.088 55.3829 133.741 55.6501 134.503 55.6501ZM134.523 54.9674C133.959 54.9674 133.484 54.7695 133.118 54.3639C132.752 53.9582 132.574 53.4635 132.574 52.8996C132.574 52.3356 132.752 51.8508 133.118 51.4551C133.484 51.0593 133.939 50.8615 134.503 50.8615C135.067 50.8615 135.532 51.0692 135.898 51.4749C136.264 51.8805 136.452 52.3752 136.452 52.9392C136.452 53.5031 136.264 53.978 135.898 54.3738C135.532 54.7695 135.077 54.9674 134.523 54.9674ZM138.543 50.2777V53.5427C138.543 54.8091 139.276 55.66 140.542 55.66C141.343 55.66 141.947 55.3038 142.353 54.5914V55.561H143.104V50.2777H142.343V53.2953C142.343 53.7702 142.194 54.166 141.897 54.4826C141.601 54.7992 141.225 54.9575 140.769 54.9575C139.82 54.9575 139.305 54.3342 139.305 53.3547V50.2777H138.543ZM149.435 55.561V52.2961C149.435 51.0296 148.703 50.1788 147.436 50.1788C146.635 50.1788 146.031 50.535 145.616 51.2473V50.2777H144.854V55.561H145.626V52.5533C145.626 52.0784 145.774 51.6826 146.071 51.366C146.368 51.0395 146.744 50.8812 147.199 50.8812C148.149 50.8812 148.663 51.5046 148.663 52.484V55.561H149.435ZM150.729 52.9095C150.729 53.6614 150.957 54.3045 151.412 54.8388C151.877 55.3731 152.471 55.6402 153.203 55.6402C154.083 55.6402 154.776 55.2345 155.261 54.4331V55.561H156.013V47.5074H155.251V51.3858C154.707 50.5844 154.024 50.1887 153.203 50.1887C152.481 50.1887 151.887 50.4657 151.422 51.0099C150.957 51.554 150.729 52.1872 150.729 52.9095ZM153.361 54.9575C152.797 54.9575 152.352 54.7596 152.016 54.3738C151.679 53.978 151.511 53.4932 151.511 52.9293C151.511 52.3455 151.679 51.8508 152.016 51.465C152.352 51.0692 152.797 50.8713 153.361 50.8713C153.895 50.8713 154.341 51.0791 154.707 51.4848C155.073 51.8904 155.261 52.3554 155.261 52.8996C155.261 53.4635 155.083 53.9483 154.717 54.354C154.36 54.7596 153.905 54.9575 153.361 54.9575ZM162.01 48.6749V55.561H162.821V47.8141H162.03L159.784 49.1696L160.15 49.783L162.01 48.6749Z" fill="#757575"/>
<path d="M229.559 14.1338L235.212 19.7874M240.866 25.4411L235.212 19.7874M235.212 19.7874L240.866 14.1338L229.559 25.4411" stroke="#B4B4B4" stroke-width="1.76676"/>
<rect x="19.6675" y="307.416" width="212.011" height="35.3352" rx="17.6676" fill="#FFB636"/>
<path d="M98.7196 322.956C98.7196 324.568 99.2708 325.925 100.359 327.013C101.447 328.101 102.804 328.638 104.416 328.638C105.532 328.638 106.578 328.342 107.525 327.762C108.486 327.168 109.151 326.363 109.518 325.345L107.412 324.37C106.917 325.6 105.801 326.419 104.444 326.419C103.469 326.419 102.677 326.08 102.041 325.416C101.405 324.737 101.094 323.903 101.094 322.928C101.094 321.967 101.419 321.147 102.055 320.483C102.691 319.819 103.497 319.48 104.444 319.48C105.815 319.48 106.917 320.243 107.384 321.472L109.476 320.511C109.108 319.508 108.458 318.702 107.525 318.123C106.606 317.543 105.575 317.246 104.458 317.246C102.861 317.246 101.504 317.798 100.387 318.914C99.2708 320.017 98.7196 321.359 98.7196 322.956ZM110.423 324.723C110.423 325.854 110.819 326.787 111.61 327.536C112.402 328.285 113.377 328.653 114.536 328.653C115.681 328.653 116.656 328.271 117.462 327.522C118.267 326.759 118.663 325.812 118.663 324.681C118.663 323.564 118.267 322.646 117.476 321.896C116.684 321.147 115.709 320.766 114.564 320.766C113.419 320.766 112.43 321.147 111.624 321.911C110.819 322.66 110.423 323.607 110.423 324.723ZM112.684 324.695C112.684 324.144 112.868 323.677 113.222 323.324C113.575 322.956 114.013 322.773 114.536 322.773C115.059 322.773 115.511 322.956 115.865 323.324C116.218 323.677 116.402 324.144 116.402 324.695C116.402 325.826 115.61 326.631 114.55 326.631C114.027 326.631 113.575 326.448 113.222 326.094C112.868 325.727 112.684 325.26 112.684 324.695ZM127.301 328.483V323.79C127.301 322.942 127.075 322.236 126.608 321.656C126.156 321.077 125.478 320.794 124.573 320.794C124.248 320.794 123.852 320.808 123.188 321.19C122.863 321.373 122.623 321.614 122.439 321.925H122.425V320.935H120.234V328.483H122.439V324.299C122.439 323.465 122.905 322.829 123.796 322.829C124.658 322.829 125.11 323.409 125.11 324.299V328.483H127.301ZM132.103 320.935V320.144C132.103 319.282 132.598 318.815 133.446 318.815C133.715 318.815 133.941 318.843 134.124 318.9V317.091C133.799 316.992 133.46 316.935 133.093 316.935C130.958 316.935 129.912 318.222 129.912 320.186V320.935H128.556V322.815H129.912V328.483H132.117V322.815H135.326V328.483H137.545V320.935H132.103ZM136.414 319.663C137.192 319.663 137.799 319.055 137.799 318.306C137.799 317.529 137.192 316.935 136.414 316.935C135.679 316.935 135.057 317.557 135.057 318.306C135.057 319.055 135.679 319.663 136.414 319.663ZM144.363 320.907C144.25 320.865 144.108 320.851 143.925 320.851C142.921 320.851 142.116 321.402 141.79 322.094H141.776V320.935H139.586V328.483H141.79V325.289C141.79 323.932 142.412 323.041 143.84 323.041C144.024 323.041 144.193 323.055 144.363 323.084V320.907ZM153.915 322.829C154.734 322.829 155.144 323.31 155.144 324.271V328.483H157.349V323.776C157.349 321.953 156.459 320.766 154.692 320.766C153.632 320.766 152.925 321.133 152.19 321.967C151.766 321.161 151.031 320.766 149.985 320.766C149.081 320.766 148.19 321.19 147.781 321.925H147.752V320.935H145.59V328.483H147.795V324.299C147.795 323.409 148.247 322.829 149.137 322.829C149.957 322.829 150.367 323.324 150.367 324.299V328.483H152.558V324.271C152.558 323.381 153.053 322.829 153.915 322.829Z" fill="white"/>
<path d="M93.5146 278.964C93.5146 276.198 92.4015 274.417 89.6348 273.272V273.24C91.8927 272.031 93.0375 270.282 93.0375 267.993C93.0375 265.862 92.2425 264.113 90.6524 262.809C89.0623 261.505 86.9952 260.837 84.4511 260.837C80.2851 260.837 76.9777 262.777 75.5784 266.212L80.1897 268.406C81.0483 266.562 82.384 265.639 84.2603 265.639C86.5182 265.639 87.8539 266.784 87.8539 268.342C87.8539 269.996 86.55 271.141 84.3557 271.141H82.0024V275.911H84.6419C86.9316 275.911 88.2991 276.961 88.2991 278.837C88.2991 280.586 86.8362 281.731 84.6419 281.731C82.384 281.731 80.5713 280.682 79.7126 278.869L75.1968 281.19C76.6915 284.657 80.1579 286.501 84.5147 286.501C87.0906 286.501 89.2213 285.802 90.9386 284.371C92.6559 282.939 93.5146 281.127 93.5146 278.964ZM96.6672 273.653C96.6672 276.993 97.5576 280.077 99.2113 282.494C100.897 284.911 103.759 286.438 107.289 286.438C114.444 286.438 118.006 280.109 118.006 273.526C118.006 268.979 116.543 265.099 113.236 262.682C111.614 261.442 109.642 260.837 107.384 260.837C105.063 260.837 103.059 261.473 101.406 262.714C99.7519 263.954 98.5435 265.512 97.7802 267.388C97.0488 269.265 96.6672 271.364 96.6672 273.653ZM102.36 270.092C102.709 268.979 103.314 267.961 104.172 267.102C105.031 266.212 106.08 265.767 107.321 265.767C108.561 265.767 109.61 266.212 110.469 267.102C112.981 269.615 113.268 273.781 112.282 277.12C111.932 278.265 111.328 279.282 110.469 280.173C109.61 281.031 108.561 281.477 107.321 281.477C106.08 281.477 105.031 281.031 104.172 280.173C101.66 277.597 101.374 273.335 102.36 270.092ZM142.575 281C142.575 278.042 140.317 276.357 136.023 275.466C134.529 275.148 133.797 274.639 133.797 273.908C133.797 273.24 134.561 272.668 135.578 272.668C137.009 272.668 138.027 273.208 138.663 274.289L142.257 272.159C141.144 270.092 138.854 268.724 135.705 268.724C133.925 268.724 132.398 269.233 131.094 270.251C129.822 271.236 129.186 272.54 129.186 274.099C129.186 276.865 131.19 278.71 135.228 279.6C137.391 280.077 137.932 280.586 137.932 281.254C137.932 281.922 137.105 282.494 135.864 282.494C134.02 282.494 132.748 281.795 132.048 280.427L128.391 282.59C129.759 285.197 132.239 286.501 135.801 286.501C139.999 286.501 142.575 284.275 142.575 281ZM162.41 278.996C162.442 278.614 162.474 278.01 162.474 277.215C162.474 274.703 161.678 272.636 160.12 271.077C158.562 269.519 156.527 268.724 154.014 268.724C151.566 268.724 149.435 269.583 147.654 271.332C145.905 273.081 145.014 275.148 145.014 277.597C145.014 280.205 145.905 282.335 147.686 284.021C149.498 285.674 151.693 286.501 154.332 286.501C157.799 286.501 160.216 285.229 161.647 282.653L158.053 280.3C157.29 281.54 155.763 282.335 154.269 282.335C152.138 282.335 150.357 281.063 150.071 278.996H162.41ZM150.198 275.72C150.293 275.053 150.675 274.385 151.343 273.749C152.011 273.081 152.869 272.763 153.887 272.763C156.145 272.763 157.385 274.226 157.512 275.72H150.198ZM174.111 286.501C177.896 286.501 180.981 284.689 182.284 281.222L177.896 279.409C177.164 281.095 175.924 281.922 174.143 281.922C171.726 281.922 170.073 280.141 170.073 277.597C170.073 274.957 171.854 273.304 174.143 273.304C175.829 273.304 177.069 274.13 177.8 275.816L182.157 274.003C181.044 270.664 177.928 268.756 174.143 268.756C171.599 268.756 169.437 269.615 167.656 271.332C165.875 273.049 164.984 275.148 164.984 277.66C164.984 280.205 165.843 282.303 167.56 283.989C169.278 285.674 171.472 286.501 174.111 286.501Z" fill="#63C6D4"/>
<path d="M223.905 87.2775L228.725 91.8711L237.332 83.3906" stroke="#FFB636" stroke-width="2.12011" stroke-linecap="round"/>
<path d="M41.4342 156.764V175.527H46.586V150.627H42.3564L33.8972 155.588L36.1869 159.754L41.4342 156.764ZM51.0109 175.527H69.2333V170.821H58.4843L62.6822 167.482C65.0673 165.605 66.7528 164.047 67.675 162.807C68.6291 161.566 69.1061 160.072 69.1061 158.291C69.1061 156.001 68.311 154.093 66.6892 152.567C65.0673 151.008 62.9366 150.245 60.2652 150.245C58.1345 150.245 56.2264 150.754 54.5409 151.771C52.8872 152.757 51.7742 154.252 51.1699 156.192L55.9084 158.195C56.7352 156.128 58.1663 155.079 60.2334 155.079C62.2687 155.079 63.7952 156.542 63.7952 158.323C63.7952 159.245 63.509 160.072 62.9048 160.835C62.3005 161.598 61.2511 162.616 59.6928 163.888L51.0109 171.012V175.527Z" fill="black"/>
<path d="M49.7733 196.156H51.1641V192.798H52.8489L54.7711 196.156H56.3428L54.2397 192.561C55.4269 192.165 56.1167 191.26 56.1167 190.028C56.1167 189.248 55.8679 188.603 55.3817 188.083C54.8955 187.563 54.1266 187.303 53.0976 187.303H49.7733V196.156ZM51.1641 188.592H52.9506C54.398 188.592 54.7033 189.383 54.7033 190.062C54.7033 190.876 54.1831 191.543 52.9506 191.543H51.1641V188.592ZM63.5653 188.558V187.303H57.9004V196.156H63.6106V194.89H59.2912V192.278H63.1809V191.023H59.2912V188.558H63.5653ZM71.6284 190.05C71.6284 189.293 71.3683 188.637 70.8482 188.105C70.3394 187.574 69.5592 187.303 68.5302 187.303H65.3981V196.156H66.7889V192.877H68.3606C69.3896 192.877 70.1811 192.606 70.7577 192.074C71.3344 191.532 71.6284 190.853 71.6284 190.05ZM68.4058 188.592C69.0616 188.592 69.5252 188.739 69.7966 189.033C70.0793 189.327 70.215 189.677 70.215 190.084C70.215 190.898 69.6383 191.599 68.4058 191.599H66.7889V188.592H68.4058ZM75.6834 196.258C76.5993 196.258 77.3342 196.009 77.877 195.5C78.4197 194.992 78.6911 194.392 78.6911 193.703C78.6911 193.058 78.4763 192.527 78.0579 192.12C77.6395 191.701 76.8819 191.328 75.7851 191C74.6996 190.672 74.1456 190.31 74.1456 189.643C74.1456 188.931 74.7675 188.433 75.6268 188.433C76.4749 188.433 77.0742 188.852 77.4134 189.677L78.5667 189.055C78.1483 187.958 77.1533 187.178 75.6608 187.178C74.8353 187.178 74.1456 187.427 73.5689 187.925C73.0035 188.411 72.7209 189.01 72.7209 189.722C72.7209 190.401 72.947 190.944 73.3993 191.339C73.829 191.724 74.5187 192.063 75.4798 192.368C76.7462 192.764 77.2551 193.137 77.2551 193.782C77.2551 194.517 76.6106 194.992 75.706 194.992C74.7449 194.992 73.976 194.471 73.6028 193.522L72.4269 194.132C72.9244 195.489 74.1343 196.258 75.6834 196.258Z" fill="black"/>
<path d="M171.111 194.189L169.121 187.303H167.629L170.297 196.156H171.858L173.995 189.236H174.006L176.12 196.156H177.703L180.395 187.303H178.947L176.923 194.189L174.786 187.303H173.237L171.111 194.189ZM187.437 188.558V187.303H181.772V196.156H187.482V194.89H183.163V192.278H187.053V191.023H183.163V188.558H187.437ZM189.27 196.156H190.661V187.303H189.27V196.156ZM200.829 189.802C200.58 189.067 200.105 188.456 199.404 187.947C198.703 187.438 197.844 187.178 196.837 187.178C195.605 187.178 194.553 187.619 193.66 188.49C192.767 189.361 192.326 190.446 192.326 191.746C192.326 193.047 192.744 194.132 193.581 194.98C194.418 195.828 195.503 196.258 196.826 196.258C198.081 196.258 199.076 195.874 199.823 195.105C200.58 194.324 200.953 193.363 200.953 192.21V191.724H196.272V192.99H199.449C199.235 194.155 198.307 194.98 196.815 194.98C195.933 194.98 195.209 194.664 194.632 194.042C194.056 193.42 193.773 192.64 193.773 191.712C193.773 190.785 194.067 190.016 194.644 189.395C195.232 188.773 195.955 188.467 196.826 188.467C198.228 188.467 199.133 189.236 199.596 190.367L200.829 189.802ZM202.554 196.156H203.944V192.334H208.32V196.156H209.711V187.303H208.32V191.011H203.944V187.303H202.554V196.156ZM211.068 188.592H213.872V196.156H215.263V188.592H218.079V187.303H211.068V188.592Z" fill="black"/>
<path d="M86.8043 149.114L92.9246 159.715H80.6841L86.8043 149.114Z" fill="#757575"/>
<path d="M86.8046 177.382L92.9248 166.782H80.6844L86.8046 177.382Z" fill="#757575"/>
<path d="M170.761 157.111V175.874H175.913V150.973H171.683L163.224 155.934L165.514 160.1L170.761 157.111ZM180.401 163.408C180.401 166.747 181.292 169.832 182.945 172.249C184.631 174.666 187.493 176.192 191.023 176.192C198.178 176.192 201.74 169.864 201.74 163.281C201.74 158.733 200.277 154.853 196.97 152.436C195.348 151.196 193.376 150.592 191.118 150.592C188.797 150.592 186.793 151.228 185.14 152.468C183.486 153.708 182.277 155.267 181.514 157.143C180.783 159.019 180.401 161.118 180.401 163.408ZM186.094 159.846C186.444 158.733 187.048 157.715 187.906 156.857C188.765 155.966 189.814 155.521 191.055 155.521C192.295 155.521 193.344 155.966 194.203 156.857C196.715 159.369 197.002 163.535 196.016 166.874C195.666 168.019 195.062 169.037 194.203 169.927C193.344 170.786 192.295 171.231 191.055 171.231C189.814 171.231 188.765 170.786 187.906 169.927C185.394 167.351 185.108 163.09 186.094 159.846Z" fill="black"/>
<path d="M216.131 149.114L222.251 159.715H210.011L216.131 149.114Z" fill="#757575"/>
<path d="M216.131 177.382L222.251 166.782H210.011L216.131 177.382Z" fill="#757575"/>
</g>
<rect x="2.5" y="0.5" width="252" height="352.352" rx="10.1006" stroke="black" stroke-opacity="0.15"/>
</g>
<defs>
<filter id="filter0_d" x="0" y="0" width="261" height="363.352" filterUnits="userSpaceOnUse" color-interpolation-filters="sRGB">
<feFlood flood-opacity="0" result="BackgroundImageFix"/>
<feColorMatrix in="SourceAlpha" type="matrix" values="0 0 0 0 0 0 0 0 0 0 0 0 0 0 0 0 0 0 127 0"/>
<feOffset dx="2" dy="6"/>
<feGaussianBlur stdDeviation="2"/>
<feColorMatrix type="matrix" values="0 0 0 0 0 0 0 0 0 0 0 0 0 0 0 0 0 0 0.1 0"/>
<feBlend mode="normal" in2="BackgroundImageFix" result="effect1_dropShadow"/>
<feBlend mode="normal" in="SourceGraphic" in2="effect1_dropShadow" result="shape"/>
</filter>
<clipPath id="clip0">
<rect x="2" width="253" height="353.352" rx="10.6006" fill="white"/>
</clipPath>
</defs>
</svg>
