<svg width="301" height="376" viewBox="0 0 301 376" fill="none" xmlns="http://www.w3.org/2000/svg">
<g filter="url(#filter0_d)">
<g clip-path="url(#clip0)">
<rect x="41" width="253.494" height="354.043" rx="10.6213" fill="white"/>
<circle cx="64.0127" cy="23.0132" r="8.32" fill="white" stroke="#757575" stroke-width="1.06213"/>
<path d="M64.0895 18.5896C65.1092 18.5896 65.7337 19.2651 65.7337 20.1318C65.7337 20.7946 65.5043 21.1769 64.7268 21.8779L64.3699 22.1838C63.5669 22.8848 63.2228 23.5348 63.2228 24.4398V25.0643H64.2042V24.5545C64.2042 24.1594 64.2807 23.8407 64.4209 23.5986C64.5738 23.3564 64.8415 23.0633 65.2366 22.7446C65.8229 22.2475 66.218 21.8269 66.4347 21.4828C66.6769 21.0622 66.8043 20.6161 66.8043 20.119C66.8043 19.3925 66.5494 18.7935 66.0396 18.3219C65.5298 17.8503 64.8797 17.6082 64.0895 17.6082C62.7767 17.6082 61.7061 18.3092 61.26 19.5837L62.1777 20.0553C62.5218 19.0739 63.1591 18.5896 64.0895 18.5896ZM62.9679 27.0654C62.9679 27.486 63.312 27.8173 63.7199 27.8173C64.1405 27.8173 64.4591 27.486 64.4591 27.0654C64.4591 26.6575 64.1405 26.3261 63.7199 26.3261C63.312 26.3261 62.9679 26.6575 62.9679 27.0654Z" fill="#757575"/>
<rect x="41" y="60.1875" width="194.723" height="161.443" fill="white"/>
<path d="M271.128 87.3897L275.703 92.7594L283.873 82.8462" stroke="#9CE184" stroke-width="2.12426" stroke-linecap="round"/>
<path d="M54.4536 114.002L294.494 114.002" stroke="#EEEEEE" stroke-width="0.354043"/>
<path d="M54.4536 167.816L294.494 167.816" stroke="#EEEEEE" stroke-width="0.354043"/>
<path d="M56.731 85.1369C57.6133 85.1369 58.3667 84.9089 58.9714 84.443C59.586 83.9771 60.0123 83.412 60.2403 82.7478L59.5067 82.4009C59.0606 83.6202 58.1387 84.3637 56.7608 84.3637C55.8785 84.3637 55.1548 84.0564 54.5799 83.4517C54.0049 82.847 53.7174 82.0737 53.7174 81.1518C53.7174 80.2299 54.0148 79.4765 54.5997 78.8817C55.1945 78.2869 55.9083 77.9895 56.7509 77.9895C57.4944 77.9895 58.0892 78.1779 58.5352 78.5546C58.9913 78.9214 59.3085 79.3873 59.4968 79.9325L60.2304 79.5954C60.0222 78.9412 59.6158 78.386 59.0111 77.9201C58.4064 77.4542 57.6629 77.2163 56.7707 77.2163C55.6902 77.2163 54.7682 77.593 54.0049 78.3464C53.2416 79.0899 52.8649 80.0415 52.8649 81.2014C52.8649 82.3513 53.2317 83.2931 53.9752 84.0366C54.7187 84.7701 55.6406 85.1369 56.731 85.1369ZM66.0882 85.0576V81.7863C66.0882 80.5174 65.3547 79.6648 64.0858 79.6648C63.3026 79.6648 62.6979 80.0118 62.2717 80.7156V76.9883H61.4984V85.0576H62.2717V82.044C62.2717 81.5682 62.4204 81.1716 62.7178 80.8544C63.0152 80.5273 63.3919 80.3687 63.8479 80.3687C64.7995 80.3687 65.315 80.9932 65.315 81.9746V85.0576H66.0882ZM72.441 82.6487C72.4509 82.5991 72.4509 82.5099 72.4509 82.391C72.4509 81.588 72.2328 80.9436 71.7966 80.4381C71.3604 79.9325 70.7458 79.6748 69.9528 79.6748C69.2291 79.6748 68.6145 79.9424 68.1188 80.4876C67.6232 81.0329 67.3753 81.6673 67.3753 82.4009C67.3753 83.1642 67.6331 83.8185 68.1486 84.3538C68.6641 84.8792 69.2985 85.1468 70.0618 85.1468C71.0135 85.1468 71.8561 84.6512 72.3022 83.7788L71.7272 83.4021C71.4199 84.0366 70.7954 84.4628 70.0519 84.4628C69.5364 84.4628 69.1002 84.2943 68.7434 83.9473C68.3865 83.6004 68.1882 83.1642 68.1585 82.6487H72.441ZM68.1684 81.9944C68.2378 81.5384 68.436 81.1518 68.7731 80.8346C69.1101 80.5075 69.5067 80.3489 69.9528 80.3489C70.9441 80.3489 71.5587 81.0031 71.6677 81.9944H68.1684ZM77.2927 83.5508C77.2927 83.2237 77.1638 82.9263 76.916 82.6785C76.6285 82.3811 76.1626 82.163 75.5282 82.0242C74.5468 81.816 74.289 81.6277 74.289 81.1915C74.289 80.9635 74.3981 80.7751 74.6062 80.6066C74.8144 80.4381 75.0722 80.3588 75.3596 80.3588C75.9049 80.3588 76.3212 80.6562 76.5988 81.251L77.2332 80.904C76.8764 80.0812 76.2518 79.6748 75.3596 79.6748C74.8838 79.6748 74.4575 79.8235 74.0808 80.1208C73.7041 80.4182 73.5158 80.7949 73.5158 81.251C73.5158 81.5583 73.6149 81.816 73.8033 82.044C74.0907 82.3711 74.4575 82.5397 75.1812 82.6983C76.1428 82.9263 76.5096 83.1543 76.5096 83.6004C76.5096 84.1258 75.9842 84.4628 75.3795 84.4628C74.7549 84.4628 74.2791 84.1159 73.952 83.4319L73.3175 83.7788C73.724 84.6908 74.4179 85.1468 75.3894 85.1468C75.9346 85.1468 76.3906 84.9981 76.7475 84.7007C77.1143 84.3934 77.2927 84.0167 77.2927 83.5508ZM80.4583 85.0973C80.6863 85.0973 80.8945 85.0675 81.063 85.018V84.3736C80.9539 84.4033 80.7953 84.4133 80.5871 84.4133C80.0122 84.4133 79.7247 84.1654 79.7247 83.6698V80.448H81.063V79.764H79.7247V78.2373H78.9614V79.764H77.98V80.448H78.9614V83.6896C78.9614 84.6313 79.457 85.0973 80.4583 85.0973ZM89.8181 80.8445H86.1601V78.0589H90.1552V77.2956H85.3473V85.0576H86.1601V81.5979H89.8181V80.8445ZM92.2148 76.9784H91.4316V85.0576H92.2148V76.9784ZM93.77 77.8706C93.77 78.1878 94.0277 78.4455 94.345 78.4455C94.6721 78.4455 94.9298 78.1878 94.9298 77.8706C94.9298 77.5434 94.6721 77.2857 94.345 77.2857C94.0277 77.2857 93.77 77.5434 93.77 77.8706ZM94.7415 79.764H93.9583V85.0576H94.7415V79.764ZM101.164 82.6487C101.174 82.5991 101.174 82.5099 101.174 82.391C101.174 81.588 100.956 80.9436 100.52 80.4381C100.084 79.9325 99.4689 79.6748 98.6759 79.6748C97.9522 79.6748 97.3376 79.9424 96.8419 80.4876C96.3463 81.0329 96.0984 81.6673 96.0984 82.4009C96.0984 83.1642 96.3562 83.8185 96.8717 84.3538C97.3871 84.8792 98.0216 85.1468 98.7849 85.1468C99.7366 85.1468 100.579 84.6512 101.025 83.7788L100.45 83.4021C100.143 84.0366 99.5185 84.4628 98.775 84.4628C98.2595 84.4628 97.8233 84.2943 97.4664 83.9473C97.1096 83.6004 96.9113 83.1642 96.8816 82.6487H101.164ZM96.8915 81.9944C96.9609 81.5384 97.1591 81.1518 97.4962 80.8346C97.8332 80.5075 98.2298 80.3489 98.6759 80.3489C99.6672 80.3489 100.282 81.0031 100.391 81.9944H96.8915ZM106.016 83.5508C106.016 83.2237 105.887 82.9263 105.639 82.6785C105.352 82.3811 104.886 82.163 104.251 82.0242C103.27 81.816 103.012 81.6277 103.012 81.1915C103.012 80.9635 103.121 80.7751 103.329 80.6066C103.537 80.4381 103.795 80.3588 104.083 80.3588C104.628 80.3588 105.044 80.6562 105.322 81.251L105.956 80.904C105.599 80.0812 104.975 79.6748 104.083 79.6748C103.607 79.6748 103.181 79.8235 102.804 80.1208C102.427 80.4182 102.239 80.7949 102.239 81.251C102.239 81.5583 102.338 81.816 102.526 82.044C102.814 82.3711 103.181 82.5397 103.904 82.6983C104.866 82.9263 105.233 83.1543 105.233 83.6004C105.233 84.1258 104.707 84.4628 104.103 84.4628C103.478 84.4628 103.002 84.1159 102.675 83.4319L102.041 83.7788C102.447 84.6908 103.141 85.1468 104.112 85.1468C104.658 85.1468 105.114 84.9981 105.471 84.7007C105.837 84.3934 106.016 84.0167 106.016 83.5508Z" fill="black"/>
<path d="M53.9525 89.8581H53.2558V96.5112H53.9525V89.8581ZM57.6751 94.234C57.6751 94.8798 57.8705 95.4321 58.2614 95.8909C58.6607 96.3498 59.1706 96.5792 59.7993 96.5792C60.5556 96.5792 61.1504 96.2308 61.5667 95.5426V96.5112H62.2125V89.5947H61.5582V92.9255C61.0909 92.2372 60.5046 91.8973 59.7993 91.8973C59.1791 91.8973 58.6692 92.1353 58.2699 92.6026C57.8705 93.0699 57.6751 93.6137 57.6751 94.234ZM59.9353 95.9929C59.451 95.9929 59.0686 95.823 58.7797 95.4916C58.4908 95.1517 58.3463 94.7354 58.3463 94.251C58.3463 93.7497 58.4908 93.3248 58.7797 92.9935C59.0686 92.6536 59.451 92.4836 59.9353 92.4836C60.3941 92.4836 60.7765 92.6621 61.0909 93.0105C61.4053 93.3588 61.5667 93.7582 61.5667 94.2255C61.5667 94.7099 61.4138 95.1262 61.0994 95.4746C60.7935 95.823 60.4026 95.9929 59.9353 95.9929ZM63.5538 90.3509C63.5538 90.6228 63.7747 90.8437 64.0466 90.8437C64.327 90.8437 64.5479 90.6228 64.5479 90.3509C64.5479 90.0705 64.327 89.8496 64.0466 89.8496C63.7747 89.8496 63.5538 90.0705 63.5538 90.3509ZM64.3865 91.9738H63.7152V96.5112H64.3865V91.9738ZM65.5581 94.234C65.5581 94.8798 65.7535 95.4321 66.1444 95.8909C66.5437 96.3498 67.0535 96.5792 67.6823 96.5792C68.4385 96.5792 69.0333 96.2308 69.4497 95.5426V96.5112H70.0955V89.5947H69.4412V92.9255C68.9739 92.2372 68.3876 91.8973 67.6823 91.8973C67.062 91.8973 66.5522 92.1353 66.1528 92.6026C65.7535 93.0699 65.5581 93.6137 65.5581 94.234ZM67.8183 95.9929C67.3339 95.9929 66.9516 95.823 66.6627 95.4916C66.3738 95.1517 66.2293 94.7354 66.2293 94.251C66.2293 93.7497 66.3738 93.3248 66.6627 92.9935C66.9516 92.6536 67.3339 92.4836 67.8183 92.4836C68.2771 92.4836 68.6595 92.6621 68.9739 93.0105C69.2883 93.3588 69.4497 93.7582 69.4497 94.2255C69.4497 94.7099 69.2967 95.1262 68.9824 95.4746C68.6765 95.823 68.2856 95.9929 67.8183 95.9929ZM75.2629 91.498V96.5112H76.6394V89.8581H75.5093L73.2491 91.1836L73.8609 92.2967L75.2629 91.498ZM82.631 94.285C82.631 93.6137 82.4271 93.0869 82.0192 92.7216C81.6199 92.3477 81.1101 92.1608 80.4983 92.1608C80.0649 92.1608 79.6656 92.3052 79.3002 92.6026L79.5126 91.1071H82.3336V89.8581H78.4165L77.9322 93.2314L79.2237 93.7582C79.4956 93.4948 79.8015 93.3673 80.1329 93.3673C80.8212 93.3673 81.246 93.7497 81.246 94.319C81.246 94.9308 80.8042 95.3047 80.1839 95.3047C79.5976 95.3047 79.1812 95.0667 78.9263 94.5909L77.7537 95.2877C78.2041 96.1544 79.0028 96.5877 80.1499 96.5877C80.8637 96.5877 81.4584 96.3838 81.9258 95.9674C82.3931 95.5511 82.631 94.9903 82.631 94.285ZM86.1444 91.9738V96.5112H86.8071V94.2935C86.8071 93.8262 86.9176 93.4353 87.147 93.1039C87.3764 92.7725 87.7333 92.6026 88.2261 92.6026C88.2856 92.6026 88.3706 92.6111 88.481 92.6196V91.9143C88.447 91.9058 88.3706 91.9058 88.2601 91.9058C87.6823 91.9058 87.113 92.2202 86.7986 92.8745V91.9738H86.1444ZM93.2252 94.4465C93.2337 94.404 93.2337 94.3275 93.2337 94.2255C93.2337 93.5373 93.0467 92.985 92.6729 92.5516C92.299 92.1183 91.7722 91.8973 91.0924 91.8973C90.4721 91.8973 89.9453 92.1268 89.5205 92.5941C89.0956 93.0614 88.8832 93.6052 88.8832 94.234C88.8832 94.8883 89.1041 95.4491 89.5459 95.9079C89.9878 96.3583 90.5316 96.5877 91.1859 96.5877C92.0016 96.5877 92.7238 96.1629 93.1062 95.4151L92.6134 95.0922C92.35 95.636 91.8147 96.0014 91.1774 96.0014C90.7355 96.0014 90.3617 95.857 90.0558 95.5596C89.7499 95.2622 89.5799 94.8883 89.5544 94.4465H93.2252ZM89.5629 93.8857C89.6224 93.4948 89.7924 93.1634 90.0813 92.8915C90.3702 92.6111 90.71 92.4751 91.0924 92.4751C91.9421 92.4751 92.4689 93.0359 92.5624 93.8857H89.5629ZM98.9217 94.234C98.9217 93.6137 98.7178 93.0699 98.3185 92.6026C97.9191 92.1353 97.4093 91.8973 96.789 91.8973C96.0667 91.8973 95.4805 92.2542 95.0301 92.9595V91.9738H94.3758V98.7459H95.0386V95.5766C95.4635 96.2478 96.0498 96.5792 96.789 96.5792C97.4093 96.5792 97.9191 96.3498 98.3185 95.8825C98.7178 95.4151 98.9217 94.8713 98.9217 94.234ZM96.653 95.9929C96.1857 95.9929 95.7948 95.823 95.4889 95.4746C95.1831 95.1262 95.0301 94.7099 95.0301 94.2255C95.0301 93.7582 95.1831 93.3588 95.4974 93.0105C95.8118 92.6621 96.1942 92.4836 96.653 92.4836C97.1374 92.4836 97.5197 92.6536 97.8086 93.002C98.0975 93.3418 98.242 93.7582 98.242 94.251C98.242 94.7523 98.0975 95.1687 97.8086 95.5001C97.5282 95.8315 97.1374 95.9929 96.653 95.9929ZM103.101 95.2197C103.101 94.9393 102.991 94.6844 102.778 94.4719C102.532 94.217 102.132 94.0301 101.589 93.9111C100.747 93.7327 100.526 93.5713 100.526 93.1974C100.526 93.002 100.62 92.8405 100.798 92.6961C100.977 92.5516 101.198 92.4836 101.444 92.4836C101.911 92.4836 102.268 92.7386 102.506 93.2484L103.05 92.951C102.744 92.2457 102.209 91.8973 101.444 91.8973C101.036 91.8973 100.671 92.0248 100.348 92.2797C100.025 92.5346 99.8637 92.8575 99.8637 93.2484C99.8637 93.5118 99.9486 93.7327 100.11 93.9281C100.356 94.2085 100.671 94.353 101.291 94.4889C102.115 94.6844 102.43 94.8798 102.43 95.2622C102.43 95.7125 101.979 96.0014 101.461 96.0014C100.926 96.0014 100.518 95.704 100.238 95.1177L99.6937 95.4151C100.042 96.1968 100.637 96.5877 101.47 96.5877C101.937 96.5877 102.328 96.4602 102.634 96.2053C102.948 95.9419 103.101 95.619 103.101 95.2197ZM107.642 96.5112H108.373L109.58 92.8235H109.588L110.786 96.5112H111.525L113.055 91.9738H112.367L111.169 95.7465H111.16L109.92 91.9738H109.257L108.025 95.738H108.016L106.827 91.9738H106.121L107.642 96.5112ZM113.855 90.3509C113.855 90.6228 114.076 90.8437 114.348 90.8437C114.629 90.8437 114.85 90.6228 114.85 90.3509C114.85 90.0705 114.629 89.8496 114.348 89.8496C114.076 89.8496 113.855 90.0705 113.855 90.3509ZM114.688 91.9738H114.017V96.5112H114.688V91.9738ZM117.772 96.5452C117.967 96.5452 118.145 96.5197 118.29 96.4772V95.9249C118.196 95.9504 118.06 95.9589 117.882 95.9589C117.389 95.9589 117.143 95.7465 117.143 95.3216V92.5601H118.29V91.9738H117.143V90.6653H116.489V91.9738H115.647V92.5601H116.489V95.3386C116.489 96.1459 116.913 96.5452 117.772 96.5452ZM123.345 96.5112V93.7072C123.345 92.6196 122.716 91.8889 121.628 91.8889C120.957 91.8889 120.439 92.1862 120.073 92.7895V89.5947H119.411V96.5112H120.073V93.9281C120.073 93.5203 120.201 93.1804 120.456 92.9085C120.711 92.6281 121.033 92.4921 121.424 92.4921C122.24 92.4921 122.682 93.0275 122.682 93.8687V96.5112H123.345ZM128.444 91.498V96.5112H129.821V89.8581H128.69L126.43 91.1836L127.042 92.2967L128.444 91.498ZM131.02 93.1804C131.02 94.0726 131.258 94.8968 131.7 95.5426C132.15 96.1883 132.915 96.5962 133.858 96.5962C135.77 96.5962 136.721 94.9053 136.721 93.1464C136.721 91.9313 136.33 90.8947 135.447 90.2489C135.013 89.9175 134.487 89.7561 133.883 89.7561C133.263 89.7561 132.728 89.926 132.286 90.2574C131.844 90.5888 131.521 91.0052 131.317 91.5065C131.122 92.0078 131.02 92.5686 131.02 93.1804ZM132.541 92.2287C132.634 91.9313 132.796 91.6594 133.025 91.43C133.254 91.1921 133.535 91.0731 133.866 91.0731C134.198 91.0731 134.478 91.1921 134.707 91.43C135.379 92.1013 135.455 93.2144 135.192 94.1066C135.098 94.4125 134.937 94.6844 134.707 94.9223C134.478 95.1517 134.198 95.2707 133.866 95.2707C133.535 95.2707 133.254 95.1517 133.025 94.9223C132.354 94.234 132.277 93.0954 132.541 92.2287ZM140.918 89.5862H140.246V96.5112H140.918V89.5862ZM146.958 94.234C146.958 93.6137 146.754 93.0699 146.355 92.6026C145.955 92.1353 145.446 91.8973 144.825 91.8973C144.112 91.8973 143.525 92.2457 143.075 92.951V89.5947H142.412V96.5112H143.066V95.5596C143.483 96.2393 144.069 96.5792 144.825 96.5792C145.446 96.5792 145.955 96.3498 146.355 95.8825C146.754 95.4151 146.958 94.8713 146.958 94.234ZM144.689 95.9929C144.222 95.9929 143.831 95.823 143.525 95.4746C143.219 95.1262 143.066 94.7099 143.066 94.2255C143.066 93.7582 143.219 93.3588 143.534 93.0105C143.848 92.6621 144.231 92.4836 144.689 92.4836C145.174 92.4836 145.556 92.6536 145.845 93.002C146.134 93.3418 146.278 93.7582 146.278 94.251C146.278 94.7523 146.134 95.1687 145.845 95.5001C145.565 95.8315 145.174 95.9929 144.689 95.9929ZM151.488 96.5112H152.219L153.426 92.8235H153.434L154.632 96.5112H155.371L156.901 91.9738H156.213L155.015 95.7465H155.006L153.766 91.9738H153.103L151.871 95.738H151.862L150.673 91.9738H149.967L151.488 96.5112ZM161.782 94.4465C161.791 94.404 161.791 94.3275 161.791 94.2255C161.791 93.5373 161.604 92.985 161.23 92.5516C160.856 92.1183 160.329 91.8973 159.649 91.8973C159.029 91.8973 158.502 92.1268 158.077 92.5941C157.653 93.0614 157.44 93.6052 157.44 94.234C157.44 94.8883 157.661 95.4491 158.103 95.9079C158.545 96.3583 159.089 96.5877 159.743 96.5877C160.559 96.5877 161.281 96.1629 161.663 95.4151L161.17 95.0922C160.907 95.636 160.372 96.0014 159.734 96.0014C159.293 96.0014 158.919 95.857 158.613 95.5596C158.307 95.2622 158.137 94.8883 158.111 94.4465H161.782ZM158.12 93.8857C158.179 93.4948 158.349 93.1634 158.638 92.8915C158.927 92.6111 159.267 92.4751 159.649 92.4751C160.499 92.4751 161.026 93.0359 161.119 93.8857H158.12ZM162.771 90.3509C162.771 90.6228 162.992 90.8437 163.264 90.8437C163.545 90.8437 163.766 90.6228 163.766 90.3509C163.766 90.0705 163.545 89.8496 163.264 89.8496C162.992 89.8496 162.771 90.0705 162.771 90.3509ZM163.604 91.9738H162.933V96.5112H163.604V91.9738ZM168.659 96.5537C168.659 97.6668 167.988 98.2021 167.036 98.2021C166.535 98.2021 166.135 98.0492 165.872 97.7773C165.608 97.5054 165.481 97.3184 165.337 97.0041L164.801 97.3184C165.235 98.2956 165.982 98.7799 167.044 98.7799C168.446 98.7799 169.322 97.9642 169.322 96.5282V91.9738H168.667V92.9255C168.209 92.2372 167.622 91.8973 166.9 91.8973C166.28 91.8973 165.77 92.1268 165.371 92.5941C164.971 93.0614 164.776 93.5968 164.776 94.217C164.776 94.8543 164.971 95.4066 165.362 95.857C165.753 96.3073 166.263 96.5282 166.9 96.5282C167.656 96.5282 168.243 96.1883 168.659 95.5001V96.5537ZM167.036 95.9504C166.552 95.9504 166.169 95.789 165.88 95.4576C165.6 95.1262 165.455 94.7184 165.455 94.234C165.455 93.7327 165.6 93.3164 165.88 92.985C166.161 92.6536 166.552 92.4836 167.036 92.4836C167.495 92.4836 167.877 92.6536 168.192 93.002C168.506 93.3503 168.667 93.7497 168.667 94.2085C168.667 94.6844 168.514 95.0922 168.2 95.4406C167.894 95.7805 167.503 95.9504 167.036 95.9504ZM174.75 96.5112V93.7072C174.75 92.6196 174.121 91.8889 173.034 91.8889C172.362 91.8889 171.844 92.1862 171.479 92.7895V89.5947H170.816V96.5112H171.479V93.9281C171.479 93.5203 171.606 93.1804 171.861 92.9085C172.116 92.6281 172.439 92.4921 172.83 92.4921C173.645 92.4921 174.087 93.0275 174.087 93.8687V96.5112H174.75ZM177.732 96.5452C177.927 96.5452 178.106 96.5197 178.25 96.4772V95.9249C178.157 95.9504 178.021 95.9589 177.842 95.9589C177.35 95.9589 177.103 95.7465 177.103 95.3216V92.5601H178.25V91.9738H177.103V90.6653H176.449V91.9738H175.608V92.5601H176.449V95.3386C176.449 96.1459 176.874 96.5452 177.732 96.5452ZM182.379 95.2197C182.379 94.9393 182.268 94.6844 182.056 94.4719C181.81 94.217 181.41 94.0301 180.866 93.9111C180.025 93.7327 179.804 93.5713 179.804 93.1974C179.804 93.002 179.898 92.8405 180.076 92.6961C180.255 92.5516 180.476 92.4836 180.722 92.4836C181.189 92.4836 181.546 92.7386 181.784 93.2484L182.328 92.951C182.022 92.2457 181.487 91.8973 180.722 91.8973C180.314 91.8973 179.949 92.0248 179.626 92.2797C179.303 92.5346 179.142 92.8575 179.142 93.2484C179.142 93.5118 179.227 93.7327 179.388 93.9281C179.634 94.2085 179.949 94.353 180.569 94.4889C181.393 94.6844 181.708 94.8798 181.708 95.2622C181.708 95.7125 181.257 96.0014 180.739 96.0014C180.204 96.0014 179.796 95.704 179.515 95.1177L178.972 95.4151C179.32 96.1968 179.915 96.5877 180.747 96.5877C181.215 96.5877 181.606 96.4602 181.912 96.2053C182.226 95.9419 182.379 95.619 182.379 95.2197ZM184.003 95.3641C183.663 95.3641 183.391 95.636 183.391 95.9759C183.391 96.3158 183.663 96.5877 184.003 96.5877C184.335 96.5877 184.607 96.3158 184.607 95.9759C184.607 95.636 184.335 95.3641 184.003 95.3641Z" fill="#828282"/>
<path d="M73.2236 97.3609H83.0219V97.7858H73.2236V97.3609ZM126.405 97.3609H137.129V97.7858H126.405V97.3609Z" fill="#828282"/>
<path d="M53.4101 138.872H56.2949C57.0879 138.872 57.7422 138.694 58.2577 138.337C58.7831 137.98 59.0408 137.445 59.0408 136.741C59.0408 136.374 58.9119 135.997 58.6641 135.611C58.4163 135.224 58.0297 134.966 57.5142 134.837C58.0198 134.609 58.3866 134.253 58.5154 133.896C58.6641 133.529 58.6939 133.301 58.6939 133.063C58.6939 132.448 58.4559 131.972 57.99 131.626C57.5241 131.279 56.9293 131.11 56.1957 131.11H53.4101V138.872ZM54.2131 131.854H56.1263C57.1177 131.854 57.8711 132.27 57.8711 133.152C57.8711 133.975 57.2862 134.56 56.0669 134.56H54.2131V131.854ZM54.2131 135.283H56.166C56.8401 135.283 57.425 135.393 57.8711 135.839C58.0991 136.057 58.2081 136.334 58.2081 136.681C58.2081 137.187 58.0198 137.554 57.6331 137.782C57.2564 138.01 56.8203 138.129 56.3147 138.129H54.2131V135.283ZM60.2839 131.685C60.2839 132.002 60.5417 132.26 60.8589 132.26C61.186 132.26 61.4438 132.002 61.4438 131.685C61.4438 131.358 61.186 131.1 60.8589 131.1C60.5417 131.1 60.2839 131.358 60.2839 131.685ZM61.2554 133.578H60.4723V138.872H61.2554V133.578ZM63.4054 136.196C63.4054 135.63 63.5839 135.155 63.9407 134.768C64.3075 134.371 64.7635 134.173 65.3187 134.173C66.191 134.173 66.7362 134.669 66.9742 135.333L67.6483 135.036C67.341 134.153 66.5082 133.489 65.3187 133.489C64.5653 133.489 63.9209 133.757 63.3955 134.282C62.8701 134.808 62.6124 135.462 62.6124 136.225C62.6124 137.008 62.8701 137.663 63.3856 138.188C63.911 138.704 64.5454 138.961 65.3087 138.961C66.5082 138.961 67.341 138.297 67.6681 137.385L66.994 137.088C66.6867 137.881 66.1216 138.277 65.3187 138.277C64.7536 138.277 64.2976 138.069 63.9407 137.663C63.5839 137.256 63.4054 136.761 63.4054 136.196ZM70.5038 138.515L69.1358 141.479H69.9685L73.5967 133.578H72.764L70.9301 137.673L68.9871 133.578H68.0949L70.5038 138.515ZM74.8675 136.196C74.8675 135.63 75.046 135.155 75.4029 134.768C75.7696 134.371 76.2256 134.173 76.7808 134.173C77.6531 134.173 78.1984 134.669 78.4363 135.333L79.1104 135.036C78.8031 134.153 77.9704 133.489 76.7808 133.489C76.0274 133.489 75.383 133.757 74.8576 134.282C74.3322 134.808 74.0745 135.462 74.0745 136.225C74.0745 137.008 74.3322 137.663 74.8477 138.188C75.3731 138.704 76.0076 138.961 76.7709 138.961C77.9704 138.961 78.8031 138.297 79.1302 137.385L78.4561 137.088C78.1488 137.881 77.5838 138.277 76.7808 138.277C76.2157 138.277 75.7597 138.069 75.4029 137.663C75.046 137.256 74.8675 136.761 74.8675 136.196ZM81.1883 130.793H80.4051V138.872H81.1883V130.793ZM87.6109 136.463C87.6208 136.414 87.6208 136.324 87.6208 136.205C87.6208 135.402 87.4027 134.758 86.9665 134.253C86.5303 133.747 85.9157 133.489 85.1227 133.489C84.399 133.489 83.7844 133.757 83.2887 134.302C82.7931 134.847 82.5452 135.482 82.5452 136.215C82.5452 136.979 82.803 137.633 83.3185 138.168C83.8339 138.694 84.4684 138.961 85.2317 138.961C86.1834 138.961 87.026 138.466 87.4721 137.593L86.8971 137.217C86.5898 137.851 85.9653 138.277 85.2218 138.277C84.7063 138.277 84.2701 138.109 83.9133 137.762C83.5564 137.415 83.3581 136.979 83.3284 136.463H87.6109ZM83.3383 135.809C83.4077 135.353 83.6059 134.966 83.943 134.649C84.28 134.322 84.6766 134.163 85.1227 134.163C86.114 134.163 86.7286 134.818 86.8376 135.809H83.3383ZM95.2512 138.951C96.1334 138.951 96.8868 138.723 97.4915 138.257C98.1062 137.792 98.5324 137.226 98.7604 136.562L98.0268 136.215C97.5808 137.435 96.6588 138.178 95.2809 138.178C94.3986 138.178 93.675 137.871 93.1 137.266C92.525 136.661 92.2375 135.888 92.2375 134.966C92.2375 134.044 92.5349 133.291 93.1198 132.696C93.7146 132.101 94.4284 131.804 95.271 131.804C96.0145 131.804 96.6093 131.992 97.0554 132.369C97.5114 132.736 97.8286 133.202 98.0169 133.747L98.7505 133.41C98.5423 132.756 98.1359 132.2 97.5312 131.735C96.9265 131.269 96.183 131.031 95.2908 131.031C94.2103 131.031 93.2883 131.407 92.525 132.161C91.7617 132.904 91.385 133.856 91.385 135.016C91.385 136.166 91.7518 137.108 92.4953 137.851C93.2388 138.585 94.1607 138.951 95.2512 138.951ZM100.019 133.578V138.872H100.792V136.285C100.792 135.74 100.921 135.283 101.188 134.897C101.456 134.51 101.872 134.312 102.447 134.312C102.517 134.312 102.616 134.322 102.745 134.332V133.509C102.705 133.499 102.616 133.499 102.487 133.499C101.813 133.499 101.149 133.866 100.782 134.629V133.578H100.019ZM103.725 133.578V136.85C103.725 138.119 104.458 138.971 105.727 138.971C106.53 138.971 107.135 138.614 107.541 137.901V138.872H108.295V133.578H107.532V136.602C107.532 137.078 107.383 137.474 107.085 137.792C106.788 138.109 106.411 138.267 105.955 138.267C105.004 138.267 104.488 137.643 104.488 136.661V133.578H103.725ZM114.638 138.872V135.601C114.638 134.332 113.904 133.479 112.635 133.479C111.832 133.479 111.228 133.836 110.811 134.55V133.578H110.048V138.872H110.821V135.858C110.821 135.383 110.97 134.986 111.267 134.669C111.565 134.342 111.941 134.183 112.397 134.183C113.349 134.183 113.864 134.808 113.864 135.789V138.872H114.638ZM116.718 136.196C116.718 135.63 116.896 135.155 117.253 134.768C117.62 134.371 118.076 134.173 118.631 134.173C119.503 134.173 120.049 134.669 120.287 135.333L120.961 135.036C120.653 134.153 119.821 133.489 118.631 133.489C117.878 133.489 117.233 133.757 116.708 134.282C116.183 134.808 115.925 135.462 115.925 136.225C115.925 137.008 116.183 137.663 116.698 138.188C117.223 138.704 117.858 138.961 118.621 138.961C119.821 138.961 120.653 138.297 120.981 137.385L120.306 137.088C119.999 137.881 119.434 138.277 118.631 138.277C118.066 138.277 117.61 138.069 117.253 137.663C116.896 137.256 116.718 136.761 116.718 136.196ZM126.845 138.872V135.601C126.845 134.332 126.112 133.479 124.843 133.479C124.06 133.479 123.455 133.826 123.029 134.53V130.803H122.255V138.872H123.029V135.858C123.029 135.383 123.177 134.986 123.475 134.669C123.772 134.342 124.149 134.183 124.605 134.183C125.557 134.183 126.072 134.808 126.072 135.789V138.872H126.845Z" fill="black"/>
<path d="M53.9525 143.673H53.2558V150.326H53.9525V143.673ZM57.6751 148.048C57.6751 148.694 57.8705 149.247 58.2614 149.705C58.6607 150.164 59.1706 150.394 59.7993 150.394C60.5556 150.394 61.1504 150.045 61.5667 149.357V150.326H62.2125V143.409H61.5582V146.74C61.0909 146.052 60.5046 145.712 59.7993 145.712C59.1791 145.712 58.6692 145.95 58.2699 146.417C57.8705 146.884 57.6751 147.428 57.6751 148.048ZM59.9353 149.807C59.451 149.807 59.0686 149.637 58.7797 149.306C58.4908 148.966 58.3463 148.55 58.3463 148.065C58.3463 147.564 58.4908 147.139 58.7797 146.808C59.0686 146.468 59.451 146.298 59.9353 146.298C60.3941 146.298 60.7765 146.477 61.0909 146.825C61.4053 147.173 61.5667 147.573 61.5667 148.04C61.5667 148.524 61.4138 148.941 61.0994 149.289C60.7935 149.637 60.4026 149.807 59.9353 149.807ZM63.5538 144.165C63.5538 144.437 63.7747 144.658 64.0466 144.658C64.327 144.658 64.5479 144.437 64.5479 144.165C64.5479 143.885 64.327 143.664 64.0466 143.664C63.7747 143.664 63.5538 143.885 63.5538 144.165ZM64.3865 145.788H63.7152V150.326H64.3865V145.788ZM65.5581 148.048C65.5581 148.694 65.7535 149.247 66.1444 149.705C66.5437 150.164 67.0535 150.394 67.6823 150.394C68.4385 150.394 69.0333 150.045 69.4497 149.357V150.326H70.0955V143.409H69.4412V146.74C68.9739 146.052 68.3876 145.712 67.6823 145.712C67.062 145.712 66.5522 145.95 66.1528 146.417C65.7535 146.884 65.5581 147.428 65.5581 148.048ZM67.8183 149.807C67.3339 149.807 66.9516 149.637 66.6627 149.306C66.3738 148.966 66.2293 148.55 66.2293 148.065C66.2293 147.564 66.3738 147.139 66.6627 146.808C66.9516 146.468 67.3339 146.298 67.8183 146.298C68.2771 146.298 68.6595 146.477 68.9739 146.825C69.2883 147.173 69.4497 147.573 69.4497 148.04C69.4497 148.524 69.2967 148.941 68.9824 149.289C68.6765 149.637 68.2856 149.807 67.8183 149.807ZM75.2629 145.312V150.326H76.6394V143.673H75.5093L73.2491 144.998L73.8609 146.111L75.2629 145.312ZM77.8217 150.326H82.6905V149.068H79.8185L80.9401 148.176C81.5774 147.675 82.0277 147.258 82.2742 146.927C82.5291 146.595 82.6565 146.196 82.6565 145.72C82.6565 145.109 82.4441 144.599 82.0107 144.191C81.5774 143.774 81.0081 143.571 80.2944 143.571C79.7251 143.571 79.2152 143.707 78.7649 143.978C78.323 144.242 78.0256 144.641 77.8642 145.159L79.1303 145.695C79.3512 145.143 79.7335 144.862 80.2859 144.862C80.8297 144.862 81.2375 145.253 81.2375 145.729C81.2375 145.975 81.161 146.196 80.9996 146.4C80.8382 146.604 80.5578 146.876 80.1414 147.216L77.8217 149.119V150.326ZM86.2771 145.788V150.326H86.9399V148.108C86.9399 147.641 87.0503 147.25 87.2798 146.918C87.5092 146.587 87.8661 146.417 88.3589 146.417C88.4184 146.417 88.5033 146.426 88.6138 146.434V145.729C88.5798 145.72 88.5033 145.72 88.3929 145.72C87.8151 145.72 87.2458 146.035 86.9314 146.689V145.788H86.2771ZM93.3579 148.261C93.3664 148.218 93.3664 148.142 93.3664 148.04C93.3664 147.352 93.1795 146.799 92.8056 146.366C92.4317 145.933 91.9049 145.712 91.2252 145.712C90.6049 145.712 90.0781 145.941 89.6532 146.409C89.2284 146.876 89.0159 147.42 89.0159 148.048C89.0159 148.703 89.2369 149.264 89.6787 149.722C90.1206 150.173 90.6644 150.402 91.3186 150.402C92.1344 150.402 92.8566 149.977 93.239 149.23L92.7461 148.907C92.4827 149.45 91.9474 149.816 91.3101 149.816C90.8683 149.816 90.4944 149.671 90.1885 149.374C89.8826 149.077 89.7127 148.703 89.6872 148.261H93.3579ZM89.6957 147.7C89.7552 147.309 89.9251 146.978 90.214 146.706C90.5029 146.426 90.8428 146.29 91.2252 146.29C92.0749 146.29 92.6017 146.85 92.6952 147.7H89.6957ZM99.0545 148.048C99.0545 147.428 98.8506 146.884 98.4512 146.417C98.0519 145.95 97.542 145.712 96.9218 145.712C96.1995 145.712 95.6132 146.069 95.1629 146.774V145.788H94.5086V152.56H95.1714V149.391C95.5962 150.062 96.1825 150.394 96.9218 150.394C97.542 150.394 98.0519 150.164 98.4512 149.697C98.8506 149.23 99.0545 148.686 99.0545 148.048ZM96.7858 149.807C96.3185 149.807 95.9276 149.637 95.6217 149.289C95.3158 148.941 95.1629 148.524 95.1629 148.04C95.1629 147.573 95.3158 147.173 95.6302 146.825C95.9446 146.477 96.327 146.298 96.7858 146.298C97.2701 146.298 97.6525 146.468 97.9414 146.816C98.2303 147.156 98.3748 147.573 98.3748 148.065C98.3748 148.567 98.2303 148.983 97.9414 149.315C97.661 149.646 97.2701 149.807 96.7858 149.807ZM103.234 149.034C103.234 148.754 103.123 148.499 102.911 148.286C102.664 148.031 102.265 147.845 101.721 147.726C100.88 147.547 100.659 147.386 100.659 147.012C100.659 146.816 100.753 146.655 100.931 146.511C101.11 146.366 101.33 146.298 101.577 146.298C102.044 146.298 102.401 146.553 102.639 147.063L103.183 146.765C102.877 146.06 102.342 145.712 101.577 145.712C101.169 145.712 100.804 145.839 100.481 146.094C100.158 146.349 99.9964 146.672 99.9964 147.063C99.9964 147.326 100.081 147.547 100.243 147.743C100.489 148.023 100.804 148.167 101.424 148.303C102.248 148.499 102.563 148.694 102.563 149.077C102.563 149.527 102.112 149.816 101.594 149.816C101.059 149.816 100.651 149.518 100.37 148.932L99.8265 149.23C100.175 150.011 100.77 150.402 101.602 150.402C102.07 150.402 102.461 150.275 102.766 150.02C103.081 149.756 103.234 149.433 103.234 149.034ZM104.603 151.626C105.206 151.192 105.512 150.666 105.512 150.045V150.011C105.512 149.51 105.24 149.179 104.841 149.179C104.51 149.179 104.246 149.442 104.246 149.782C104.246 150.122 104.476 150.343 104.807 150.343C104.875 150.343 104.943 150.326 105.011 150.3C104.96 150.649 104.714 150.988 104.272 151.32L104.603 151.626ZM113.24 148.261C113.248 148.218 113.248 148.142 113.248 148.04C113.248 147.352 113.061 146.799 112.687 146.366C112.313 145.933 111.787 145.712 111.107 145.712C110.487 145.712 109.96 145.941 109.535 146.409C109.11 146.876 108.898 147.42 108.898 148.048C108.898 148.703 109.119 149.264 109.56 149.722C110.002 150.173 110.546 150.402 111.2 150.402C112.016 150.402 112.738 149.977 113.121 149.23L112.628 148.907C112.364 149.45 111.829 149.816 111.192 149.816C110.75 149.816 110.376 149.671 110.07 149.374C109.764 149.077 109.594 148.703 109.569 148.261H113.24ZM109.577 147.7C109.637 147.309 109.807 146.978 110.096 146.706C110.385 146.426 110.725 146.29 111.107 146.29C111.957 146.29 112.483 146.85 112.577 147.7H109.577ZM115.869 147.709C115.393 147.709 114.977 147.819 114.611 148.031C114.254 148.244 114.076 148.567 114.076 149.017V149.068C114.076 149.45 114.212 149.773 114.492 150.028C114.773 150.275 115.147 150.402 115.597 150.402C116.243 150.402 116.752 150.113 117.126 149.527H117.135V150.326H117.781V147.394C117.781 147.114 117.738 146.867 117.645 146.646C117.373 146.026 116.82 145.712 115.988 145.712C115.087 145.712 114.467 146.103 114.127 146.884L114.671 147.19C114.951 146.595 115.384 146.298 115.971 146.298C116.744 146.298 117.126 146.663 117.126 147.403V147.709H115.869ZM117.126 148.414C117.126 148.83 116.99 149.162 116.727 149.425C116.464 149.688 116.124 149.816 115.716 149.816C115.147 149.816 114.739 149.518 114.739 149.017C114.764 148.422 115.342 148.244 115.86 148.252H117.126V148.414ZM119.568 148.031C119.568 147.547 119.721 147.139 120.027 146.808C120.341 146.468 120.732 146.298 121.208 146.298C121.956 146.298 122.423 146.723 122.627 147.292L123.205 147.037C122.941 146.281 122.228 145.712 121.208 145.712C120.562 145.712 120.01 145.941 119.56 146.392C119.109 146.842 118.888 147.403 118.888 148.057C118.888 148.728 119.109 149.289 119.551 149.739C120.001 150.181 120.545 150.402 121.199 150.402C122.228 150.402 122.941 149.833 123.222 149.051L122.644 148.796C122.381 149.476 121.896 149.816 121.208 149.816C120.724 149.816 120.333 149.637 120.027 149.289C119.721 148.941 119.568 148.516 119.568 148.031ZM128.249 150.326V147.522C128.249 146.434 127.62 145.703 126.532 145.703C125.861 145.703 125.343 146.001 124.977 146.604V143.409H124.315V150.326H124.977V147.743C124.977 147.335 125.105 146.995 125.36 146.723C125.615 146.443 125.937 146.307 126.328 146.307C127.144 146.307 127.586 146.842 127.586 147.683V150.326H128.249ZM135.064 149.034C135.064 148.754 134.954 148.499 134.742 148.286C134.495 148.031 134.096 147.845 133.552 147.726C132.711 147.547 132.49 147.386 132.49 147.012C132.49 146.816 132.583 146.655 132.762 146.511C132.94 146.366 133.161 146.298 133.408 146.298C133.875 146.298 134.232 146.553 134.47 147.063L135.013 146.765C134.708 146.06 134.172 145.712 133.408 145.712C133 145.712 132.634 145.839 132.311 146.094C131.989 146.349 131.827 146.672 131.827 147.063C131.827 147.326 131.912 147.547 132.073 147.743C132.32 148.023 132.634 148.167 133.255 148.303C134.079 148.499 134.393 148.694 134.393 149.077C134.393 149.527 133.943 149.816 133.424 149.816C132.889 149.816 132.481 149.518 132.201 148.932L131.657 149.23C132.005 150.011 132.6 150.402 133.433 150.402C133.9 150.402 134.291 150.275 134.597 150.02C134.911 149.756 135.064 149.433 135.064 149.034ZM136.085 144.165C136.085 144.437 136.306 144.658 136.578 144.658C136.859 144.658 137.08 144.437 137.08 144.165C137.08 143.885 136.859 143.664 136.578 143.664C136.306 143.664 136.085 143.885 136.085 144.165ZM136.918 145.788H136.247V150.326H136.918V145.788ZM138.09 148.048C138.09 148.694 138.285 149.247 138.676 149.705C139.075 150.164 139.585 150.394 140.214 150.394C140.97 150.394 141.565 150.045 141.981 149.357V150.326H142.627V143.409H141.973V146.74C141.506 146.052 140.919 145.712 140.214 145.712C139.594 145.712 139.084 145.95 138.685 146.417C138.285 146.884 138.09 147.428 138.09 148.048ZM140.35 149.807C139.866 149.807 139.483 149.637 139.194 149.306C138.905 148.966 138.761 148.55 138.761 148.065C138.761 147.564 138.905 147.139 139.194 146.808C139.483 146.468 139.866 146.298 140.35 146.298C140.809 146.298 141.191 146.477 141.506 146.825C141.82 147.173 141.981 147.573 141.981 148.04C141.981 148.524 141.828 148.941 141.514 149.289C141.208 149.637 140.817 149.807 140.35 149.807ZM148.14 148.261C148.149 148.218 148.149 148.142 148.149 148.04C148.149 147.352 147.962 146.799 147.588 146.366C147.214 145.933 146.687 145.712 146.008 145.712C145.387 145.712 144.861 145.941 144.436 146.409C144.011 146.876 143.799 147.42 143.799 148.048C143.799 148.703 144.019 149.264 144.461 149.722C144.903 150.173 145.447 150.402 146.101 150.402C146.917 150.402 147.639 149.977 148.022 149.23L147.529 148.907C147.265 149.45 146.73 149.816 146.093 149.816C145.651 149.816 145.277 149.671 144.971 149.374C144.665 149.077 144.495 148.703 144.47 148.261H148.14ZM144.478 147.7C144.538 147.309 144.708 146.978 144.997 146.706C145.285 146.426 145.625 146.29 146.008 146.29C146.857 146.29 147.384 146.85 147.478 147.7H144.478ZM149.733 149.179C149.393 149.179 149.121 149.45 149.121 149.79C149.121 150.13 149.393 150.402 149.733 150.402C150.064 150.402 150.336 150.13 150.336 149.79C150.336 149.45 150.064 149.179 149.733 149.179Z" fill="#828282"/>
<path d="M73.2236 151.175H83.1578V151.6H73.2236V151.175Z" fill="#828282"/>
<path d="M55.5018 192.766C56.2552 192.766 56.8599 192.558 57.3159 192.131C57.7719 191.705 57.9999 191.19 57.9999 190.595C57.9999 190.109 57.8215 189.673 57.4646 189.286C57.078 188.86 56.4237 188.533 55.5117 188.305C54.3321 187.998 53.8562 187.621 53.8562 186.917C53.8562 186.53 54.0148 186.213 54.3321 185.965C54.6493 185.718 55.026 185.599 55.4622 185.599C56.3147 185.599 56.9095 186.015 57.2366 186.838L57.9305 186.451C57.5638 185.47 56.7112 184.835 55.482 184.835C54.8079 184.835 54.2329 185.034 53.7571 185.42C53.2813 185.807 53.0433 186.312 53.0433 186.957C53.0433 188.037 53.7769 188.721 55.363 189.108C56.5526 189.395 57.1672 189.861 57.1672 190.654C57.1672 191.051 57.0086 191.378 56.6815 191.626C56.3643 191.874 55.9677 192.003 55.5018 192.003C54.5006 192.003 53.9157 191.467 53.5192 190.506L52.8153 190.872C53.2912 192.131 54.1834 192.766 55.5018 192.766ZM59.3673 187.393V190.664C59.3673 191.933 60.1008 192.786 61.3697 192.786C62.1727 192.786 62.7774 192.429 63.1838 191.715V192.687H63.9372V187.393H63.1739V190.416C63.1739 190.892 63.0252 191.289 62.7278 191.606C62.4304 191.923 62.0537 192.082 61.5977 192.082C60.6461 192.082 60.1306 191.457 60.1306 190.476V187.393H59.3673ZM70.9938 190.03C70.9938 189.306 70.7559 188.672 70.29 188.126C69.8241 187.581 69.2293 187.304 68.5056 187.304C67.663 187.304 66.979 187.72 66.4536 188.543V187.393H65.6902V195.294H66.4635V191.596C66.9591 192.379 67.6431 192.766 68.5056 192.766C69.2293 192.766 69.8241 192.498 70.29 191.953C70.7559 191.408 70.9938 190.773 70.9938 190.03ZM68.347 192.082C67.8018 192.082 67.3458 191.884 66.9889 191.477C66.632 191.071 66.4536 190.585 66.4536 190.02C66.4536 189.475 66.632 189.009 66.9988 188.602C67.3656 188.196 67.8117 187.988 68.347 187.988C68.912 187.988 69.3581 188.186 69.6952 188.592C70.0322 188.989 70.2008 189.475 70.2008 190.05C70.2008 190.634 70.0322 191.12 69.6952 191.507C69.368 191.893 68.912 192.082 68.347 192.082ZM77.0394 190.278C77.0493 190.228 77.0493 190.139 77.0493 190.02C77.0493 189.217 76.8312 188.573 76.395 188.067C75.9588 187.561 75.3442 187.304 74.5512 187.304C73.8275 187.304 73.2129 187.571 72.7172 188.117C72.2216 188.662 71.9737 189.296 71.9737 190.03C71.9737 190.793 72.2315 191.447 72.747 191.983C73.2625 192.508 73.8969 192.776 74.6602 192.776C75.6119 192.776 76.4545 192.28 76.9006 191.408L76.3256 191.031C76.0183 191.665 75.3938 192.092 74.6503 192.092C74.1348 192.092 73.6986 191.923 73.3418 191.576C72.9849 191.229 72.7866 190.793 72.7569 190.278H77.0394ZM72.7668 189.623C72.8362 189.167 73.0345 188.781 73.3715 188.464C73.7086 188.136 74.1051 187.978 74.5512 187.978C75.5425 187.978 76.1571 188.632 76.2662 189.623H72.7668ZM78.3818 187.393V192.687H79.1551V190.099C79.1551 189.554 79.2839 189.098 79.5516 188.711C79.8193 188.325 80.2356 188.126 80.8106 188.126C80.88 188.126 80.9791 188.136 81.108 188.146V187.323C81.0683 187.314 80.9791 187.314 80.8502 187.314C80.1761 187.314 79.5119 187.68 79.1452 188.444V187.393H78.3818ZM86.5194 192.687V189.643C86.5194 189.177 86.6483 188.791 86.9159 188.483C87.1836 188.166 87.5405 188.007 87.9866 188.007C88.9085 188.007 89.3546 188.652 89.3546 189.604V192.687H90.1278V189.415C90.1278 188.146 89.4141 187.304 88.1749 187.304C87.3918 187.304 86.7672 187.651 86.3112 188.354C85.9841 187.651 85.419 187.294 84.6161 187.294C83.8627 187.294 83.3571 187.631 82.911 188.315V187.393H82.1477V192.687H82.9209V189.673C82.9209 189.217 83.0498 188.82 83.3175 188.493C83.5851 188.166 83.942 187.998 84.3881 187.998C85.3001 187.998 85.7561 188.662 85.7561 189.584V192.687H86.5194ZM93.5341 189.633C92.9789 189.633 92.4932 189.762 92.0669 190.01C91.6506 190.258 91.4424 190.634 91.4424 191.16V191.219C91.4424 191.665 91.601 192.042 91.9281 192.34C92.2553 192.627 92.6915 192.776 93.2169 192.776C93.9703 192.776 94.5651 192.439 95.0012 191.755H95.0111V192.687H95.7645V189.266C95.7645 188.939 95.715 188.652 95.6059 188.394C95.2887 187.67 94.6444 187.304 93.6729 187.304C92.6221 187.304 91.8984 187.76 91.5019 188.672L92.1363 189.029C92.4635 188.335 92.969 187.988 93.653 187.988C94.5551 187.988 95.0012 188.414 95.0012 189.276V189.633H93.5341ZM95.0012 190.456C95.0012 190.942 94.8426 191.328 94.5353 191.636C94.228 191.943 93.8315 192.092 93.3556 192.092C92.6915 192.092 92.2156 191.745 92.2156 191.16C92.2454 190.466 92.9195 190.258 93.5242 190.268H95.0012V190.456ZM102.033 192.687V189.415C102.033 188.146 101.3 187.294 100.031 187.294C99.2278 187.294 98.6231 187.651 98.2068 188.364V187.393H97.4434V192.687H98.2167V189.673C98.2167 189.197 98.3654 188.801 98.6628 188.483C98.9602 188.156 99.3369 187.998 99.7929 187.998C100.745 187.998 101.26 188.622 101.26 189.604V192.687H102.033ZM107.626 192.687H108.478L109.886 188.384H109.896L111.293 192.687H112.156L113.94 187.393H113.137L111.74 191.794H111.73L110.282 187.393H109.509L108.072 191.784H108.062L106.674 187.393H105.851L107.626 192.687ZM114.874 185.499C114.874 185.817 115.132 186.074 115.449 186.074C115.776 186.074 116.034 185.817 116.034 185.499C116.034 185.172 115.776 184.915 115.449 184.915C115.132 184.915 114.874 185.172 114.874 185.499ZM115.846 187.393H115.063V192.687H115.846V187.393ZM119.443 192.726C119.671 192.726 119.879 192.696 120.048 192.647V192.003C119.939 192.032 119.78 192.042 119.572 192.042C118.997 192.042 118.709 191.794 118.709 191.299V188.077H120.048V187.393H118.709V185.866H117.946V187.393H116.965V188.077H117.946V191.319C117.946 192.26 118.442 192.726 119.443 192.726ZM125.945 192.687V189.415C125.945 188.146 125.211 187.294 123.942 187.294C123.159 187.294 122.555 187.641 122.128 188.345V184.617H121.355V192.687H122.128V189.673C122.128 189.197 122.277 188.801 122.574 188.483C122.872 188.156 123.249 187.998 123.705 187.998C124.656 187.998 125.172 188.622 125.172 189.604V192.687H125.945ZM131.408 192.687V189.653H133.054C133.956 189.653 134.66 189.425 135.166 188.979C135.671 188.523 135.919 187.948 135.919 187.254C135.919 186.6 135.691 186.045 135.225 185.599C134.759 185.152 134.085 184.924 133.193 184.924H130.596V192.687H131.408ZM131.408 185.688H133.123C133.827 185.688 134.323 185.846 134.63 186.154C134.938 186.461 135.086 186.838 135.086 187.284C135.086 187.72 134.918 188.097 134.581 188.424C134.244 188.741 133.748 188.9 133.084 188.9H131.408V185.688ZM138.724 189.633C138.169 189.633 137.683 189.762 137.257 190.01C136.841 190.258 136.633 190.634 136.633 191.16V191.219C136.633 191.665 136.791 192.042 137.118 192.34C137.445 192.627 137.882 192.776 138.407 192.776C139.16 192.776 139.755 192.439 140.191 191.755H140.201V192.687H140.955V189.266C140.955 188.939 140.905 188.652 140.796 188.394C140.479 187.67 139.835 187.304 138.863 187.304C137.812 187.304 137.089 187.76 136.692 188.672L137.327 189.029C137.654 188.335 138.159 187.988 138.843 187.988C139.745 187.988 140.191 188.414 140.191 189.276V189.633H138.724ZM140.191 190.456C140.191 190.942 140.033 191.328 139.726 191.636C139.418 191.943 139.022 192.092 138.546 192.092C137.882 192.092 137.406 191.745 137.406 191.16C137.436 190.466 138.11 190.258 138.714 190.268H140.191V190.456ZM142.574 187.393V190.664C142.574 191.933 143.308 192.786 144.577 192.786C145.38 192.786 145.984 192.429 146.391 191.715V192.687H147.144V187.393H146.381V190.416C146.381 190.892 146.232 191.289 145.935 191.606C145.637 191.923 145.261 192.082 144.805 192.082C143.853 192.082 143.337 191.457 143.337 190.476V187.393H142.574ZM152.406 191.18C152.406 190.853 152.278 190.555 152.03 190.307C151.742 190.01 151.276 189.792 150.642 189.653C149.66 189.445 149.403 189.257 149.403 188.82C149.403 188.592 149.512 188.404 149.72 188.236C149.928 188.067 150.186 187.988 150.473 187.988C151.019 187.988 151.435 188.285 151.713 188.88L152.347 188.533C151.99 187.71 151.366 187.304 150.473 187.304C149.998 187.304 149.571 187.452 149.195 187.75C148.818 188.047 148.63 188.424 148.63 188.88C148.63 189.187 148.729 189.445 148.917 189.673C149.204 190 149.571 190.169 150.295 190.327C151.257 190.555 151.623 190.783 151.623 191.229C151.623 191.755 151.098 192.092 150.493 192.092C149.869 192.092 149.393 191.745 149.066 191.061L148.431 191.408C148.838 192.32 149.532 192.776 150.503 192.776C151.048 192.776 151.504 192.627 151.861 192.33C152.228 192.022 152.406 191.646 152.406 191.18ZM158.465 190.278C158.475 190.228 158.475 190.139 158.475 190.02C158.475 189.217 158.257 188.573 157.821 188.067C157.384 187.561 156.77 187.304 155.977 187.304C155.253 187.304 154.639 187.571 154.143 188.117C153.647 188.662 153.399 189.296 153.399 190.03C153.399 190.793 153.657 191.447 154.173 191.983C154.688 192.508 155.323 192.776 156.086 192.776C157.038 192.776 157.88 192.28 158.326 191.408L157.751 191.031C157.444 191.665 156.819 192.092 156.076 192.092C155.56 192.092 155.124 191.923 154.767 191.576C154.411 191.229 154.212 190.793 154.183 190.278H158.465ZM154.192 189.623C154.262 189.167 154.46 188.781 154.797 188.464C155.134 188.136 155.531 187.978 155.977 187.978C156.968 187.978 157.583 188.632 157.692 189.623H154.192Z" fill="black"/>
<path d="M146.788 246.128H148.879V241.081H151.411L154.3 246.128H156.662L153.501 240.724C155.285 240.129 156.322 238.77 156.322 236.917C156.322 235.745 155.948 234.776 155.217 233.994C154.487 233.212 153.331 232.822 151.785 232.822H146.788V246.128ZM148.879 234.759H151.564C153.739 234.759 154.198 235.948 154.198 236.968C154.198 238.192 153.416 239.194 151.564 239.194H148.879V234.759ZM167.517 234.708V232.822H159.003V246.128H167.585V244.225H161.093V240.299H166.939V238.413H161.093V234.708H167.517ZM174.129 246.281C175.505 246.281 176.61 245.907 177.426 245.142C178.241 244.378 178.649 243.477 178.649 242.44C178.649 241.472 178.326 240.673 177.698 240.061C177.069 239.432 175.93 238.871 174.282 238.379C172.65 237.886 171.818 237.342 171.818 236.339C171.818 235.269 172.752 234.521 174.044 234.521C175.318 234.521 176.219 235.15 176.729 236.39L178.462 235.456C177.834 233.807 176.338 232.635 174.095 232.635C172.854 232.635 171.818 233.009 170.951 233.756C170.101 234.487 169.676 235.388 169.676 236.458C169.676 237.478 170.016 238.294 170.696 238.888C171.342 239.466 172.379 239.976 173.823 240.435C175.726 241.03 176.491 241.591 176.491 242.559C176.491 243.664 175.522 244.378 174.163 244.378C172.718 244.378 171.563 243.596 171.002 242.168L169.235 243.086C169.982 245.125 171.801 246.281 174.129 246.281ZM179.533 234.759H183.748V246.128H185.838V234.759H190.069V232.822H179.533V234.759Z" fill="black"/>
<path d="M53.9525 197.487H53.2558V204.14H53.9525V197.487ZM57.6751 201.863C57.6751 202.509 57.8705 203.061 58.2614 203.52C58.6607 203.979 59.1706 204.208 59.7993 204.208C60.5556 204.208 61.1504 203.86 61.5667 203.171V204.14H62.2125V197.224H61.5582V200.554C61.0909 199.866 60.5046 199.526 59.7993 199.526C59.1791 199.526 58.6692 199.764 58.2699 200.232C57.8705 200.699 57.6751 201.243 57.6751 201.863ZM59.9353 203.622C59.451 203.622 59.0686 203.452 58.7797 203.12C58.4908 202.781 58.3463 202.364 58.3463 201.88C58.3463 201.379 58.4908 200.954 58.7797 200.622C59.0686 200.282 59.451 200.113 59.9353 200.113C60.3941 200.113 60.7765 200.291 61.0909 200.639C61.4053 200.988 61.5667 201.387 61.5667 201.854C61.5667 202.339 61.4138 202.755 61.0994 203.103C60.7935 203.452 60.4026 203.622 59.9353 203.622ZM63.5538 197.98C63.5538 198.252 63.7747 198.473 64.0466 198.473C64.327 198.473 64.5479 198.252 64.5479 197.98C64.5479 197.699 64.327 197.478 64.0466 197.478C63.7747 197.478 63.5538 197.699 63.5538 197.98ZM64.3865 199.603H63.7152V204.14H64.3865V199.603ZM65.5581 201.863C65.5581 202.509 65.7535 203.061 66.1444 203.52C66.5437 203.979 67.0535 204.208 67.6823 204.208C68.4385 204.208 69.0333 203.86 69.4497 203.171V204.14H70.0955V197.224H69.4412V200.554C68.9739 199.866 68.3876 199.526 67.6823 199.526C67.062 199.526 66.5522 199.764 66.1528 200.232C65.7535 200.699 65.5581 201.243 65.5581 201.863ZM67.8183 203.622C67.3339 203.622 66.9516 203.452 66.6627 203.12C66.3738 202.781 66.2293 202.364 66.2293 201.88C66.2293 201.379 66.3738 200.954 66.6627 200.622C66.9516 200.282 67.3339 200.113 67.8183 200.113C68.2771 200.113 68.6595 200.291 68.9739 200.639C69.2883 200.988 69.4497 201.387 69.4497 201.854C69.4497 202.339 69.2967 202.755 68.9824 203.103C68.6765 203.452 68.2856 203.622 67.8183 203.622ZM73.623 204.14H78.4918V202.883H75.6198L76.7414 201.99C77.3787 201.489 77.829 201.073 78.0754 200.741C78.3303 200.41 78.4578 200.011 78.4578 199.535C78.4578 198.923 78.2454 198.413 77.812 198.005C77.3787 197.589 76.8094 197.385 76.0956 197.385C75.5263 197.385 75.0165 197.521 74.5662 197.793C74.1243 198.056 73.8269 198.456 73.6655 198.974L74.9315 199.509C75.1525 198.957 75.5348 198.677 76.0871 198.677C76.6309 198.677 77.0388 199.067 77.0388 199.543C77.0388 199.79 76.9623 200.011 76.8009 200.215C76.6394 200.418 76.359 200.69 75.9427 201.03L73.623 202.934V204.14ZM82.5007 202.823V204.14H83.8433V202.815H84.7864V201.583H83.8433V197.487H82.2033L79.2209 201.472V202.823H82.5007ZM82.5007 199.101V201.583H80.6484L82.5007 199.101ZM88.2686 199.603V204.14H88.9314V201.922C88.9314 201.455 89.0418 201.064 89.2713 200.733C89.5007 200.401 89.8575 200.232 90.3504 200.232C90.4099 200.232 90.4948 200.24 90.6053 200.249V199.543C90.5713 199.535 90.4948 199.535 90.3844 199.535C89.8066 199.535 89.2373 199.849 88.9229 200.503V199.603H88.2686ZM95.3494 202.075C95.3579 202.033 95.3579 201.956 95.3579 201.854C95.3579 201.166 95.171 200.614 94.7971 200.181C94.4232 199.747 93.8964 199.526 93.2167 199.526C92.5964 199.526 92.0696 199.756 91.6447 200.223C91.2199 200.69 91.0074 201.234 91.0074 201.863C91.0074 202.517 91.2284 203.078 91.6702 203.537C92.112 203.987 92.6559 204.217 93.3101 204.217C94.1258 204.217 94.8481 203.792 95.2305 203.044L94.7376 202.721C94.4742 203.265 93.9389 203.63 93.3016 203.63C92.8598 203.63 92.4859 203.486 92.18 203.188C91.8741 202.891 91.7042 202.517 91.6787 202.075H95.3494ZM91.6872 201.515C91.7467 201.124 91.9166 200.792 92.2055 200.52C92.4944 200.24 92.8343 200.104 93.2167 200.104C94.0664 200.104 94.5932 200.665 94.6866 201.515H91.6872ZM101.046 201.863C101.046 201.243 100.842 200.699 100.443 200.232C100.043 199.764 99.5335 199.526 98.9132 199.526C98.191 199.526 97.6047 199.883 97.1544 200.588V199.603H96.5001V206.375H97.1629V203.205C97.5877 203.877 98.174 204.208 98.9132 204.208C99.5335 204.208 100.043 203.979 100.443 203.511C100.842 203.044 101.046 202.5 101.046 201.863ZM98.7773 203.622C98.31 203.622 97.9191 203.452 97.6132 203.103C97.3073 202.755 97.1544 202.339 97.1544 201.854C97.1544 201.387 97.3073 200.988 97.6217 200.639C97.9361 200.291 98.3185 200.113 98.7773 200.113C99.2616 200.113 99.644 200.282 99.9329 200.631C100.222 200.971 100.366 201.387 100.366 201.88C100.366 202.381 100.222 202.798 99.9329 203.129C99.6525 203.46 99.2616 203.622 98.7773 203.622ZM105.225 202.849C105.225 202.568 105.115 202.313 104.902 202.101C104.656 201.846 104.257 201.659 103.713 201.54C102.872 201.362 102.651 201.2 102.651 200.826C102.651 200.631 102.744 200.469 102.923 200.325C103.101 200.181 103.322 200.113 103.568 200.113C104.036 200.113 104.393 200.367 104.63 200.877L105.174 200.58C104.868 199.875 104.333 199.526 103.568 199.526C103.161 199.526 102.795 199.654 102.472 199.909C102.149 200.164 101.988 200.486 101.988 200.877C101.988 201.141 102.073 201.362 102.234 201.557C102.481 201.837 102.795 201.982 103.415 202.118C104.24 202.313 104.554 202.509 104.554 202.891C104.554 203.341 104.104 203.63 103.585 203.63C103.05 203.63 102.642 203.333 102.362 202.747L101.818 203.044C102.166 203.826 102.761 204.217 103.594 204.217C104.061 204.217 104.452 204.089 104.758 203.834C105.072 203.571 105.225 203.248 105.225 202.849ZM106.85 202.993C106.51 202.993 106.238 203.265 106.238 203.605C106.238 203.945 106.51 204.217 106.85 204.217C107.181 204.217 107.453 203.945 107.453 203.605C107.453 203.265 107.181 202.993 106.85 202.993Z" fill="#828282"/>
<path d="M73.2236 204.99H85.1518V205.415H73.2236V204.99Z" fill="#828282"/>
<path d="M116.239 37.1265H120.884V41.6157H123.178V30.5271H120.884V34.9031H116.239V30.5271H113.945V41.6157H116.239V37.1265ZM124.964 37.8487C124.964 38.9816 125.36 39.9163 126.153 40.6669C126.947 41.4175 127.924 41.7857 129.085 41.7857C130.232 41.7857 131.209 41.4033 132.016 40.6527C132.824 39.888 133.22 38.9392 133.22 37.8062C133.22 36.6875 132.824 35.7669 132.031 35.0164C131.238 34.2658 130.26 33.8834 129.113 33.8834C127.966 33.8834 126.975 34.2658 126.168 35.0305C125.36 35.7811 124.964 36.7299 124.964 37.8487ZM127.23 37.8204C127.23 37.2681 127.414 36.8007 127.768 36.4467C128.122 36.0785 128.561 35.8944 129.085 35.8944C129.609 35.8944 130.062 36.0785 130.416 36.4467C130.77 36.8007 130.954 37.2681 130.954 37.8204C130.954 38.9533 130.161 39.7605 129.099 39.7605C128.575 39.7605 128.122 39.5764 127.768 39.2224C127.414 38.8542 127.23 38.3869 127.23 37.8204ZM142.54 38.7834L141.124 34.0534H139.085L137.669 38.7409H137.655L136.295 34.0534H134.029L136.38 41.6157H138.519L140.076 36.7866H140.09L141.634 41.6157H143.801L146.18 34.0534H143.971L142.54 38.7834ZM150.281 32.3115C150.281 31.1785 149.615 30.4421 148.667 30.4421C147.859 30.4421 147.194 31.0936 147.194 31.9291C147.194 32.708 147.732 33.2603 148.454 33.2603C148.638 33.2603 148.808 33.232 148.95 33.1612C148.652 33.8409 148.143 34.4216 147.449 34.9031L148.284 35.6961C149.488 34.8606 150.281 33.6285 150.281 32.3823V32.3115ZM156.844 41.6157H158.982V30.0881H156.787V34.9172H156.759C156.192 34.2516 155.442 33.9118 154.493 33.9118C153.459 33.9118 152.595 34.3083 151.901 35.1155C151.207 35.9086 150.867 36.8149 150.867 37.8204C150.867 38.8825 151.207 39.8172 151.873 40.5961C152.539 41.375 153.402 41.7573 154.465 41.7573C155.527 41.7573 156.32 41.3891 156.815 40.6527H156.844V41.6157ZM156.844 37.8204C156.844 38.3869 156.66 38.8542 156.306 39.2224C155.951 39.5764 155.498 39.7605 154.974 39.7605C154.45 39.7605 153.997 39.5764 153.643 39.2224C153.289 38.8542 153.105 38.3869 153.105 37.8204C153.105 36.7016 153.912 35.9086 154.974 35.9086C156.036 35.9086 156.844 36.7016 156.844 37.8204ZM167.342 41.6157H169.637V37.1265L173.701 30.5271H171.081L168.489 34.9597L165.926 30.5271H163.278L167.342 37.2256V41.6157ZM172.663 37.8487C172.663 38.9816 173.059 39.9163 173.852 40.6669C174.645 41.4175 175.623 41.7857 176.784 41.7857C177.931 41.7857 178.908 41.4033 179.715 40.6527C180.523 39.888 180.919 38.9392 180.919 37.8062C180.919 36.6875 180.523 35.7669 179.73 35.0164C178.936 34.2658 177.959 33.8834 176.812 33.8834C175.665 33.8834 174.674 34.2658 173.867 35.0305C173.059 35.7811 172.663 36.7299 172.663 37.8487ZM174.929 37.8204C174.929 37.2681 175.113 36.8007 175.467 36.4467C175.821 36.0785 176.26 35.8944 176.784 35.8944C177.308 35.8944 177.761 36.0785 178.115 36.4467C178.469 36.8007 178.653 37.2681 178.653 37.8204C178.653 38.9533 177.86 39.7605 176.798 39.7605C176.274 39.7605 175.821 39.5764 175.467 39.2224C175.113 38.8542 174.929 38.3869 174.929 37.8204ZM182.422 34.0534V38.7975C182.422 39.6331 182.663 40.3412 183.13 40.9218C183.612 41.4883 184.306 41.7715 185.198 41.7715C186.104 41.7715 186.812 41.4033 187.308 40.6811H187.322V41.6157H189.503V34.0534H187.294V38.2736C187.294 39.1091 186.826 39.7181 185.934 39.7181C185.042 39.7181 184.631 39.1657 184.631 38.2736V34.0534H182.422ZM205.019 36.0502C205.019 34.3083 204.467 32.9629 203.348 31.9858C202.229 31.0086 200.7 30.5271 198.76 30.5271H195.361V41.6157H198.717C200.657 41.6157 202.187 41.1059 203.32 40.0863C204.453 39.0666 205.019 37.7213 205.019 36.0502ZM202.668 36.0502C202.668 37.1123 202.314 37.9478 201.606 38.5568C200.898 39.1516 199.964 39.449 198.788 39.449H197.655V32.6938H198.816C199.949 32.6938 200.87 32.9912 201.592 33.586C202.314 34.1667 202.668 34.988 202.668 36.0502ZM206.214 37.8487C206.214 38.9816 206.61 39.9163 207.403 40.6669C208.197 41.4175 209.174 41.7857 210.335 41.7857C211.482 41.7857 212.459 41.4033 213.266 40.6527C214.074 39.888 214.47 38.9392 214.47 37.8062C214.47 36.6875 214.074 35.7669 213.281 35.0164C212.488 34.2658 211.51 33.8834 210.363 33.8834C209.216 33.8834 208.225 34.2658 207.418 35.0305C206.61 35.7811 206.214 36.7299 206.214 37.8487ZM208.48 37.8204C208.48 37.2681 208.664 36.8007 209.018 36.4467C209.372 36.0785 209.811 35.8944 210.335 35.8944C210.859 35.8944 211.312 36.0785 211.666 36.4467C212.02 36.8007 212.204 37.2681 212.204 37.8204C212.204 38.9533 211.411 39.7605 210.349 39.7605C209.825 39.7605 209.372 39.5764 209.018 39.2224C208.664 38.8542 208.48 38.3869 208.48 37.8204ZM218.82 32.4248C219.499 32.4248 219.981 32.8638 219.981 33.4869C219.981 33.9118 219.684 34.3791 219.089 34.9031L218.409 35.4979C217.658 36.1635 217.361 36.7016 217.361 37.5088V37.9762H219.514V37.877C219.514 37.1973 219.882 36.7441 220.562 36.1918C221.156 35.7103 221.595 35.2713 221.864 34.8606C222.148 34.4499 222.289 33.9401 222.289 33.3595C222.289 32.4814 221.978 31.7592 221.34 31.2069C220.703 30.6404 219.882 30.3572 218.876 30.3572C217.389 30.3572 216.03 31.1644 215.449 32.4814L217.361 33.4869C217.701 32.7788 218.182 32.4248 218.82 32.4248ZM218.508 39.0241C217.772 39.0241 217.149 39.6614 217.149 40.412C217.149 41.1625 217.772 41.7715 218.508 41.7715C219.287 41.7715 219.896 41.1625 219.896 40.412C219.896 39.6331 219.287 39.0241 218.508 39.0241Z" fill="black"/>
<path d="M135.444 55.695C136.197 55.695 136.802 55.4869 137.258 55.0606C137.714 54.6343 137.942 54.1188 137.942 53.524C137.942 53.0383 137.764 52.6021 137.407 52.2155C137.02 51.7892 136.366 51.4621 135.454 51.2341C134.274 50.9268 133.798 50.5501 133.798 49.8462C133.798 49.4596 133.957 49.1424 134.274 48.8946C134.591 48.6467 134.968 48.5278 135.404 48.5278C136.257 48.5278 136.852 48.9441 137.179 49.7669L137.873 49.3803C137.506 48.3989 136.653 47.7645 135.424 47.7645C134.75 47.7645 134.175 47.9627 133.699 48.3494C133.223 48.736 132.986 49.2415 132.986 49.8859C132.986 50.9664 133.719 51.6504 135.305 52.0371C136.495 52.3245 137.109 52.7905 137.109 53.5835C137.109 53.98 136.951 54.3072 136.624 54.555C136.306 54.8028 135.91 54.9317 135.444 54.9317C134.443 54.9317 133.858 54.3964 133.461 53.4348L132.758 53.8016C133.233 55.0606 134.126 55.695 135.444 55.695ZM144.048 53.2068C144.058 53.1573 144.058 53.068 144.058 52.9491C144.058 52.1461 143.84 51.5017 143.404 50.9962C142.967 50.4906 142.353 50.2329 141.56 50.2329C140.836 50.2329 140.221 50.5005 139.726 51.0457C139.23 51.591 138.982 52.2254 138.982 52.959C138.982 53.7223 139.24 54.3766 139.756 54.9119C140.271 55.4373 140.905 55.7049 141.669 55.7049C142.62 55.7049 143.463 55.2093 143.909 54.3369L143.334 53.9602C143.027 54.5947 142.402 55.0209 141.659 55.0209C141.143 55.0209 140.707 54.8524 140.35 54.5054C139.993 54.1585 139.795 53.7223 139.765 53.2068H144.048ZM139.775 52.5525C139.845 52.0965 140.043 51.7099 140.38 51.3927C140.717 51.0656 141.114 50.907 141.56 50.907C142.551 50.907 143.166 51.5612 143.275 52.5525H139.775ZM147.147 55.6554C147.375 55.6554 147.584 55.6256 147.752 55.5761V54.9317C147.643 54.9615 147.484 54.9714 147.276 54.9714C146.701 54.9714 146.414 54.7235 146.414 54.2279V51.0061H147.752V50.3221H146.414V48.7954H145.65V50.3221H144.669V51.0061H145.65V54.2477C145.65 55.1895 146.146 55.6554 147.147 55.6554ZM153.315 48.7161V55.6157H154.128V47.8537H153.335L151.085 49.2118L151.451 49.8264L153.315 48.7161ZM159.759 46.7831H159.005V56.7657H159.759V46.7831ZM167.03 52.4732L169.32 55.6157H170.311L167.912 52.3345C168.527 52.2552 169.033 52.0271 169.439 51.6405C169.845 51.2539 170.044 50.7483 170.044 50.1139C170.044 49.4695 169.816 48.9243 169.35 48.4981C168.894 48.0718 168.22 47.8537 167.318 47.8537H164.631V55.6157H165.444V52.4732H167.03ZM165.444 48.617H167.268C168.626 48.617 169.221 49.2713 169.221 50.1436C169.221 50.5798 169.052 50.9565 168.725 51.2638C168.398 51.5711 167.902 51.7298 167.248 51.7298H165.444V48.617ZM173.762 55.7049C174.535 55.7049 175.189 55.4373 175.715 54.9119C176.24 54.3865 176.508 53.7322 176.508 52.9491C176.508 52.1858 176.24 51.5513 175.715 51.0259C175.189 50.5005 174.545 50.2329 173.782 50.2329C172.998 50.2329 172.344 50.5005 171.819 51.0259C171.293 51.5513 171.036 52.2056 171.036 52.9887C171.036 53.7421 171.293 54.3865 171.819 54.9119C172.344 55.4373 172.998 55.7049 173.762 55.7049ZM173.782 55.0209C173.216 55.0209 172.741 54.8227 172.374 54.4162C172.007 54.0098 171.829 53.5141 171.829 52.9491C171.829 52.384 172.007 51.8983 172.374 51.5017C172.741 51.1052 173.197 50.907 173.762 50.907C174.327 50.907 174.793 51.1151 175.159 51.5216C175.526 51.928 175.715 52.4237 175.715 52.9887C175.715 53.5538 175.526 54.0296 175.159 54.4261C174.793 54.8227 174.337 55.0209 173.782 55.0209ZM177.81 50.3221V53.5934C177.81 54.8623 178.544 55.7149 179.813 55.7149C180.616 55.7149 181.22 55.358 181.627 54.6442V55.6157H182.38V50.3221H181.617V53.3456C181.617 53.8214 181.468 54.218 181.171 54.5352C180.873 54.8524 180.497 55.011 180.041 55.011C179.089 55.011 178.573 54.3865 178.573 53.4051V50.3221H177.81ZM188.723 55.6157V52.3444C188.723 51.0755 187.989 50.2229 186.721 50.2229C185.918 50.2229 185.313 50.5798 184.896 51.2936V50.3221H184.133V55.6157H184.906V52.6021C184.906 52.1263 185.055 51.7298 185.352 51.4125C185.65 51.0854 186.027 50.9268 186.483 50.9268C187.434 50.9268 187.95 51.5513 187.95 52.5327V55.6157H188.723ZM190.02 52.959C190.02 53.7124 190.248 54.3567 190.704 54.8921C191.17 55.4274 191.765 55.695 192.498 55.695C193.381 55.695 194.074 55.2886 194.56 54.4856V55.6157H195.314V47.5464H194.55V51.4324C194.005 50.6294 193.321 50.2329 192.498 50.2329C191.775 50.2329 191.18 50.5104 190.714 51.0557C190.248 51.6009 190.02 52.2353 190.02 52.959ZM192.657 55.011C192.092 55.011 191.646 54.8128 191.309 54.4261C190.972 54.0296 190.803 53.5439 190.803 52.9788C190.803 52.3939 190.972 51.8983 191.309 51.5117C191.646 51.1151 192.092 50.9169 192.657 50.9169C193.192 50.9169 193.638 51.125 194.005 51.5315C194.372 51.9379 194.56 52.4038 194.56 52.9491C194.56 53.5141 194.382 53.9999 194.015 54.4063C193.658 54.8128 193.202 55.011 192.657 55.011ZM201.322 48.7161V55.6157H202.135V47.8537H201.342L199.092 49.2118L199.459 49.8264L201.322 48.7161Z" fill="#757575"/>
<path d="M266.171 14.1621L273.252 21.243M280.333 28.3238L273.252 21.243M273.252 21.243L280.333 14.1621L266.171 28.3238" stroke="#B4B4B4" stroke-width="1.77021"/>
<path d="M271.128 140.496L275.703 145.866L283.873 135.953" stroke="#9CE184" stroke-width="2.12426" stroke-linecap="round"/>
<path d="M271.128 193.603L275.703 198.972L283.873 189.059" stroke="#9CE184" stroke-width="2.12426" stroke-linecap="round"/>
<rect x="58.7021" y="308.018" width="212.426" height="35.4043" rx="17.7021" fill="#FFB636"/>
<path d="M109.515 322.4C108.254 322.046 107.73 321.706 107.73 321.04C107.73 320.375 108.297 319.907 109.203 319.907C110.223 319.907 110.917 320.36 111.299 321.267L113.197 320.233C112.559 318.703 111.157 317.84 109.302 317.84C108.24 317.84 107.32 318.151 106.569 318.788C105.818 319.412 105.436 320.205 105.436 321.182C105.436 322.003 105.719 322.683 106.286 323.235C106.796 323.745 107.702 324.198 108.991 324.581C109.812 324.821 110.364 325.048 110.648 325.246C110.945 325.43 111.087 325.685 111.087 326.011C111.087 326.691 110.379 327.186 109.401 327.186C108.283 327.186 107.419 326.606 106.98 325.643L104.997 326.662C105.663 328.263 107.249 329.268 109.331 329.268C110.605 329.268 111.596 328.957 112.319 328.319C113.041 327.682 113.395 326.846 113.395 325.841C113.395 324.071 112.163 323.15 109.515 322.4ZM119.59 327.229C119.434 327.271 119.264 327.285 119.08 327.285C118.216 327.285 117.763 326.946 117.763 326.082V323.448H119.633V321.536H117.763V319.171H115.582V321.536H114.195V323.448H115.554V326.351C115.554 328.121 116.588 329.197 118.556 329.197C118.925 329.197 119.264 329.155 119.59 329.056V327.229ZM123.417 329.24C124.422 329.24 125.173 328.872 125.682 328.149L125.711 328.163V329.098H127.75V324.411C127.75 322.428 126.461 321.366 124.465 321.366C122.808 321.366 121.646 321.961 120.995 323.164L122.68 324.17C123.063 323.49 123.615 323.15 124.365 323.15C125.158 323.15 125.583 323.561 125.583 324.085C125.583 324.453 125.385 324.637 124.989 324.637H124.238C123.388 324.637 122.68 324.765 121.986 325.09C121.307 325.416 120.868 326.068 120.868 326.96V326.988C120.868 327.668 121.108 328.22 121.604 328.631C122.1 329.041 122.709 329.24 123.417 329.24ZM124.054 327.625C123.487 327.625 123.091 327.37 123.091 326.861C123.091 326.294 123.601 325.997 124.238 325.997H125.569V326.167C125.569 327.002 125.003 327.625 124.054 327.625ZM134.501 321.507C134.388 321.465 134.246 321.451 134.062 321.451C133.057 321.451 132.25 322.003 131.924 322.697H131.91V321.536H129.715V329.098H131.924V325.898C131.924 324.538 132.547 323.646 133.977 323.646C134.161 323.646 134.331 323.66 134.501 323.688V321.507ZM140.404 327.229C140.248 327.271 140.078 327.285 139.894 327.285C139.03 327.285 138.577 326.946 138.577 326.082V323.448H140.446V321.536H138.577V319.171H136.396V321.536H135.008V323.448H136.368V326.351C136.368 328.121 137.402 329.197 139.37 329.197C139.738 329.197 140.078 329.155 140.404 329.056V327.229ZM148.195 321.451L153.294 329.098H155.63V318.01H153.364V325.246L148.549 318.01H145.93V329.098H148.195V321.451ZM165.179 325.926C165.193 325.756 165.207 325.487 165.207 325.133C165.207 324.014 164.853 323.094 164.159 322.4C163.465 321.706 162.559 321.352 161.44 321.352C160.35 321.352 159.401 321.734 158.608 322.513C157.829 323.292 157.432 324.212 157.432 325.303C157.432 326.464 157.829 327.413 158.622 328.163C159.429 328.9 160.406 329.268 161.582 329.268C163.125 329.268 164.202 328.702 164.839 327.555L163.239 326.507C162.899 327.059 162.219 327.413 161.554 327.413C160.605 327.413 159.812 326.846 159.684 325.926H165.179ZM159.741 324.467C159.783 324.17 159.953 323.872 160.251 323.589C160.548 323.292 160.93 323.15 161.384 323.15C162.389 323.15 162.941 323.802 162.998 324.467H159.741ZM168.088 329.098L169.547 326.875L170.991 329.098H173.469L170.736 325.246L173.399 321.536H170.963L169.561 323.674L168.201 321.536H165.723L168.357 325.289L165.638 329.098H168.088ZM179.321 327.229C179.165 327.271 178.995 327.285 178.811 327.285C177.947 327.285 177.494 326.946 177.494 326.082V323.448H179.364V321.536H177.494V319.171H175.313V321.536H173.925V323.448H175.285V326.351C175.285 328.121 176.319 329.197 178.287 329.197C178.655 329.197 178.995 329.155 179.321 329.056V327.229ZM193.372 329.098L190.865 324.765C192.381 324.212 193.145 323.136 193.145 321.522C193.145 320.403 192.777 319.539 192.027 318.93C191.29 318.321 190.355 318.01 189.222 318.01H184.847V329.098H187.141V325.119H188.529L190.823 329.098H193.372ZM187.141 320.176H189.038C190.044 320.176 190.823 320.587 190.823 321.564C190.823 322.527 190.016 322.994 189.053 322.994H187.141V320.176ZM194.275 325.331C194.275 326.464 194.672 327.399 195.465 328.149C196.258 328.9 197.235 329.268 198.396 329.268C199.543 329.268 200.52 328.886 201.328 328.135C202.135 327.37 202.531 326.422 202.531 325.289C202.531 324.17 202.135 323.249 201.342 322.499C200.549 321.748 199.571 321.366 198.424 321.366C197.277 321.366 196.286 321.748 195.479 322.513C194.672 323.264 194.275 324.212 194.275 325.331ZM196.541 325.303C196.541 324.751 196.725 324.283 197.079 323.929C197.433 323.561 197.872 323.377 198.396 323.377C198.92 323.377 199.373 323.561 199.727 323.929C200.081 324.283 200.265 324.751 200.265 325.303C200.265 326.436 199.472 327.243 198.41 327.243C197.886 327.243 197.433 327.059 197.079 326.705C196.725 326.337 196.541 325.869 196.541 325.303ZM204.034 321.536V326.28C204.034 327.116 204.275 327.824 204.742 328.404C205.224 328.971 205.918 329.254 206.81 329.254C207.716 329.254 208.424 328.886 208.92 328.163H208.934V329.098H211.115V321.536H208.906V325.756C208.906 326.592 208.439 327.2 207.546 327.2C206.654 327.2 206.244 326.648 206.244 325.756V321.536H204.034ZM220.231 329.098V324.396C220.231 323.547 220.004 322.839 219.537 322.258C219.084 321.677 218.404 321.394 217.497 321.394C217.172 321.394 216.775 321.408 216.11 321.791C215.784 321.975 215.543 322.216 215.359 322.527H215.345V321.536H213.15V329.098H215.359V324.906C215.359 324.071 215.826 323.433 216.719 323.433C217.582 323.433 218.036 324.014 218.036 324.906V329.098H220.231ZM227.718 329.098H229.856V317.571H227.661V322.4H227.633C227.066 321.734 226.316 321.394 225.367 321.394C224.333 321.394 223.469 321.791 222.775 322.598C222.081 323.391 221.741 324.297 221.741 325.303C221.741 326.365 222.081 327.3 222.747 328.079C223.412 328.857 224.276 329.24 225.338 329.24C226.401 329.24 227.194 328.872 227.689 328.135H227.718V329.098ZM227.718 325.303C227.718 325.869 227.533 326.337 227.179 326.705C226.825 327.059 226.372 327.243 225.848 327.243C225.324 327.243 224.871 327.059 224.517 326.705C224.163 326.337 223.979 325.869 223.979 325.303C223.979 324.184 224.786 323.391 225.848 323.391C226.91 323.391 227.718 324.184 227.718 325.303Z" fill="white"/>
<path d="M132.693 279.45C132.693 276.678 131.578 274.893 128.806 273.746V273.714C131.068 272.503 132.215 270.751 132.215 268.457C132.215 266.322 131.419 264.569 129.826 263.263C128.232 261.957 126.161 261.287 123.612 261.287C119.438 261.287 116.124 263.231 114.722 266.672L119.342 268.871C120.203 267.023 121.541 266.099 123.421 266.099C125.683 266.099 127.022 267.246 127.022 268.807C127.022 270.464 125.715 271.611 123.517 271.611H121.159V276.391H123.803C126.098 276.391 127.468 277.442 127.468 279.322C127.468 281.075 126.002 282.222 123.803 282.222C121.541 282.222 119.725 281.17 118.865 279.354L114.34 281.68C115.837 285.153 119.311 287.002 123.676 287.002C126.257 287.002 128.392 286.301 130.112 284.867C131.833 283.433 132.693 281.617 132.693 279.45ZM135.852 274.129C135.852 277.474 136.744 280.565 138.401 282.987C140.09 285.408 142.958 286.938 146.495 286.938C153.664 286.938 157.233 280.597 157.233 274.001C157.233 269.445 155.767 265.557 152.453 263.135C150.828 261.893 148.853 261.287 146.59 261.287C144.264 261.287 142.257 261.925 140.6 263.167C138.943 264.41 137.732 265.971 136.967 267.851C136.235 269.731 135.852 271.834 135.852 274.129ZM141.556 270.56C141.906 269.445 142.512 268.425 143.372 267.565C144.232 266.672 145.284 266.226 146.527 266.226C147.769 266.226 148.821 266.672 149.681 267.565C152.198 270.082 152.485 274.256 151.497 277.602C151.147 278.749 150.541 279.768 149.681 280.661C148.821 281.521 147.769 281.967 146.527 281.967C145.284 281.967 144.232 281.521 143.372 280.661C140.855 278.08 140.568 273.81 141.556 270.56ZM181.849 281.489C181.849 278.526 179.587 276.837 175.285 275.945C173.788 275.626 173.055 275.116 173.055 274.383C173.055 273.714 173.82 273.141 174.839 273.141C176.273 273.141 177.293 273.682 177.93 274.766L181.531 272.631C180.415 270.56 178.121 269.19 174.967 269.19C173.182 269.19 171.653 269.699 170.347 270.719C169.072 271.707 168.435 273.013 168.435 274.575C168.435 277.347 170.442 279.195 174.489 280.087C176.656 280.565 177.197 281.075 177.197 281.744C177.197 282.413 176.369 282.987 175.126 282.987C173.278 282.987 172.003 282.286 171.302 280.916L167.638 283.082C169.008 285.695 171.494 287.002 175.062 287.002C179.268 287.002 181.849 284.771 181.849 281.489ZM201.723 279.482C201.755 279.099 201.787 278.494 201.787 277.697C201.787 275.18 200.991 273.109 199.429 271.548C197.868 269.986 195.829 269.19 193.311 269.19C190.858 269.19 188.723 270.05 186.939 271.802C185.186 273.555 184.294 275.626 184.294 278.08C184.294 280.692 185.186 282.827 186.97 284.516C188.787 286.173 190.985 287.002 193.63 287.002C197.103 287.002 199.525 285.727 200.959 283.146L197.358 280.788C196.593 282.031 195.064 282.827 193.566 282.827C191.431 282.827 189.647 281.553 189.36 279.482H201.723ZM189.488 276.2C189.583 275.531 189.966 274.861 190.635 274.224C191.304 273.555 192.164 273.236 193.184 273.236C195.446 273.236 196.689 274.702 196.816 276.2H189.488ZM213.448 287.002C217.24 287.002 220.33 285.185 221.637 281.712L217.24 279.896C216.507 281.585 215.264 282.413 213.48 282.413C211.058 282.413 209.401 280.629 209.401 278.08C209.401 275.435 211.185 273.778 213.48 273.778C215.168 273.778 216.411 274.606 217.144 276.295L221.509 274.479C220.394 271.133 217.271 269.221 213.48 269.221C210.931 269.221 208.764 270.082 206.979 271.802C205.195 273.523 204.303 275.626 204.303 278.143C204.303 280.692 205.163 282.795 206.884 284.484C208.605 286.173 210.803 287.002 213.448 287.002Z" fill="#63C6D4"/>
</g>
<rect x="41.5" y="0.5" width="252.494" height="353.043" rx="10.1213" stroke="black" stroke-opacity="0.2"/>
</g>
<path d="M28.9998 375C0.666452 307.667 -25.2002 154.6 57.9998 37M57.9998 37L42.9998 42M57.9998 37V53" stroke="#585799" stroke-width="3"/>
<defs>
<filter id="filter0_d" x="39" y="0" width="261.494" height="364.043" filterUnits="userSpaceOnUse" color-interpolation-filters="sRGB">
<feFlood flood-opacity="0" result="BackgroundImageFix"/>
<feColorMatrix in="SourceAlpha" type="matrix" values="0 0 0 0 0 0 0 0 0 0 0 0 0 0 0 0 0 0 127 0"/>
<feOffset dx="2" dy="6"/>
<feGaussianBlur stdDeviation="2"/>
<feColorMatrix type="matrix" values="0 0 0 0 0 0 0 0 0 0 0 0 0 0 0 0 0 0 0.1 0"/>
<feBlend mode="normal" in2="BackgroundImageFix" result="effect1_dropShadow"/>
<feBlend mode="normal" in="SourceGraphic" in2="effect1_dropShadow" result="shape"/>
</filter>
<clipPath id="clip0">
<rect x="41" width="253.494" height="354.043" rx="10.6213" fill="white"/>
</clipPath>
</defs>
</svg>
