<svg width="262" height="365" viewBox="0 0 262 365" fill="none" xmlns="http://www.w3.org/2000/svg">
<g filter="url(#filter0_d)">
<g clip-path="url(#clip0)">
<rect x="2" width="253.494" height="354.043" rx="10.6213" fill="white"/>
<circle cx="25.0132" cy="23.0132" r="8.32" fill="white" stroke="#757575" stroke-width="1.06213"/>
<path d="M25.0895 18.5896C26.1092 18.5896 26.7337 19.2651 26.7337 20.1318C26.7337 20.7946 26.5043 21.1769 25.7268 21.8779L25.3699 22.1838C24.5669 22.8848 24.2228 23.5348 24.2228 24.4398V25.0643H25.2042V24.5545C25.2042 24.1594 25.2807 23.8407 25.4209 23.5986C25.5738 23.3564 25.8415 23.0633 26.2366 22.7446C26.8229 22.2475 27.218 21.8269 27.4347 21.4828C27.6769 21.0622 27.8043 20.6161 27.8043 20.119C27.8043 19.3925 27.5494 18.7935 27.0396 18.3219C26.5298 17.8503 25.8797 17.6082 25.0895 17.6082C23.7767 17.6082 22.7061 18.3092 22.26 19.5837L23.1777 20.0553C23.5218 19.0739 24.1591 18.5896 25.0895 18.5896ZM23.9679 27.0654C23.9679 27.486 24.312 27.8173 24.7199 27.8173C25.1405 27.8173 25.4591 27.486 25.4591 27.0654C25.4591 26.6575 25.1405 26.3261 24.7199 26.3261C24.312 26.3261 23.9679 26.6575 23.9679 27.0654Z" fill="#757575"/>
<rect x="2" y="60.1875" width="242.165" height="161.443" fill="white"/>
<rect x="2" y="167.816" width="253.494" height="53.8145" rx="1.41617" fill="#D8D8D8" fill-opacity="0.5"/>
<path d="M232.128 87.3897L236.703 92.7594L244.873 82.8462" stroke="#9CE184" stroke-width="2.12426" stroke-linecap="round"/>
<path d="M15.4536 114.002L255.494 114.002" stroke="#EEEEEE" stroke-width="0.354043"/>
<path d="M15.4536 167.816L255.494 167.816" stroke="#EEEEEE" stroke-width="0.354043"/>
<path d="M17.731 85.1369C18.6133 85.1369 19.3667 84.9089 19.9714 84.443C20.586 83.9771 21.0123 83.412 21.2403 82.7478L20.5067 82.4009C20.0606 83.6202 19.1387 84.3637 17.7608 84.3637C16.8785 84.3637 16.1548 84.0564 15.5799 83.4517C15.0049 82.847 14.7174 82.0737 14.7174 81.1518C14.7174 80.2299 15.0148 79.4765 15.5997 78.8817C16.1945 78.2869 16.9083 77.9895 17.7509 77.9895C18.4944 77.9895 19.0892 78.1779 19.5352 78.5546C19.9913 78.9214 20.3085 79.3873 20.4968 79.9325L21.2304 79.5954C21.0222 78.9412 20.6158 78.386 20.0111 77.9201C19.4064 77.4542 18.6629 77.2163 17.7707 77.2163C16.6902 77.2163 15.7682 77.593 15.0049 78.3464C14.2416 79.0899 13.8649 80.0415 13.8649 81.2014C13.8649 82.3513 14.2317 83.2931 14.9752 84.0366C15.7187 84.7701 16.6406 85.1369 17.731 85.1369ZM27.0882 85.0576V81.7863C27.0882 80.5174 26.3547 79.6648 25.0858 79.6648C24.3026 79.6648 23.6979 80.0118 23.2717 80.7156V76.9883H22.4984V85.0576H23.2717V82.044C23.2717 81.5682 23.4204 81.1716 23.7178 80.8544C24.0152 80.5273 24.3919 80.3687 24.8479 80.3687C25.7995 80.3687 26.315 80.9932 26.315 81.9746V85.0576H27.0882ZM33.441 82.6487C33.4509 82.5991 33.4509 82.5099 33.4509 82.391C33.4509 81.588 33.2328 80.9436 32.7966 80.4381C32.3604 79.9325 31.7458 79.6748 30.9528 79.6748C30.2291 79.6748 29.6145 79.9424 29.1188 80.4876C28.6232 81.0329 28.3753 81.6673 28.3753 82.4009C28.3753 83.1642 28.6331 83.8185 29.1486 84.3538C29.6641 84.8792 30.2985 85.1468 31.0618 85.1468C32.0135 85.1468 32.8561 84.6512 33.3022 83.7788L32.7272 83.4021C32.4199 84.0366 31.7954 84.4628 31.0519 84.4628C30.5364 84.4628 30.1002 84.2943 29.7434 83.9473C29.3865 83.6004 29.1882 83.1642 29.1585 82.6487H33.441ZM29.1684 81.9944C29.2378 81.5384 29.436 81.1518 29.7731 80.8346C30.1101 80.5075 30.5067 80.3489 30.9528 80.3489C31.9441 80.3489 32.5587 81.0031 32.6677 81.9944H29.1684ZM38.2927 83.5508C38.2927 83.2237 38.1638 82.9263 37.916 82.6785C37.6285 82.3811 37.1626 82.163 36.5282 82.0242C35.5468 81.816 35.289 81.6277 35.289 81.1915C35.289 80.9635 35.3981 80.7751 35.6062 80.6066C35.8144 80.4381 36.0722 80.3588 36.3596 80.3588C36.9049 80.3588 37.3212 80.6562 37.5988 81.251L38.2332 80.904C37.8764 80.0812 37.2518 79.6748 36.3596 79.6748C35.8838 79.6748 35.4575 79.8235 35.0808 80.1208C34.7041 80.4182 34.5158 80.7949 34.5158 81.251C34.5158 81.5583 34.6149 81.816 34.8033 82.044C35.0907 82.3711 35.4575 82.5397 36.1812 82.6983C37.1428 82.9263 37.5096 83.1543 37.5096 83.6004C37.5096 84.1258 36.9842 84.4628 36.3795 84.4628C35.7549 84.4628 35.2791 84.1159 34.952 83.4319L34.3175 83.7788C34.724 84.6908 35.4179 85.1468 36.3894 85.1468C36.9346 85.1468 37.3906 84.9981 37.7475 84.7007C38.1143 84.3934 38.2927 84.0167 38.2927 83.5508ZM41.4583 85.0973C41.6863 85.0973 41.8945 85.0675 42.063 85.018V84.3736C41.9539 84.4033 41.7953 84.4133 41.5871 84.4133C41.0122 84.4133 40.7247 84.1654 40.7247 83.6698V80.448H42.063V79.764H40.7247V78.2373H39.9614V79.764H38.98V80.448H39.9614V83.6896C39.9614 84.6313 40.457 85.0973 41.4583 85.0973ZM50.8181 80.8445H47.1601V78.0589H51.1552V77.2956H46.3473V85.0576H47.1601V81.5979H50.8181V80.8445ZM53.2148 76.9784H52.4316V85.0576H53.2148V76.9784ZM54.77 77.8706C54.77 78.1878 55.0277 78.4455 55.345 78.4455C55.6721 78.4455 55.9298 78.1878 55.9298 77.8706C55.9298 77.5434 55.6721 77.2857 55.345 77.2857C55.0277 77.2857 54.77 77.5434 54.77 77.8706ZM55.7415 79.764H54.9583V85.0576H55.7415V79.764ZM62.1641 82.6487C62.174 82.5991 62.174 82.5099 62.174 82.391C62.174 81.588 61.9559 80.9436 61.5197 80.4381C61.0835 79.9325 60.4689 79.6748 59.6759 79.6748C58.9522 79.6748 58.3376 79.9424 57.8419 80.4876C57.3463 81.0329 57.0984 81.6673 57.0984 82.4009C57.0984 83.1642 57.3562 83.8185 57.8717 84.3538C58.3871 84.8792 59.0216 85.1468 59.7849 85.1468C60.7366 85.1468 61.5792 84.6512 62.0253 83.7788L61.4503 83.4021C61.143 84.0366 60.5185 84.4628 59.775 84.4628C59.2595 84.4628 58.8233 84.2943 58.4664 83.9473C58.1096 83.6004 57.9113 83.1642 57.8816 82.6487H62.1641ZM57.8915 81.9944C57.9609 81.5384 58.1591 81.1518 58.4962 80.8346C58.8332 80.5075 59.2298 80.3489 59.6759 80.3489C60.6672 80.3489 61.2818 81.0031 61.3908 81.9944H57.8915ZM67.0158 83.5508C67.0158 83.2237 66.8869 82.9263 66.6391 82.6785C66.3516 82.3811 65.8857 82.163 65.2512 82.0242C64.2698 81.816 64.0121 81.6277 64.0121 81.1915C64.0121 80.9635 64.1211 80.7751 64.3293 80.6066C64.5375 80.4381 64.7952 80.3588 65.0827 80.3588C65.628 80.3588 66.0443 80.6562 66.3219 81.251L66.9563 80.904C66.5994 80.0812 65.9749 79.6748 65.0827 79.6748C64.6069 79.6748 64.1806 79.8235 63.8039 80.1208C63.4272 80.4182 63.2389 80.7949 63.2389 81.251C63.2389 81.5583 63.338 81.816 63.5264 82.044C63.8138 82.3711 64.1806 82.5397 64.9043 82.6983C65.8659 82.9263 66.2327 83.1543 66.2327 83.6004C66.2327 84.1258 65.7073 84.4628 65.1026 84.4628C64.478 84.4628 64.0022 84.1159 63.6751 83.4319L63.0406 83.7788C63.447 84.6908 64.141 85.1468 65.1125 85.1468C65.6577 85.1468 66.1137 84.9981 66.4706 84.7007C66.8374 84.3934 67.0158 84.0167 67.0158 83.5508Z" fill="black"/>
<path d="M14.9525 89.8581H14.2558V96.5112H14.9525V89.8581ZM18.6751 94.234C18.6751 94.8798 18.8705 95.4321 19.2614 95.8909C19.6607 96.3498 20.1706 96.5792 20.7993 96.5792C21.5556 96.5792 22.1504 96.2308 22.5667 95.5426V96.5112H23.2125V89.5947H22.5582V92.9255C22.0909 92.2372 21.5046 91.8973 20.7993 91.8973C20.1791 91.8973 19.6692 92.1353 19.2699 92.6026C18.8705 93.0699 18.6751 93.6137 18.6751 94.234ZM20.9353 95.9929C20.451 95.9929 20.0686 95.823 19.7797 95.4916C19.4908 95.1517 19.3463 94.7354 19.3463 94.251C19.3463 93.7497 19.4908 93.3248 19.7797 92.9935C20.0686 92.6536 20.451 92.4836 20.9353 92.4836C21.3941 92.4836 21.7765 92.6621 22.0909 93.0105C22.4053 93.3588 22.5667 93.7582 22.5667 94.2255C22.5667 94.7099 22.4138 95.1262 22.0994 95.4746C21.7935 95.823 21.4026 95.9929 20.9353 95.9929ZM24.5538 90.3509C24.5538 90.6228 24.7747 90.8437 25.0466 90.8437C25.327 90.8437 25.5479 90.6228 25.5479 90.3509C25.5479 90.0705 25.327 89.8496 25.0466 89.8496C24.7747 89.8496 24.5538 90.0705 24.5538 90.3509ZM25.3865 91.9738H24.7152V96.5112H25.3865V91.9738ZM26.5581 94.234C26.5581 94.8798 26.7535 95.4321 27.1444 95.8909C27.5437 96.3498 28.0535 96.5792 28.6823 96.5792C29.4385 96.5792 30.0333 96.2308 30.4497 95.5426V96.5112H31.0955V89.5947H30.4412V92.9255C29.9739 92.2372 29.3876 91.8973 28.6823 91.8973C28.062 91.8973 27.5522 92.1353 27.1528 92.6026C26.7535 93.0699 26.5581 93.6137 26.5581 94.234ZM28.8183 95.9929C28.3339 95.9929 27.9516 95.823 27.6627 95.4916C27.3738 95.1517 27.2293 94.7354 27.2293 94.251C27.2293 93.7497 27.3738 93.3248 27.6627 92.9935C27.9516 92.6536 28.3339 92.4836 28.8183 92.4836C29.2771 92.4836 29.6595 92.6621 29.9739 93.0105C30.2883 93.3588 30.4497 93.7582 30.4497 94.2255C30.4497 94.7099 30.2967 95.1262 29.9824 95.4746C29.6765 95.823 29.2856 95.9929 28.8183 95.9929ZM36.2629 91.498V96.5112H37.6394V89.8581H36.5093L34.2491 91.1836L34.8609 92.2967L36.2629 91.498ZM43.631 94.285C43.631 93.6137 43.4271 93.0869 43.0192 92.7216C42.6199 92.3477 42.1101 92.1608 41.4983 92.1608C41.0649 92.1608 40.6656 92.3052 40.3002 92.6026L40.5126 91.1071H43.3336V89.8581H39.4165L38.9322 93.2314L40.2237 93.7582C40.4956 93.4948 40.8015 93.3673 41.1329 93.3673C41.8212 93.3673 42.246 93.7497 42.246 94.319C42.246 94.9308 41.8042 95.3047 41.1839 95.3047C40.5976 95.3047 40.1812 95.0667 39.9263 94.5909L38.7537 95.2877C39.2041 96.1544 40.0028 96.5877 41.1499 96.5877C41.8637 96.5877 42.4584 96.3838 42.9258 95.9674C43.3931 95.5511 43.631 94.9903 43.631 94.285ZM47.1444 91.9738V96.5112H47.8071V94.2935C47.8071 93.8262 47.9176 93.4353 48.147 93.1039C48.3764 92.7725 48.7333 92.6026 49.2261 92.6026C49.2856 92.6026 49.3706 92.6111 49.481 92.6196V91.9143C49.447 91.9058 49.3706 91.9058 49.2601 91.9058C48.6823 91.9058 48.113 92.2202 47.7986 92.8745V91.9738H47.1444ZM54.2252 94.4465C54.2337 94.404 54.2337 94.3275 54.2337 94.2255C54.2337 93.5373 54.0467 92.985 53.6729 92.5516C53.299 92.1183 52.7722 91.8973 52.0924 91.8973C51.4721 91.8973 50.9453 92.1268 50.5205 92.5941C50.0956 93.0614 49.8832 93.6052 49.8832 94.234C49.8832 94.8883 50.1041 95.4491 50.5459 95.9079C50.9878 96.3583 51.5316 96.5877 52.1859 96.5877C53.0016 96.5877 53.7238 96.1629 54.1062 95.4151L53.6134 95.0922C53.35 95.636 52.8147 96.0014 52.1774 96.0014C51.7355 96.0014 51.3617 95.857 51.0558 95.5596C50.7499 95.2622 50.5799 94.8883 50.5544 94.4465H54.2252ZM50.5629 93.8857C50.6224 93.4948 50.7924 93.1634 51.0813 92.8915C51.3702 92.6111 51.71 92.4751 52.0924 92.4751C52.9421 92.4751 53.4689 93.0359 53.5624 93.8857H50.5629ZM59.9217 94.234C59.9217 93.6137 59.7178 93.0699 59.3185 92.6026C58.9191 92.1353 58.4093 91.8973 57.789 91.8973C57.0667 91.8973 56.4805 92.2542 56.0301 92.9595V91.9738H55.3758V98.7459H56.0386V95.5766C56.4635 96.2478 57.0498 96.5792 57.789 96.5792C58.4093 96.5792 58.9191 96.3498 59.3185 95.8825C59.7178 95.4151 59.9217 94.8713 59.9217 94.234ZM57.653 95.9929C57.1857 95.9929 56.7948 95.823 56.4889 95.4746C56.1831 95.1262 56.0301 94.7099 56.0301 94.2255C56.0301 93.7582 56.1831 93.3588 56.4974 93.0105C56.8118 92.6621 57.1942 92.4836 57.653 92.4836C58.1374 92.4836 58.5197 92.6536 58.8086 93.002C59.0975 93.3418 59.242 93.7582 59.242 94.251C59.242 94.7523 59.0975 95.1687 58.8086 95.5001C58.5282 95.8315 58.1374 95.9929 57.653 95.9929ZM64.101 95.2197C64.101 94.9393 63.9906 94.6844 63.7781 94.4719C63.5317 94.217 63.1324 94.0301 62.5886 93.9111C61.7473 93.7327 61.5264 93.5713 61.5264 93.1974C61.5264 93.002 61.6199 92.8405 61.7983 92.6961C61.9768 92.5516 62.1977 92.4836 62.4441 92.4836C62.9114 92.4836 63.2683 92.7386 63.5062 93.2484L64.05 92.951C63.7441 92.2457 63.2088 91.8973 62.4441 91.8973C62.0362 91.8973 61.6709 92.0248 61.348 92.2797C61.0251 92.5346 60.8637 92.8575 60.8637 93.2484C60.8637 93.5118 60.9486 93.7327 61.1101 93.9281C61.3565 94.2085 61.6709 94.353 62.2912 94.4889C63.1154 94.6844 63.4298 94.8798 63.4298 95.2622C63.4298 95.7125 62.9794 96.0014 62.4611 96.0014C61.9258 96.0014 61.5179 95.704 61.2375 95.1177L60.6937 95.4151C61.0421 96.1968 61.6369 96.5877 62.4696 96.5877C62.9369 96.5877 63.3278 96.4602 63.6337 96.2053C63.9481 95.9419 64.101 95.619 64.101 95.2197ZM68.6423 96.5112H69.3731L70.5797 92.8235H70.5882L71.7862 96.5112H72.5255L74.055 91.9738H73.3667L72.1686 95.7465H72.1601L70.9195 91.9738H70.2568L69.0247 95.738H69.0162L67.8266 91.9738H67.1214L68.6423 96.5112ZM74.8555 90.3509C74.8555 90.6228 75.0764 90.8437 75.3483 90.8437C75.6287 90.8437 75.8496 90.6228 75.8496 90.3509C75.8496 90.0705 75.6287 89.8496 75.3483 89.8496C75.0764 89.8496 74.8555 90.0705 74.8555 90.3509ZM75.6882 91.9738H75.0169V96.5112H75.6882V91.9738ZM78.7716 96.5452C78.967 96.5452 79.1455 96.5197 79.2899 96.4772V95.9249C79.1964 95.9504 79.0605 95.9589 78.8821 95.9589C78.3892 95.9589 78.1428 95.7465 78.1428 95.3216V92.5601H79.2899V91.9738H78.1428V90.6653H77.4885V91.9738H76.6473V92.5601H77.4885V95.3386C77.4885 96.1459 77.9134 96.5452 78.7716 96.5452ZM84.3446 96.5112V93.7072C84.3446 92.6196 83.7159 91.8889 82.6282 91.8889C81.957 91.8889 81.4387 92.1862 81.0733 92.7895V89.5947H80.4105V96.5112H81.0733V93.9281C81.0733 93.5203 81.2007 93.1804 81.4557 92.9085C81.7106 92.6281 82.0334 92.4921 82.4243 92.4921C83.24 92.4921 83.6819 93.0275 83.6819 93.8687V96.5112H84.3446ZM89.444 91.498V96.5112H90.8205V89.8581H89.6904L87.4302 91.1836L88.042 92.2967L89.444 91.498ZM92.0198 93.1804C92.0198 94.0726 92.2577 94.8968 92.6995 95.5426C93.1499 96.1883 93.9146 96.5962 94.8578 96.5962C96.7696 96.5962 97.7213 94.9053 97.7213 93.1464C97.7213 91.9313 97.3304 90.8947 96.4467 90.2489C96.0134 89.9175 95.4866 89.7561 94.8833 89.7561C94.263 89.7561 93.7277 89.926 93.2858 90.2574C92.844 90.5888 92.5211 91.0052 92.3172 91.5065C92.1217 92.0078 92.0198 92.5686 92.0198 93.1804ZM93.5407 92.2287C93.6342 91.9313 93.7957 91.6594 94.0251 91.43C94.2545 91.1921 94.5349 91.0731 94.8663 91.0731C95.1977 91.0731 95.4781 91.1921 95.7075 91.43C96.3788 92.1013 96.4552 93.2144 96.1918 94.1066C96.0983 94.4125 95.9369 94.6844 95.7075 94.9223C95.4781 95.1517 95.1977 95.2707 94.8663 95.2707C94.5349 95.2707 94.2545 95.1517 94.0251 94.9223C93.3538 94.234 93.2773 93.0954 93.5407 92.2287ZM101.918 89.5862H101.246V96.5112H101.918V89.5862ZM107.958 94.234C107.958 93.6137 107.754 93.0699 107.355 92.6026C106.955 92.1353 106.446 91.8973 105.825 91.8973C105.112 91.8973 104.525 92.2457 104.075 92.951V89.5947H103.412V96.5112H104.066V95.5596C104.483 96.2393 105.069 96.5792 105.825 96.5792C106.446 96.5792 106.955 96.3498 107.355 95.8825C107.754 95.4151 107.958 94.8713 107.958 94.234ZM105.689 95.9929C105.222 95.9929 104.831 95.823 104.525 95.4746C104.219 95.1262 104.066 94.7099 104.066 94.2255C104.066 93.7582 104.219 93.3588 104.534 93.0105C104.848 92.6621 105.231 92.4836 105.689 92.4836C106.174 92.4836 106.556 92.6536 106.845 93.002C107.134 93.3418 107.278 93.7582 107.278 94.251C107.278 94.7523 107.134 95.1687 106.845 95.5001C106.565 95.8315 106.174 95.9929 105.689 95.9929ZM112.488 96.5112H113.219L114.426 92.8235H114.434L115.632 96.5112H116.371L117.901 91.9738H117.213L116.015 95.7465H116.006L114.766 91.9738H114.103L112.871 95.738H112.862L111.673 91.9738H110.967L112.488 96.5112ZM122.782 94.4465C122.791 94.404 122.791 94.3275 122.791 94.2255C122.791 93.5373 122.604 92.985 122.23 92.5516C121.856 92.1183 121.329 91.8973 120.649 91.8973C120.029 91.8973 119.502 92.1268 119.077 92.5941C118.653 93.0614 118.44 93.6052 118.44 94.234C118.44 94.8883 118.661 95.4491 119.103 95.9079C119.545 96.3583 120.089 96.5877 120.743 96.5877C121.559 96.5877 122.281 96.1629 122.663 95.4151L122.17 95.0922C121.907 95.636 121.372 96.0014 120.734 96.0014C120.293 96.0014 119.919 95.857 119.613 95.5596C119.307 95.2622 119.137 94.8883 119.111 94.4465H122.782ZM119.12 93.8857C119.179 93.4948 119.349 93.1634 119.638 92.8915C119.927 92.6111 120.267 92.4751 120.649 92.4751C121.499 92.4751 122.026 93.0359 122.119 93.8857H119.12ZM123.771 90.3509C123.771 90.6228 123.992 90.8437 124.264 90.8437C124.545 90.8437 124.766 90.6228 124.766 90.3509C124.766 90.0705 124.545 89.8496 124.264 89.8496C123.992 89.8496 123.771 90.0705 123.771 90.3509ZM124.604 91.9738H123.933V96.5112H124.604V91.9738ZM129.659 96.5537C129.659 97.6668 128.988 98.2021 128.036 98.2021C127.535 98.2021 127.135 98.0492 126.872 97.7773C126.608 97.5054 126.481 97.3184 126.337 97.0041L125.801 97.3184C126.235 98.2956 126.982 98.7799 128.044 98.7799C129.446 98.7799 130.322 97.9642 130.322 96.5282V91.9738H129.667V92.9255C129.209 92.2372 128.622 91.8973 127.9 91.8973C127.28 91.8973 126.77 92.1268 126.371 92.5941C125.971 93.0614 125.776 93.5968 125.776 94.217C125.776 94.8543 125.971 95.4066 126.362 95.857C126.753 96.3073 127.263 96.5282 127.9 96.5282C128.656 96.5282 129.243 96.1883 129.659 95.5001V96.5537ZM128.036 95.9504C127.552 95.9504 127.169 95.789 126.88 95.4576C126.6 95.1262 126.455 94.7184 126.455 94.234C126.455 93.7327 126.6 93.3164 126.88 92.985C127.161 92.6536 127.552 92.4836 128.036 92.4836C128.495 92.4836 128.877 92.6536 129.192 93.002C129.506 93.3503 129.667 93.7497 129.667 94.2085C129.667 94.6844 129.514 95.0922 129.2 95.4406C128.894 95.7805 128.503 95.9504 128.036 95.9504ZM135.75 96.5112V93.7072C135.75 92.6196 135.121 91.8889 134.034 91.8889C133.362 91.8889 132.844 92.1862 132.479 92.7895V89.5947H131.816V96.5112H132.479V93.9281C132.479 93.5203 132.606 93.1804 132.861 92.9085C133.116 92.6281 133.439 92.4921 133.83 92.4921C134.645 92.4921 135.087 93.0275 135.087 93.8687V96.5112H135.75ZM138.732 96.5452C138.927 96.5452 139.106 96.5197 139.25 96.4772V95.9249C139.157 95.9504 139.021 95.9589 138.842 95.9589C138.35 95.9589 138.103 95.7465 138.103 95.3216V92.5601H139.25V91.9738H138.103V90.6653H137.449V91.9738H136.608V92.5601H137.449V95.3386C137.449 96.1459 137.874 96.5452 138.732 96.5452ZM143.379 95.2197C143.379 94.9393 143.268 94.6844 143.056 94.4719C142.81 94.217 142.41 94.0301 141.866 93.9111C141.025 93.7327 140.804 93.5713 140.804 93.1974C140.804 93.002 140.898 92.8405 141.076 92.6961C141.255 92.5516 141.476 92.4836 141.722 92.4836C142.189 92.4836 142.546 92.7386 142.784 93.2484L143.328 92.951C143.022 92.2457 142.487 91.8973 141.722 91.8973C141.314 91.8973 140.949 92.0248 140.626 92.2797C140.303 92.5346 140.142 92.8575 140.142 93.2484C140.142 93.5118 140.227 93.7327 140.388 93.9281C140.634 94.2085 140.949 94.353 141.569 94.4889C142.393 94.6844 142.708 94.8798 142.708 95.2622C142.708 95.7125 142.257 96.0014 141.739 96.0014C141.204 96.0014 140.796 95.704 140.515 95.1177L139.972 95.4151C140.32 96.1968 140.915 96.5877 141.747 96.5877C142.215 96.5877 142.606 96.4602 142.912 96.2053C143.226 95.9419 143.379 95.619 143.379 95.2197ZM145.003 95.3641C144.663 95.3641 144.391 95.636 144.391 95.9759C144.391 96.3158 144.663 96.5877 145.003 96.5877C145.335 96.5877 145.607 96.3158 145.607 95.9759C145.607 95.636 145.335 95.3641 145.003 95.3641Z" fill="#828282"/>
<path d="M34.2236 97.3609H44.0219V97.7858H34.2236V97.3609ZM87.4047 97.3609H98.1291V97.7858H87.4047V97.3609Z" fill="#828282"/>
<path d="M14.4101 138.872H17.2949C18.0879 138.872 18.7422 138.694 19.2577 138.337C19.7831 137.98 20.0408 137.445 20.0408 136.741C20.0408 136.374 19.9119 135.997 19.6641 135.611C19.4163 135.224 19.0297 134.966 18.5142 134.837C19.0198 134.609 19.3866 134.253 19.5154 133.896C19.6641 133.529 19.6939 133.301 19.6939 133.063C19.6939 132.448 19.4559 131.972 18.99 131.626C18.5241 131.279 17.9293 131.11 17.1957 131.11H14.4101V138.872ZM15.2131 131.854H17.1263C18.1177 131.854 18.8711 132.27 18.8711 133.152C18.8711 133.975 18.2862 134.56 17.0669 134.56H15.2131V131.854ZM15.2131 135.283H17.166C17.8401 135.283 18.425 135.393 18.8711 135.839C19.0991 136.057 19.2081 136.334 19.2081 136.681C19.2081 137.187 19.0198 137.554 18.6331 137.782C18.2564 138.01 17.8203 138.129 17.3147 138.129H15.2131V135.283ZM21.2839 131.685C21.2839 132.002 21.5417 132.26 21.8589 132.26C22.186 132.26 22.4438 132.002 22.4438 131.685C22.4438 131.358 22.186 131.1 21.8589 131.1C21.5417 131.1 21.2839 131.358 21.2839 131.685ZM22.2554 133.578H21.4723V138.872H22.2554V133.578ZM24.4054 136.196C24.4054 135.63 24.5839 135.155 24.9407 134.768C25.3075 134.371 25.7635 134.173 26.3187 134.173C27.191 134.173 27.7362 134.669 27.9742 135.333L28.6483 135.036C28.341 134.153 27.5082 133.489 26.3187 133.489C25.5653 133.489 24.9209 133.757 24.3955 134.282C23.8701 134.808 23.6124 135.462 23.6124 136.225C23.6124 137.008 23.8701 137.663 24.3856 138.188C24.911 138.704 25.5454 138.961 26.3087 138.961C27.5082 138.961 28.341 138.297 28.6681 137.385L27.994 137.088C27.6867 137.881 27.1216 138.277 26.3187 138.277C25.7536 138.277 25.2976 138.069 24.9407 137.663C24.5839 137.256 24.4054 136.761 24.4054 136.196ZM31.5038 138.515L30.1358 141.479H30.9685L34.5967 133.578H33.764L31.9301 137.673L29.9871 133.578H29.0949L31.5038 138.515ZM35.8675 136.196C35.8675 135.63 36.046 135.155 36.4029 134.768C36.7696 134.371 37.2256 134.173 37.7808 134.173C38.6531 134.173 39.1984 134.669 39.4363 135.333L40.1104 135.036C39.8031 134.153 38.9704 133.489 37.7808 133.489C37.0274 133.489 36.383 133.757 35.8576 134.282C35.3322 134.808 35.0745 135.462 35.0745 136.225C35.0745 137.008 35.3322 137.663 35.8477 138.188C36.3731 138.704 37.0076 138.961 37.7709 138.961C38.9704 138.961 39.8031 138.297 40.1302 137.385L39.4561 137.088C39.1488 137.881 38.5838 138.277 37.7808 138.277C37.2157 138.277 36.7597 138.069 36.4029 137.663C36.046 137.256 35.8675 136.761 35.8675 136.196ZM42.1883 130.793H41.4051V138.872H42.1883V130.793ZM48.6109 136.463C48.6208 136.414 48.6208 136.324 48.6208 136.205C48.6208 135.402 48.4027 134.758 47.9665 134.253C47.5303 133.747 46.9157 133.489 46.1227 133.489C45.399 133.489 44.7844 133.757 44.2887 134.302C43.7931 134.847 43.5452 135.482 43.5452 136.215C43.5452 136.979 43.803 137.633 44.3185 138.168C44.8339 138.694 45.4684 138.961 46.2317 138.961C47.1834 138.961 48.026 138.466 48.4721 137.593L47.8971 137.217C47.5898 137.851 46.9653 138.277 46.2218 138.277C45.7063 138.277 45.2701 138.109 44.9133 137.762C44.5564 137.415 44.3581 136.979 44.3284 136.463H48.6109ZM44.3383 135.809C44.4077 135.353 44.6059 134.966 44.943 134.649C45.28 134.322 45.6766 134.163 46.1227 134.163C47.114 134.163 47.7286 134.818 47.8376 135.809H44.3383ZM56.2512 138.951C57.1334 138.951 57.8868 138.723 58.4915 138.257C59.1062 137.792 59.5324 137.226 59.7604 136.562L59.0268 136.215C58.5808 137.435 57.6588 138.178 56.2809 138.178C55.3986 138.178 54.675 137.871 54.1 137.266C53.525 136.661 53.2375 135.888 53.2375 134.966C53.2375 134.044 53.5349 133.291 54.1198 132.696C54.7146 132.101 55.4284 131.804 56.271 131.804C57.0145 131.804 57.6093 131.992 58.0554 132.369C58.5114 132.736 58.8286 133.202 59.0169 133.747L59.7505 133.41C59.5423 132.756 59.1359 132.2 58.5312 131.735C57.9265 131.269 57.183 131.031 56.2908 131.031C55.2103 131.031 54.2883 131.407 53.525 132.161C52.7617 132.904 52.385 133.856 52.385 135.016C52.385 136.166 52.7518 137.108 53.4953 137.851C54.2388 138.585 55.1607 138.951 56.2512 138.951ZM61.0185 133.578V138.872H61.7918V136.285C61.7918 135.74 61.9206 135.283 62.1883 134.897C62.456 134.51 62.8723 134.312 63.4473 134.312C63.5167 134.312 63.6158 134.322 63.7447 134.332V133.509C63.705 133.499 63.6158 133.499 63.4869 133.499C62.8128 133.499 62.1487 133.866 61.7819 134.629V133.578H61.0185ZM64.7249 133.578V136.85C64.7249 138.119 65.4585 138.971 66.7274 138.971C67.5304 138.971 68.1351 138.614 68.5415 137.901V138.872H69.2949V133.578H68.5316V136.602C68.5316 137.078 68.3829 137.474 68.0855 137.792C67.7881 138.109 67.4114 138.267 66.9554 138.267C66.0037 138.267 65.4882 137.643 65.4882 136.661V133.578H64.7249ZM75.6377 138.872V135.601C75.6377 134.332 74.9041 133.479 73.6353 133.479C72.8323 133.479 72.2276 133.836 71.8112 134.55V133.578H71.0479V138.872H71.8211V135.858C71.8211 135.383 71.9698 134.986 72.2672 134.669C72.5646 134.342 72.9413 134.183 73.3973 134.183C74.349 134.183 74.8645 134.808 74.8645 135.789V138.872H75.6377ZM77.7179 136.196C77.7179 135.63 77.8963 135.155 78.2532 134.768C78.62 134.371 79.076 134.173 79.6311 134.173C80.5035 134.173 81.0487 134.669 81.2866 135.333L81.9607 135.036C81.6534 134.153 80.8207 133.489 79.6311 133.489C78.8777 133.489 78.2333 133.757 77.7079 134.282C77.1825 134.808 76.9248 135.462 76.9248 136.225C76.9248 137.008 77.1825 137.663 77.698 138.188C78.2234 138.704 78.8579 138.961 79.6212 138.961C80.8207 138.961 81.6534 138.297 81.9805 137.385L81.3064 137.088C80.9991 137.881 80.4341 138.277 79.6311 138.277C79.0661 138.277 78.61 138.069 78.2532 137.663C77.8963 137.256 77.7179 136.761 77.7179 136.196ZM87.8453 138.872V135.601C87.8453 134.332 87.1117 133.479 85.8428 133.479C85.0597 133.479 84.455 133.826 84.0287 134.53V130.803H83.2555V138.872H84.0287V135.858C84.0287 135.383 84.1774 134.986 84.4748 134.669C84.7722 134.342 85.1489 134.183 85.6049 134.183C86.5566 134.183 87.072 134.808 87.072 135.789V138.872H87.8453Z" fill="black"/>
<path d="M14.9525 143.673H14.2558V150.326H14.9525V143.673ZM18.6751 148.048C18.6751 148.694 18.8705 149.247 19.2614 149.705C19.6607 150.164 20.1706 150.394 20.7993 150.394C21.5556 150.394 22.1504 150.045 22.5667 149.357V150.326H23.2125V143.409H22.5582V146.74C22.0909 146.052 21.5046 145.712 20.7993 145.712C20.1791 145.712 19.6692 145.95 19.2699 146.417C18.8705 146.884 18.6751 147.428 18.6751 148.048ZM20.9353 149.807C20.451 149.807 20.0686 149.637 19.7797 149.306C19.4908 148.966 19.3463 148.55 19.3463 148.065C19.3463 147.564 19.4908 147.139 19.7797 146.808C20.0686 146.468 20.451 146.298 20.9353 146.298C21.3941 146.298 21.7765 146.477 22.0909 146.825C22.4053 147.173 22.5667 147.573 22.5667 148.04C22.5667 148.524 22.4138 148.941 22.0994 149.289C21.7935 149.637 21.4026 149.807 20.9353 149.807ZM24.5538 144.165C24.5538 144.437 24.7747 144.658 25.0466 144.658C25.327 144.658 25.5479 144.437 25.5479 144.165C25.5479 143.885 25.327 143.664 25.0466 143.664C24.7747 143.664 24.5538 143.885 24.5538 144.165ZM25.3865 145.788H24.7152V150.326H25.3865V145.788ZM26.5581 148.048C26.5581 148.694 26.7535 149.247 27.1444 149.705C27.5437 150.164 28.0535 150.394 28.6823 150.394C29.4385 150.394 30.0333 150.045 30.4497 149.357V150.326H31.0955V143.409H30.4412V146.74C29.9739 146.052 29.3876 145.712 28.6823 145.712C28.062 145.712 27.5522 145.95 27.1528 146.417C26.7535 146.884 26.5581 147.428 26.5581 148.048ZM28.8183 149.807C28.3339 149.807 27.9516 149.637 27.6627 149.306C27.3738 148.966 27.2293 148.55 27.2293 148.065C27.2293 147.564 27.3738 147.139 27.6627 146.808C27.9516 146.468 28.3339 146.298 28.8183 146.298C29.2771 146.298 29.6595 146.477 29.9739 146.825C30.2883 147.173 30.4497 147.573 30.4497 148.04C30.4497 148.524 30.2967 148.941 29.9824 149.289C29.6765 149.637 29.2856 149.807 28.8183 149.807ZM36.2629 145.312V150.326H37.6394V143.673H36.5093L34.2491 144.998L34.8609 146.111L36.2629 145.312ZM38.8217 150.326H43.6905V149.068H40.8185L41.9401 148.176C42.5774 147.675 43.0277 147.258 43.2742 146.927C43.5291 146.595 43.6565 146.196 43.6565 145.72C43.6565 145.109 43.4441 144.599 43.0107 144.191C42.5774 143.774 42.0081 143.571 41.2944 143.571C40.7251 143.571 40.2152 143.707 39.7649 143.978C39.323 144.242 39.0256 144.641 38.8642 145.159L40.1303 145.695C40.3512 145.143 40.7335 144.862 41.2859 144.862C41.8297 144.862 42.2375 145.253 42.2375 145.729C42.2375 145.975 42.161 146.196 41.9996 146.4C41.8382 146.604 41.5578 146.876 41.1414 147.216L38.8217 149.119V150.326ZM47.2771 145.788V150.326H47.9399V148.108C47.9399 147.641 48.0503 147.25 48.2798 146.918C48.5092 146.587 48.8661 146.417 49.3589 146.417C49.4184 146.417 49.5033 146.426 49.6138 146.434V145.729C49.5798 145.72 49.5033 145.72 49.3929 145.72C48.8151 145.72 48.2458 146.035 47.9314 146.689V145.788H47.2771ZM54.3579 148.261C54.3664 148.218 54.3664 148.142 54.3664 148.04C54.3664 147.352 54.1795 146.799 53.8056 146.366C53.4317 145.933 52.9049 145.712 52.2252 145.712C51.6049 145.712 51.0781 145.941 50.6532 146.409C50.2284 146.876 50.0159 147.42 50.0159 148.048C50.0159 148.703 50.2369 149.264 50.6787 149.722C51.1206 150.173 51.6644 150.402 52.3186 150.402C53.1344 150.402 53.8566 149.977 54.239 149.23L53.7461 148.907C53.4827 149.45 52.9474 149.816 52.3101 149.816C51.8683 149.816 51.4944 149.671 51.1885 149.374C50.8826 149.077 50.7127 148.703 50.6872 148.261H54.3579ZM50.6957 147.7C50.7552 147.309 50.9251 146.978 51.214 146.706C51.5029 146.426 51.8428 146.29 52.2252 146.29C53.0749 146.29 53.6017 146.85 53.6952 147.7H50.6957ZM60.0545 148.048C60.0545 147.428 59.8506 146.884 59.4512 146.417C59.0519 145.95 58.542 145.712 57.9218 145.712C57.1995 145.712 56.6132 146.069 56.1629 146.774V145.788H55.5086V152.56H56.1714V149.391C56.5962 150.062 57.1825 150.394 57.9218 150.394C58.542 150.394 59.0519 150.164 59.4512 149.697C59.8506 149.23 60.0545 148.686 60.0545 148.048ZM57.7858 149.807C57.3185 149.807 56.9276 149.637 56.6217 149.289C56.3158 148.941 56.1629 148.524 56.1629 148.04C56.1629 147.573 56.3158 147.173 56.6302 146.825C56.9446 146.477 57.327 146.298 57.7858 146.298C58.2701 146.298 58.6525 146.468 58.9414 146.816C59.2303 147.156 59.3748 147.573 59.3748 148.065C59.3748 148.567 59.2303 148.983 58.9414 149.315C58.661 149.646 58.2701 149.807 57.7858 149.807ZM64.2338 149.034C64.2338 148.754 64.1233 148.499 63.9109 148.286C63.6645 148.031 63.2651 147.845 62.7213 147.726C61.8801 147.547 61.6592 147.386 61.6592 147.012C61.6592 146.816 61.7527 146.655 61.9311 146.511C62.1095 146.366 62.3305 146.298 62.5769 146.298C63.0442 146.298 63.4011 146.553 63.639 147.063L64.1828 146.765C63.8769 146.06 63.3416 145.712 62.5769 145.712C62.169 145.712 61.8036 145.839 61.4808 146.094C61.1579 146.349 60.9964 146.672 60.9964 147.063C60.9964 147.326 61.0814 147.547 61.2428 147.743C61.4892 148.023 61.8036 148.167 62.4239 148.303C63.2481 148.499 63.5625 148.694 63.5625 149.077C63.5625 149.527 63.1122 149.816 62.5939 149.816C62.0585 149.816 61.6507 149.518 61.3703 148.932L60.8265 149.23C61.1749 150.011 61.7697 150.402 62.6024 150.402C63.0697 150.402 63.4606 150.275 63.7665 150.02C64.0808 149.756 64.2338 149.433 64.2338 149.034ZM65.6032 151.626C66.2065 151.192 66.5124 150.666 66.5124 150.045V150.011C66.5124 149.51 66.2405 149.179 65.8411 149.179C65.5097 149.179 65.2463 149.442 65.2463 149.782C65.2463 150.122 65.4757 150.343 65.8071 150.343C65.8751 150.343 65.9431 150.326 66.0111 150.3C65.9601 150.649 65.7137 150.988 65.2718 151.32L65.6032 151.626ZM74.2396 148.261C74.2481 148.218 74.2481 148.142 74.2481 148.04C74.2481 147.352 74.0612 146.799 73.6873 146.366C73.3134 145.933 72.7866 145.712 72.1069 145.712C71.4866 145.712 70.9598 145.941 70.5349 146.409C70.1101 146.876 69.8976 147.42 69.8976 148.048C69.8976 148.703 70.1186 149.264 70.5604 149.722C71.0023 150.173 71.5461 150.402 72.2003 150.402C73.0161 150.402 73.7383 149.977 74.1207 149.23L73.6278 148.907C73.3644 149.45 72.8291 149.816 72.1918 149.816C71.75 149.816 71.3761 149.671 71.0702 149.374C70.7643 149.077 70.5944 148.703 70.5689 148.261H74.2396ZM70.5774 147.7C70.6369 147.309 70.8068 146.978 71.0957 146.706C71.3846 146.426 71.7245 146.29 72.1069 146.29C72.9566 146.29 73.4834 146.85 73.5769 147.7H70.5774ZM76.8688 147.709C76.393 147.709 75.9766 147.819 75.6112 148.031C75.2544 148.244 75.0759 148.567 75.0759 149.017V149.068C75.0759 149.45 75.2119 149.773 75.4923 150.028C75.7727 150.275 76.1465 150.402 76.5969 150.402C77.2427 150.402 77.7525 150.113 78.1263 149.527H78.1348V150.326H78.7806V147.394C78.7806 147.114 78.7381 146.867 78.6447 146.646C78.3728 146.026 77.8205 145.712 76.9877 145.712C76.0871 145.712 75.4668 146.103 75.1269 146.884L75.6707 147.19C75.9511 146.595 76.3845 146.298 76.9708 146.298C77.744 146.298 78.1263 146.663 78.1263 147.403V147.709H76.8688ZM78.1263 148.414C78.1263 148.83 77.9904 149.162 77.727 149.425C77.4636 149.688 77.1237 149.816 76.7158 149.816C76.1465 149.816 75.7387 149.518 75.7387 149.017C75.7642 148.422 76.342 148.244 76.8603 148.252H78.1263V148.414ZM80.568 148.031C80.568 147.547 80.721 147.139 81.0269 146.808C81.3413 146.468 81.7321 146.298 82.208 146.298C82.9557 146.298 83.423 146.723 83.627 147.292L84.2048 147.037C83.9414 146.281 83.2276 145.712 82.208 145.712C81.5622 145.712 81.0099 145.941 80.5596 146.392C80.1092 146.842 79.8883 147.403 79.8883 148.057C79.8883 148.728 80.1092 149.289 80.5511 149.739C81.0014 150.181 81.5452 150.402 82.1995 150.402C83.2276 150.402 83.9414 149.833 84.2218 149.051L83.644 148.796C83.3806 149.476 82.8962 149.816 82.208 149.816C81.7236 149.816 81.3328 149.637 81.0269 149.289C80.721 148.941 80.568 148.516 80.568 148.031ZM89.2487 150.326V147.522C89.2487 146.434 88.6199 145.703 87.5323 145.703C86.861 145.703 86.3427 146.001 85.9773 146.604V143.409H85.3146V150.326H85.9773V147.743C85.9773 147.335 86.1048 146.995 86.3597 146.723C86.6146 146.443 86.9375 146.307 87.3284 146.307C88.1441 146.307 88.5859 146.842 88.5859 147.683V150.326H89.2487ZM96.0644 149.034C96.0644 148.754 95.954 148.499 95.7415 148.286C95.4951 148.031 95.0958 147.845 94.552 147.726C93.7107 147.547 93.4898 147.386 93.4898 147.012C93.4898 146.816 93.5833 146.655 93.7617 146.511C93.9402 146.366 94.1611 146.298 94.4075 146.298C94.8748 146.298 95.2317 146.553 95.4696 147.063L96.0134 146.765C95.7075 146.06 95.1722 145.712 94.4075 145.712C93.9996 145.712 93.6343 145.839 93.3114 146.094C92.9885 146.349 92.8271 146.672 92.8271 147.063C92.8271 147.326 92.912 147.547 93.0735 147.743C93.3199 148.023 93.6343 148.167 94.2546 148.303C95.0788 148.499 95.3932 148.694 95.3932 149.077C95.3932 149.527 94.9428 149.816 94.4245 149.816C93.8892 149.816 93.4813 149.518 93.2009 148.932L92.6571 149.23C93.0055 150.011 93.6003 150.402 94.433 150.402C94.9003 150.402 95.2912 150.275 95.5971 150.02C95.9115 149.756 96.0644 149.433 96.0644 149.034ZM97.0855 144.165C97.0855 144.437 97.3064 144.658 97.5783 144.658C97.8587 144.658 98.0796 144.437 98.0796 144.165C98.0796 143.885 97.8587 143.664 97.5783 143.664C97.3064 143.664 97.0855 143.885 97.0855 144.165ZM97.9182 145.788H97.2469V150.326H97.9182V145.788ZM99.0898 148.048C99.0898 148.694 99.2852 149.247 99.6761 149.705C100.075 150.164 100.585 150.394 101.214 150.394C101.97 150.394 102.565 150.045 102.981 149.357V150.326H103.627V143.409H102.973V146.74C102.506 146.052 101.919 145.712 101.214 145.712C100.594 145.712 100.084 145.95 99.6846 146.417C99.2852 146.884 99.0898 147.428 99.0898 148.048ZM101.35 149.807C100.866 149.807 100.483 149.637 100.194 149.306C99.9055 148.966 99.761 148.55 99.761 148.065C99.761 147.564 99.9055 147.139 100.194 146.808C100.483 146.468 100.866 146.298 101.35 146.298C101.809 146.298 102.191 146.477 102.506 146.825C102.82 147.173 102.981 147.573 102.981 148.04C102.981 148.524 102.828 148.941 102.514 149.289C102.208 149.637 101.817 149.807 101.35 149.807ZM109.14 148.261C109.149 148.218 109.149 148.142 109.149 148.04C109.149 147.352 108.962 146.799 108.588 146.366C108.214 145.933 107.687 145.712 107.008 145.712C106.387 145.712 105.861 145.941 105.436 146.409C105.011 146.876 104.799 147.42 104.799 148.048C104.799 148.703 105.019 149.264 105.461 149.722C105.903 150.173 106.447 150.402 107.101 150.402C107.917 150.402 108.639 149.977 109.022 149.23L108.529 148.907C108.265 149.45 107.73 149.816 107.093 149.816C106.651 149.816 106.277 149.671 105.971 149.374C105.665 149.077 105.495 148.703 105.47 148.261H109.14ZM105.478 147.7C105.538 147.309 105.708 146.978 105.997 146.706C106.285 146.426 106.625 146.29 107.008 146.29C107.857 146.29 108.384 146.85 108.478 147.7H105.478ZM110.733 149.179C110.393 149.179 110.121 149.45 110.121 149.79C110.121 150.13 110.393 150.402 110.733 150.402C111.064 150.402 111.336 150.13 111.336 149.79C111.336 149.45 111.064 149.179 110.733 149.179Z" fill="#828282"/>
<path d="M34.2236 151.175H44.1578V151.6H34.2236V151.175Z" fill="#828282"/>
<path d="M16.5018 192.766C17.2552 192.766 17.8599 192.558 18.3159 192.131C18.7719 191.705 18.9999 191.19 18.9999 190.595C18.9999 190.109 18.8215 189.673 18.4646 189.286C18.078 188.86 17.4237 188.533 16.5117 188.305C15.3321 187.998 14.8562 187.621 14.8562 186.917C14.8562 186.53 15.0148 186.213 15.3321 185.965C15.6493 185.718 16.026 185.599 16.4622 185.599C17.3147 185.599 17.9095 186.015 18.2366 186.838L18.9305 186.451C18.5638 185.47 17.7112 184.835 16.482 184.835C15.8079 184.835 15.2329 185.034 14.7571 185.42C14.2813 185.807 14.0433 186.312 14.0433 186.957C14.0433 188.037 14.7769 188.721 16.363 189.108C17.5526 189.395 18.1672 189.861 18.1672 190.654C18.1672 191.051 18.0086 191.378 17.6815 191.626C17.3643 191.874 16.9677 192.003 16.5018 192.003C15.5006 192.003 14.9157 191.467 14.5192 190.506L13.8153 190.872C14.2912 192.131 15.1834 192.766 16.5018 192.766ZM20.3673 187.393V190.664C20.3673 191.933 21.1008 192.786 22.3697 192.786C23.1727 192.786 23.7774 192.429 24.1838 191.715V192.687H24.9372V187.393H24.1739V190.416C24.1739 190.892 24.0252 191.289 23.7278 191.606C23.4304 191.923 23.0537 192.082 22.5977 192.082C21.6461 192.082 21.1306 191.457 21.1306 190.476V187.393H20.3673ZM31.9938 190.03C31.9938 189.306 31.7559 188.672 31.29 188.126C30.8241 187.581 30.2293 187.304 29.5056 187.304C28.663 187.304 27.979 187.72 27.4536 188.543V187.393H26.6902V195.294H27.4635V191.596C27.9591 192.379 28.6431 192.766 29.5056 192.766C30.2293 192.766 30.8241 192.498 31.29 191.953C31.7559 191.408 31.9938 190.773 31.9938 190.03ZM29.347 192.082C28.8018 192.082 28.3458 191.884 27.9889 191.477C27.632 191.071 27.4536 190.585 27.4536 190.02C27.4536 189.475 27.632 189.009 27.9988 188.602C28.3656 188.196 28.8117 187.988 29.347 187.988C29.912 187.988 30.3581 188.186 30.6952 188.592C31.0322 188.989 31.2008 189.475 31.2008 190.05C31.2008 190.634 31.0322 191.12 30.6952 191.507C30.368 191.893 29.912 192.082 29.347 192.082ZM38.0394 190.278C38.0493 190.228 38.0493 190.139 38.0493 190.02C38.0493 189.217 37.8312 188.573 37.395 188.067C36.9588 187.561 36.3442 187.304 35.5512 187.304C34.8275 187.304 34.2129 187.571 33.7172 188.117C33.2216 188.662 32.9737 189.296 32.9737 190.03C32.9737 190.793 33.2315 191.447 33.747 191.983C34.2625 192.508 34.8969 192.776 35.6602 192.776C36.6119 192.776 37.4545 192.28 37.9006 191.408L37.3256 191.031C37.0183 191.665 36.3938 192.092 35.6503 192.092C35.1348 192.092 34.6986 191.923 34.3418 191.576C33.9849 191.229 33.7866 190.793 33.7569 190.278H38.0394ZM33.7668 189.623C33.8362 189.167 34.0345 188.781 34.3715 188.464C34.7086 188.136 35.1051 187.978 35.5512 187.978C36.5425 187.978 37.1571 188.632 37.2662 189.623H33.7668ZM39.3818 187.393V192.687H40.1551V190.099C40.1551 189.554 40.2839 189.098 40.5516 188.711C40.8193 188.325 41.2356 188.126 41.8106 188.126C41.88 188.126 41.9791 188.136 42.108 188.146V187.323C42.0683 187.314 41.9791 187.314 41.8502 187.314C41.1761 187.314 40.5119 187.68 40.1452 188.444V187.393H39.3818ZM47.5194 192.687V189.643C47.5194 189.177 47.6483 188.791 47.9159 188.483C48.1836 188.166 48.5405 188.007 48.9866 188.007C49.9085 188.007 50.3546 188.652 50.3546 189.604V192.687H51.1278V189.415C51.1278 188.146 50.4141 187.304 49.1749 187.304C48.3918 187.304 47.7672 187.651 47.3112 188.354C46.9841 187.651 46.419 187.294 45.6161 187.294C44.8627 187.294 44.3571 187.631 43.911 188.315V187.393H43.1477V192.687H43.9209V189.673C43.9209 189.217 44.0498 188.82 44.3175 188.493C44.5851 188.166 44.942 187.998 45.3881 187.998C46.3001 187.998 46.7561 188.662 46.7561 189.584V192.687H47.5194ZM54.5341 189.633C53.9789 189.633 53.4932 189.762 53.0669 190.01C52.6506 190.258 52.4424 190.634 52.4424 191.16V191.219C52.4424 191.665 52.601 192.042 52.9281 192.34C53.2553 192.627 53.6915 192.776 54.2169 192.776C54.9703 192.776 55.5651 192.439 56.0012 191.755H56.0111V192.687H56.7645V189.266C56.7645 188.939 56.715 188.652 56.6059 188.394C56.2887 187.67 55.6444 187.304 54.6729 187.304C53.6221 187.304 52.8984 187.76 52.5019 188.672L53.1363 189.029C53.4635 188.335 53.969 187.988 54.653 187.988C55.5551 187.988 56.0012 188.414 56.0012 189.276V189.633H54.5341ZM56.0012 190.456C56.0012 190.942 55.8426 191.328 55.5353 191.636C55.228 191.943 54.8315 192.092 54.3556 192.092C53.6915 192.092 53.2156 191.745 53.2156 191.16C53.2454 190.466 53.9195 190.258 54.5242 190.268H56.0012V190.456ZM63.0332 192.687V189.415C63.0332 188.146 62.2997 187.294 61.0308 187.294C60.2278 187.294 59.6231 187.651 59.2068 188.364V187.393H58.4434V192.687H59.2167V189.673C59.2167 189.197 59.3654 188.801 59.6628 188.483C59.9602 188.156 60.3369 187.998 60.7929 187.998C61.7445 187.998 62.26 188.622 62.26 189.604V192.687H63.0332ZM68.6256 192.687H69.4781L70.8858 188.384H70.8957L72.2935 192.687H73.1559L74.9403 187.393H74.1373L72.7396 191.794H72.7297L71.2823 187.393H70.5091L69.0717 191.784H69.0618L67.6739 187.393H66.8511L68.6256 192.687ZM75.8742 185.499C75.8742 185.817 76.132 186.074 76.4492 186.074C76.7763 186.074 77.0341 185.817 77.0341 185.499C77.0341 185.172 76.7763 184.915 76.4492 184.915C76.132 184.915 75.8742 185.172 75.8742 185.499ZM76.8457 187.393H76.0626V192.687H76.8457V187.393ZM80.4431 192.726C80.6711 192.726 80.8792 192.696 81.0478 192.647V192.003C80.9387 192.032 80.7801 192.042 80.5719 192.042C79.997 192.042 79.7095 191.794 79.7095 191.299V188.077H81.0478V187.393H79.7095V185.866H78.9462V187.393H77.9648V188.077H78.9462V191.319C78.9462 192.26 79.4418 192.726 80.4431 192.726ZM86.9449 192.687V189.415C86.9449 188.146 86.2114 187.294 84.9425 187.294C84.1593 187.294 83.5546 187.641 83.1284 188.345V184.617H82.3551V192.687H83.1284V189.673C83.1284 189.197 83.2771 188.801 83.5745 188.483C83.8719 188.156 84.2486 187.998 84.7046 187.998C85.6562 187.998 86.1717 188.622 86.1717 189.604V192.687H86.9449ZM92.4084 192.687V189.653H94.054C94.9561 189.653 95.66 189.425 96.1655 188.979C96.6711 188.523 96.9189 187.948 96.9189 187.254C96.9189 186.6 96.6909 186.045 96.225 185.599C95.7591 185.152 95.085 184.924 94.1928 184.924H91.5956V192.687H92.4084ZM92.4084 185.688H94.1234C94.8273 185.688 95.3229 185.846 95.6302 186.154C95.9375 186.461 96.0862 186.838 96.0862 187.284C96.0862 187.72 95.9177 188.097 95.5807 188.424C95.2436 188.741 94.7479 188.9 94.0838 188.9H92.4084V185.688ZM99.7243 189.633C99.1692 189.633 98.6834 189.762 98.2571 190.01C97.8408 190.258 97.6326 190.634 97.6326 191.16V191.219C97.6326 191.665 97.7912 192.042 98.1184 192.34C98.4455 192.627 98.8817 192.776 99.4071 192.776C100.16 192.776 100.755 192.439 101.191 191.755H101.201V192.687H101.955V189.266C101.955 188.939 101.905 188.652 101.796 188.394C101.479 187.67 100.835 187.304 99.8631 187.304C98.8123 187.304 98.0886 187.76 97.6921 188.672L98.3265 189.029C98.6537 188.335 99.1592 187.988 99.8433 187.988C100.745 187.988 101.191 188.414 101.191 189.276V189.633H99.7243ZM101.191 190.456C101.191 190.942 101.033 191.328 100.726 191.636C100.418 191.943 100.022 192.092 99.5459 192.092C98.8817 192.092 98.4058 191.745 98.4058 191.16C98.4356 190.466 99.1097 190.258 99.7144 190.268H101.191V190.456ZM103.574 187.393V190.664C103.574 191.933 104.308 192.786 105.577 192.786C106.38 192.786 106.984 192.429 107.391 191.715V192.687H108.144V187.393H107.381V190.416C107.381 190.892 107.232 191.289 106.935 191.606C106.637 191.923 106.261 192.082 105.805 192.082C104.853 192.082 104.337 191.457 104.337 190.476V187.393H103.574ZM113.406 191.18C113.406 190.853 113.278 190.555 113.03 190.307C112.742 190.01 112.276 189.792 111.642 189.653C110.66 189.445 110.403 189.257 110.403 188.82C110.403 188.592 110.512 188.404 110.72 188.236C110.928 188.067 111.186 187.988 111.473 187.988C112.019 187.988 112.435 188.285 112.713 188.88L113.347 188.533C112.99 187.71 112.366 187.304 111.473 187.304C110.998 187.304 110.571 187.452 110.195 187.75C109.818 188.047 109.63 188.424 109.63 188.88C109.63 189.187 109.729 189.445 109.917 189.673C110.204 190 110.571 190.169 111.295 190.327C112.257 190.555 112.623 190.783 112.623 191.229C112.623 191.755 112.098 192.092 111.493 192.092C110.869 192.092 110.393 191.745 110.066 191.061L109.431 191.408C109.838 192.32 110.532 192.776 111.503 192.776C112.048 192.776 112.504 192.627 112.861 192.33C113.228 192.022 113.406 191.646 113.406 191.18ZM119.465 190.278C119.475 190.228 119.475 190.139 119.475 190.02C119.475 189.217 119.257 188.573 118.821 188.067C118.384 187.561 117.77 187.304 116.977 187.304C116.253 187.304 115.639 187.571 115.143 188.117C114.647 188.662 114.399 189.296 114.399 190.03C114.399 190.793 114.657 191.447 115.173 191.983C115.688 192.508 116.323 192.776 117.086 192.776C118.038 192.776 118.88 192.28 119.326 191.408L118.751 191.031C118.444 191.665 117.819 192.092 117.076 192.092C116.56 192.092 116.124 191.923 115.767 191.576C115.411 191.229 115.212 190.793 115.183 190.278H119.465ZM115.192 189.623C115.262 189.167 115.46 188.781 115.797 188.464C116.134 188.136 116.531 187.978 116.977 187.978C117.968 187.978 118.583 188.632 118.692 189.623H115.192Z" fill="black"/>
<path d="M107.788 246.128H109.879V241.081H112.411L115.3 246.128H117.662L114.501 240.724C116.285 240.129 117.322 238.77 117.322 236.917C117.322 235.745 116.948 234.776 116.217 233.994C115.487 233.212 114.331 232.822 112.785 232.822H107.788V246.128ZM109.879 234.759H112.564C114.739 234.759 115.198 235.948 115.198 236.968C115.198 238.192 114.416 239.194 112.564 239.194H109.879V234.759ZM128.517 234.708V232.822H120.003V246.128H128.585V244.225H122.093V240.299H127.939V238.413H122.093V234.708H128.517ZM135.129 246.281C136.505 246.281 137.61 245.907 138.426 245.142C139.241 244.378 139.649 243.477 139.649 242.44C139.649 241.472 139.326 240.673 138.698 240.061C138.069 239.432 136.93 238.871 135.282 238.379C133.65 237.886 132.818 237.342 132.818 236.339C132.818 235.269 133.752 234.521 135.044 234.521C136.318 234.521 137.219 235.15 137.729 236.39L139.462 235.456C138.834 233.807 137.338 232.635 135.095 232.635C133.854 232.635 132.818 233.009 131.951 233.756C131.101 234.487 130.676 235.388 130.676 236.458C130.676 237.478 131.016 238.294 131.696 238.888C132.342 239.466 133.379 239.976 134.823 240.435C136.726 241.03 137.491 241.591 137.491 242.559C137.491 243.664 136.522 244.378 135.163 244.378C133.718 244.378 132.563 243.596 132.002 242.168L130.235 243.086C130.982 245.125 132.801 246.281 135.129 246.281ZM140.533 234.759H144.748V246.128H146.838V234.759H151.069V232.822H140.533V234.759Z" fill="black"/>
<path d="M14.9525 197.487H14.2558V204.14H14.9525V197.487ZM18.6751 201.863C18.6751 202.509 18.8705 203.061 19.2614 203.52C19.6607 203.979 20.1706 204.208 20.7993 204.208C21.5556 204.208 22.1504 203.86 22.5667 203.171V204.14H23.2125V197.224H22.5582V200.554C22.0909 199.866 21.5046 199.526 20.7993 199.526C20.1791 199.526 19.6692 199.764 19.2699 200.232C18.8705 200.699 18.6751 201.243 18.6751 201.863ZM20.9353 203.622C20.451 203.622 20.0686 203.452 19.7797 203.12C19.4908 202.781 19.3463 202.364 19.3463 201.88C19.3463 201.379 19.4908 200.954 19.7797 200.622C20.0686 200.282 20.451 200.113 20.9353 200.113C21.3941 200.113 21.7765 200.291 22.0909 200.639C22.4053 200.988 22.5667 201.387 22.5667 201.854C22.5667 202.339 22.4138 202.755 22.0994 203.103C21.7935 203.452 21.4026 203.622 20.9353 203.622ZM24.5538 197.98C24.5538 198.252 24.7747 198.473 25.0466 198.473C25.327 198.473 25.5479 198.252 25.5479 197.98C25.5479 197.699 25.327 197.478 25.0466 197.478C24.7747 197.478 24.5538 197.699 24.5538 197.98ZM25.3865 199.603H24.7152V204.14H25.3865V199.603ZM26.5581 201.863C26.5581 202.509 26.7535 203.061 27.1444 203.52C27.5437 203.979 28.0535 204.208 28.6823 204.208C29.4385 204.208 30.0333 203.86 30.4497 203.171V204.14H31.0955V197.224H30.4412V200.554C29.9739 199.866 29.3876 199.526 28.6823 199.526C28.062 199.526 27.5522 199.764 27.1528 200.232C26.7535 200.699 26.5581 201.243 26.5581 201.863ZM28.8183 203.622C28.3339 203.622 27.9516 203.452 27.6627 203.12C27.3738 202.781 27.2293 202.364 27.2293 201.88C27.2293 201.379 27.3738 200.954 27.6627 200.622C27.9516 200.282 28.3339 200.113 28.8183 200.113C29.2771 200.113 29.6595 200.291 29.9739 200.639C30.2883 200.988 30.4497 201.387 30.4497 201.854C30.4497 202.339 30.2967 202.755 29.9824 203.103C29.6765 203.452 29.2856 203.622 28.8183 203.622ZM34.623 204.14H39.4918V202.883H36.6198L37.7414 201.99C38.3787 201.489 38.829 201.073 39.0754 200.741C39.3303 200.41 39.4578 200.011 39.4578 199.535C39.4578 198.923 39.2454 198.413 38.812 198.005C38.3787 197.589 37.8094 197.385 37.0956 197.385C36.5263 197.385 36.0165 197.521 35.5662 197.793C35.1243 198.056 34.8269 198.456 34.6655 198.974L35.9315 199.509C36.1525 198.957 36.5348 198.677 37.0871 198.677C37.6309 198.677 38.0388 199.067 38.0388 199.543C38.0388 199.79 37.9623 200.011 37.8009 200.215C37.6394 200.418 37.359 200.69 36.9427 201.03L34.623 202.934V204.14ZM43.5007 202.823V204.14H44.8433V202.815H45.7864V201.583H44.8433V197.487H43.2033L40.2209 201.472V202.823H43.5007ZM43.5007 199.101V201.583H41.6484L43.5007 199.101ZM49.2686 199.603V204.14H49.9314V201.922C49.9314 201.455 50.0418 201.064 50.2713 200.733C50.5007 200.401 50.8575 200.232 51.3504 200.232C51.4099 200.232 51.4948 200.24 51.6053 200.249V199.543C51.5713 199.535 51.4948 199.535 51.3844 199.535C50.8066 199.535 50.2373 199.849 49.9229 200.503V199.603H49.2686ZM56.3494 202.075C56.3579 202.033 56.3579 201.956 56.3579 201.854C56.3579 201.166 56.171 200.614 55.7971 200.181C55.4232 199.747 54.8964 199.526 54.2167 199.526C53.5964 199.526 53.0696 199.756 52.6447 200.223C52.2199 200.69 52.0074 201.234 52.0074 201.863C52.0074 202.517 52.2284 203.078 52.6702 203.537C53.112 203.987 53.6559 204.217 54.3101 204.217C55.1258 204.217 55.8481 203.792 56.2305 203.044L55.7376 202.721C55.4742 203.265 54.9389 203.63 54.3016 203.63C53.8598 203.63 53.4859 203.486 53.18 203.188C52.8741 202.891 52.7042 202.517 52.6787 202.075H56.3494ZM52.6872 201.515C52.7467 201.124 52.9166 200.792 53.2055 200.52C53.4944 200.24 53.8343 200.104 54.2167 200.104C55.0664 200.104 55.5932 200.665 55.6866 201.515H52.6872ZM62.046 201.863C62.046 201.243 61.8421 200.699 61.4427 200.232C61.0434 199.764 60.5335 199.526 59.9132 199.526C59.191 199.526 58.6047 199.883 58.1544 200.588V199.603H57.5001V206.375H58.1629V203.205C58.5877 203.877 59.174 204.208 59.9132 204.208C60.5335 204.208 61.0434 203.979 61.4427 203.511C61.8421 203.044 62.046 202.5 62.046 201.863ZM59.7773 203.622C59.31 203.622 58.9191 203.452 58.6132 203.103C58.3073 202.755 58.1544 202.339 58.1544 201.854C58.1544 201.387 58.3073 200.988 58.6217 200.639C58.9361 200.291 59.3185 200.113 59.7773 200.113C60.2616 200.113 60.644 200.282 60.9329 200.631C61.2218 200.971 61.3662 201.387 61.3662 201.88C61.3662 202.381 61.2218 202.798 60.9329 203.129C60.6525 203.46 60.2616 203.622 59.7773 203.622ZM66.2253 202.849C66.2253 202.568 66.1148 202.313 65.9024 202.101C65.656 201.846 65.2566 201.659 64.7128 201.54C63.8716 201.362 63.6507 201.2 63.6507 200.826C63.6507 200.631 63.7441 200.469 63.9226 200.325C64.101 200.181 64.3219 200.113 64.5684 200.113C65.0357 200.113 65.3926 200.367 65.6305 200.877L66.1743 200.58C65.8684 199.875 65.3331 199.526 64.5684 199.526C64.1605 199.526 63.7951 199.654 63.4722 199.909C63.1494 200.164 62.9879 200.486 62.9879 200.877C62.9879 201.141 63.0729 201.362 63.2343 201.557C63.4807 201.837 63.7951 201.982 64.4154 202.118C65.2396 202.313 65.554 202.509 65.554 202.891C65.554 203.341 65.1037 203.63 64.5854 203.63C64.05 203.63 63.6422 203.333 63.3618 202.747L62.818 203.044C63.1663 203.826 63.7611 204.217 64.5938 204.217C65.0612 204.217 65.452 204.089 65.7579 203.834C66.0723 203.571 66.2253 203.248 66.2253 202.849ZM67.8496 202.993C67.5097 202.993 67.2378 203.265 67.2378 203.605C67.2378 203.945 67.5097 204.217 67.8496 204.217C68.181 204.217 68.4529 203.945 68.4529 203.605C68.4529 203.265 68.181 202.993 67.8496 202.993Z" fill="#828282"/>
<path d="M34.2236 204.99H46.1518V205.415H34.2236V204.99Z" fill="#828282"/>
<path d="M77.2392 37.1265H81.8842V41.6157H84.1784V30.5271H81.8842V34.9031H77.2392V30.5271H74.945V41.6157H77.2392V37.1265ZM85.9639 37.8487C85.9639 38.9816 86.3604 39.9163 87.1535 40.6669C87.9465 41.4175 88.9237 41.7857 90.085 41.7857C91.2321 41.7857 92.2092 41.4033 93.0164 40.6527C93.8237 39.888 94.2202 38.9392 94.2202 37.8062C94.2202 36.6875 93.8237 35.7669 93.0306 35.0164C92.2375 34.2658 91.2604 33.8834 90.1133 33.8834C88.9662 33.8834 87.9749 34.2658 87.1677 35.0305C86.3604 35.7811 85.9639 36.7299 85.9639 37.8487ZM88.2298 37.8204C88.2298 37.2681 88.4139 36.8007 88.7679 36.4467C89.122 36.0785 89.561 35.8944 90.085 35.8944C90.6089 35.8944 91.0621 36.0785 91.4162 36.4467C91.7702 36.8007 91.9543 37.2681 91.9543 37.8204C91.9543 38.9533 91.1613 39.7605 90.0991 39.7605C89.5751 39.7605 89.122 39.5764 88.7679 39.2224C88.4139 38.8542 88.2298 38.3869 88.2298 37.8204ZM103.54 38.7834L102.124 34.0534H100.085L98.6688 38.7409H98.6547L97.2951 34.0534H95.0293L97.3801 41.6157H99.5185L101.076 36.7866H101.09L102.634 41.6157H104.801L107.18 34.0534H104.971L103.54 38.7834ZM111.281 32.3115C111.281 31.1785 110.615 30.4421 109.667 30.4421C108.859 30.4421 108.194 31.0936 108.194 31.9291C108.194 32.708 108.732 33.2603 109.454 33.2603C109.638 33.2603 109.808 33.232 109.95 33.1612C109.652 33.8409 109.143 34.4216 108.449 34.9031L109.284 35.6961C110.488 34.8606 111.281 33.6285 111.281 32.3823V32.3115ZM117.844 41.6157H119.982V30.0881H117.787V34.9172H117.759C117.192 34.2516 116.442 33.9118 115.493 33.9118C114.459 33.9118 113.595 34.3083 112.901 35.1155C112.207 35.9086 111.867 36.8149 111.867 37.8204C111.867 38.8825 112.207 39.8172 112.873 40.5961C113.539 41.375 114.402 41.7573 115.465 41.7573C116.527 41.7573 117.32 41.3891 117.815 40.6527H117.844V41.6157ZM117.844 37.8204C117.844 38.3869 117.66 38.8542 117.306 39.2224C116.951 39.5764 116.498 39.7605 115.974 39.7605C115.45 39.7605 114.997 39.5764 114.643 39.2224C114.289 38.8542 114.105 38.3869 114.105 37.8204C114.105 36.7016 114.912 35.9086 115.974 35.9086C117.036 35.9086 117.844 36.7016 117.844 37.8204ZM128.342 41.6157H130.637V37.1265L134.701 30.5271H132.081L129.489 34.9597L126.926 30.5271H124.278L128.342 37.2256V41.6157ZM133.663 37.8487C133.663 38.9816 134.059 39.9163 134.852 40.6669C135.645 41.4175 136.623 41.7857 137.784 41.7857C138.931 41.7857 139.908 41.4033 140.715 40.6527C141.523 39.888 141.919 38.9392 141.919 37.8062C141.919 36.6875 141.523 35.7669 140.73 35.0164C139.936 34.2658 138.959 33.8834 137.812 33.8834C136.665 33.8834 135.674 34.2658 134.867 35.0305C134.059 35.7811 133.663 36.7299 133.663 37.8487ZM135.929 37.8204C135.929 37.2681 136.113 36.8007 136.467 36.4467C136.821 36.0785 137.26 35.8944 137.784 35.8944C138.308 35.8944 138.761 36.0785 139.115 36.4467C139.469 36.8007 139.653 37.2681 139.653 37.8204C139.653 38.9533 138.86 39.7605 137.798 39.7605C137.274 39.7605 136.821 39.5764 136.467 39.2224C136.113 38.8542 135.929 38.3869 135.929 37.8204ZM143.422 34.0534V38.7975C143.422 39.6331 143.663 40.3412 144.13 40.9218C144.612 41.4883 145.306 41.7715 146.198 41.7715C147.104 41.7715 147.812 41.4033 148.308 40.6811H148.322V41.6157H150.503V34.0534H148.294V38.2736C148.294 39.1091 147.826 39.7181 146.934 39.7181C146.042 39.7181 145.631 39.1657 145.631 38.2736V34.0534H143.422ZM166.019 36.0502C166.019 34.3083 165.467 32.9629 164.348 31.9858C163.229 31.0086 161.7 30.5271 159.76 30.5271H156.361V41.6157H159.717C161.657 41.6157 163.187 41.1059 164.32 40.0863C165.453 39.0666 166.019 37.7213 166.019 36.0502ZM163.668 36.0502C163.668 37.1123 163.314 37.9478 162.606 38.5568C161.898 39.1516 160.964 39.449 159.788 39.449H158.655V32.6938H159.816C160.949 32.6938 161.87 32.9912 162.592 33.586C163.314 34.1667 163.668 34.988 163.668 36.0502ZM167.214 37.8487C167.214 38.9816 167.61 39.9163 168.403 40.6669C169.197 41.4175 170.174 41.7857 171.335 41.7857C172.482 41.7857 173.459 41.4033 174.266 40.6527C175.074 39.888 175.47 38.9392 175.47 37.8062C175.47 36.6875 175.074 35.7669 174.281 35.0164C173.488 34.2658 172.51 33.8834 171.363 33.8834C170.216 33.8834 169.225 34.2658 168.418 35.0305C167.61 35.7811 167.214 36.7299 167.214 37.8487ZM169.48 37.8204C169.48 37.2681 169.664 36.8007 170.018 36.4467C170.372 36.0785 170.811 35.8944 171.335 35.8944C171.859 35.8944 172.312 36.0785 172.666 36.4467C173.02 36.8007 173.204 37.2681 173.204 37.8204C173.204 38.9533 172.411 39.7605 171.349 39.7605C170.825 39.7605 170.372 39.5764 170.018 39.2224C169.664 38.8542 169.48 38.3869 169.48 37.8204ZM179.82 32.4248C180.499 32.4248 180.981 32.8638 180.981 33.4869C180.981 33.9118 180.684 34.3791 180.089 34.9031L179.409 35.4979C178.658 36.1635 178.361 36.7016 178.361 37.5088V37.9762H180.514V37.877C180.514 37.1973 180.882 36.7441 181.562 36.1918C182.156 35.7103 182.595 35.2713 182.864 34.8606C183.148 34.4499 183.289 33.9401 183.289 33.3595C183.289 32.4814 182.978 31.7592 182.34 31.2069C181.703 30.6404 180.882 30.3572 179.876 30.3572C178.389 30.3572 177.03 31.1644 176.449 32.4814L178.361 33.4869C178.701 32.7788 179.182 32.4248 179.82 32.4248ZM179.508 39.0241C178.772 39.0241 178.149 39.6614 178.149 40.412C178.149 41.1625 178.772 41.7715 179.508 41.7715C180.287 41.7715 180.896 41.1625 180.896 40.412C180.896 39.6331 180.287 39.0241 179.508 39.0241Z" fill="black"/>
<path d="M96.444 55.695C97.1974 55.695 97.8021 55.4869 98.2581 55.0606C98.7141 54.6343 98.9421 54.1188 98.9421 53.524C98.9421 53.0383 98.7637 52.6021 98.4068 52.2155C98.0202 51.7892 97.3659 51.4621 96.4539 51.2341C95.2742 50.9268 94.7984 50.5501 94.7984 49.8462C94.7984 49.4596 94.957 49.1424 95.2742 48.8946C95.5914 48.6467 95.9681 48.5278 96.4043 48.5278C97.2569 48.5278 97.8517 48.9441 98.1788 49.7669L98.8727 49.3803C98.5059 48.3989 97.6534 47.7645 96.4242 47.7645C95.7501 47.7645 95.1751 47.9627 94.6993 48.3494C94.2234 48.736 93.9855 49.2415 93.9855 49.8859C93.9855 50.9664 94.7191 51.6504 96.3052 52.0371C97.4948 52.3245 98.1094 52.7905 98.1094 53.5835C98.1094 53.98 97.9508 54.3072 97.6237 54.555C97.3064 54.8028 96.9099 54.9317 96.444 54.9317C95.4427 54.9317 94.8579 54.3964 94.4613 53.4348L93.7575 53.8016C94.2333 55.0606 95.1255 55.695 96.444 55.695ZM105.048 53.2068C105.058 53.1573 105.058 53.068 105.058 52.9491C105.058 52.1461 104.84 51.5017 104.404 50.9962C103.967 50.4906 103.353 50.2329 102.56 50.2329C101.836 50.2329 101.221 50.5005 100.726 51.0457C100.23 51.591 99.9823 52.2254 99.9823 52.959C99.9823 53.7223 100.24 54.3766 100.756 54.9119C101.271 55.4373 101.905 55.7049 102.669 55.7049C103.62 55.7049 104.463 55.2093 104.909 54.3369L104.334 53.9602C104.027 54.5947 103.402 55.0209 102.659 55.0209C102.143 55.0209 101.707 54.8524 101.35 54.5054C100.993 54.1585 100.795 53.7223 100.765 53.2068H105.048ZM100.775 52.5525C100.845 52.0965 101.043 51.7099 101.38 51.3927C101.717 51.0656 102.114 50.907 102.56 50.907C103.551 50.907 104.166 51.5612 104.275 52.5525H100.775ZM108.147 55.6554C108.375 55.6554 108.584 55.6256 108.752 55.5761V54.9317C108.643 54.9615 108.484 54.9714 108.276 54.9714C107.701 54.9714 107.414 54.7235 107.414 54.2279V51.0061H108.752V50.3221H107.414V48.7954H106.65V50.3221H105.669V51.0061H106.65V54.2477C106.65 55.1895 107.146 55.6554 108.147 55.6554ZM114.315 48.7161V55.6157H115.128V47.8537H114.335L112.085 49.2118L112.451 49.8264L114.315 48.7161ZM120.759 46.7831H120.005V56.7657H120.759V46.7831ZM128.03 52.4732L130.32 55.6157H131.311L128.912 52.3345C129.527 52.2552 130.033 52.0271 130.439 51.6405C130.845 51.2539 131.044 50.7483 131.044 50.1139C131.044 49.4695 130.816 48.9243 130.35 48.4981C129.894 48.0718 129.22 47.8537 128.318 47.8537H125.631V55.6157H126.444V52.4732H128.03ZM126.444 48.617H128.268C129.626 48.617 130.221 49.2713 130.221 50.1436C130.221 50.5798 130.052 50.9565 129.725 51.2638C129.398 51.5711 128.902 51.7298 128.248 51.7298H126.444V48.617ZM134.762 55.7049C135.535 55.7049 136.189 55.4373 136.715 54.9119C137.24 54.3865 137.508 53.7322 137.508 52.9491C137.508 52.1858 137.24 51.5513 136.715 51.0259C136.189 50.5005 135.545 50.2329 134.782 50.2329C133.998 50.2329 133.344 50.5005 132.819 51.0259C132.293 51.5513 132.036 52.2056 132.036 52.9887C132.036 53.7421 132.293 54.3865 132.819 54.9119C133.344 55.4373 133.998 55.7049 134.762 55.7049ZM134.782 55.0209C134.216 55.0209 133.741 54.8227 133.374 54.4162C133.007 54.0098 132.829 53.5141 132.829 52.9491C132.829 52.384 133.007 51.8983 133.374 51.5017C133.741 51.1052 134.197 50.907 134.762 50.907C135.327 50.907 135.793 51.1151 136.159 51.5216C136.526 51.928 136.715 52.4237 136.715 52.9887C136.715 53.5538 136.526 54.0296 136.159 54.4261C135.793 54.8227 135.337 55.0209 134.782 55.0209ZM138.81 50.3221V53.5934C138.81 54.8623 139.544 55.7149 140.813 55.7149C141.616 55.7149 142.22 55.358 142.627 54.6442V55.6157H143.38V50.3221H142.617V53.3456C142.617 53.8214 142.468 54.218 142.171 54.5352C141.873 54.8524 141.497 55.011 141.041 55.011C140.089 55.011 139.573 54.3865 139.573 53.4051V50.3221H138.81ZM149.723 55.6157V52.3444C149.723 51.0755 148.989 50.2229 147.721 50.2229C146.918 50.2229 146.313 50.5798 145.896 51.2936V50.3221H145.133V55.6157H145.906V52.6021C145.906 52.1263 146.055 51.7298 146.352 51.4125C146.65 51.0854 147.027 50.9268 147.483 50.9268C148.434 50.9268 148.95 51.5513 148.95 52.5327V55.6157H149.723ZM151.02 52.959C151.02 53.7124 151.248 54.3567 151.704 54.8921C152.17 55.4274 152.765 55.695 153.498 55.695C154.381 55.695 155.074 55.2886 155.56 54.4856V55.6157H156.314V47.5464H155.55V51.4324C155.005 50.6294 154.321 50.2329 153.498 50.2329C152.775 50.2329 152.18 50.5104 151.714 51.0557C151.248 51.6009 151.02 52.2353 151.02 52.959ZM153.657 55.011C153.092 55.011 152.646 54.8128 152.309 54.4261C151.972 54.0296 151.803 53.5439 151.803 52.9788C151.803 52.3939 151.972 51.8983 152.309 51.5117C152.646 51.1151 153.092 50.9169 153.657 50.9169C154.192 50.9169 154.638 51.125 155.005 51.5315C155.372 51.9379 155.56 52.4038 155.56 52.9491C155.56 53.5141 155.382 53.9999 155.015 54.4063C154.658 54.8128 154.202 55.011 153.657 55.011ZM162.322 48.7161V55.6157H163.135V47.8537H162.342L160.092 49.2118L160.459 49.8264L162.322 48.7161Z" fill="#757575"/>
<path d="M227.171 14.1621L234.252 21.243M241.333 28.3238L234.252 21.243M234.252 21.243L241.333 14.1621L227.171 28.3238" stroke="#B4B4B4" stroke-width="1.77021"/>
<path d="M232.128 140.496L236.703 145.866L244.873 135.953" stroke="#9CE184" stroke-width="2.12426" stroke-linecap="round"/>
<path d="M203.805 193.603L208.38 198.972L216.55 189.059" stroke="#9CE184" stroke-width="2.12426" stroke-linecap="round"/>
<path d="M234.878 188.433C234.532 188.088 233.972 188.088 233.626 188.433C233.28 188.779 233.28 189.339 233.626 189.685L234.878 188.433ZM244.247 200.306C244.593 200.652 245.153 200.652 245.499 200.306C245.845 199.961 245.845 199.4 245.499 199.054L244.247 200.306ZM245.499 189.685C245.845 189.339 245.845 188.779 245.499 188.433C245.153 188.088 244.593 188.088 244.247 188.433L245.499 189.685ZM233.626 199.054C233.28 199.4 233.28 199.961 233.626 200.306C233.972 200.652 234.532 200.652 234.878 200.306L233.626 199.054ZM233.626 189.685L238.937 194.996L240.188 193.744L234.878 188.433L233.626 189.685ZM238.937 194.996L244.247 200.306L245.499 199.054L240.188 193.744L238.937 194.996ZM240.188 194.996L245.499 189.685L244.247 188.433L238.937 193.744L240.188 194.996ZM244.247 188.433L233.626 199.054L234.878 200.306L245.499 189.685L244.247 188.433Z" fill="#DE683F"/>
<rect x="19.7021" y="308.018" width="212.426" height="35.4043" rx="17.7021" fill="#FFB636"/>
<path d="M70.5147 322.4C69.2543 322.046 68.7303 321.706 68.7303 321.04C68.7303 320.375 69.2968 319.907 70.2031 319.907C71.2228 319.907 71.9167 320.36 72.2991 321.267L74.1967 320.233C73.5594 318.703 72.1574 317.84 70.3023 317.84C69.2401 317.84 68.3196 318.151 67.569 318.788C66.8185 319.412 66.4361 320.205 66.4361 321.182C66.4361 322.003 66.7193 322.683 67.2858 323.235C67.7956 323.745 68.702 324.198 69.9907 324.581C70.8121 324.821 71.3644 325.048 71.6476 325.246C71.945 325.43 72.0866 325.685 72.0866 326.011C72.0866 326.691 71.3785 327.186 70.4014 327.186C69.2826 327.186 68.4188 326.606 67.9797 325.643L65.9971 326.662C66.6627 328.263 68.2488 329.268 70.3306 329.268C71.6051 329.268 72.5965 328.957 73.3187 328.319C74.0409 327.682 74.395 326.846 74.395 325.841C74.395 324.071 73.1629 323.15 70.5147 322.4ZM80.5902 327.229C80.4344 327.271 80.2645 327.285 80.0804 327.285C79.2165 327.285 78.7633 326.946 78.7633 326.082V323.448H80.6327V321.536H78.7633V319.171H76.5824V321.536H75.1946V323.448H76.5541V326.351C76.5541 328.121 77.5879 329.197 79.5564 329.197C79.9246 329.197 80.2645 329.155 80.5902 329.056V327.229ZM84.4166 329.24C85.4221 329.24 86.1727 328.872 86.6825 328.149L86.7108 328.163V329.098H88.7501V324.411C88.7501 322.428 87.4614 321.366 85.4646 321.366C83.8077 321.366 82.6464 321.961 81.995 323.164L83.6802 324.17C84.0626 323.49 84.6149 323.15 85.3654 323.15C86.1585 323.15 86.5833 323.561 86.5833 324.085C86.5833 324.453 86.3851 324.637 85.9886 324.637H85.238C84.3883 324.637 83.6802 324.765 82.9863 325.09C82.3065 325.416 81.8675 326.068 81.8675 326.96V326.988C81.8675 327.668 82.1082 328.22 82.6039 328.631C83.0996 329.041 83.7085 329.24 84.4166 329.24ZM85.0539 327.625C84.4874 327.625 84.0909 327.37 84.0909 326.861C84.0909 326.294 84.6007 325.997 85.238 325.997H86.5692V326.167C86.5692 327.002 86.0027 327.625 85.0539 327.625ZM95.5013 321.507C95.3881 321.465 95.2464 321.451 95.0623 321.451C94.0569 321.451 93.2496 322.003 92.9239 322.697H92.9098V321.536H90.7147V329.098H92.9239V325.898C92.9239 324.538 93.547 323.646 94.9774 323.646C95.1615 323.646 95.3314 323.66 95.5013 323.688V321.507ZM101.404 327.229C101.248 327.271 101.078 327.285 100.894 327.285C100.03 327.285 99.5772 326.946 99.5772 326.082V323.448H101.446V321.536H99.5772V319.171H97.3962V321.536H96.0084V323.448H97.3679V326.351C97.3679 328.121 98.4017 329.197 100.37 329.197C100.738 329.197 101.078 329.155 101.404 329.056V327.229ZM109.195 321.451L114.294 329.098H116.63V318.01H114.364V325.246L109.549 318.01H106.93V329.098H109.195V321.451ZM126.179 325.926C126.193 325.756 126.207 325.487 126.207 325.133C126.207 324.014 125.853 323.094 125.159 322.4C124.465 321.706 123.559 321.352 122.44 321.352C121.35 321.352 120.401 321.734 119.608 322.513C118.829 323.292 118.432 324.212 118.432 325.303C118.432 326.464 118.829 327.413 119.622 328.163C120.429 328.9 121.406 329.268 122.582 329.268C124.125 329.268 125.202 328.702 125.839 327.555L124.239 326.507C123.899 327.059 123.219 327.413 122.554 327.413C121.605 327.413 120.812 326.846 120.684 325.926H126.179ZM120.741 324.467C120.783 324.17 120.953 323.872 121.251 323.589C121.548 323.292 121.93 323.15 122.384 323.15C123.389 323.15 123.941 323.802 123.998 324.467H120.741ZM129.088 329.098L130.547 326.875L131.991 329.098H134.469L131.736 325.246L134.399 321.536H131.963L130.561 323.674L129.201 321.536H126.723L129.357 325.289L126.638 329.098H129.088ZM140.321 327.229C140.165 327.271 139.995 327.285 139.811 327.285C138.947 327.285 138.494 326.946 138.494 326.082V323.448H140.364V321.536H138.494V319.171H136.313V321.536H134.925V323.448H136.285V326.351C136.285 328.121 137.319 329.197 139.287 329.197C139.655 329.197 139.995 329.155 140.321 329.056V327.229ZM154.372 329.098L151.865 324.765C153.381 324.212 154.145 323.136 154.145 321.522C154.145 320.403 153.777 319.539 153.027 318.93C152.29 318.321 151.355 318.01 150.222 318.01H145.847V329.098H148.141V325.119H149.529L151.823 329.098H154.372ZM148.141 320.176H150.038C151.044 320.176 151.823 320.587 151.823 321.564C151.823 322.527 151.016 322.994 150.053 322.994H148.141V320.176ZM155.275 325.331C155.275 326.464 155.672 327.399 156.465 328.149C157.258 328.9 158.235 329.268 159.396 329.268C160.543 329.268 161.52 328.886 162.328 328.135C163.135 327.37 163.531 326.422 163.531 325.289C163.531 324.17 163.135 323.249 162.342 322.499C161.549 321.748 160.571 321.366 159.424 321.366C158.277 321.366 157.286 321.748 156.479 322.513C155.672 323.264 155.275 324.212 155.275 325.331ZM157.541 325.303C157.541 324.751 157.725 324.283 158.079 323.929C158.433 323.561 158.872 323.377 159.396 323.377C159.92 323.377 160.373 323.561 160.727 323.929C161.081 324.283 161.265 324.751 161.265 325.303C161.265 326.436 160.472 327.243 159.41 327.243C158.886 327.243 158.433 327.059 158.079 326.705C157.725 326.337 157.541 325.869 157.541 325.303ZM165.034 321.536V326.28C165.034 327.116 165.275 327.824 165.742 328.404C166.224 328.971 166.918 329.254 167.81 329.254C168.716 329.254 169.424 328.886 169.92 328.163H169.934V329.098H172.115V321.536H169.906V325.756C169.906 326.592 169.439 327.2 168.546 327.2C167.654 327.2 167.244 326.648 167.244 325.756V321.536H165.034ZM181.231 329.098V324.396C181.231 323.547 181.004 322.839 180.537 322.258C180.084 321.677 179.404 321.394 178.497 321.394C178.172 321.394 177.775 321.408 177.11 321.791C176.784 321.975 176.543 322.216 176.359 322.527H176.345V321.536H174.15V329.098H176.359V324.906C176.359 324.071 176.826 323.433 177.719 323.433C178.582 323.433 179.036 324.014 179.036 324.906V329.098H181.231ZM188.718 329.098H190.856V317.571H188.661V322.4H188.633C188.066 321.734 187.316 321.394 186.367 321.394C185.333 321.394 184.469 321.791 183.775 322.598C183.081 323.391 182.741 324.297 182.741 325.303C182.741 326.365 183.081 327.3 183.747 328.079C184.412 328.857 185.276 329.24 186.338 329.24C187.401 329.24 188.194 328.872 188.689 328.135H188.718V329.098ZM188.718 325.303C188.718 325.869 188.533 326.337 188.179 326.705C187.825 327.059 187.372 327.243 186.848 327.243C186.324 327.243 185.871 327.059 185.517 326.705C185.163 326.337 184.979 325.869 184.979 325.303C184.979 324.184 185.786 323.391 186.848 323.391C187.91 323.391 188.718 324.184 188.718 325.303Z" fill="white"/>
<path d="M93.6939 279.45C93.6939 276.678 92.5787 274.893 89.8065 273.746V273.714C92.0688 272.503 93.2159 270.751 93.2159 268.457C93.2159 266.322 92.4193 264.569 90.8262 263.263C89.233 261.957 87.1618 261.287 84.6127 261.287C80.4385 261.287 77.1247 263.231 75.7227 266.672L80.343 268.871C81.2033 267.023 82.5416 266.099 84.4215 266.099C86.6839 266.099 88.0221 267.246 88.0221 268.807C88.0221 270.464 86.7157 271.611 84.5171 271.611H82.1592V276.391H84.8039C87.0981 276.391 88.4682 277.442 88.4682 279.322C88.4682 281.075 87.0025 282.222 84.8039 282.222C82.5416 282.222 80.7253 281.17 79.865 279.354L75.3403 281.68C76.8379 285.153 80.3111 287.002 84.6764 287.002C87.2574 287.002 89.3923 286.301 91.1129 284.867C92.8336 283.433 93.6939 281.617 93.6939 279.45ZM96.8526 274.129C96.8526 277.474 97.7448 280.565 99.4018 282.987C101.091 285.408 103.958 286.938 107.495 286.938C114.665 286.938 118.233 280.597 118.233 274.001C118.233 269.445 116.768 265.557 113.454 263.135C111.829 261.893 109.853 261.287 107.591 261.287C105.265 261.287 103.257 261.925 101.6 263.167C99.9434 264.41 98.7326 265.971 97.9679 267.851C97.235 269.731 96.8526 271.834 96.8526 274.129ZM102.556 270.56C102.907 269.445 103.512 268.425 104.373 267.565C105.233 266.672 106.284 266.226 107.527 266.226C108.77 266.226 109.821 266.672 110.682 267.565C113.199 270.082 113.486 274.256 112.498 277.602C112.147 278.749 111.542 279.768 110.682 280.661C109.821 281.521 108.77 281.967 107.527 281.967C106.284 281.967 105.233 281.521 104.373 280.661C101.855 278.08 101.568 273.81 102.556 270.56ZM142.85 281.489C142.85 278.526 140.588 276.837 136.286 275.945C134.788 275.626 134.055 275.116 134.055 274.383C134.055 273.714 134.82 273.141 135.84 273.141C137.274 273.141 138.293 273.682 138.931 274.766L142.531 272.631C141.416 270.56 139.122 269.19 135.967 269.19C134.183 269.19 132.653 269.699 131.347 270.719C130.072 271.707 129.435 273.013 129.435 274.575C129.435 277.347 131.443 279.195 135.489 280.087C137.656 280.565 138.198 281.075 138.198 281.744C138.198 282.413 137.369 282.987 136.127 282.987C134.278 282.987 133.004 282.286 132.303 280.916L128.639 283.082C130.009 285.695 132.494 287.002 136.063 287.002C140.269 287.002 142.85 284.771 142.85 281.489ZM162.724 279.482C162.756 279.099 162.788 278.494 162.788 277.697C162.788 275.18 161.991 273.109 160.43 271.548C158.868 269.986 156.829 269.19 154.312 269.19C151.858 269.19 149.723 270.05 147.939 271.802C146.187 273.555 145.294 275.626 145.294 278.08C145.294 280.692 146.187 282.827 147.971 284.516C149.787 286.173 151.986 287.002 154.63 287.002C158.104 287.002 160.525 285.727 161.959 283.146L158.359 280.788C157.594 282.031 156.064 282.827 154.567 282.827C152.432 282.827 150.648 281.553 150.361 279.482H162.724ZM150.488 276.2C150.584 275.531 150.966 274.861 151.635 274.224C152.304 273.555 153.165 273.236 154.184 273.236C156.447 273.236 157.689 274.702 157.817 276.2H150.488ZM174.448 287.002C178.24 287.002 181.331 285.185 182.637 281.712L178.24 279.896C177.507 281.585 176.265 282.413 174.48 282.413C172.059 282.413 170.402 280.629 170.402 278.08C170.402 275.435 172.186 273.778 174.48 273.778C176.169 273.778 177.412 274.606 178.145 276.295L182.51 274.479C181.395 271.133 178.272 269.221 174.48 269.221C171.931 269.221 169.764 270.082 167.98 271.802C166.196 273.523 165.303 275.626 165.303 278.143C165.303 280.692 166.164 282.795 167.884 284.484C169.605 286.173 171.804 287.002 174.448 287.002Z" fill="#63C6D4"/>
</g>
<rect x="2.5" y="0.5" width="252.494" height="353.043" rx="10.1213" stroke="black" stroke-opacity="0.2"/>
</g>
<defs>
<filter id="filter0_d" x="0" y="0" width="261.494" height="364.043" filterUnits="userSpaceOnUse" color-interpolation-filters="sRGB">
<feFlood flood-opacity="0" result="BackgroundImageFix"/>
<feColorMatrix in="SourceAlpha" type="matrix" values="0 0 0 0 0 0 0 0 0 0 0 0 0 0 0 0 0 0 127 0"/>
<feOffset dx="2" dy="6"/>
<feGaussianBlur stdDeviation="2"/>
<feColorMatrix type="matrix" values="0 0 0 0 0 0 0 0 0 0 0 0 0 0 0 0 0 0 0.1 0"/>
<feBlend mode="normal" in2="BackgroundImageFix" result="effect1_dropShadow"/>
<feBlend mode="normal" in="SourceGraphic" in2="effect1_dropShadow" result="shape"/>
</filter>
<clipPath id="clip0">
<rect x="2" width="253.494" height="354.043" rx="10.6213" fill="white"/>
</clipPath>
</defs>
</svg>
