<svg width="400" height="109" viewBox="0 0 400 109" fill="none" xmlns="http://www.w3.org/2000/svg">
<path d="M19.2919 91.2044C20.7165 91.8307 22.046 92.1936 23.2804 92.2932C24.5318 92.3797 25.6899 92.013 26.7548 91.193C27.7013 90.4642 28.2602 89.6165 28.4314 88.65C28.6027 87.6834 28.3759 86.7945 27.7512 85.9832C27.1395 85.1887 26.4655 84.698 25.7292 84.5111C24.9929 84.3241 24.2098 84.3213 23.3801 84.5025C22.5542 84.6537 21.7121 84.8714 20.8537 85.1553C20.2971 85.3416 19.6573 85.5247 18.9341 85.7045C18.198 85.8675 17.4417 85.9517 16.6652 85.9573C15.8756 85.946 15.1055 85.7851 14.3549 85.4746C13.6211 85.151 12.9418 84.5836 12.3171 83.7723C11.6403 82.8933 11.2548 81.9381 11.1607 80.9067C11.0665 79.8753 11.2586 78.8658 11.7367 77.8783C12.2019 76.874 12.9331 75.9878 13.9304 75.2199C14.8939 74.478 15.8738 74.0197 16.87 73.8449C17.8702 73.6402 18.8451 73.63 19.7947 73.8143C20.7313 73.9816 21.584 74.2673 22.3529 74.6715L21.322 77.1616C20.7639 76.8913 20.1531 76.675 19.4897 76.5127C18.8262 76.3505 18.1453 76.3228 17.4468 76.4298C16.7653 76.5238 16.078 76.8376 15.385 77.3712C14.4215 78.1131 13.9023 78.8899 13.8272 79.7016C13.7392 80.4964 13.9164 81.1811 14.3589 81.7558C14.9316 82.4995 15.7285 82.9225 16.7496 83.0248C17.7707 83.1271 19.267 82.8499 21.2386 82.1934C21.8421 81.998 22.5099 81.8338 23.2421 81.7008C23.9744 81.5678 24.7229 81.5433 25.4878 81.6275C26.2565 81.6818 27.0124 81.8941 27.7552 82.2644C28.4851 82.6179 29.1624 83.2003 29.7872 84.0116C30.5811 85.0427 31.0089 86.1403 31.0706 87.3044C31.1492 88.4555 30.9371 89.5612 30.4342 90.6215C29.9183 91.665 29.1871 92.5511 28.2405 93.28C27.2771 94.0218 26.225 94.5088 25.0844 94.7409C23.9477 94.943 22.8063 94.9468 21.6603 94.7523C20.5181 94.5278 19.4533 94.1765 18.4658 93.6983L19.2919 91.2044Z" fill="#585799"/>
<path d="M30.9505 63.2109L41.749 56.3384L43.1235 58.4981L34.6197 63.9102L38.056 69.3095L46.0199 64.241L47.3944 66.4007L39.4305 71.4692L43.8976 78.4882L52.4015 73.0761L53.776 75.2358L42.9775 82.1083L30.9505 63.2109Z" fill="#585799"/>
<path d="M54.1479 49.0976L65.5169 43.2166L66.6931 45.4904L57.74 50.1217L60.6806 55.8062L69.0652 51.4689L70.2414 53.7427L61.8568 58.08L65.6795 65.4698L74.6325 60.8385L75.8087 63.1122L64.4398 68.9933L54.1479 49.0976Z" fill="#585799"/>
<path d="M94.5564 30.6536L105.438 26.8733L106.279 29.2915L97.9658 32.1792L100.066 38.2248L108.076 35.4421L108.916 37.8604L100.906 40.6431L104.476 50.9206L101.907 51.8132L94.5564 30.6536Z" fill="#585799"/>
<path d="M120.046 33.8602C119.665 32.2624 119.583 30.7248 119.801 29.2472C120.035 27.744 120.53 26.3755 121.289 25.1418C122.042 23.8874 123.027 22.8191 124.242 21.937C125.452 21.0341 126.846 20.3946 128.423 20.0183C130.02 19.637 131.553 19.5785 133.019 19.8427C134.502 20.0811 135.862 20.5899 137.101 21.369C138.335 22.1274 139.385 23.127 140.251 24.3678C141.133 25.583 141.765 26.9894 142.146 28.5872C142.522 30.1643 142.594 31.7045 142.36 33.2077C142.147 34.706 141.664 36.0823 140.911 37.3368C140.153 38.5705 139.168 39.6388 137.958 40.5416C136.764 41.4188 135.368 42.0479 133.77 42.4292C132.193 42.8055 130.663 42.8744 129.181 42.636C127.693 42.3768 126.333 41.868 125.099 41.1096C123.86 40.3304 122.797 39.3229 121.91 38.0871C121.044 36.8462 120.423 35.4373 120.046 33.8602ZM122.848 33.1918C123.239 34.8311 123.941 36.2099 124.953 37.3281C125.986 38.4414 127.215 39.223 128.638 39.673C130.061 40.1229 131.561 40.1597 133.139 39.7835C134.736 39.4022 136.058 38.692 137.104 37.6529C138.171 36.6088 138.904 35.3593 139.302 33.9044C139.722 32.4445 139.736 30.895 139.345 29.2556C138.954 27.6163 138.241 26.24 137.208 25.1268C136.196 24.0086 134.978 23.2245 133.554 22.7745C132.152 22.3196 130.652 22.2828 129.054 22.664C127.477 23.0403 126.155 23.7505 125.088 24.7946C124.021 25.8387 123.278 27.0907 122.859 28.5505C122.46 30.0054 122.457 31.5525 122.848 33.1918Z" fill="#585799"/>
<path d="M153.406 15.272L159.434 14.4807C160.872 14.2919 162.188 14.3989 163.382 14.8017C164.593 15.1806 165.592 15.824 166.378 16.7321C167.186 17.6374 167.68 18.7775 167.86 20.1523C168.079 21.8233 167.766 23.2846 166.919 24.5362C166.09 25.7638 164.918 26.6707 163.403 27.2569L171.233 35.524L167.902 35.9613L160.549 27.8897L157.852 28.2437L159.018 37.1275L156.321 37.4815L153.406 15.272ZM159.747 16.8603L156.415 17.2976L157.54 25.8641L160.871 25.4268C162.309 25.238 163.424 24.7151 164.215 23.8582C165.025 22.9774 165.341 21.8601 165.163 20.5063C164.983 19.1315 164.389 18.1336 163.382 17.5126C162.397 16.8889 161.185 16.6715 159.747 16.8603Z" fill="#585799"/>
<path d="M209.955 11.8359L212.995 11.8848L205.335 24.4992L205.179 34.1619L202.46 34.1181L202.615 24.4874L195.365 11.6011L198.405 11.65L203.997 22.1093L209.955 11.8359Z" fill="#585799"/>
<path d="M222.649 23.4965C222.845 21.8656 223.301 20.395 224.018 19.0845C224.758 17.7555 225.697 16.6438 226.836 15.7495C227.978 14.834 229.272 14.1732 230.717 13.7671C232.165 13.3397 233.694 13.2229 235.304 13.4167C236.935 13.613 238.392 14.0893 239.677 14.8455C240.984 15.5831 242.084 16.532 242.976 17.6922C243.87 18.8312 244.509 20.1328 244.891 21.597C245.297 23.0426 245.402 24.5808 245.206 26.2117C245.012 27.8214 244.545 29.2908 243.805 30.6199C243.086 31.9515 242.156 33.0751 241.014 33.9905C239.875 34.8848 238.582 35.5456 237.133 35.973C235.709 36.3817 234.181 36.4879 232.55 36.2916C230.941 36.0978 229.482 35.6321 228.174 34.8946C226.869 34.1358 225.769 33.1869 224.875 32.0478C223.983 30.8876 223.335 29.5742 222.932 28.1074C222.549 26.6432 222.455 25.1063 222.649 23.4965ZM225.508 23.8407C225.307 25.514 225.487 27.0505 226.049 28.4504C226.632 29.8528 227.513 31.0118 228.692 31.9272C229.871 32.8427 231.266 33.3973 232.876 33.5911C234.506 33.7874 235.993 33.5795 237.334 32.9674C238.697 32.3579 239.817 31.4399 240.695 30.2134C241.595 28.9894 242.145 27.5408 242.346 25.8676C242.548 24.1943 242.357 22.6565 241.774 21.254C241.212 19.8542 240.341 18.6965 239.162 17.781C238.004 16.8681 236.61 16.3135 234.979 16.1172C233.369 15.9234 231.883 16.1313 230.52 16.7409C229.158 17.3504 228.027 18.2671 227.127 19.4911C226.249 20.7176 225.709 22.1675 225.508 23.8407Z" fill="#585799"/>
<path d="M260.318 17.5812L262.968 18.1935L259.582 32.8474C259.236 34.344 259.363 35.6432 259.962 36.7451C260.562 37.847 261.641 38.578 263.2 38.9382C264.759 39.2984 266.049 39.1149 267.071 38.3876C268.093 37.6603 268.777 36.5484 269.123 35.0519L272.509 20.3979L275.159 21.0103L271.773 35.6642C271.442 37.0984 270.832 38.3151 269.944 39.3142C269.082 40.2974 268.026 40.9838 266.775 41.3737C265.525 41.7635 264.141 41.7831 262.623 41.4325C261.127 41.0867 259.892 40.462 258.918 39.5583C257.966 38.6594 257.307 37.5767 256.943 36.3102C256.604 35.0277 256.601 33.6693 256.932 32.2351L260.318 17.5812Z" fill="#585799"/>
<path d="M288.816 24.8033L294.587 26.7161C295.964 27.1725 297.102 27.8418 298.001 28.724C298.926 29.5927 299.545 30.607 299.858 31.7668C300.19 32.9333 300.138 34.1747 299.702 35.4909C299.172 37.0907 298.253 38.2695 296.946 39.0273C295.665 39.7716 294.215 40.0776 292.596 39.9455L296.045 50.7976L292.855 49.7405L289.751 39.2723L287.169 38.4166L284.35 46.9216L281.768 46.0659L288.816 24.8033ZM293.832 28.9943L290.643 27.9372L287.924 36.1384L291.114 37.1955C292.491 37.6519 293.722 37.6667 294.807 37.2398C295.92 36.7994 296.691 35.9312 297.12 34.6352C297.556 33.319 297.457 32.1622 296.821 31.1648C296.205 30.1742 295.209 29.4506 293.832 28.9943Z" fill="#585799"/>
<path d="M308.959 48.5216C309.101 50.0713 309.426 51.4104 309.937 52.5388C310.467 53.6757 311.348 54.5117 312.581 55.0467C313.677 55.5223 314.689 55.6012 315.618 55.2833C316.546 54.9653 317.215 54.3367 317.622 53.3973C318.021 52.4775 318.125 51.6503 317.932 50.9155C317.739 50.1807 317.363 49.494 316.802 48.8556C316.27 48.2061 315.672 47.5745 315.009 46.9608C314.576 46.5639 314.106 46.0925 313.599 45.5468C313.1 44.9815 312.66 44.3604 312.28 43.6836C311.907 42.9872 311.676 42.2354 311.584 41.4282C311.512 40.6295 311.68 39.7605 312.087 38.8212C312.529 37.8035 313.178 37.0039 314.035 36.4224C314.892 35.8408 315.869 35.5203 316.964 35.4608C318.068 35.3818 319.198 35.5929 320.352 36.0939C321.468 36.578 322.343 37.2137 322.978 38.0009C323.641 38.7771 324.122 39.6252 324.42 40.5454C324.727 41.446 324.89 42.3305 324.908 43.199L322.23 43.5019C322.197 42.8827 322.09 42.2435 321.911 41.5844C321.732 40.9253 321.427 40.3161 320.995 39.7567C320.583 39.2058 319.976 38.7562 319.174 38.408C318.058 37.9239 317.127 37.8454 316.38 38.1726C315.642 38.4802 315.129 38.9666 314.84 39.632C314.466 40.4931 314.482 41.3952 314.887 42.3382C315.291 43.2813 316.258 44.4566 317.787 45.8642C318.25 46.2977 318.717 46.8026 319.187 47.379C319.658 47.9554 320.042 48.5986 320.338 49.3087C320.663 50.0077 320.843 50.7718 320.878 51.6012C320.922 52.4109 320.74 53.2855 320.333 54.2248C319.815 55.4186 319.061 56.3242 318.072 56.9415C317.103 57.5674 316.033 57.9169 314.862 57.99C313.699 58.0435 312.57 57.8325 311.474 57.3569C310.358 56.8728 309.423 56.1879 308.668 55.3021C307.941 54.4052 307.385 53.4082 307.001 52.3112C306.644 51.203 306.436 50.1012 306.377 49.0057L308.959 48.5216Z" fill="#585799"/>
<path d="M339.098 45.1761L350.339 51.2997L349.114 53.5477L340.262 48.7254L337.2 54.3455L345.49 58.8616L344.265 61.1097L335.976 56.5935L331.995 63.8996L340.847 68.722L339.622 70.97L328.382 64.8464L339.098 45.1761Z" fill="#585799"/>
<path d="M362.506 58.589L364.78 60.0821L353.889 76.6657L361.245 81.4963L359.839 83.6361L350.21 77.3124L362.506 58.589Z" fill="#585799"/>
<path d="M381.403 71.517L390.505 78.5778L388.936 80.6006L381.983 75.2069L378.06 80.2638L384.76 85.4614L383.191 87.4841L376.491 82.2866L369.822 90.8833L367.673 89.2162L381.403 71.517Z" fill="#585799"/>
</svg>
